<svg width="12" height="17" viewBox="0 0 12 17" fill="none" xmlns="http://www.w3.org/2000/svg">
<g clip-path="url(#clip0_111_18736)">
<path d="M5.38338 16.0335C0.842813 9.30142 0 8.6105 0 6.13636C0 2.74733 2.68628 0 6 0C9.31372 0 12 2.74733 12 6.13636C12 8.6105 11.1572 9.30142 6.61662 16.0335C6.31866 16.4737 5.68131 16.4737 5.38338 16.0335ZM6 8.69318C7.38072 8.69318 8.5 7.54846 8.5 6.13636C8.5 4.72426 7.38072 3.57955 6 3.57955C4.61928 3.57955 3.5 4.72426 3.5 6.13636C3.5 7.54846 4.61928 8.69318 6 8.69318Z" fill="white"/>
</g>
<defs>
<clipPath id="clip0_111_18736">
<rect width="12" height="16.3636" fill="white"/>
</clipPath>
</defs>
</svg>
