<svg width="360" height="73" viewBox="0 0 360 73" fill="none" xmlns="http://www.w3.org/2000/svg">
<path d="M-212 47.9878L-200.643 45.0061C-189.348 41.7994 -166.572 36.1737 -143.858 29.9853C-121.329 23.797 -98.4306 18.1712 -75.7167 18.0024C-53.3097 18.1712 -30.9028 23.797 -8.1889 36.0049C14.6478 47.9878 37.2389 65.9902 59.9528 56.989C82.6666 47.9878 105.381 11.9829 128.094 5.96331C150.686 0.168777 173.522 23.797 196.236 32.967C218.643 41.7994 241.05 36.1737 263.764 41.9682C286.662 47.9878 309.192 65.9902 331.906 56.989C354.681 47.9878 377.333 11.9829 400.047 5.96331C422.638 0.168777 445.475 23.797 468.189 36.0049C490.657 47.9878 513.617 47.9878 535.717 36.0049C558.676 23.797 581.144 0.168773 603.858 0C626.695 0.168773 649.286 23.797 660.95 36.0049L672 47.9878V138H660.643C649.347 138 626.572 138 603.858 138C581.329 138 558.431 138 535.717 138C513.31 138 490.903 138 468.189 138C445.352 138 422.761 138 400.047 138C377.333 138 354.619 138 331.906 138C309.314 138 286.478 138 263.764 138C241.357 138 218.95 138 196.236 138C173.338 138 150.808 138 128.094 138C105.319 138 82.6666 138 59.9528 138C37.3616 138 14.525 138 -8.1889 138C-30.6572 138 -53.6167 138 -75.7167 138C-98.6761 138 -121.144 138 -143.858 138C-166.695 138 -189.286 138 -200.95 138H-212V47.9878Z" fill="#F5FFFE"/>
</svg>
