<svg width="1583" height="137" viewBox="0 0 1583 137" fill="none" xmlns="http://www.w3.org/2000/svg">
<path d="M142.5 49.3143C86.9 18.1143 24.3333 62.3143 0 88.3143V136.314H1583V47.8142C1512.5 -40.6857 1457 42.8142 1451 54.3142C1445 65.8142 1416 90.8142 1385.5 47.8142C1355 4.81424 1335 -8.18576 1298 4.81424C1261 17.8142 1272.5 93.3142 1224.5 47.8142C1176.5 2.31424 1161 27.8142 1104.5 47.8142C1048 67.8143 1042 59.8142 988.5 27.8142C935 -4.18581 909 68.3142 870 81.8142C831 95.3143 830 68.3141 777.5 59.8142C725 51.3142 738.5 59.8142 693.5 27.8142C648.5 -4.18581 625 49.3143 589 68.3142C553 87.314 476.5 34.3142 441.5 27.8142C406.5 21.3142 327.5 82.3142 303 59.8142C278.5 37.3142 264 35.8142 249.5 49.3143C235 62.8144 212 88.3143 142.5 49.3143Z" fill="#F5FFFE"/>
</svg>
