<svg width="409" height="372" viewBox="0 0 409 372" fill="none" xmlns="http://www.w3.org/2000/svg">
<g filter="url(#filter0_d_724_2622)">
<path opacity="0.7" d="M16.4328 194.25C16.4328 194.25 18.6553 263.223 76.2388 309.206C133.822 355.188 213.621 358.474 278.217 362.852C342.813 367.23 392.436 330.645 399.879 275.37C407.323 220.096 357.997 203.868 331.212 140.939C304.427 78.0095 306.851 57.327 250.187 18.625C193.523 -20.0769 104.873 3.69031 58.4015 69.9722C11.9304 136.254 16.4328 194.25 16.4328 194.25Z" fill="#064E3B"/>
</g>
<path d="M43.3805 104.162V79.4751C43.3805 62.0018 57.9033 47.7855 75.7503 47.7855C93.5973 47.7855 108.12 62.0018 108.12 79.4751V104.162H121.024V79.4751C121.024 55.0373 100.715 35.1499 75.7503 35.1499C50.7856 35.1499 30.4767 55.0373 30.4767 79.4751V104.162H43.3805Z" stroke="#263238" stroke-width="1.16634" stroke-linecap="round" stroke-linejoin="round"/>
<path d="M124.53 104.334H25.6869V186.097H124.53V104.334Z" stroke="#263238" stroke-width="1.16634" stroke-linecap="round" stroke-linejoin="round"/>
<path d="M85.3875 138.295C85.304 135.496 84.1335 132.839 82.1242 130.889C80.1149 128.939 77.4249 127.848 74.6247 127.848C71.8246 127.848 69.1346 128.939 67.1253 130.889C65.116 132.839 63.9455 135.496 63.8619 138.295C63.8735 140.208 64.4057 142.082 65.4014 143.715C66.3971 145.349 67.8188 146.681 69.514 147.568L67.7034 166.133H81.546L79.7355 147.568C81.4306 146.681 82.8523 145.349 83.8481 143.715C84.8438 142.082 85.376 140.208 85.3875 138.295V138.295Z" stroke="#263238" stroke-width="1.16634" stroke-linecap="round" stroke-linejoin="round"/>
<path d="M186.147 188.751L161.536 187.132V186.729L158.509 186.931L155.492 186.729V187.132L130.881 188.751L112.728 338.002H130.881L157.906 219.003H159.122L186.147 338.002H204.3L186.147 188.751Z" fill="#263238" stroke="#263238" stroke-width="1.16634" stroke-linecap="round" stroke-linejoin="round"/>
<path d="M112.728 337.993L108.292 344.852L94.5744 350.906C93.8517 351.305 93.2476 351.889 92.8236 352.597C92.3996 353.306 92.1707 354.114 92.1603 354.939V360.179H131.284C131.514 357.361 131.514 354.529 131.284 351.711C130.881 347.678 130.881 337.993 130.881 337.993H112.728Z" fill="#4C4C4C" stroke="#263238" stroke-width="1.16634" stroke-linecap="round" stroke-linejoin="round"/>
<path d="M92.1603 355.744V360.179H131.284C131.284 360.179 131.466 358.263 131.466 355.744H92.1603Z" fill="#263238" stroke="#263238" stroke-width="1.16634" stroke-linecap="round" stroke-linejoin="round"/>
<path d="M204.224 337.993L208.659 344.852L222.377 350.906C223.1 351.305 223.704 351.889 224.128 352.597C224.552 353.306 224.781 354.114 224.791 354.939V360.179H185.668C185.437 357.361 185.437 354.529 185.668 351.711C186.07 347.678 186.07 337.993 186.07 337.993H204.224Z" fill="#4C4C4C" stroke="#263238" stroke-width="1.16634" stroke-linecap="round" stroke-linejoin="round"/>
<path d="M224.81 355.744V360.179H185.668C185.668 360.179 185.495 358.263 185.486 355.744H224.81Z" fill="#263238" stroke="#263238" stroke-width="1.16634" stroke-linecap="round" stroke-linejoin="round"/>
<path d="M120.459 119.317C120.459 119.317 91.7197 159.705 91.7197 162.665C91.7197 165.625 96.2892 188.483 103.551 190.628C110.812 192.774 114.845 189.019 116.186 181.489C117.527 173.96 112.958 163.202 112.958 163.202L126.369 151.103L120.459 119.317Z" fill="#92E3A9" stroke="#263238" stroke-width="1.16634" stroke-linecap="round" stroke-linejoin="round"/>
<path d="M114.883 180.416C114.883 180.416 123.218 179.066 125.373 179.602C127.529 180.138 129.138 185.254 129.138 185.254C129.138 185.254 129.943 192.784 128.592 194.393C127.241 196.002 120.794 197.89 118.112 198.426C115.429 198.963 109.768 192.784 107.574 189.019C105.38 185.254 109.231 178.797 114.883 180.416Z" fill="#CCCCCC" stroke="#263238" stroke-width="1.16634" stroke-linecap="round" stroke-linejoin="round"/>
<path d="M126.504 117.488L120.459 119.317L129.981 182.879H186.578L195.19 119.681L187.497 116.75L159.103 110.523L126.504 117.488Z" fill="#92E3A9" stroke="#263238" stroke-width="1.16634" stroke-linecap="round" stroke-linejoin="round"/>
<path d="M189.691 138.735L188.417 147.893L178.521 150.269L168.443 146.246L169.181 137.998L189.691 138.735Z" fill="#263238" stroke="#263238" stroke-width="1.16634" stroke-linecap="round" stroke-linejoin="round"/>
<path d="M179.163 147.894C180.126 147.894 180.907 147.113 180.907 146.15C180.907 145.187 180.126 144.406 179.163 144.406C178.2 144.406 177.42 145.187 177.42 146.15C177.42 147.113 178.2 147.894 179.163 147.894Z" fill="#4C4C4C" stroke="#263238" stroke-width="1.16634" stroke-linecap="round" stroke-linejoin="round"/>
<path d="M153.058 122.249L158.375 128.475L151.593 171.699L158.739 183.061L167.169 171.153L160.023 128.657L166.068 122.795L159.659 114.556L153.058 122.249Z" fill="#263238" stroke="#263238" stroke-width="1.16634" stroke-linecap="round" stroke-linejoin="round"/>
<path d="M147.933 111.443L123.572 117.487L124.31 120.419L148.115 113.818L147.933 111.443Z" fill="#263238" stroke="#263238" stroke-width="1.16634" stroke-linecap="round" stroke-linejoin="round"/>
<path d="M167.897 110.705L192.259 116.75L191.53 119.681L167.715 113.09L167.897 110.705Z" fill="#263238" stroke="#263238" stroke-width="1.16634" stroke-linecap="round" stroke-linejoin="round"/>
<path d="M192.239 116.75C192.239 116.75 201.455 118.829 207.097 122.057C212.74 125.285 214.091 132.547 210.862 140.613C207.634 148.679 197.69 147.606 193.121 145.403C188.551 143.199 187.2 135.191 188.005 131.694" fill="#92E3A9"/>
<path d="M192.239 116.75C192.239 116.75 201.455 118.829 207.097 122.057C212.74 125.285 214.091 132.547 210.862 140.613C207.634 148.679 197.69 147.606 193.121 145.403C188.551 143.199 187.2 135.191 188.005 131.694" stroke="#263238" stroke-width="1.16634" stroke-linecap="round" stroke-linejoin="round"/>
<path d="M149.035 108.329L146.286 110.159L147.014 128.657L158.921 120.237L171.375 128.839L172.476 110.523L169.181 107.774L149.035 108.329Z" fill="#92E3A9" stroke="#263238" stroke-width="1.16634" stroke-linecap="round" stroke-linejoin="round"/>
<path d="M173.08 86.3246C173.08 86.3246 179.843 84.6769 181.117 77.9136C182.391 71.1504 170.206 62.9214 161.757 61.4653C153.307 60.0092 140.921 68.7746 138.909 74.8098C136.897 80.845 144.753 86.8706 153.164 88.1543C161.575 89.438 173.08 86.3246 173.08 86.3246Z" fill="#263238" stroke="#263238" stroke-width="1.16634" stroke-linecap="round" stroke-linejoin="round"/>
<path d="M147.866 87.4263C147.866 87.4263 144.207 81.7551 143.297 86.6886C142.387 91.6222 146.218 93.8159 147.866 93.6339C149.514 93.4519 147.866 87.4263 147.866 87.4263Z" fill="#CCCCCC" stroke="#263238" stroke-width="1.16634" stroke-linecap="round" stroke-linejoin="round"/>
<path d="M171.633 87.4263C171.633 87.4263 175.293 81.7551 176.203 86.6886C177.113 91.6222 173.329 93.8159 171.633 93.6339C169.938 93.4519 171.633 87.4263 171.633 87.4263Z" fill="#CCCCCC" stroke="#263238" stroke-width="1.16634" stroke-linecap="round" stroke-linejoin="round"/>
<path d="M148.671 98.6155V110.705L158.921 120.237L170.465 110.341V98.9891L148.671 98.6155Z" fill="#CCCCCC" stroke="#263238" stroke-width="1.16634" stroke-linecap="round" stroke-linejoin="round"/>
<path d="M147.138 83.767C147.138 83.767 146.583 95.0997 147.502 98.7592C148.422 102.419 154.447 110.092 159.199 111.74C163.951 113.387 170.532 103.511 171.997 100.244C173.463 96.9774 172.908 83.0581 172.908 83.0581C172.908 83.0581 170.905 78.2682 166.882 76.8504C162.858 75.4326 150.424 72.8461 147.138 83.767Z" fill="#CCCCCC" stroke="#263238" stroke-width="1.16634" stroke-linecap="round" stroke-linejoin="round"/>
<path d="M154.735 89.7832C154.735 90.6453 154.342 91.3447 153.853 91.3447C153.365 91.3447 152.972 90.6453 152.972 89.7832C152.972 88.921 153.365 88.2217 153.853 88.2217C154.342 88.2217 154.735 88.921 154.735 89.7832Z" fill="#263238"/>
<path d="M165.953 89.7832C165.953 90.6453 165.56 91.3447 165.071 91.3447C164.583 91.3447 164.19 90.6453 164.19 89.7832C164.19 88.921 164.583 88.2217 165.071 88.2217C165.56 88.2217 165.953 88.921 165.953 89.7832Z" fill="#263238"/>
<path d="M156.641 94.1514C156.461 94.1084 156.273 94.1068 156.093 94.1467C155.912 94.1865 155.742 94.2669 155.597 94.3816C155.451 94.4964 155.334 94.6426 155.253 94.8093C155.172 94.976 155.13 95.1589 155.13 95.3441C155.13 95.5294 155.172 95.7122 155.253 95.8789C155.334 96.0456 155.451 96.1918 155.597 96.3066C155.742 96.4214 155.912 96.5017 156.093 96.5416C156.273 96.5814 156.461 96.5798 156.641 96.5368C157.026 96.5449 157.402 96.4197 157.705 96.1823C157.988 96.5152 158.338 96.7839 158.734 96.9705C159.129 97.1572 159.559 97.2574 159.996 97.2647C160.433 97.272 160.866 97.186 161.267 97.0126C161.668 96.8392 162.028 96.5823 162.322 96.259C162.607 96.4439 162.94 96.5406 163.28 96.5368C163.46 96.5798 163.648 96.5814 163.829 96.5416C164.01 96.5017 164.179 96.4214 164.324 96.3066C164.47 96.1918 164.587 96.0456 164.668 95.8789C164.749 95.7122 164.791 95.5294 164.791 95.3441C164.791 95.1589 164.749 94.976 164.668 94.8093C164.587 94.6426 164.47 94.4964 164.324 94.3816C164.179 94.2669 164.01 94.1865 163.829 94.1467C163.648 94.1068 163.46 94.1084 163.28 94.1514" fill="#CCCCCC"/>
<path d="M156.641 94.1514C156.461 94.1084 156.273 94.1068 156.093 94.1467C155.912 94.1865 155.742 94.2669 155.597 94.3816C155.451 94.4964 155.334 94.6426 155.253 94.8093C155.172 94.976 155.13 95.1589 155.13 95.3441C155.13 95.5294 155.172 95.7122 155.253 95.8789C155.334 96.0456 155.451 96.1918 155.597 96.3066C155.742 96.4214 155.912 96.5017 156.093 96.5416C156.273 96.5814 156.461 96.5798 156.641 96.5368C157.026 96.5449 157.402 96.4197 157.705 96.1823C157.988 96.5152 158.338 96.7839 158.734 96.9705C159.129 97.1572 159.559 97.2574 159.996 97.2647C160.433 97.272 160.866 97.186 161.267 97.0126C161.668 96.8392 162.028 96.5823 162.322 96.259C162.607 96.4439 162.94 96.5406 163.28 96.5368C163.46 96.5798 163.648 96.5814 163.829 96.5416C164.01 96.5017 164.179 96.4214 164.324 96.3066C164.47 96.1918 164.587 96.0456 164.668 95.8789C164.749 95.7122 164.791 95.5294 164.791 95.3441C164.791 95.1589 164.749 94.976 164.668 94.8093C164.587 94.6426 164.47 94.4964 164.324 94.3816C164.179 94.2669 164.01 94.1865 163.829 94.1467C163.648 94.1068 163.46 94.1084 163.28 94.1514" stroke="#263238" stroke-width="1.16634" stroke-linecap="round" stroke-linejoin="round"/>
<path d="M158.097 101.652H161.92" stroke="#263238" stroke-width="1.16634" stroke-linecap="round" stroke-linejoin="round"/>
<path d="M146.717 86.5162C146.717 86.5162 146.851 90.1948 148.077 89.2368C149.303 88.2789 149.706 82.0329 148.623 81.2186C147.541 80.4044 146.717 84.6194 146.717 86.5162Z" fill="#263238" stroke="#263238" stroke-width="1.16634" stroke-linecap="round" stroke-linejoin="round"/>
<path d="M170.311 86.5162C170.311 86.5162 170.455 90.1948 171.672 89.2368C172.888 88.2789 173.31 82.0329 172.218 81.2186C171.126 80.4044 170.311 84.6194 170.311 86.5162Z" fill="#263238" stroke="#263238" stroke-width="1.16634" stroke-linecap="round" stroke-linejoin="round"/>
<path d="M146.717 83.5274C146.717 83.5274 147.129 83.8627 147.119 84.0255C148.891 84.9835 152.963 86.7462 159.573 87.1006C164.26 87.2625 168.902 86.1254 172.984 83.8148C172.984 83.3262 172.984 83.0388 172.984 83.0292C172.821 78.7471 169.641 75.8924 165.704 74.8003C161.833 73.7347 157.723 73.9395 153.978 75.3846C152.079 76.1009 150.403 77.3073 149.121 78.8812C148.633 79.4177 146.046 82.9909 146.717 83.5274Z" fill="#4C4C4C" stroke="#263238" stroke-width="1.16634" stroke-linecap="round" stroke-linejoin="round"/>
<path d="M147.138 83.7671C151.224 84.6707 155.418 84.9772 159.592 84.6772C167.457 84.3131 172.927 83.7671 172.927 83.7671C169.312 87.1552 164.647 89.2039 159.707 89.5724C157.294 89.7291 154.88 89.2801 152.685 88.2662C150.49 87.2523 148.583 85.7057 147.138 83.7671Z" fill="#4C4C4C" stroke="#263238" stroke-width="1.16634" stroke-linecap="round" stroke-linejoin="round"/>
<path d="M127.059 138.735L128.333 147.893L138.229 150.269L148.297 146.246L147.569 137.998L127.059 138.735Z" fill="#263238" stroke="#263238" stroke-width="1.16634" stroke-linecap="round" stroke-linejoin="round"/>
<path d="M137.587 147.894C138.55 147.894 139.331 147.113 139.331 146.15C139.331 145.187 138.55 144.406 137.587 144.406C136.624 144.406 135.844 145.187 135.844 146.15C135.844 147.113 136.624 147.894 137.587 147.894Z" fill="#4C4C4C" stroke="#263238" stroke-width="1.16634" stroke-linecap="round" stroke-linejoin="round"/>
<path d="M187.22 182.294H129.138V191.433H187.22V182.294Z" fill="#4C4C4C" stroke="#263238" stroke-width="1.16634" stroke-linecap="round" stroke-linejoin="round"/>
<path d="M140.298 182.831H127.663C126.25 182.831 125.105 183.976 125.105 185.388V191.567C125.105 192.98 126.25 194.125 127.663 194.125H140.298C141.711 194.125 142.856 192.98 142.856 191.567V185.388C142.856 183.976 141.711 182.831 140.298 182.831Z" fill="#4C4C4C" stroke="#263238" stroke-width="1.16634" stroke-linecap="round" stroke-linejoin="round"/>
<path d="M186.549 182.831H173.913C172.501 182.831 171.356 183.976 171.356 185.388V191.567C171.356 192.98 172.501 194.125 173.913 194.125H186.549C187.962 194.125 189.107 192.98 189.107 191.567V185.388C189.107 183.976 187.962 182.831 186.549 182.831Z" fill="#4C4C4C" stroke="#263238" stroke-width="1.16634" stroke-linecap="round" stroke-linejoin="round"/>
<path d="M165.435 182.831H152.8V190.897H165.435V182.831Z" fill="white" stroke="#263238" stroke-width="1.16634" stroke-linecap="round" stroke-linejoin="round"/>
<path d="M112.996 163.202C112.996 163.202 104.93 162.665 101.97 157.55" stroke="#263238" stroke-width="1.16634" stroke-linecap="round" stroke-linejoin="round"/>
<path d="M202.681 139.54C210.035 139.54 215.997 133.278 215.997 125.553C215.997 117.829 210.035 111.567 202.681 111.567C195.327 111.567 189.365 117.829 189.365 125.553C189.365 133.278 195.327 139.54 202.681 139.54Z" fill="#92E3A9" stroke="#263238" stroke-width="1.16634" stroke-linecap="round" stroke-linejoin="round"/>
<path d="M202.681 127.814C208.438 127.814 213.104 123.633 213.104 118.474C213.104 113.316 208.438 109.134 202.681 109.134C196.925 109.134 192.259 113.316 192.259 118.474C192.259 123.633 196.925 127.814 202.681 127.814Z" fill="#92E3A9" stroke="#263238" stroke-width="1.16634" stroke-linecap="round" stroke-linejoin="round"/>
<path d="M202.681 120.946C208.438 120.946 213.104 116.764 213.104 111.606C213.104 106.447 208.438 102.265 202.681 102.265C196.925 102.265 192.259 106.447 192.259 111.606C192.259 116.764 196.925 120.946 202.681 120.946Z" fill="#CCCCCC" stroke="#263238" stroke-width="1.16634" stroke-linecap="round" stroke-linejoin="round"/>
<path d="M185.936 91.469C185.936 91.469 186.118 105.245 186.817 109.306C187.517 113.368 190.352 118.666 194.242 118.666C196.832 118.602 199.397 118.126 201.838 117.258C201.838 117.258 206.427 119.729 210.843 119.02C215.259 118.311 214.55 112.132 214.55 109.441C214.55 106.749 214.024 86.8324 214.024 86.8324C214.024 86.8324 214.378 84.9165 212.606 84.5429C211.737 84.3472 210.852 84.2285 209.962 84.1884V79.9446C209.636 79.4586 209.183 79.0707 208.653 78.8226C208.123 78.5745 207.536 78.4755 206.954 78.5364C204.664 78.5364 204.482 79.0633 204.482 79.0633V75.1739C204.482 75.1739 202.566 72.0797 200.066 73.5837C199.562 73.873 199.137 74.2824 198.83 74.7754C198.522 75.2685 198.341 75.8299 198.303 76.4097L198.121 80.1267C198.121 80.1267 193.887 78.5364 193.533 81.008C193.178 83.4796 192.469 98.7113 192.469 98.7113C192.218 96.3164 191.747 93.9497 191.061 91.6414C190.18 89.3423 185.936 89.3423 185.936 91.469Z" fill="#CCCCCC" stroke="#263238" stroke-width="1.16634" stroke-linecap="round" stroke-linejoin="round"/>
<path d="M198.121 80.1648L198.476 96.412" stroke="#263238" stroke-width="1.16634" stroke-linecap="round" stroke-linejoin="round"/>
<path d="M204.482 79.1016L204.664 96.5845" stroke="#263238" stroke-width="1.16634" stroke-linecap="round" stroke-linejoin="round"/>
<path d="M209.962 84.2268L209.607 96.4122" stroke="#263238" stroke-width="1.16634" stroke-linecap="round" stroke-linejoin="round"/>
<path d="M195.832 96.2397L211.907 96.9391" stroke="#263238" stroke-width="1.16634" stroke-linecap="round" stroke-linejoin="round"/>
<path d="M192.469 98.7112C192.474 99.3779 192.633 100.034 192.934 100.629C193.235 101.224 193.669 101.742 194.203 102.141C195.947 103.233 199.874 106.068 200.305 110.647" stroke="#263238" stroke-width="1.16634" stroke-linecap="round" stroke-linejoin="round"/>
<path d="M298.574 55.4207V57.5186H293.468V64.9525H299.743V67.0983H291.121V46.2146H299.743V48.3317H293.468V55.459L298.574 55.4207Z" fill="#F5FFFE"/>
<path d="M306.525 46.1763C309.801 46.1763 311.181 47.8431 311.181 50.9661V52.6713C311.181 54.9704 310.376 56.3978 308.585 56.963C310.501 57.5282 311.21 59.0801 311.21 61.3218V64.5788C311.141 65.4334 311.282 66.2917 311.622 67.0791H309.265C308.939 66.2784 308.807 65.4116 308.882 64.5501V61.2643C308.882 58.9077 307.78 58.1605 305.835 58.1605H304.197V67.0983H301.869V46.2146L306.525 46.1763ZM305.922 56.0242C307.78 56.0242 308.882 55.4207 308.882 53.1503V51.1481C308.882 49.2322 308.192 48.2742 306.468 48.2742H304.197V56.005L305.922 56.0242Z" fill="#F5FFFE"/>
<path d="M318.279 46.1763C321.565 46.1763 322.935 47.8431 322.935 50.9661V52.6713C322.935 54.9704 322.13 56.3978 320.339 56.963C322.255 57.5282 322.964 59.0801 322.964 61.3218V64.5788C322.894 65.4344 323.038 66.2939 323.385 67.0791H321.029C320.698 66.2796 320.563 65.4124 320.636 64.5501V61.2643C320.636 58.9077 319.534 58.1605 317.59 58.1605H315.952V67.0983H313.624V46.2146L318.279 46.1763ZM317.733 56.0242C319.582 56.0242 320.684 55.4207 320.684 53.1503V51.1481C320.684 49.2322 320.004 48.2742 318.27 48.2742H315.999V56.005L317.733 56.0242Z" fill="#F5FFFE"/>
<path d="M325.205 51.2152C325.205 48.0252 326.786 45.9656 329.995 45.9656C333.204 45.9656 334.785 48.0252 334.785 51.2152V62.0211C334.785 65.1824 333.204 67.2708 329.995 67.2708C326.786 67.2708 325.205 65.1824 325.205 62.0211V51.2152ZM327.505 62.1361C327.505 64.052 328.309 65.1537 329.976 65.1537C331.643 65.1537 332.457 64.052 332.457 62.1361V51.1003C332.457 49.1844 331.681 48.0827 329.976 48.0827C328.271 48.0827 327.505 49.2131 327.505 51.1003V62.1361Z" fill="#F5FFFE"/>
<path d="M341.683 46.1763C344.968 46.1763 346.338 47.8431 346.338 50.9661V52.6713C346.338 54.9704 345.534 56.3978 343.742 56.963C345.658 57.5282 346.367 59.0801 346.367 61.3218V64.5788C346.297 65.4344 346.442 66.2939 346.789 67.0791H344.432C344.101 66.2796 343.966 65.4124 344.039 64.5501V61.2643C344.039 58.9077 342.938 58.1605 340.993 58.1605H339.355V67.0983H336.989V46.2146L341.683 46.1763ZM341.089 56.0242C342.938 56.0242 344.039 55.4207 344.039 53.1503V51.1481C344.039 49.2322 343.359 48.2742 341.625 48.2742H339.355V56.005L341.089 56.0242Z" fill="#F5FFFE"/>
<path d="M278.821 185.771V187.889H274.031V196.932H271.703V176.048H279.999V178.165H274.031V185.771H278.821Z" fill="#F5FFFE"/>
<path d="M281.647 181.097C281.647 177.907 283.237 175.847 286.436 175.847C289.636 175.847 291.226 177.907 291.226 181.097V191.902C291.226 195.064 289.646 197.152 286.436 197.152C283.227 197.152 281.647 195.064 281.647 191.902V181.097ZM283.946 192.017C283.946 193.933 284.75 195.035 286.427 195.035C288.103 195.035 288.898 193.933 288.898 192.017V180.972C288.898 179.056 288.122 177.954 286.427 177.954C284.731 177.954 283.946 179.085 283.946 180.972V192.017Z" fill="#F5FFFE"/>
<path d="M298.095 176.048C301.371 176.048 302.751 177.715 302.751 180.838V182.543C302.751 184.842 301.946 186.27 300.155 186.835C302.07 187.4 302.779 188.952 302.779 191.194V194.451C302.709 195.306 302.854 196.166 303.201 196.951H300.844C300.509 196.153 300.374 195.284 300.452 194.422V191.136C300.452 188.78 299.35 188.032 297.405 188.032H295.767V196.951H293.439V176.067L298.095 176.048ZM297.501 185.886C299.35 185.886 300.452 185.283 300.452 183.013V181.01C300.452 179.094 299.762 178.136 298.037 178.136H295.767V185.886H297.501Z" fill="#F5FFFE"/>
<path d="M309.878 176.048C313.135 176.048 314.419 177.6 314.419 180.675V181.633C314.419 183.846 313.786 185.216 311.966 185.781C313.997 186.356 314.773 187.965 314.773 190.264V192.017C314.773 195.159 313.25 196.913 309.983 196.913H305.193V176.029L309.878 176.048ZM309.313 184.909C311.162 184.909 312.12 184.315 312.12 182.131V180.905C312.12 179.056 311.487 178.165 309.82 178.165H307.521V184.871L309.313 184.909ZM310.002 194.815C311.698 194.815 312.474 193.924 312.474 191.941V190.092C312.474 187.764 311.516 186.988 309.552 186.988H307.521V194.776L310.002 194.815Z" fill="#F5FFFE"/>
<path d="M319.218 176.048V196.932H316.89V176.048H319.218Z" fill="#F5FFFE"/>
<path d="M326.499 176.048C329.756 176.048 331.289 177.964 331.289 181.24V191.778C331.289 194.978 329.794 196.941 326.499 196.941H321.613V176.058L326.499 176.048ZM326.499 194.815C328.175 194.815 328.98 193.771 328.98 191.864V181.097C328.98 179.181 328.175 178.146 326.47 178.146H323.96V194.796L326.499 194.815Z" fill="#F5FFFE"/>
<path d="M338.32 176.048C341.568 176.048 343.062 177.964 343.062 181.24V191.778C343.062 194.978 341.568 196.941 338.32 196.941H333.425V176.058L338.32 176.048ZM338.32 194.815C339.987 194.815 340.792 193.771 340.792 191.864V181.097C340.792 179.181 339.987 178.146 338.291 178.146H335.781V194.796L338.32 194.815Z" fill="#F5FFFE"/>
<path d="M352.67 185.293V187.381H347.564V194.815H353.839V196.932H345.217V176.048H353.839V178.165H347.564V185.293H352.67Z" fill="#F5FFFE"/>
<path d="M358.045 196.932H355.956V176.048H358.926L363.716 191.146V176.048H365.775V196.932H363.352L358.016 180.043L358.045 196.932Z" fill="#F5FFFE"/>
<path d="M256.941 131.531L278.255 81.1326H291.044V131.531H296.581V142.184H291.044V155.71H279.549V142.184H256.941V131.531ZM279.53 131.531V103.501L267.708 131.522L279.53 131.531Z" fill="#F5FFFE"/>
<path d="M300.95 99.0275C300.95 87.1008 307.234 80.28 318.739 80.28C330.244 80.28 336.538 87.1008 336.538 99.0275V137.816C336.538 149.752 330.244 156.563 318.739 156.563C307.234 156.563 300.95 149.752 300.95 137.816V99.0275ZM312.666 138.563C312.666 143.889 315.013 145.91 318.739 145.91C322.466 145.91 324.813 143.889 324.813 138.563V98.3282C324.813 92.9923 322.475 90.971 318.739 90.971C315.003 90.971 312.666 92.9923 312.666 98.3282V138.563Z" fill="#F5FFFE"/>
<path d="M366.686 99.4586C366.686 92.7528 364.348 90.9327 360.612 90.9327C356.876 90.9327 354.539 92.954 354.539 98.2899V103.08H343.464V99.0275C343.464 87.1008 349.423 80.28 360.938 80.28C372.453 80.28 378.411 87.1008 378.411 99.0275V100.943C378.411 108.933 375.853 113.943 370.201 116.271C376.064 118.829 378.411 124.366 378.411 131.934V137.797C378.411 149.733 372.443 156.544 360.938 156.544C349.433 156.544 343.464 149.733 343.464 137.797V131.618H354.539V138.544C354.539 143.87 356.886 145.891 360.612 145.891C364.339 145.891 366.686 144.081 366.686 137.48V131.618C366.686 124.691 364.348 122.134 359.022 122.134H355.094V111.5H359.673C364.042 111.5 366.705 109.584 366.705 103.616L366.686 99.4586Z" fill="#F5FFFE"/>
<path d="M46.5035 359.758H32.8429L51.0539 232.817H64.7145L46.5035 359.758Z" fill="#263238" stroke="#263238" stroke-width="1.16634" stroke-miterlimit="10"/>
<path d="M73.8249 359.758H87.4759L69.265 232.817H55.6139L73.8249 359.758Z" fill="white" stroke="#263238" stroke-width="1.16634" stroke-miterlimit="10"/>
<path d="M240.31 359.758H226.659L244.861 232.817H258.521L240.31 359.758Z" fill="#263238" stroke="#263238" stroke-width="1.16634" stroke-miterlimit="10"/>
<path d="M267.632 359.758H281.283L263.072 232.817H249.421L267.632 359.758Z" fill="white" stroke="#263238" stroke-width="1.16634" stroke-miterlimit="10"/>
<path d="M277.173 212.911H16.6724V238.163H277.173V212.911Z" fill="#92E3A9" stroke="#263238" stroke-width="1.16634" stroke-miterlimit="10"/>
<path d="M283.524 212.911H23.0237V238.163H283.524V212.911Z" fill="#92E3A9" stroke="#263238" stroke-width="1.16634" stroke-miterlimit="10"/>
<path d="M27.2867 238.163H49.3967L60.8252 212.911H38.7153L27.2867 238.163Z" fill="#263238"/>
<path d="M114.807 212.911H92.6969L81.2683 238.163H103.378L114.807 212.911Z" fill="#263238"/>
<path d="M276.742 212.911H254.632L243.213 238.163H265.323L276.742 212.911Z" fill="#263238"/>
<path d="M222.77 212.911H200.65L189.231 238.163H211.341L222.77 212.911Z" fill="#263238"/>
<path d="M168.788 212.911H146.678L135.25 238.163H157.36L168.788 212.911Z" fill="#263238"/>
<path d="M282.097 224.109H238.988" stroke="#263238" stroke-width="1.16634" stroke-miterlimit="10"/>
<path d="M281.34 228.334H274.539" stroke="#263238" stroke-width="1.16634" stroke-miterlimit="10"/>
<path d="M21.922 227.28H65.0306" stroke="#263238" stroke-width="1.16634" stroke-miterlimit="10"/>
<path d="M22.6788 222.529H77.1298" stroke="#263238" stroke-width="1.16634" stroke-miterlimit="10"/>
<path d="M354.625 354.221H280.727V359.767H354.625V354.221Z" fill="#263238" stroke="#263238" stroke-width="1.16634" stroke-linecap="round" stroke-linejoin="round"/>
<path d="M342.152 354.067H293.2L312.388 249.687H322.964L342.152 354.067Z" fill="#92E3A9" stroke="#263238" stroke-width="1.16634" stroke-linecap="round" stroke-linejoin="round"/>
<path d="M305.261 288.485H330.101L327.715 275.552H307.636L305.261 288.485Z" fill="white" stroke="#263238" stroke-width="1.16634" stroke-linecap="round" stroke-linejoin="round"/>
<path d="M334.795 336.642L336.021 343.779" stroke="#263238" stroke-width="1.16634" stroke-linecap="round" stroke-linejoin="round"/>
<path d="M320.818 255.454L333.252 327.666" stroke="#263238" stroke-width="1.16634" stroke-linecap="round" stroke-linejoin="round"/>
<path d="M394.38 359.758H401" stroke="#263238" stroke-width="1.16634" stroke-linecap="round" stroke-linejoin="round"/>
<path d="M1 359.758H385.136" stroke="#263238" stroke-width="1.16634" stroke-linecap="round" stroke-linejoin="round"/>
<defs>
<filter id="filter0_d_724_2622" x="16.3142" y="0" width="392.321" height="371.207" filterUnits="userSpaceOnUse" color-interpolation-filters="sRGB">
<feFlood flood-opacity="0" result="BackgroundImageFix"/>
<feColorMatrix in="SourceAlpha" type="matrix" values="0 0 0 0 0 0 0 0 0 0 0 0 0 0 0 0 0 0 127 0" result="hardAlpha"/>
<feOffset dx="4" dy="4"/>
<feGaussianBlur stdDeviation="2"/>
<feComposite in2="hardAlpha" operator="out"/>
<feColorMatrix type="matrix" values="0 0 0 0 0 0 0 0 0 0 0 0 0 0 0 0 0 0 0.25 0"/>
<feBlend mode="normal" in2="BackgroundImageFix" result="effect1_dropShadow_724_2622"/>
<feBlend mode="normal" in="SourceGraphic" in2="effect1_dropShadow_724_2622" result="shape"/>
</filter>
</defs>
</svg>
