<svg width="410" height="317" viewBox="0 0 410 317" fill="none" xmlns="http://www.w3.org/2000/svg">
<g filter="url(#filter0_d_626_3587)">
<path opacity="0.8" d="M54.9016 197.13C54.9016 197.13 76.3347 245.998 130.526 261.978C184.717 277.959 242.587 256.663 289.877 240.657C337.167 224.65 362.038 183.722 351.501 141.756C340.965 99.7898 301.125 102.808 263.968 65.5398C226.812 28.2719 222.577 12.7201 171.086 1.71208C119.595 -9.29595 63.2348 34.0417 49.1404 95.4175C35.046 156.793 54.9016 197.13 54.9016 197.13Z" fill="#064E3B"/>
<path d="M330.179 131.082C330.179 131.082 349.829 133.028 359.783 145.21C359.783 145.21 370.311 131.099 389.206 131.39C393.824 125.82 396.764 119.052 397.685 111.875C398.605 104.698 397.468 97.4069 394.406 90.8511C391.343 84.2954 386.481 78.7444 380.387 74.8445C374.292 70.9446 367.214 68.8563 359.979 68.8227C352.743 68.7891 345.647 70.8115 339.516 74.6546C333.385 78.4977 328.472 84.0032 325.349 90.5302C322.225 97.0572 321.02 104.337 321.874 111.522C322.728 118.708 325.605 125.503 330.171 131.116L330.179 131.082Z" fill="#92E3A9"/>
<path opacity="0.5" d="M330.179 131.082C330.179 131.082 349.829 133.028 359.783 145.21C359.783 145.21 370.311 131.099 389.206 131.39C393.824 125.82 396.764 119.052 397.685 111.875C398.605 104.698 397.468 97.4069 394.406 90.8511C391.343 84.2954 386.481 78.7444 380.387 74.8445C374.292 70.9446 367.214 68.8563 359.979 68.8227C352.743 68.7891 345.647 70.8115 339.516 74.6546C333.385 78.4976 328.472 84.0032 325.349 90.5302C322.225 97.0572 321.02 104.337 321.874 111.522C322.728 118.708 325.605 125.503 330.171 131.116L330.179 131.082Z" fill="white"/>
<path d="M359.123 71.5156L358.463 198.862H361.781L359.123 71.5156Z" fill="#222B2A"/>
<path d="M360.125 141.499C360.125 141.499 366.753 129.556 378.695 125.904C378.695 125.904 366.092 128.896 359.834 139.176L360.125 141.499Z" fill="#222B2A"/>
<path d="M360.125 107.669C360.125 107.669 366.753 95.7264 378.695 92.0742C378.695 92.0742 366.092 95.0577 359.834 105.346L360.125 107.669Z" fill="#222B2A"/>
<path d="M360.125 124.565C360.125 124.565 366.753 112.623 378.695 108.971C378.695 108.971 366.092 111.963 359.834 122.242L360.125 124.565Z" fill="#222B2A"/>
<path d="M359.14 116.283C359.14 116.283 352.736 104.349 341.214 100.697C341.214 100.697 353.379 103.681 359.458 113.969L359.14 116.283Z" fill="#222B2A"/>
<path d="M359.14 132.873C359.14 132.873 352.736 120.931 341.214 117.287C341.214 117.287 353.379 120.271 359.458 130.55L359.14 132.873Z" fill="#222B2A"/>
<path d="M8.57207 131.082C8.57207 131.082 28.2219 133.028 38.1754 145.21C38.1754 145.21 48.7034 131.099 67.5988 131.39C72.2165 125.82 75.1567 119.052 76.0772 111.875C76.9977 104.698 75.8605 97.4069 72.7981 90.8511C69.7357 84.2954 64.874 78.7444 58.7791 74.8445C52.6842 70.9446 45.607 68.8563 38.3713 68.8227C31.1355 68.7891 24.0392 70.8115 17.9083 74.6546C11.7774 78.4977 6.8644 84.0032 3.74118 90.5302C0.617956 97.0572 -0.586931 104.337 0.266805 111.522C1.12054 118.708 3.99777 125.503 8.5635 131.116L8.57207 131.082Z" fill="#92E3A9"/>
<path opacity="0.5" d="M8.57207 131.082C8.57207 131.082 28.2219 133.028 38.1754 145.21C38.1754 145.21 48.7034 131.099 67.5988 131.39C72.2165 125.82 75.1567 119.052 76.0772 111.875C76.9977 104.698 75.8605 97.4069 72.7981 90.8511C69.7357 84.2954 64.874 78.7444 58.7791 74.8445C52.6842 70.9446 45.607 68.8563 38.3713 68.8227C31.1355 68.7891 24.0392 70.8115 17.9083 74.6546C11.7774 78.4976 6.8644 84.0032 3.74118 90.5302C0.617955 97.0572 -0.586931 104.337 0.266805 111.522C1.12054 118.708 3.99777 125.503 8.5635 131.116L8.57207 131.082Z" fill="white"/>
<path d="M37.532 71.5156L36.8633 198.862H40.1811L37.532 71.5156Z" fill="#222B2A"/>
<path d="M38.5268 141.499C38.5268 141.499 45.1539 129.556 57.0965 125.904C57.0965 125.904 44.4938 128.896 38.2354 139.176L38.5268 141.499Z" fill="#222B2A"/>
<path d="M38.5268 107.669C38.5268 107.669 45.1539 95.7264 57.0965 92.0742C57.0965 92.0742 44.4938 95.0577 38.2354 105.346L38.5268 107.669Z" fill="#222B2A"/>
<path d="M38.5268 124.565C38.5268 124.565 45.1539 112.623 57.0965 108.971C57.0965 108.971 44.4938 111.963 38.2354 122.242L38.5268 124.565Z" fill="#222B2A"/>
<path d="M37.5409 116.283C37.5409 116.283 31.1367 104.349 19.6143 100.697C19.6143 100.697 31.7797 103.681 37.8581 113.969L37.5409 116.283Z" fill="#222B2A"/>
<path d="M37.5409 132.873C37.5409 132.873 31.1367 120.931 19.6143 117.287C19.6143 117.287 31.7797 120.271 37.8581 130.55L37.5409 132.873Z" fill="#222B2A"/>
<path d="M250.338 143.427C250.338 143.427 266.421 145.013 274.566 154.984C274.566 154.984 283.182 143.436 298.648 143.667C302.425 139.107 304.83 133.568 305.582 127.694C306.333 121.821 305.401 115.854 302.893 110.49C300.386 105.126 296.406 100.584 291.417 97.3934C286.429 94.2031 280.637 92.4953 274.715 92.4691C268.794 92.4428 262.986 94.0991 257.97 97.2451C252.953 100.391 248.933 104.897 246.378 110.239C243.823 115.581 242.838 121.539 243.537 127.419C244.237 133.299 246.592 138.86 250.329 143.453L250.338 143.427Z" fill="#92E3A9"/>
<path opacity="0.5" d="M250.338 143.427C250.338 143.427 266.421 145.013 274.566 154.984C274.566 154.984 283.182 143.436 298.648 143.667C302.425 139.107 304.83 133.568 305.582 127.694C306.333 121.821 305.401 115.854 302.893 110.49C300.386 105.126 296.406 100.584 291.417 97.3934C286.429 94.2031 280.637 92.4953 274.715 92.4691C268.794 92.4428 262.986 94.0991 257.97 97.2451C252.953 100.391 248.933 104.897 246.378 110.239C243.823 115.581 242.838 121.539 243.537 127.419C244.237 133.299 246.592 138.86 250.329 143.453L250.338 143.427Z" fill="white"/>
<path d="M274.033 94.6289L273.493 198.862H276.211L274.033 94.6289Z" fill="#222B2A"/>
<path d="M274.848 151.914C274.848 151.914 280.283 142.14 290.048 139.148C290.048 139.148 279.76 141.592 274.616 150.011L274.848 151.914Z" fill="#222B2A"/>
<path d="M274.848 124.224C274.848 124.224 280.283 114.45 290.048 111.467C290.048 111.467 279.76 113.91 274.616 122.321L274.848 124.224Z" fill="#222B2A"/>
<path d="M274.848 138.068C274.848 138.068 280.283 128.295 290.048 125.303C290.048 125.303 279.76 127.746 274.616 136.165L274.848 138.068Z" fill="#222B2A"/>
<path d="M274.042 131.278C274.042 131.278 268.804 121.505 259.373 118.521C259.373 118.521 269.327 120.965 274.308 129.375L274.042 131.278Z" fill="#222B2A"/>
<path d="M274.042 144.851C274.042 144.851 268.804 135.077 259.373 132.094C259.373 132.094 269.327 134.537 274.308 142.956L274.042 144.851Z" fill="#222B2A"/>
<path d="M94.7243 143.427C94.7243 143.427 110.808 145.013 118.952 154.984C118.952 154.984 127.526 143.436 143.034 143.667C146.812 139.107 149.217 133.568 149.968 127.694C150.72 121.821 149.788 115.854 147.28 110.49C144.772 105.126 140.793 100.584 135.804 97.3934C130.815 94.2031 125.023 92.4953 119.102 92.4691C113.18 92.4428 107.373 94.0991 102.356 97.2451C97.3397 100.391 93.3198 104.897 90.7647 110.239C88.2096 115.581 87.2245 121.539 87.9239 127.419C88.6234 133.299 90.9788 138.86 94.7158 143.453L94.7243 143.427Z" fill="#92E3A9"/>
<path opacity="0.5" d="M94.7243 143.427C94.7243 143.427 110.808 145.013 118.952 154.984C118.952 154.984 127.526 143.436 143.034 143.667C146.812 139.107 149.217 133.568 149.968 127.694C150.72 121.821 149.788 115.854 147.28 110.49C144.772 105.126 140.793 100.584 135.804 97.3934C130.815 94.2031 125.023 92.4953 119.102 92.4691C113.18 92.4428 107.373 94.0991 102.356 97.2451C97.3397 100.391 93.3198 104.897 90.7647 110.239C88.2096 115.581 87.2245 121.539 87.9239 127.419C88.6234 133.299 90.9788 138.86 94.7158 143.453L94.7243 143.427Z" fill="white"/>
<path d="M118.421 94.6289L117.881 198.862H120.599L118.421 94.6289Z" fill="#222B2A"/>
<path d="M119.278 151.914C119.278 151.914 124.714 142.14 134.479 139.148C134.479 139.148 124.191 141.592 119.047 150.011L119.278 151.914Z" fill="#222B2A"/>
<path d="M119.278 124.224C119.278 124.224 124.714 114.45 134.479 111.467C134.479 111.467 124.191 113.91 119.047 122.321L119.278 124.224Z" fill="#222B2A"/>
<path d="M119.278 138.068C119.278 138.068 124.714 128.295 134.479 125.303C134.479 125.303 124.191 127.746 119.047 136.165L119.278 138.068Z" fill="#222B2A"/>
<path d="M118.421 131.279C118.421 131.279 113.191 121.505 103.761 118.564C103.761 118.564 113.714 121.008 118.695 129.418L118.421 131.279Z" fill="#222B2A"/>
<path d="M118.421 144.851C118.421 144.851 113.183 135.077 103.752 132.094C103.752 132.094 113.705 134.537 118.687 142.956L118.421 144.851Z" fill="#222B2A"/>
<path d="M14.4873 199.316H384.456" stroke="#263238" stroke-width="1.04742" stroke-miterlimit="10"/>
<path d="M146.292 38.5942C146.292 31.9671 149.79 28.1777 156.177 28.1777C162.564 28.1777 166.07 31.9671 166.07 38.5942V60.1473C166.07 66.7744 162.573 70.5638 156.177 70.5638C149.781 70.5638 146.292 66.7744 146.292 60.1473V38.5942ZM152.808 60.5588C152.808 63.5166 154.111 64.6397 156.177 64.6397C158.243 64.6397 159.555 63.5166 159.555 60.5588V38.1827C159.555 35.2249 158.252 34.1018 156.177 34.1018C154.102 34.1018 152.808 35.2249 152.808 38.1827V60.5588Z" fill="#F5FFFE"/>
<path d="M170.983 38.5942C170.983 31.9671 174.473 28.1777 180.868 28.1777C187.264 28.1777 190.753 31.9671 190.753 38.5942V60.1473C190.753 66.7744 187.255 70.5638 180.868 70.5638C174.481 70.5638 170.983 66.7744 170.983 60.1473V38.5942ZM177.49 60.5588C177.49 63.5166 178.794 64.6397 180.868 64.6397C182.943 64.6397 184.238 63.5166 184.238 60.5588V38.1827C184.238 35.2249 182.934 34.1018 180.868 34.1018C178.802 34.1018 177.49 35.2249 177.49 38.1827V60.5588Z" fill="#F5FFFE"/>
<path d="M215.496 38.8946V44.2786C215.496 50.9143 212.298 54.5665 205.791 54.5665H202.713V70.1355H196.197V28.6582H205.791C212.298 28.6582 215.496 32.2675 215.496 38.8946ZM202.713 34.608V48.6338H205.791C207.857 48.6338 208.98 47.6908 208.98 44.733V38.5174C208.98 35.5511 207.857 34.608 205.791 34.608H202.713Z" fill="#F5FFFE"/>
<path d="M228.818 28.1777C235.145 28.1777 238.403 31.9671 238.403 38.5942V39.8973H232.248V38.1827C232.248 35.2249 231.065 34.1018 228.99 34.1018C226.915 34.1018 225.732 35.2249 225.732 38.1827C225.732 46.7045 238.463 48.3077 238.463 60.1473C238.463 66.7744 235.145 70.5638 228.758 70.5638C222.371 70.5638 219.045 66.7744 219.045 60.1473V57.5753H225.2V60.5331C225.2 63.4909 226.504 64.5625 228.578 64.5625C230.653 64.5625 231.948 63.4909 231.948 60.5331C231.948 52.0113 219.225 50.4081 219.225 38.5685C219.225 31.9757 222.483 28.1777 228.818 28.1777Z" fill="#F5FFFE"/>
<path d="M244.267 60.9107L243.41 45.9418V28.6582H249.926V45.9418L249.068 60.9107H244.267ZM249.831 63.817V70.0926H243.59V63.817H249.831Z" fill="#F5FFFE"/>
<path d="M132.241 288.461C135.293 288.461 136.596 290.27 136.596 293.21V295.542C136.596 298.62 135.156 300.232 132.078 300.232H130.158V307.888H127.997V288.461H132.241ZM132.078 298.286C133.681 298.286 134.461 297.54 134.461 295.714V293.142C134.461 291.367 133.818 290.476 132.241 290.476H130.158V298.329L132.078 298.286Z" fill="#F5FFFE"/>
<path d="M140.763 303.97L140.008 307.888H138.011L141.732 288.461H144.869L148.59 307.888H146.421L145.675 303.97H140.763ZM141.037 302.118H145.367L143.172 290.887L141.037 302.118Z" fill="#F5FFFE"/>
<path d="M159.41 293.15V294.813H157.352V293.038C157.352 291.324 156.658 290.243 155.08 290.243C153.503 290.243 152.808 291.289 152.808 293.038V303.326C152.808 305.041 153.528 306.13 155.08 306.13C156.632 306.13 157.352 305.075 157.352 303.326V299.46H155.355V297.513H159.41V303.232C159.41 306.172 158.021 308.11 155.029 308.11C152.037 308.11 150.665 306.172 150.665 303.232V293.15C150.665 290.209 152.054 288.271 155.029 288.271C158.004 288.271 159.41 290.209 159.41 293.15Z" fill="#F5FFFE"/>
<path d="M168.926 297.068V299.006H164.185V305.916H170.006V307.888H162.016V288.461H170.006V290.433H164.185V297.068H168.926Z" fill="#F5FFFE"/>
<path d="M179.334 307.888H177.396V288.461H180.148L184.641 302.504V288.461H186.561V307.888H184.307L179.343 292.182L179.334 307.888Z" fill="#F5FFFE"/>
<path d="M189.158 293.15C189.158 290.183 190.624 288.271 193.599 288.271C196.574 288.271 198.066 290.183 198.066 293.15V303.197C198.066 306.138 196.591 308.076 193.599 308.076C190.607 308.076 189.158 306.138 189.158 303.197V293.15ZM191.293 303.309C191.293 305.084 192.047 306.112 193.599 306.112C195.151 306.112 195.897 305.084 195.897 303.309V293.021C195.897 291.306 195.177 290.226 193.599 290.226C192.022 290.226 191.293 291.272 191.293 293.021V303.309Z" fill="#F5FFFE"/>
<path d="M203.502 307.888V290.433H199.927V288.461H209.246V290.433H205.671V307.888H203.502Z" fill="#F5FFFE"/>
<path d="M222.791 297.506V299.46H218.324V307.871H216.155V288.461H223.871V290.433H218.324V297.506H222.791Z" fill="#F5FFFE"/>
<path d="M225.98 293.15C225.98 290.183 227.455 288.271 230.421 288.271C233.388 288.271 234.888 290.183 234.888 293.15V303.197C234.888 306.138 233.422 308.076 230.421 308.076C227.421 308.076 225.98 306.138 225.98 303.197V293.15ZM228.124 303.309C228.124 305.084 228.87 306.112 230.421 306.112C231.973 306.112 232.728 305.084 232.728 303.309V293.021C232.728 291.306 232.007 290.226 230.421 290.226C228.835 290.226 228.124 291.272 228.124 293.021V303.309Z" fill="#F5FFFE"/>
<path d="M239.552 303.31C239.552 305.024 240.246 306.113 241.824 306.113C243.401 306.113 244.078 305.059 244.078 303.31V288.461H246.102V303.198C246.102 306.139 244.739 308.111 241.746 308.111C238.754 308.111 237.417 306.139 237.417 303.198V288.461H239.552V303.31Z" fill="#F5FFFE"/>
<path d="M250.705 307.888H248.733V288.461H251.477L255.969 302.504V288.461H257.89V307.888H255.678L250.705 292.182V307.888Z" fill="#F5FFFE"/>
<path d="M265.246 288.461C268.272 288.461 269.661 290.296 269.661 293.288V303.087C269.661 306.053 268.272 307.888 265.246 307.888H260.736V288.461H265.246ZM265.246 305.916C266.798 305.916 267.552 304.947 267.552 303.173V293.176C267.552 291.402 266.798 290.433 265.22 290.433H262.888V305.916H265.246Z" fill="#F5FFFE"/>
<path d="M153.352 110.76V104.136L168.52 82.44H177.688V103.656H181.624V110.76H177.688V117H169.48V110.76H153.352ZM170.056 91.464L161.992 103.656H170.056V91.464ZM185.644 99C185.644 93.496 186.7 89.16 188.812 85.992C190.956 82.824 194.396 81.24 199.132 81.24C203.868 81.24 207.292 82.824 209.404 85.992C211.548 89.16 212.62 93.496 212.62 99C212.62 104.568 211.548 108.936 209.404 112.104C207.292 115.272 203.868 116.856 199.132 116.856C194.396 116.856 190.956 115.272 188.812 112.104C186.7 108.936 185.644 104.568 185.644 99ZM204.556 99C204.556 95.768 204.204 93.288 203.5 91.56C202.796 89.8 201.34 88.92 199.132 88.92C196.924 88.92 195.468 89.8 194.764 91.56C194.06 93.288 193.708 95.768 193.708 99C193.708 101.176 193.836 102.984 194.092 104.424C194.348 105.832 194.86 106.984 195.628 107.88C196.428 108.744 197.596 109.176 199.132 109.176C200.668 109.176 201.82 108.744 202.588 107.88C203.388 106.984 203.916 105.832 204.172 104.424C204.428 102.984 204.556 101.176 204.556 99ZM217.149 110.76V104.136L232.317 82.44H241.485V103.656H245.421V110.76H241.485V117H233.277V110.76H217.149ZM233.853 91.464L225.789 103.656H233.853V91.464Z" fill="#F5FFFE"/>
<path opacity="0.3" d="M115.498 240.691C115.498 243.263 99.6973 245.312 80.1932 245.312C60.6891 245.312 44.8887 243.246 44.8887 240.691C44.8887 238.136 60.6977 236.07 80.1932 236.07C99.6888 236.07 115.498 238.145 115.498 240.691Z" fill="black"/>
<path opacity="0.3" d="M189.408 240.691C189.408 243.263 173.599 245.312 154.103 245.312C134.608 245.312 118.799 243.246 118.799 240.691C118.799 238.136 134.608 236.07 154.103 236.07C173.599 236.07 189.408 238.145 189.408 240.691Z" fill="black"/>
<path opacity="0.3" d="M287.314 240.691C287.314 243.263 271.514 245.312 252.018 245.312C232.523 245.312 216.714 243.246 216.714 240.691C216.714 238.136 232.514 236.07 252.018 236.07C271.523 236.07 287.314 238.145 287.314 240.691Z" fill="black"/>
<path opacity="0.3" d="M369.102 240.691C369.102 243.263 353.293 245.312 333.798 245.312C314.302 245.312 298.459 243.246 298.459 240.691C298.459 238.136 314.268 236.07 333.764 236.07C353.259 236.07 369.102 238.145 369.102 240.691Z" fill="black"/>
<path d="M255.834 105.508C255.834 105.508 254.385 111.509 254.385 112.521C254.384 113.146 254.315 113.77 254.179 114.381C254.179 114.381 251.084 118.093 251.496 119.122C251.996 119.922 252.712 120.564 253.562 120.974C253.562 120.974 255.208 126.975 256.863 127.37C258.562 127.687 260.28 127.893 262.006 127.987L262.624 132.934L270.871 131.699L268.814 124.275L269.671 117.879C269.671 117.879 271.111 115.204 269.671 110.875C268.231 106.545 265.136 106.339 263.07 106.339C260.645 106.186 258.23 105.908 255.834 105.508V105.508Z" fill="white" stroke="#263238" stroke-width="1.04742" stroke-linecap="round" stroke-linejoin="round"/>
<path d="M259.546 102.422C259.546 102.422 252.327 102.207 252.533 104.068C252.738 105.928 260.163 108.354 260.163 108.354C260.163 108.354 257.685 110 258.92 111.655C260.154 113.31 263.043 114.75 263.043 114.75C263.043 114.75 262.186 118.256 263.464 118.462C264.741 118.668 265.521 116.807 265.727 116.19C265.933 115.573 268.205 115.779 268.822 117.425C269.171 118.28 269.379 119.186 269.439 120.108C269.439 120.108 271.917 112.684 272.328 109.383C272.74 106.082 263.463 102.422 259.546 102.422Z" fill="#263238" stroke="#263238" stroke-width="1.04742" stroke-linecap="round" stroke-linejoin="round"/>
<path d="M264.115 118.565C264.115 118.565 266.61 113.078 268.102 115.779C269.594 118.479 268.959 121.291 267.493 121.591C266.027 121.891 264.801 122.183 264.801 122.183" fill="white"/>
<path d="M264.115 118.565C264.115 118.565 266.61 113.078 268.102 115.779C269.594 118.479 268.959 121.291 267.493 121.591C266.027 121.891 264.801 122.183 264.801 122.183" stroke="#263238" stroke-width="1.04742" stroke-linecap="round" stroke-linejoin="round"/>
<path d="M253.972 175.826C253.57 176.298 246.96 190.469 246.137 195.21C245.314 199.951 239.955 228.209 239.741 229.443C239.527 230.678 228.201 233.155 227.37 233.361C226.538 233.567 228.227 235.839 230.67 236.456C233.114 237.073 240.161 239.963 241.816 238.308C243.47 236.653 245.734 227.377 246.351 226.348C246.968 225.32 258.576 197.971 258.576 197.971C258.576 197.971 264.526 184.845 265.761 183.602C266.995 182.359 264.295 176.864 263.257 175.209C262.22 173.554 256.862 172.526 253.972 175.826Z" fill="#263238" stroke="#263238" stroke-width="1.04742" stroke-linecap="round" stroke-linejoin="round"/>
<path d="M252.739 176.006C252.739 176.006 255.628 189.826 257.068 194.773C258.416 198.928 260.444 202.83 263.07 206.321C264.724 208.593 272.766 228.612 272.766 228.612L274 231.706C274 231.706 273.589 232.941 271.326 234.587C269.062 236.233 262.658 238.917 264.313 239.542C265.967 240.168 272.56 240.16 275.655 239.954C278.32 239.765 280.818 238.588 282.659 236.653C283.903 235.204 280.602 231.081 280.602 230.258C280.602 229.435 273.383 204.281 272.972 203.038C272.56 201.794 270.494 192.938 270.494 192.938V182.865C270.494 182.865 271.531 181.013 271.531 176.864C271.531 172.714 268.436 171.908 268.436 171.908L251.521 173.563L252.739 176.006Z" fill="#263238" stroke="#263238" stroke-width="1.04742" stroke-linecap="round" stroke-linejoin="round"/>
<path d="M251.307 174.798C251.307 174.798 251.727 178.304 252.961 178.51C254.196 178.716 266.979 182.222 272.551 178.098C272.551 178.098 273.58 175.003 272.963 174.18C272.345 173.357 270.896 173.769 263.481 173.769C256.065 173.769 251.307 173.769 251.307 174.798Z" fill="#92E3A9" stroke="#263238" stroke-width="1.04742" stroke-linecap="round" stroke-linejoin="round"/>
<path d="M270.262 128.604C270.262 128.604 262.632 129.632 259.331 132.89C256.031 136.148 253.15 142.175 251.71 147.739C250.269 153.303 249.232 173.724 251.29 174.753C253.347 175.782 270.674 176.819 273.58 175.611C276.486 174.402 273.374 164.68 273.374 160.967C273.374 157.255 276.675 144.678 276.058 137.674C275.44 130.67 270.262 128.604 270.262 128.604Z" fill="#92E3A9" stroke="#263238" stroke-width="1.04742" stroke-linecap="round" stroke-linejoin="round"/>
<path d="M242.734 150.037C242.64 141.549 239.176 134.305 234.572 131.176V129.461L221.884 129.59C214.742 129.667 209.024 139.02 209.17 150.422C209.315 161.825 215.171 171.058 222.321 170.998L235.009 170.87V169.155C239.467 165.837 242.777 158.524 242.734 150.037Z" fill="#263238" stroke="#263238" stroke-width="1.04742" stroke-linecap="round" stroke-linejoin="round"/>
<path d="M248.426 149.977C248.331 141.061 244.894 133.448 240.058 130.139V128.312L234.623 128.373C227.113 128.45 221.137 138.249 221.266 150.26C221.394 162.271 227.576 171.942 235.086 171.865L240.521 171.805V169.987C245.245 166.575 248.52 158.859 248.426 149.977Z" fill="white" stroke="#263238" stroke-width="1.04742" stroke-linecap="round" stroke-linejoin="round"/>
<path d="M253.879 149.918C254.007 161.92 248.023 171.728 240.522 171.805C233.02 171.882 226.804 162.212 226.702 150.209C226.599 138.207 232.557 128.399 240.059 128.313C247.56 128.227 253.733 137.907 253.879 149.918Z" fill="#737373" stroke="#263238" stroke-width="1.04742" stroke-linecap="round" stroke-linejoin="round"/>
<path d="M250.758 149.549C250.818 155.233 247.98 159.88 244.422 159.922C240.864 159.965 237.932 155.37 237.872 149.635C237.812 143.899 240.65 139.347 244.208 139.261C247.766 139.175 250.698 143.856 250.758 149.549Z" fill="#263238" stroke="#263238" stroke-width="1.04742" stroke-linecap="round" stroke-linejoin="round"/>
<path d="M351.785 192.294C352.493 187.009 352.794 181.678 352.685 176.348C349.899 177.634 333.644 178.105 332.152 178.139C330.661 178.174 314.406 177.634 311.619 176.348C311.497 181.677 311.783 187.008 312.477 192.294C313.6 199.247 323.476 227.084 323.699 228.43C323.988 229.728 324.363 231.005 324.822 232.254C324.822 232.254 319.207 236.292 316.738 237.861C314.269 239.429 316.069 240.107 318.538 240.107C321.007 240.107 326.168 239.429 327.737 239.429C329.126 239.429 331.544 238.221 332.109 237.929C332.675 238.221 335.093 239.429 336.473 239.429C338.051 239.429 343.212 240.107 345.681 240.107C348.15 240.107 349.967 239.429 347.481 237.861C344.995 236.292 339.397 232.254 339.397 232.254C339.855 231.005 340.231 229.728 340.52 228.43C340.786 227.058 350.662 199.221 351.785 192.294Z" fill="#263238" stroke="#263238" stroke-width="1.04742" stroke-linecap="round" stroke-linejoin="round"/>
<path d="M328.757 132.703C328.757 132.703 320.072 135.541 315.588 138.387C311.105 141.233 306.604 156.648 306.604 157.248C306.346 158.322 305.996 159.372 305.558 160.386C305.558 160.386 301.065 159.34 300.174 163.078C299.282 166.816 304.658 171.608 307.504 171.763C310.35 171.917 311.242 171.017 311.242 171.017C311.242 171.017 309.45 174.609 310.196 176.101C310.942 177.593 317.235 183.139 329.657 182.959C342.08 182.779 351.09 180.713 352.402 178.921C353.714 177.13 353.902 173.383 353.902 173.383C353.902 173.383 358.54 172.183 360.186 169.191C361.832 166.199 361.532 163.052 360.632 159.915C359.732 156.777 355.094 147.663 351.956 142.571C348.818 137.478 342.225 134.641 339.096 133.74C335.967 132.84 330.849 132.703 328.757 132.703Z" fill="#92E3A9" stroke="#263238" stroke-width="1.04742" stroke-linecap="round" stroke-linejoin="round"/>
<path d="M331.389 145.306C332.632 144.894 336.533 141.431 338.033 137.967C338.627 136.641 339.045 135.243 339.276 133.809L339.079 133.749C335.941 132.849 330.849 132.703 328.791 132.703C328.791 132.703 326.974 133.295 324.573 134.212C324.588 136.065 324.937 137.901 325.602 139.63C326.957 143.094 330.18 145.726 331.389 145.306Z" fill="white" stroke="#263238" stroke-width="1.04742" stroke-linecap="round" stroke-linejoin="round"/>
<path d="M345.664 152.301C345.664 152.301 349.256 171.462 353.329 173.434" stroke="#263238" stroke-width="1.04742" stroke-linecap="round" stroke-linejoin="round"/>
<path d="M311.242 171.016C311.242 171.016 315.735 154.101 316.035 152.455" stroke="#263238" stroke-width="1.04742" stroke-linecap="round" stroke-linejoin="round"/>
<path d="M351.468 160.959C351.468 160.959 348.981 161.516 348.981 163.317" stroke="#263238" stroke-width="1.04742" stroke-linecap="round" stroke-linejoin="round"/>
<path d="M309.228 161.234C309.228 161.234 311.997 163.035 311.722 165.804" stroke="#263238" stroke-width="1.04742" stroke-linecap="round" stroke-linejoin="round"/>
<path d="M327.779 239.447C329.168 239.447 331.586 238.238 332.152 237.947C332.718 238.238 335.135 239.447 336.516 239.447C338.093 239.447 343.254 240.125 345.723 240.125C348.192 240.125 350.01 239.447 347.524 237.878C345.372 236.515 340.862 233.292 339.713 232.469C337.064 234.886 331.826 234.286 331.826 234.286C330.765 234.126 329.714 233.903 328.68 233.617C327.111 233.163 324.865 232.271 324.865 232.271C324.865 232.271 319.249 236.309 316.78 237.878C314.311 239.447 316.111 240.125 318.58 240.125C321.049 240.125 326.211 239.447 327.779 239.447Z" fill="#92E3A9" stroke="#263238" stroke-width="1.04742" stroke-linecap="round" stroke-linejoin="round"/>
<path d="M331.826 232.306V193.16" stroke="white" stroke-width="1.04742" stroke-linecap="round" stroke-linejoin="round"/>
<path d="M332.152 237.905L331.826 234.244V232.307" stroke="#263238" stroke-width="1.04742" stroke-linecap="round" stroke-linejoin="round"/>
<path d="M328.68 191.814H335.187" stroke="white" stroke-width="1.04742" stroke-linecap="round" stroke-linejoin="round"/>
<path d="M320.176 110.241C320.176 110.241 315.512 113.035 316.206 115.487C316.901 117.939 319.01 118.411 318.547 119.774C318.084 121.137 316.463 121.994 318.307 122.852C319.357 123.322 320.455 123.675 321.582 123.906C321.582 123.906 323.296 129.856 326.245 130.902C329.195 131.948 334.304 131.254 337.922 130.791C339.144 130.671 340.301 130.182 341.238 129.389C342.176 128.595 342.849 127.535 343.169 126.35C343.521 125.072 341.652 126.59 340.717 125.184C339.783 123.778 341.189 120.168 342.235 117.013C343.28 113.858 340.134 107.909 336.053 105.928C331.972 103.948 324.179 104.985 320.176 110.241Z" fill="#263238" stroke="#263238" stroke-width="1.04742" stroke-linecap="round" stroke-linejoin="round"/>
<path d="M328.011 130.568C327.418 132.525 327.016 134.535 326.811 136.569C326.656 139.141 328.757 141.962 331.003 141.808C333.249 141.653 335.187 137.17 335.487 134.949C335.787 132.729 334.741 126.719 334.741 126.719C334.741 126.719 331.312 126.873 329.949 128.065C329.148 128.767 328.49 129.617 328.011 130.568V130.568Z" fill="white" stroke="#263238" stroke-width="1.04742" stroke-linecap="round" stroke-linejoin="round"/>
<path d="M324.967 113.506C324.967 113.506 325.079 117.004 328.585 120.364C330.693 122.403 333.193 123.992 335.933 125.037C335.871 125.803 335.674 126.552 335.35 127.249C335.197 127.54 334.96 127.778 334.669 127.931C334.378 128.084 334.047 128.145 333.721 128.106H332.546C332.546 128.106 330.832 132.127 328.757 132.71C326.682 133.293 321.581 132.89 320.878 127.755C320.175 122.619 320.064 118.418 320.647 117.364C321.23 116.309 324.967 113.506 324.967 113.506Z" fill="white" stroke="#263238" stroke-width="1.04742" stroke-linecap="round" stroke-linejoin="round"/>
<path d="M361.652 158.688C362.184 157.616 362.507 156.452 362.604 155.259C362.604 153.698 359.706 151.461 359.175 150.904C358.643 150.346 358.111 150.406 358 151.186C357.999 151.624 358.087 152.058 358.259 152.461C358.432 152.863 358.685 153.226 359.003 153.527C359.438 153.869 359.753 154.341 359.903 154.873C359.955 155.259 358.943 157.153 359.449 158.379C359.955 159.605 361.378 159.974 361.652 158.688Z" fill="white" stroke="#263238" stroke-width="1.04742" stroke-linecap="round" stroke-linejoin="round"/>
<path d="M245.546 149.934C245.546 149.934 258.166 153.972 265.753 163.402C273.34 172.833 278.321 171.478 287.752 168.34C297.182 165.203 300.775 153.972 313.797 163.402C326.82 172.833 329.512 176.416 340.289 171.032C351.065 165.648 356.895 152.626 366.78 157.109C376.665 161.593 372.164 184.544 373.064 195.689C373.964 206.834 372.61 234.757 374.856 238.349C377.102 241.941 400.001 239.207 400.001 239.207" stroke="#263238" stroke-width="3.14226" stroke-linecap="round" stroke-linejoin="round"/>
<path d="M269.181 134.949C269.181 134.949 266.669 130.851 262.966 131.923C259.048 133.055 257.025 138.653 256.107 142.142C255.19 145.631 254.573 149.404 252.892 152.653C252.892 152.653 245.468 152.524 241.327 151.324C238.168 150.339 235.06 149.195 232.016 147.895C232.016 147.895 230.55 145.846 229.513 145.443C228.476 145.04 225.784 144.251 225.587 144.868C225.389 145.486 228.707 147.518 228.707 147.518C228.707 147.518 222.535 148.375 221.917 149.035C221.3 149.695 226.281 151.667 226.281 151.667C226.281 151.667 228.141 152.267 232.668 151.187C232.668 151.187 249.274 161.732 252.584 162.941C255.893 164.15 257.728 164.535 259.982 160.18C262.237 155.825 269.722 145.023 270.913 140.676" fill="#92E3A9"/>
<path d="M269.181 134.949C269.181 134.949 266.669 130.851 262.966 131.923C259.048 133.055 257.025 138.653 256.107 142.142C255.19 145.631 254.573 149.404 252.892 152.653C252.892 152.653 245.468 152.524 241.327 151.324C238.168 150.339 235.06 149.195 232.016 147.895C232.016 147.895 230.55 145.846 229.513 145.443C228.476 145.04 225.784 144.251 225.587 144.868C225.389 145.486 228.707 147.518 228.707 147.518C228.707 147.518 222.535 148.375 221.917 149.035C221.3 149.695 226.281 151.667 226.281 151.667C226.281 151.667 228.141 152.267 232.668 151.187C232.668 151.187 249.274 161.732 252.584 162.941C255.893 164.15 257.728 164.535 259.982 160.18C262.237 155.825 269.722 145.023 270.913 140.676" stroke="#263238" stroke-width="1.04742" stroke-linecap="round" stroke-linejoin="round"/>
<path d="M236.329 149.643C233.903 148.734 232.043 147.928 232.043 147.928C232.043 147.928 230.577 145.879 229.539 145.476C228.502 145.073 225.81 144.284 225.613 144.902C225.416 145.519 228.734 147.551 228.734 147.551C228.734 147.551 222.561 148.408 221.944 149.068C221.326 149.728 226.307 151.7 226.307 151.7C226.307 151.7 228.168 152.3 232.694 151.22L235.018 152.686L236.329 149.643Z" fill="white" stroke="#263238" stroke-width="1.04742" stroke-linecap="round" stroke-linejoin="round"/>
<path d="M300.337 160.265C299.805 159.193 299.482 158.029 299.386 156.836C299.386 155.276 302.292 153.047 302.815 152.489C303.338 151.932 303.87 151.992 303.981 152.772C303.983 153.21 303.894 153.644 303.722 154.046C303.549 154.449 303.296 154.812 302.978 155.113C302.543 155.455 302.228 155.926 302.078 156.459C302.026 156.836 303.038 158.739 302.532 159.965C302.026 161.191 300.612 161.543 300.337 160.265Z" fill="white" stroke="#263238" stroke-width="1.04742" stroke-linecap="round" stroke-linejoin="round"/>
<path d="M302.334 155.559C302.334 155.559 299.942 159.974 301.331 161.56C302.72 163.146 304.066 157.994 304.323 156.571C304.58 155.147 303.217 153.716 302.334 155.559Z" fill="white" stroke="#263238" stroke-width="1.04742" stroke-linecap="round" stroke-linejoin="round"/>
<path d="M304.307 157.144C304.307 157.144 301.915 161.56 303.304 163.146C304.693 164.732 306.039 159.579 306.296 158.156C306.553 156.733 305.19 155.25 304.307 157.144Z" fill="white" stroke="#263238" stroke-width="1.04742" stroke-linecap="round" stroke-linejoin="round"/>
<path d="M306.476 157.514C306.476 157.514 304.084 161.929 305.473 163.515C306.862 165.101 308.208 159.949 308.465 158.526C308.722 157.102 307.359 155.662 306.476 157.514Z" fill="white" stroke="#263238" stroke-width="1.04742" stroke-linecap="round" stroke-linejoin="round"/>
<path d="M309.253 157.547C309.253 157.547 307.024 160.976 308.242 162.271C309.459 163.565 310.771 159.493 311.028 158.318C311.285 157.144 310.076 156.003 309.253 157.547Z" fill="white" stroke="#263238" stroke-width="1.04742" stroke-linecap="round" stroke-linejoin="round"/>
<path d="M360.058 155.729C360.058 155.729 362.45 160.144 361.061 161.73C359.672 163.316 358.326 158.155 358.069 156.732C357.812 155.309 359.175 153.877 360.058 155.729Z" fill="white" stroke="#263238" stroke-width="1.04742" stroke-linecap="round" stroke-linejoin="round"/>
<path d="M358.086 157.274C358.086 157.274 360.478 161.689 359.089 163.275C357.7 164.861 356.354 159.7 356.097 158.277C355.84 156.854 357.203 155.431 358.086 157.274Z" fill="white" stroke="#263238" stroke-width="1.04742" stroke-linecap="round" stroke-linejoin="round"/>
<path d="M355.9 157.684C355.9 157.684 358.292 162.099 356.903 163.685C355.514 165.272 354.168 160.119 353.919 158.687C353.671 157.256 355.042 155.832 355.9 157.684Z" fill="white" stroke="#263238" stroke-width="1.04742" stroke-linecap="round" stroke-linejoin="round"/>
<path d="M353.139 157.719C353.139 157.719 355.368 161.191 354.151 162.442C352.934 163.694 351.622 159.665 351.373 158.49C351.125 157.316 352.316 156.175 353.139 157.719Z" fill="white" stroke="#263238" stroke-width="1.04742" stroke-linecap="round" stroke-linejoin="round"/>
<path d="M58.1691 206.569V211.438C56.4793 213.285 55.2641 215.515 54.6284 217.937C53.591 221.915 50.3418 239.035 51.1991 239.481C52.0564 239.927 60.1238 241.77 62.6958 241.384C65.645 240.939 68.157 241.093 66.6738 239.464C65.1906 237.835 57.3975 233.283 57.3975 233.283C57.3975 233.283 65.9708 220.886 67.874 216.308C69.7773 211.73 70.0859 204.648 70.0859 204.648L58.5807 204.211L58.1691 206.569Z" fill="white" stroke="#263238" stroke-width="1.04742" stroke-linecap="round" stroke-linejoin="round"/>
<path d="M62.6959 241.385C65.645 240.939 68.157 241.093 66.6738 239.464C65.1907 237.836 57.3976 233.283 57.3976 233.283L57.1061 235.049L51.4906 234.363C51.0791 237.227 50.8991 239.327 51.1992 239.507C52.1165 239.919 60.1239 241.771 62.6959 241.385Z" fill="#263238" stroke="#263238" stroke-width="1.04742" stroke-linecap="round" stroke-linejoin="round"/>
<path d="M86.3578 209.089L87.6866 211.455C87.1358 212.517 86.8117 213.682 86.7349 214.876C86.6582 216.07 86.8305 217.267 87.2408 218.391C88.5696 222.523 91.6732 237.723 91.6732 238.607C91.6732 239.49 93.585 240.081 95.1024 240.081C96.6199 240.081 100.821 240.373 101.412 240.373C102.004 240.373 106.282 241.11 107.757 240.227C109.231 239.344 105.879 237.569 103.667 236.54C101.455 235.512 96.5856 232.854 96.5856 232.854C96.5856 232.854 97.7601 220.748 97.7601 215.433C97.7601 210.118 98.9433 208.352 97.3229 205.102C95.7026 201.853 85.5176 206.586 85.5176 206.586L86.3578 209.089Z" fill="white" stroke="#263238" stroke-width="1.04742" stroke-linecap="round" stroke-linejoin="round"/>
<path d="M103.624 236.542C101.412 235.505 96.5425 232.855 96.5425 232.855L95.9509 235.067L91.21 235.925C91.4929 237.399 91.6729 238.411 91.6729 238.617C91.6729 239.474 93.5847 240.091 95.1022 240.091C96.6197 240.091 100.821 240.383 101.412 240.383C102.004 240.383 106.282 241.12 107.756 240.237C109.231 239.354 105.836 237.571 103.624 236.542Z" fill="#263238" stroke="#263238" stroke-width="1.04742" stroke-linecap="round" stroke-linejoin="round"/>
<path d="M78.4107 110.85C77.2538 108.872 75.9317 106.997 74.4585 105.243C72.4266 102.954 66.0567 103.082 63.2618 106.1C60.467 109.118 61.35 114.502 62.4045 116.028C63.459 117.554 65.5852 124.687 65.5852 124.687L66.091 129.779L77.9306 133.98L75.513 125.707C75.513 125.707 80.0997 124.85 80.4769 123.418C80.8541 121.986 79.7139 117.177 79.7139 117.177C79.7139 117.177 81.2399 116.156 81.1113 115.265C80.9827 114.373 78.4107 110.85 78.4107 110.85Z" fill="white" stroke="#263238" stroke-width="1.04742" stroke-linecap="round" stroke-linejoin="round"/>
<path d="M64.7879 116.336C64.7879 116.336 66.8112 118.051 67.9171 116.088C69.0231 114.125 69.8632 112.204 69.8632 110.541C69.8632 108.878 65.7052 107.497 68.4744 106.383C71.2435 105.268 73.2411 107.746 74.4756 105.26C75.7102 102.774 74.5871 102.508 67.9343 102.508C61.2814 102.508 57.955 105.834 59.361 109.992C60.4855 113.063 61.8768 116.029 63.519 118.857L64.7879 116.336Z" fill="#263238" stroke="#263238" stroke-width="1.04742" stroke-linecap="round" stroke-linejoin="round"/>
<path d="M78.7871 113.79C78.7871 114.419 78.6006 115.034 78.2511 115.557C77.9016 116.08 77.4048 116.488 76.8236 116.729C76.2425 116.969 75.6029 117.032 74.9859 116.91C74.3689 116.787 73.8022 116.484 73.3574 116.039C72.9126 115.594 72.6096 115.028 72.4869 114.411C72.3642 113.794 72.4272 113.154 72.6679 112.573C72.9086 111.992 73.3163 111.495 73.8394 111.145C74.3624 110.796 74.9774 110.609 75.6064 110.609C76.45 110.609 77.259 110.944 77.8555 111.541C78.452 112.137 78.7871 112.946 78.7871 113.79V113.79Z" stroke="#263238" stroke-width="1.04742" stroke-linecap="round" stroke-linejoin="round"/>
<path d="M78.3242 110.97C78.6943 110.818 79.0902 110.74 79.4902 110.738C80.1525 110.739 80.7956 110.96 81.3189 111.366C81.8422 111.772 82.2159 112.341 82.3816 112.982C82.5473 113.623 82.4956 114.301 82.2345 114.91C81.9735 115.518 81.5178 116.023 80.939 116.345" stroke="#263238" stroke-width="1.04742" stroke-linecap="round" stroke-linejoin="round"/>
<path d="M72.4259 113.789L64.7871 116.335" stroke="#263238" stroke-width="1.04742" stroke-linecap="round" stroke-linejoin="round"/>
<path d="M66.9825 117.991C66.9825 117.991 65.4565 114.811 63.9305 115.419C62.4044 116.028 63.1674 121.026 64.6935 121.532C65.2063 121.647 65.7393 121.638 66.2479 121.506C66.7565 121.373 67.226 121.12 67.6169 120.769C67.6169 120.769 68.8944 123.444 70.4204 124.198" fill="white"/>
<path d="M66.9825 117.991C66.9825 117.991 65.4565 114.811 63.9305 115.419C62.4044 116.028 63.1674 121.026 64.6935 121.532C65.2063 121.647 65.7393 121.638 66.2479 121.506C66.7565 121.373 67.226 121.12 67.6169 120.769C67.6169 120.769 68.8944 123.444 70.4204 124.198" stroke="#263238" stroke-width="1.04742" stroke-linecap="round" stroke-linejoin="round"/>
<path d="M56.9688 175.147L56.0172 187.339L53.1709 205.385C53.1709 205.385 59.8237 210.606 66.0307 210.606C72.2378 210.606 73.9438 209.818 73.9438 209.818L77.4246 191.299L80.9053 210.769C80.9053 210.769 87.7639 209.663 92.3077 208.549C95.4672 207.67 98.4616 206.279 101.172 204.434L91.9905 180.531L90.0015 168.203C90.0015 168.203 79.7136 169.155 73.5323 169.472C67.351 169.789 59.1293 168.203 59.1293 168.203L56.9688 175.147Z" fill="#92E3A9" stroke="#263238" stroke-width="1.04742" stroke-linecap="round" stroke-linejoin="round"/>
<path d="M63.4928 126.435C63.4928 126.435 78.0673 131.519 82.5683 136.457C85.0545 139.2 87.8408 157.976 88.8439 162.562C89.8469 167.149 91.5959 176.28 91.5959 176.28C91.5959 176.28 82.7054 180.292 75.8297 180.438C68.954 180.583 55.7598 177.428 55.7598 177.428C55.7598 177.428 57.3287 157.084 57.3287 147.628C57.3287 138.172 57.4744 131.999 59.0433 128.99C59.0519 129.015 61.6324 126.143 63.4928 126.435Z" fill="#263238" stroke="#263238" stroke-width="1.04742" stroke-linecap="round" stroke-linejoin="round"/>
<path d="M59.6608 178.904C59.6608 178.904 60.4495 192.201 59.6608 197.114C59.1069 200.283 58.1504 203.369 56.8145 206.296" stroke="#263238" stroke-width="1.04742" stroke-linecap="round" stroke-linejoin="round"/>
<path d="M59.9775 185.239C61.1679 184.831 62.2316 184.119 63.0643 183.176C63.8969 182.232 64.4699 181.088 64.7271 179.855" stroke="#263238" stroke-width="1.04742" stroke-linecap="round" stroke-linejoin="round"/>
<path d="M53.959 202.814C53.959 202.814 61.8806 209.622 74.2261 207.101" stroke="#263238" stroke-width="1.04742" stroke-linecap="round" stroke-linejoin="round"/>
<path d="M80.5625 206.766C80.5625 206.766 93.5424 205.343 99.2436 201.545" stroke="#263238" stroke-width="1.04742" stroke-linecap="round" stroke-linejoin="round"/>
<path d="M138.62 120.279C138.62 120.279 137.368 121.205 133.005 124.394C128.641 127.583 132.079 132.401 132.079 132.401C132.079 132.401 128.958 132.89 124.791 137.271C120.625 141.652 126.652 149.171 132.284 150.345C137.917 151.52 144.501 144.55 146.473 138.085C148.445 131.621 145.839 121.873 144.527 119.859C143.215 117.844 138.62 120.279 138.62 120.279Z" fill="#263238" stroke="#263238" stroke-width="1.04742" stroke-linecap="round" stroke-linejoin="round"/>
<path d="M155.149 119.423C155.149 119.423 157.318 116.071 155.355 111.21C153.391 106.349 147.527 104.128 141.817 107.652C139.914 108.784 138.438 110.513 137.618 112.57C136.798 114.627 136.68 116.897 137.282 119.029C137.839 121.275 140.651 124.73 141.243 124.781C141.835 124.833 146.97 126.702 150.476 125.064C153.983 123.427 155.149 119.423 155.149 119.423Z" fill="#263238" stroke="#263238" stroke-width="1.04742" stroke-linecap="round" stroke-linejoin="round"/>
<path d="M129.918 232.589C129.918 232.589 133.99 238.925 141.063 240.005C148.136 241.085 141.775 234.741 140.583 233.781C139.391 232.821 130.878 230.746 129.918 232.589Z" fill="#737373" stroke="#263238" stroke-width="1.04742" stroke-linecap="round" stroke-linejoin="round"/>
<path d="M167.597 234.217C167.597 234.217 175.373 236.129 174.773 237.809C174.173 239.49 167.837 239.361 164.134 238.401C160.43 237.441 156.949 236.009 157.429 234.457C157.909 232.905 167.597 234.217 167.597 234.217Z" fill="#737373" stroke="#263238" stroke-width="1.04742" stroke-linecap="round" stroke-linejoin="round"/>
<path d="M145.487 132.025C145.487 132.025 135.079 133.551 133.176 137.229C131.273 140.907 133.956 160.943 133.956 160.943C133.956 160.943 129.515 170.742 129.455 177.052C129.395 183.362 132.207 194.464 131.984 197.233C131.761 200.003 128.915 231.526 128.915 232.384C128.915 233.241 134.916 235.161 143.567 236.19C152.217 237.219 168.763 234.141 168.763 234.141C168.763 234.141 168.438 215.537 169.304 204.443C170.169 193.35 168.935 183.379 166.732 179.238C164.528 175.097 154.266 160.188 154.266 160.188C154.266 160.188 159.239 151.169 159.547 147.226C159.856 143.282 158.253 141.224 154.498 136.689C153.382 135.351 152.01 134.25 150.462 133.449C148.915 132.648 147.224 132.164 145.487 132.025Z" fill="#92E3A9" stroke="#263238" stroke-width="1.04742" stroke-linecap="round" stroke-linejoin="round"/>
<path d="M154.292 160.197C154.292 160.197 159.264 151.178 159.573 147.235C159.881 143.291 158.278 141.233 154.523 136.698C154.343 136.475 154.155 136.278 153.966 136.072L153.829 136.201C149.971 142.502 137.214 153.27 133.416 156.408C133.707 159.091 133.956 160.943 133.956 160.943C133.956 160.943 129.515 170.742 129.455 177.052C129.526 179.927 129.813 182.793 130.312 185.626C139.323 180.482 151.377 170.854 157.901 165.487C155.861 162.469 154.292 160.197 154.292 160.197Z" fill="#737373" stroke="#263238" stroke-width="1.04742" stroke-linecap="round" stroke-linejoin="round"/>
<path d="M143.566 124.669C143.854 127.021 144.011 129.388 144.038 131.759C143.901 133.516 144.467 137.528 147.467 138.789C150.468 140.049 152.354 138.291 152.345 136.525C152.237 135.067 151.949 133.627 151.488 132.239L151.574 127.395C151.574 127.395 146.396 124.154 143.566 124.669Z" fill="white" stroke="#263238" stroke-width="1.04742" stroke-linecap="round" stroke-linejoin="round"/>
<path d="M140.875 121.522C140.875 121.522 138.671 119.584 138.603 122.379C138.534 125.174 141.106 126.1 141.672 126.289C142.15 126.354 142.634 126.234 143.027 125.954C143.027 125.954 147.022 129.384 150.228 129.607C153.435 129.829 154.738 128.346 155.492 122.525C156.247 116.704 150.237 110.797 150.237 110.797C150.237 110.797 145.093 120.279 140.875 121.522Z" fill="white" stroke="#263238" stroke-width="1.04742" stroke-linecap="round" stroke-linejoin="round"/>
<path d="M91.845 176.161C91.8158 175.167 91.9788 174.177 92.3251 173.246C92.8566 172.08 95.7543 171.411 96.3973 171.188C97.0403 170.965 97.3661 171.188 97.1775 171.797C97.0275 172.124 96.8127 172.417 96.5459 172.659C96.2792 172.901 95.9661 173.086 95.6258 173.203C95.1823 173.309 94.7835 173.552 94.4855 173.897C94.3226 174.172 94.4255 175.929 93.6282 176.675C92.8309 177.421 91.5792 177.215 91.845 176.161Z" fill="white" stroke="#263238" stroke-width="1.04742" stroke-linecap="round" stroke-linejoin="round"/>
<path d="M157.55 150.379C157.55 150.379 147.262 149.033 142.727 156.218C138.191 163.402 129.713 188.539 113.998 192.585C98.2831 196.632 93.7907 164.294 84.3601 165.194C75.3754 166.051 69.0998 165.194 63.7072 175.07C60.8266 180.36 46.4236 238.118 39.6165 238.709C17.9348 240.604 3.97754 239.369 3.97754 239.369" stroke="#263238" stroke-width="3.14226" stroke-linecap="round" stroke-linejoin="round"/>
<path d="M64.1619 126.846C64.1619 126.846 61.7871 125.895 58.615 127.789C55.4429 129.684 46.904 150.431 47.5384 152.652C48.1728 154.872 57.1919 158.987 62.2587 160.411C67.3254 161.834 76.5074 163.583 76.5074 163.583C76.5074 163.583 79.3537 168.015 80.3053 168.169C81.6894 168.151 83.068 167.993 84.4204 167.698C84.4204 167.698 86.1351 169.121 86.7952 167.535C87.4554 165.949 86.1608 163.9 84.7377 162.314C83.3145 160.728 77.2961 159.939 77.2961 159.939L60.9812 148.691L67.8398 136.028" fill="#263238"/>
<path d="M64.1619 126.846C64.1619 126.846 61.7871 125.895 58.615 127.789C55.4429 129.684 46.904 150.431 47.5384 152.652C48.1728 154.872 57.1919 158.987 62.2587 160.411C67.3254 161.834 76.5074 163.583 76.5074 163.583C76.5074 163.583 79.3537 168.015 80.3053 168.169C81.6894 168.151 83.068 167.993 84.4204 167.698C84.4204 167.698 86.1351 169.121 86.7952 167.535C87.4554 165.949 86.1608 163.9 84.7377 162.314C83.3145 160.728 77.2961 159.939 77.2961 159.939L60.9812 148.691L67.8398 136.028" stroke="#263238" stroke-width="1.04742" stroke-linecap="round" stroke-linejoin="round"/>
<path d="M80.3048 168.161C81.6888 168.142 83.0675 167.984 84.4199 167.69C84.4199 167.69 86.1346 169.113 86.7947 167.527C87.4548 165.941 86.1603 163.892 84.7371 162.306C83.314 160.72 77.2956 159.931 77.2956 159.931L60.9807 148.691L63.4155 144.156C57.3199 140.358 53.2734 140.641 51.0872 141.404C48.901 146.651 47.2378 151.623 47.5293 152.644C48.1637 154.864 57.1828 158.979 62.2496 160.402C67.3163 161.825 76.4983 163.574 76.4983 163.574C76.4983 163.574 79.3531 168.007 80.3048 168.161Z" fill="white" stroke="#263238" stroke-width="1.04742" stroke-linecap="round" stroke-linejoin="round"/>
<path d="M182.284 150.732C181.59 143.247 177.997 137.1 173.711 134.657L173.574 133.131L162.377 134.168C156.076 134.751 151.729 143.402 152.664 153.484C153.598 163.566 159.462 171.256 165.763 170.63L176.96 169.593L176.814 168.067C180.587 164.912 182.978 158.216 182.284 150.732Z" fill="#263238" stroke="#263238" stroke-width="1.04742" stroke-linecap="round" stroke-linejoin="round"/>
<path d="M187.35 150.285C186.622 142.423 183.064 135.951 178.528 133.379L178.374 131.775L173.582 132.221C166.963 132.838 162.394 141.918 163.371 152.514C164.348 163.111 170.521 171.195 177.14 170.578L181.932 170.132L181.786 168.529C185.747 165.151 188.079 158.121 187.35 150.285Z" fill="white" stroke="#263238" stroke-width="1.04742" stroke-linecap="round" stroke-linejoin="round"/>
<path d="M192.152 149.815C193.137 160.412 188.568 169.491 181.941 170.108C175.314 170.725 169.15 162.632 168.146 152.044C167.143 141.456 171.73 132.326 178.349 131.752C184.967 131.177 191.157 139.227 192.152 149.815Z" fill="white" stroke="#263238" stroke-width="1.04742" stroke-linecap="round" stroke-linejoin="round"/>
<path d="M197.296 143.625L178.7 145.339C178.44 145.364 178.177 145.337 177.926 145.26C177.676 145.183 177.443 145.057 177.242 144.89C177.04 144.723 176.874 144.517 176.752 144.285C176.63 144.054 176.555 143.8 176.531 143.539C176.507 143.278 176.534 143.015 176.611 142.765C176.688 142.515 176.814 142.282 176.981 142.081C177.148 141.879 177.354 141.713 177.586 141.591C177.817 141.469 178.071 141.394 178.332 141.37L196.927 139.655C197.188 139.631 197.451 139.658 197.701 139.735C197.951 139.812 198.184 139.938 198.386 140.105C198.587 140.272 198.754 140.478 198.876 140.71C198.998 140.941 199.072 141.195 199.096 141.456C199.121 141.717 199.094 141.98 199.017 142.23C198.94 142.48 198.814 142.713 198.647 142.914C198.479 143.116 198.274 143.282 198.042 143.404C197.81 143.526 197.557 143.601 197.296 143.625Z" fill="#737373" stroke="#263238" stroke-width="1.04742" stroke-linecap="round" stroke-linejoin="round"/>
<path d="M198.676 158.362L180.08 160.076C179.82 160.101 179.556 160.074 179.306 159.997C179.056 159.92 178.823 159.794 178.622 159.627C178.42 159.459 178.254 159.254 178.132 159.022C178.01 158.79 177.935 158.537 177.911 158.276C177.886 158.015 177.913 157.752 177.991 157.502C178.068 157.252 178.194 157.019 178.361 156.817C178.528 156.616 178.734 156.449 178.965 156.327C179.197 156.205 179.451 156.131 179.712 156.107L198.307 154.392C198.833 154.347 199.355 154.51 199.761 154.847C200.167 155.184 200.424 155.668 200.476 156.193C200.501 156.453 200.474 156.716 200.397 156.967C200.32 157.217 200.194 157.45 200.026 157.651C199.859 157.853 199.654 158.019 199.422 158.141C199.19 158.263 198.936 158.338 198.676 158.362Z" fill="#737373" stroke="#263238" stroke-width="1.04742" stroke-linecap="round" stroke-linejoin="round"/>
<path d="M139.057 133.422C139.057 133.422 134.582 134.279 132.465 136.851C130.347 139.423 126 159.27 127.003 161.551C128.007 163.831 144.081 166.695 149.045 167.106C153.037 167.264 157.035 167.086 160.996 166.575C160.996 166.575 165.283 166.463 166.457 166.266C167.632 166.069 169.792 164.911 169.827 164.474C169.861 164.037 169.647 162.991 168.044 162.862C166.44 162.734 163.002 161.585 162.565 161.551C163.595 161.28 164.64 161.068 165.694 160.916C165.694 160.916 165.917 160.059 164.151 160.059C162.385 160.059 160.782 159.939 160.113 160.916C159.635 161.678 159.228 162.481 158.896 163.317C158.896 163.317 148.994 164.011 143.618 161.388C138.243 158.764 136.545 157.89 136.545 157.89L140.403 142.458" fill="#92E3A9"/>
<path d="M139.057 133.422C139.057 133.422 134.582 134.279 132.465 136.851C130.347 139.423 126 159.27 127.003 161.551C128.007 163.831 144.081 166.695 149.045 167.106C153.037 167.264 157.035 167.086 160.996 166.575C160.996 166.575 165.283 166.463 166.457 166.266C167.632 166.069 169.792 164.911 169.827 164.474C169.861 164.037 169.647 162.991 168.044 162.862C166.44 162.734 163.002 161.585 162.565 161.551C163.595 161.28 164.64 161.068 165.694 160.916C165.694 160.916 165.917 160.059 164.151 160.059C162.385 160.059 160.782 159.939 160.113 160.916C159.635 161.678 159.228 162.481 158.896 163.317C158.896 163.317 148.994 164.011 143.618 161.388C138.243 158.764 136.545 157.89 136.545 157.89L140.403 142.458" stroke="#263238" stroke-width="1.04742" stroke-linecap="round" stroke-linejoin="round"/>
<path d="M166.431 166.293C167.623 166.096 169.766 164.938 169.801 164.501C169.835 164.064 169.621 163.018 168.017 162.889C166.414 162.761 162.976 161.612 162.539 161.577C163.569 161.307 164.614 161.095 165.668 160.943C165.668 160.943 165.891 160.086 164.125 160.086C162.359 160.086 160.756 159.966 160.087 160.943C159.609 161.704 159.202 162.508 158.87 163.344C158.87 163.344 148.968 164.038 143.592 161.415C138.217 158.791 136.519 157.917 136.519 157.917L138.868 148.486C135.811 147.228 132.584 146.427 129.292 146.111C127.689 152.576 126.377 160.189 126.977 161.543C127.972 163.824 144.055 166.687 149.019 167.099C153.011 167.256 157.008 167.079 160.97 166.567C160.97 166.567 165.265 166.49 166.431 166.293Z" fill="white" stroke="#263238" stroke-width="1.04742" stroke-linecap="round" stroke-linejoin="round"/>
<path d="M94.0221 174.497C94.0221 174.497 90.7128 176.975 91.2186 178.612C91.7244 180.25 94.485 176.898 95.1709 175.912C95.8567 174.926 95.3166 173.434 94.0221 174.497Z" fill="white" stroke="#263238" stroke-width="1.04742" stroke-linecap="round" stroke-linejoin="round"/>
<path d="M94.6738 176.717C94.6738 176.717 91.3731 179.195 91.8704 180.832C92.3676 182.47 95.1453 179.118 95.8226 178.132C96.4999 177.146 95.9684 175.637 94.6738 176.717Z" fill="white" stroke="#263238" stroke-width="1.04742" stroke-linecap="round" stroke-linejoin="round"/>
<path d="M96.2431 178.157C96.2431 178.157 92.9424 180.634 93.4482 182.272C93.954 183.909 96.7146 180.557 97.4005 179.571C98.0863 178.585 97.5462 177.076 96.2431 178.157Z" fill="white" stroke="#263238" stroke-width="1.04742" stroke-linecap="round" stroke-linejoin="round"/>
<path d="M97.5376 179.324C97.5376 179.324 94.6827 181.159 95.1628 182.513C95.6429 183.868 98.0005 181.304 98.5921 180.516C99.1837 179.727 98.7036 178.458 97.5376 179.324Z" fill="white" stroke="#263238" stroke-width="1.04742" stroke-linecap="round" stroke-linejoin="round"/>
</g>
<defs>
<filter id="filter0_d_626_3587" x="0" y="0" width="409.573" height="316.111" filterUnits="userSpaceOnUse" color-interpolation-filters="sRGB">
<feFlood flood-opacity="0" result="BackgroundImageFix"/>
<feColorMatrix in="SourceAlpha" type="matrix" values="0 0 0 0 0 0 0 0 0 0 0 0 0 0 0 0 0 0 127 0" result="hardAlpha"/>
<feOffset dx="4" dy="4"/>
<feGaussianBlur stdDeviation="2"/>
<feComposite in2="hardAlpha" operator="out"/>
<feColorMatrix type="matrix" values="0 0 0 0 0 0 0 0 0 0 0 0 0 0 0 0 0 0 0.25 0"/>
<feBlend mode="normal" in2="BackgroundImageFix" result="effect1_dropShadow_626_3587"/>
<feBlend mode="normal" in="SourceGraphic" in2="effect1_dropShadow_626_3587" result="shape"/>
</filter>
</defs>
</svg>
