<svg width="408" height="363" viewBox="0 0 408 363" fill="none" xmlns="http://www.w3.org/2000/svg">
<g filter="url(#filter0_d_626_2822)">
<path opacity="0.7" d="M0.201227 196.351C0.201227 196.351 3.51179 264.19 60.801 307.728C118.09 351.265 196.489 352.12 259.981 354.494C323.473 356.868 371.594 319.387 378.034 264.754C384.473 210.12 335.751 195.632 308.43 134.478C281.109 73.3229 283.155 52.9138 226.848 16.5066C170.541 -19.9006 83.975 6.13835 39.4097 72.7863C-5.15571 139.434 0.201227 196.351 0.201227 196.351Z" fill="#064E3B"/>
<path d="M347.484 292.085C347.484 292.085 344.392 278.943 346.711 267.338C349.03 255.732 354.442 263.472 360.636 255.732C366.829 247.993 363.728 233.304 370.685 227.11C377.643 220.917 387.702 221.699 390.021 210.094C392.341 198.489 393.896 189.175 398.534 190.758C403.173 192.34 394.669 206.219 394.669 214.741C394.669 223.263 399.307 228.657 396.215 237.17C393.123 245.682 379.971 242.581 379.971 252.631C379.971 262.681 385.383 272.74 380.745 279.707C376.106 286.673 363.728 288.21 362.182 292.076C360.636 295.941 356.725 302.908 352.896 302.908C349.067 302.908 347.484 292.085 347.484 292.085Z" fill="#BFBFBF"/>
<path d="M345.001 292.212C345.774 289.893 344.228 269.784 337.271 265.918C330.313 262.053 322.573 263.599 318.708 256.632C314.842 249.666 314.833 246.582 310.968 245.809C307.103 245.036 288.54 241.935 290.859 245.809C293.178 249.684 307.103 243.481 307.103 251.221C307.103 258.961 305.556 271.33 310.195 274.422C314.833 277.514 327.212 276.741 326.438 283.708C325.665 290.675 323.346 292.985 327.212 295.313C331.077 297.642 341.909 307.682 343.455 299.952L345.001 292.212Z" fill="#BFBFBF"/>
<path d="M353.578 309.283C353.578 309.283 349.94 298.014 359.881 277.296C369.822 256.577 376.998 240.816 381.5 232.73" stroke="#263238" stroke-width="1.25654" stroke-miterlimit="10"/>
<path d="M345.465 311.084C345.465 311.084 344.119 305.673 339.608 290.811C335.097 275.95 329.704 271.894 322.046 266.937C314.388 261.98 313.942 253.877 312.587 251.621" stroke="#263238" stroke-width="1.25654" stroke-miterlimit="10"/>
<path d="M364.383 302.972C364.383 302.972 365.292 294.868 372.496 292.612C379.699 290.357 386.456 291.266 387.811 286.31C389.167 281.353 389.158 276.396 392.313 273.695C395.469 270.994 399.517 269.639 399.971 270.966C400.426 272.294 395.424 273.222 395.424 277.724C395.424 282.226 402.182 293.486 392.277 297.988C382.373 302.49 374.26 298.442 370.658 301.626C367.057 304.809 364.801 307.028 364.801 307.028L364.383 302.972Z" fill="#BFBFBF"/>
<path d="M363.482 311.083C363.482 311.083 366.638 299.369 374.296 296.668C381.954 293.967 390.476 299.824 394.114 294.412C397.752 289.001 395.024 283.607 394.56 280.006" stroke="#263238" stroke-width="1.25654" stroke-miterlimit="10"/>
<path d="M368.548 309.283H340.627C340.331 309.282 340.038 309.339 339.764 309.452C339.491 309.564 339.242 309.729 339.032 309.938C338.823 310.147 338.656 310.395 338.543 310.668C338.429 310.941 338.371 311.234 338.371 311.53C338.371 312.128 338.609 312.702 339.032 313.125C339.455 313.548 340.028 313.785 340.627 313.785H340.854L343.028 319.488C343.197 319.929 343.496 320.309 343.886 320.577C344.276 320.845 344.738 320.989 345.211 320.988H363.973C364.446 320.987 364.907 320.843 365.297 320.576C365.686 320.308 365.986 319.929 366.156 319.488L368.33 313.785H368.548C369.146 313.785 369.72 313.548 370.143 313.125C370.566 312.702 370.804 312.128 370.804 311.53C370.804 311.234 370.745 310.941 370.632 310.668C370.518 310.395 370.352 310.147 370.143 309.938C369.933 309.729 369.684 309.564 369.411 309.452C369.137 309.339 368.844 309.282 368.548 309.283Z" fill="#263238"/>
<path d="M377.943 181.016H244.347C241.971 181.016 240.045 182.942 240.045 185.318V202.216C240.045 204.592 241.971 206.518 244.347 206.518H377.943C380.319 206.518 382.245 204.592 382.245 202.216V185.318C382.245 182.942 380.319 181.016 377.943 181.016Z" fill="#92E3A9"/>
<path d="M250.741 189.146V200.606H249.504V189.146H250.741Z" fill="#263238"/>
<path d="M253.515 200.606H252.369V189.146H253.987L256.634 197.432V189.146H257.771V200.606H256.443L253.515 191.338V200.606Z" fill="#263238"/>
<path d="M261.072 200.607V190.348H258.962V189.184H264.465V190.348H262.355V200.643L261.072 200.607Z" fill="#263238"/>
<path d="M269.749 194.221V195.367H266.948V199.442H270.422V200.606H265.711V189.146H270.422V190.347H266.984V194.258L269.749 194.221Z" fill="#263238"/>
<path d="M274.451 189.146C276.27 189.146 277.007 190.056 277.007 191.766V192.675C277.007 193.94 276.561 194.722 275.579 195.04C276.625 195.349 277.016 196.204 277.016 197.432V199.251C276.977 199.721 277.059 200.194 277.252 200.624H275.952C275.774 200.183 275.702 199.707 275.743 199.233V197.414C275.743 196.122 275.133 195.713 274.069 195.713H273.16V200.606H271.886V189.146H274.451ZM274.124 194.549C275.133 194.549 275.743 194.221 275.743 192.975V191.875C275.743 190.847 275.37 190.311 274.415 190.311H273.151V194.549H274.124Z" fill="#263238"/>
<path d="M279.799 200.606H278.653V189.146H280.272L282.928 197.432V189.146H284.065V200.606H282.746L279.808 191.338L279.799 200.606Z" fill="#263238"/>
<path d="M286.984 198.296L286.548 200.606H285.365L287.557 189.146H289.376L291.568 200.606H290.295L289.849 198.296H286.984ZM287.148 197.205H289.703L288.412 190.584L287.148 197.205Z" fill="#263238"/>
<path d="M292.932 200.606V189.146H294.205V199.442H297.48V200.606H292.932Z" fill="#263238"/>
<path d="M306.602 191.893V192.166H305.392V191.793C305.392 190.766 305.001 190.156 304.083 190.156C303.164 190.156 302.773 190.766 302.773 191.775C302.773 194.349 306.62 194.595 306.62 197.814C306.62 199.551 305.783 200.688 304.028 200.688C302.273 200.688 301.463 199.551 301.463 197.814V197.169H302.655V197.887C302.655 198.915 303.082 199.524 304.001 199.524C304.919 199.524 305.338 198.915 305.338 197.887C305.338 195.331 301.509 195.086 301.509 191.857C301.509 190.093 302.327 188.992 304.046 188.992C305.765 188.992 306.602 190.156 306.602 191.893Z" fill="#263238"/>
<path d="M312.132 194.221V195.367H309.34V199.442H312.777V200.606H308.057V189.146H312.777V190.347H309.34V194.258L312.132 194.221Z" fill="#263238"/>
<path d="M316.806 189.146C318.625 189.146 319.362 190.056 319.362 191.766V192.675C319.362 193.94 318.917 194.722 317.934 195.04C318.98 195.349 319.38 196.204 319.38 197.432V199.251C319.339 199.721 319.417 200.193 319.608 200.624H318.316C318.13 200.186 318.055 199.708 318.098 199.233V197.414C318.098 196.122 317.498 195.713 316.434 195.713H315.524V200.606H314.242V189.146H316.806ZM316.479 194.549C317.498 194.549 318.098 194.221 318.098 192.975V191.875C318.098 190.847 317.725 190.311 316.77 190.311H315.533V194.549H316.479Z" fill="#263238"/>
<path d="M321.991 189.146L323.855 199.151L325.674 189.146H326.847L324.701 200.606H322.818L320.663 189.146H321.991Z" fill="#263238"/>
<path d="M332.268 194.221V195.367H329.467V199.442H332.914V200.606H328.193V189.146H332.914V190.347H329.467V194.258L332.268 194.221Z" fill="#263238"/>
<path d="M336.97 189.146C338.789 189.146 339.526 190.056 339.526 191.766V192.675C339.526 193.94 339.08 194.722 338.098 195.04C339.144 195.349 339.544 196.204 339.544 197.432V199.251C339.503 199.721 339.581 200.193 339.771 200.624H338.48C338.293 200.186 338.218 199.708 338.262 199.233V197.414C338.262 196.122 337.652 195.713 336.588 195.713H335.679V200.606H334.405V189.146H336.97ZM336.643 194.549C337.652 194.549 338.262 194.221 338.262 192.975V191.875C338.262 190.847 337.889 190.311 336.934 190.311H335.688V194.549H336.643Z" fill="#263238"/>
<path d="M348.13 194.221V195.367H345.338V199.442H348.775V200.606H344.092V189.146H348.812V190.347H345.374V194.258L348.13 194.221Z" fill="#263238"/>
<path d="M352.832 189.146C354.651 189.146 355.388 190.056 355.388 191.766V192.675C355.388 193.94 354.942 194.722 353.96 195.04C355.006 195.349 355.406 196.204 355.406 197.432V199.251C355.369 199.72 355.447 200.192 355.633 200.624H354.342C354.155 200.186 354.08 199.708 354.123 199.233V197.414C354.123 196.122 353.523 195.713 352.459 195.713H351.549V200.606H350.276V189.146H352.832ZM352.504 194.549C353.523 194.549 354.123 194.221 354.123 192.975V191.875C354.123 190.847 353.75 190.311 352.795 190.311H351.559V194.549H352.504Z" fill="#263238"/>
<path d="M359.608 189.146C361.427 189.146 362.163 190.056 362.163 191.766V192.675C362.163 193.94 361.718 194.722 360.735 195.04C361.79 195.349 362.181 196.204 362.181 197.432V199.251C362.145 199.72 362.223 200.192 362.409 200.624H361.117C360.935 200.184 360.86 199.707 360.899 199.233V197.414C360.899 196.122 360.299 195.713 359.235 195.713H358.325V200.606H357.043V189.146H359.608ZM359.28 194.549C360.299 194.549 360.899 194.221 360.899 192.975V191.875C360.899 190.847 360.526 190.311 359.58 190.311H358.334V194.549H359.28Z" fill="#263238"/>
<path d="M363.737 191.91C363.737 190.155 364.601 189.027 366.356 189.027C368.111 189.027 368.993 190.155 368.993 191.91V197.84C368.993 199.578 368.084 200.723 366.356 200.723C364.628 200.723 363.737 199.578 363.737 197.84V191.91ZM364.992 197.904C364.992 198.95 365.437 199.559 366.356 199.559C367.275 199.559 367.711 198.95 367.711 197.904V191.847C367.711 190.81 367.284 190.191 366.356 190.191C365.428 190.191 364.992 190.81 364.992 191.847V197.904Z" fill="#263238"/>
<path d="M373.086 189.146C374.905 189.146 375.633 190.056 375.633 191.766V192.675C375.633 193.94 375.196 194.722 374.214 195.04C375.26 195.349 375.651 196.204 375.651 197.432V199.251C375.613 199.721 375.694 200.194 375.888 200.624H374.587C374.409 200.183 374.337 199.707 374.378 199.233V197.414C374.378 196.122 373.768 195.713 372.704 195.713H371.795V200.606H370.521V189.146H373.086ZM372.759 194.549C373.768 194.549 374.378 194.221 374.378 192.975V191.875C374.378 190.847 373.996 190.311 373.05 190.311H371.804V194.549H372.759Z" fill="#263238"/>
<path d="M271.441 153.968V159.288C271.441 163.381 273.26 164.854 276.107 164.854C278.953 164.854 280.772 163.381 280.772 159.288V146.692C280.772 142.599 278.953 141.044 276.107 141.044C273.26 141.044 271.441 142.599 271.441 146.692V148.411H262.928L264.565 115.178H288.303V123.363H272.669L271.932 137.006C272.735 135.658 273.893 134.557 275.278 133.821C276.663 133.085 278.224 132.743 279.79 132.831C286.42 132.831 289.795 137.497 289.795 145.928V158.661C289.795 167.829 285.247 173.067 276.37 173.067C267.494 173.067 262.946 167.829 262.946 158.661V153.968H271.441Z" fill="#F5FFFE"/>
<path d="M296.652 128.938C296.652 119.77 301.481 114.531 310.294 114.531C319.108 114.531 323.937 119.77 323.937 128.938V158.733C323.937 167.901 319.108 173.139 310.294 173.139C301.481 173.139 296.652 167.901 296.652 158.733V128.938ZM305.656 159.306C305.656 163.399 307.475 164.954 310.322 164.954C313.169 164.954 314.988 163.399 314.988 159.306V128.383C314.988 124.29 313.169 122.735 310.322 122.735C307.475 122.735 305.656 124.29 305.656 128.383V159.306Z" fill="#F5FFFE"/>
<path d="M330.704 128.938C330.704 119.77 335.533 114.531 344.346 114.531C353.159 114.531 357.989 119.77 357.989 128.938V158.733C357.989 167.901 353.159 173.139 344.346 173.139C335.533 173.139 330.704 167.901 330.704 158.733V128.938ZM339.708 159.306C339.708 163.399 341.527 164.954 344.373 164.954C347.22 164.954 349.039 163.399 349.039 159.306V128.383C349.039 124.29 347.22 122.735 344.373 122.735C341.527 122.735 339.708 124.29 339.708 128.383V159.306Z" fill="#F5FFFE"/>
<path d="M103.984 260.871C109.662 260.022 115.445 261.462 120.064 264.873C127.494 270.584 133.142 285.109 136.062 305.445C138.981 325.782 140.609 334.549 157.771 337.442C174.934 340.334 216.061 339.16 240.627 338.587C265.192 338.014 264.055 315.159 243.492 312.876C222.928 310.593 208.685 316.077 187.23 311.33C165.775 306.582 206.33 300.298 237.198 304.872C268.066 309.447 281.763 310.584 298.343 308.874" stroke="#263238" stroke-width="2.51308" stroke-linecap="round" stroke-linejoin="round"/>
<path d="M103.984 230.457C103.984 230.457 120.637 230.584 125.202 247.737C129.768 264.891 131.487 288.883 132.06 307.764C132.633 326.645 133.206 342.625 154.916 347.191C176.625 351.757 235.488 350.047 251.486 346.618C267.484 343.189 285.201 327.764 272.059 324.335C258.917 320.907 240.627 324.335 247.502 328.883C254.378 333.43 272.65 332.312 294.36 329.456" stroke="#263238" stroke-width="2.51308" stroke-linecap="round" stroke-linejoin="round"/>
<path d="M107.404 290.111C107.404 290.111 117.581 289.201 121.555 300.724C125.53 312.248 120.646 314.876 122.883 320.624C125.121 326.372 139.054 321.006 138.99 325.772C138.927 330.119 133.415 331.347 101.655 329.474C60.1279 327.027 32.6519 333.457 34.862 337.441C37.0721 341.425 70.2506 338.35 62.2834 344.517C54.3162 350.683 34.862 343.607 19.8189 343.189C4.77585 342.771 2.12012 346.281 2.12012 346.281" stroke="#263238" stroke-width="2.51308" stroke-linecap="round" stroke-linejoin="round"/>
<path d="M108.631 127.639H8.64125C6.85306 127.639 5.40344 129.088 5.40344 130.876V320.307C5.40344 322.095 6.85306 323.544 8.64125 323.544H108.631C110.42 323.544 111.869 322.095 111.869 320.307V130.876C111.869 129.088 110.42 127.639 108.631 127.639Z" fill="#263238" stroke="#263238" stroke-width="1.25654" stroke-linecap="round" stroke-linejoin="round"/>
<path d="M109.277 156.979H7.94995V232.021H109.277V156.979Z" fill="#616161"/>
<path d="M109.277 244.219H7.94995V319.261H109.277V244.219Z" fill="#616161"/>
<path d="M96.7078 253.359H39.1821V312.022H96.7078V253.359Z" fill="#92E3A9" stroke="#263238" stroke-width="1.25654" stroke-linecap="round" stroke-linejoin="round"/>
<path d="M96.7078 165.365H39.1821V179.844H96.7078V165.365Z" fill="#92E3A9" stroke="#263238" stroke-width="1.25654" stroke-linecap="round" stroke-linejoin="round"/>
<path d="M96.7078 193.168H39.1821V207.647H96.7078V193.168Z" fill="#92E3A9" stroke="#263238" stroke-width="1.25654" stroke-linecap="round" stroke-linejoin="round"/>
<path d="M94.7797 158.662L93.6701 161.709H42.711L41.6014 158.662H30.8057V172.05H41.6014L42.711 169.003H93.6701L94.7797 172.05H107.003V158.662H94.7797Z" fill="#263238" stroke="#263238" stroke-width="1.25654" stroke-linecap="round" stroke-linejoin="round"/>
<path d="M94.7797 173.268L93.6701 176.305H42.711L41.6014 173.268H30.8057V186.646H41.6014L42.711 183.609H93.6701L94.7797 186.646H107.003V173.268H94.7797Z" fill="#263238" stroke="#263238" stroke-width="1.25654" stroke-linecap="round" stroke-linejoin="round"/>
<path d="M94.7797 187.865L93.6701 190.912H42.711L41.6014 187.865H30.8057V201.253H41.6014L42.711 198.206H93.6701L94.7797 201.253H107.003V187.865H94.7797Z" fill="#263238" stroke="#263238" stroke-width="1.25654" stroke-linecap="round" stroke-linejoin="round"/>
<path d="M94.7797 202.463L93.6701 205.51H42.711L41.6014 202.463H30.8057V215.851H41.6014L42.711 212.813H93.6701L94.7797 215.851H107.003V202.463H94.7797Z" fill="#263238" stroke="#263238" stroke-width="1.25654" stroke-linecap="round" stroke-linejoin="round"/>
<path d="M94.7797 217.07L93.6701 220.108H42.711L41.6014 217.07H30.8057V230.458H41.6014L42.711 227.411H93.6701L94.7797 230.458H107.003V217.07H94.7797Z" fill="#263238" stroke="#263238" stroke-width="1.25654" stroke-linecap="round" stroke-linejoin="round"/>
<path d="M94.7797 246.273L93.6701 249.311H42.711L41.6014 246.273H30.8057V259.652H41.6014L42.711 256.614H93.6701L94.7797 259.652H107.003V246.273H94.7797Z" fill="#263238" stroke="#263238" stroke-width="1.25654" stroke-linecap="round" stroke-linejoin="round"/>
<path d="M94.7797 260.871L93.6701 263.918H42.711L41.6014 260.871H30.8057V274.259H41.6014L42.711 271.221H93.6701L94.7797 274.259H107.003V260.871H94.7797Z" fill="#263238" stroke="#263238" stroke-width="1.25654" stroke-linecap="round" stroke-linejoin="round"/>
<path d="M94.7797 275.477L93.6701 278.514H42.711L41.6014 275.477H30.8057V288.855H41.6014L42.711 285.818H93.6701L94.7797 288.855H107.003V275.477H94.7797Z" fill="#263238" stroke="#263238" stroke-width="1.25654" stroke-linecap="round" stroke-linejoin="round"/>
<path d="M94.7797 290.074L93.6701 293.121H42.711L41.6014 290.074H30.8057V303.462H41.6014L42.711 300.415H93.6701L94.7797 303.462H107.003V290.074H94.7797Z" fill="#263238" stroke="#263238" stroke-width="1.25654" stroke-linecap="round" stroke-linejoin="round"/>
<path d="M94.7797 304.682L93.6701 307.719H42.711L41.6014 304.682H30.8057V318.06H41.6014L42.711 315.023H93.6701L94.7797 318.06H107.003V304.682H94.7797Z" fill="#263238" stroke="#263238" stroke-width="1.25654" stroke-linecap="round" stroke-linejoin="round"/>
<path d="M106.985 234.359H9.9873V243.5H106.985V234.359Z" fill="white"/>
<path d="M18.1728 238.833C18.1728 238.328 18.0229 237.833 17.7421 237.413C17.4612 236.993 17.0621 236.665 16.5951 236.472C16.1281 236.278 15.6143 236.228 15.1185 236.326C14.6227 236.425 14.1674 236.668 13.8099 237.026C13.4525 237.383 13.2091 237.839 13.1105 238.334C13.0119 238.83 13.0625 239.344 13.2559 239.811C13.4494 240.278 13.7769 240.677 14.1972 240.958C14.6175 241.239 15.1116 241.389 15.6171 241.389C15.9527 241.389 16.285 241.323 16.5951 241.194C16.9052 241.066 17.1869 240.877 17.4242 240.64C17.6616 240.403 17.8498 240.121 17.9782 239.811C18.1067 239.501 18.1728 239.169 18.1728 238.833Z" fill="#263238" stroke="#263238" stroke-width="1.25654" stroke-linecap="round" stroke-linejoin="round"/>
<path d="M24.1299 241.389C25.5414 241.389 26.6856 240.244 26.6856 238.833C26.6856 237.422 25.5414 236.277 24.1299 236.277C22.7184 236.277 21.5742 237.422 21.5742 238.833C21.5742 240.244 22.7184 241.389 24.1299 241.389Z" fill="#92E3A9" stroke="#263238" stroke-width="1.25654" stroke-linecap="round" stroke-linejoin="round"/>
<path d="M35.1985 238.833C35.1985 238.328 35.0486 237.833 34.7678 237.413C34.487 236.993 34.0879 236.665 33.6209 236.472C33.1539 236.278 32.64 236.228 32.1443 236.326C31.6485 236.425 31.1931 236.668 30.8357 237.026C30.4783 237.383 30.2349 237.839 30.1363 238.334C30.0377 238.83 30.0883 239.344 30.2817 239.811C30.4751 240.278 30.8027 240.677 31.223 240.958C31.6433 241.239 32.1374 241.389 32.6428 241.389C33.3207 241.389 33.9707 241.119 34.45 240.64C34.9293 240.161 35.1985 239.511 35.1985 238.833Z" fill="#263238" stroke="#263238" stroke-width="1.25654" stroke-linecap="round" stroke-linejoin="round"/>
<path d="M106.985 146.748H9.9873V155.888H106.985V146.748Z" fill="white"/>
<path d="M18.1728 151.239C18.1728 150.734 18.0229 150.24 17.7421 149.819C17.4612 149.399 17.0621 149.072 16.5951 148.878C16.1281 148.685 15.6143 148.634 15.1185 148.733C14.6227 148.831 14.1674 149.075 13.8099 149.432C13.4525 149.79 13.2091 150.245 13.1105 150.741C13.0119 151.236 13.0625 151.75 13.2559 152.217C13.4494 152.684 13.7769 153.083 14.1972 153.364C14.6175 153.645 15.1116 153.795 15.6171 153.795C15.9527 153.795 16.285 153.729 16.5951 153.6C16.9052 153.472 17.1869 153.284 17.4242 153.046C17.6616 152.809 17.8498 152.527 17.9782 152.217C18.1067 151.907 18.1728 151.575 18.1728 151.239Z" fill="white" stroke="#263238" stroke-width="1.25654" stroke-linecap="round" stroke-linejoin="round"/>
<path d="M26.6766 151.239C26.6766 150.734 26.5267 150.24 26.2458 149.819C25.965 149.399 25.5659 149.072 25.0989 148.878C24.6319 148.685 24.118 148.634 23.6223 148.733C23.1265 148.831 22.6711 149.075 22.3137 149.432C21.9563 149.79 21.7129 150.245 21.6143 150.741C21.5157 151.236 21.5663 151.75 21.7597 152.217C21.9532 152.684 22.2807 153.083 22.701 153.364C23.1213 153.645 23.6154 153.795 24.1209 153.795C24.7987 153.795 25.4487 153.526 25.928 153.046C26.4073 152.567 26.6766 151.917 26.6766 151.239Z" fill="#92E3A9" stroke="#263238" stroke-width="1.25654" stroke-linecap="round" stroke-linejoin="round"/>
<path d="M35.1985 151.239C35.1985 150.734 35.0486 150.24 34.7678 149.819C34.487 149.399 34.0879 149.072 33.6209 148.878C33.1539 148.685 32.64 148.634 32.1443 148.733C31.6485 148.831 31.1931 149.075 30.8357 149.432C30.4783 149.79 30.2349 150.245 30.1363 150.741C30.0377 151.236 30.0883 151.75 30.2817 152.217C30.4751 152.684 30.8027 153.083 31.223 153.364C31.6433 153.645 32.1374 153.795 32.6428 153.795C33.3207 153.795 33.9707 153.526 34.45 153.046C34.9293 152.567 35.1985 151.917 35.1985 151.239Z" fill="white" stroke="#263238" stroke-width="1.25654" stroke-linecap="round" stroke-linejoin="round"/>
<path d="M106.985 134.988H9.9873V144.129H106.985V134.988Z" fill="white"/>
<path d="M18.1728 139.462C18.1728 138.956 18.0229 138.462 17.7421 138.042C17.4612 137.622 17.0621 137.294 16.5951 137.101C16.1281 136.907 15.6143 136.857 15.1185 136.955C14.6227 137.054 14.1674 137.297 13.8099 137.655C13.4525 138.012 13.2091 138.468 13.1105 138.963C13.0119 139.459 13.0625 139.973 13.2559 140.44C13.4494 140.907 13.7769 141.306 14.1972 141.587C14.6175 141.868 15.1116 142.018 15.6171 142.018C15.9527 142.018 16.285 141.952 16.5951 141.823C16.9052 141.695 17.1869 141.506 17.4242 141.269C17.6616 141.032 17.8498 140.75 17.9782 140.44C18.1067 140.13 18.1728 139.798 18.1728 139.462Z" fill="#92E3A9" stroke="#263238" stroke-width="1.25654" stroke-linecap="round" stroke-linejoin="round"/>
<path d="M26.6766 139.462C26.6766 138.956 26.5267 138.462 26.2458 138.042C25.965 137.622 25.5659 137.294 25.0989 137.101C24.6319 136.907 24.118 136.857 23.6223 136.955C23.1265 137.054 22.6711 137.297 22.3137 137.655C21.9563 138.012 21.7129 138.468 21.6143 138.963C21.5157 139.459 21.5663 139.973 21.7597 140.44C21.9532 140.907 22.2807 141.306 22.701 141.587C23.1213 141.868 23.6154 142.018 24.1209 142.018C24.7987 142.018 25.4487 141.748 25.928 141.269C26.4073 140.79 26.6766 140.14 26.6766 139.462Z" fill="#263238" stroke="#263238" stroke-width="1.25654" stroke-linecap="round" stroke-linejoin="round"/>
<path d="M35.1985 139.462C35.1985 138.956 35.0486 138.462 34.7678 138.042C34.487 137.622 34.0879 137.294 33.6209 137.101C33.1539 136.907 32.64 136.857 32.1443 136.955C31.6485 137.054 31.1931 137.297 30.8357 137.655C30.4783 138.012 30.2349 138.468 30.1363 138.963C30.0377 139.459 30.0883 139.973 30.2817 140.44C30.4751 140.907 30.8027 141.306 31.223 141.587C31.6433 141.868 32.1374 142.018 32.6428 142.018C33.3207 142.018 33.9707 141.748 34.45 141.269C34.9293 140.79 35.1985 140.14 35.1985 139.462Z" fill="#263238" stroke="#263238" stroke-width="1.25654" stroke-linecap="round" stroke-linejoin="round"/>
<path d="M26.2308 158.889H10.2328V165.746H26.2308V158.889Z" fill="#263238" stroke="#263238" stroke-width="1.25654" stroke-linecap="round" stroke-linejoin="round"/>
<path d="M26.2308 173.74H10.2328V180.598H26.2308V173.74Z" fill="#263238" stroke="#263238" stroke-width="1.25654" stroke-linecap="round" stroke-linejoin="round"/>
<path d="M26.2308 188.602H10.2328V195.459H26.2308V188.602Z" fill="#92E3A9" stroke="#263238" stroke-width="1.25654" stroke-linecap="round" stroke-linejoin="round"/>
<path d="M26.2308 203.455H10.2328V210.313H26.2308V203.455Z" fill="#92E3A9" stroke="#263238" stroke-width="1.25654" stroke-linecap="round" stroke-linejoin="round"/>
<path d="M26.2308 218.316H10.2328V225.174H26.2308V218.316Z" fill="#92E3A9" stroke="#263238" stroke-width="1.25654" stroke-linecap="round" stroke-linejoin="round"/>
<path d="M26.2308 246.119H10.2328V252.977H26.2308V246.119Z" fill="#92E3A9" stroke="#263238" stroke-width="1.25654" stroke-linecap="round" stroke-linejoin="round"/>
<path d="M26.2308 260.98H10.2328V267.838H26.2308V260.98Z" fill="#263238" stroke="#263238" stroke-width="1.25654" stroke-linecap="round" stroke-linejoin="round"/>
<path d="M26.2309 275.832H10.2328V282.69H26.2309V275.832Z" fill="#92E3A9" stroke="#263238" stroke-width="1.25654" stroke-linecap="round" stroke-linejoin="round"/>
<path d="M26.2309 290.693H10.2328V297.551H26.2309V290.693Z" fill="#263238" stroke="#263238" stroke-width="1.25654" stroke-linecap="round" stroke-linejoin="round"/>
<path d="M26.2308 305.545H10.2328V312.403H26.2308V305.545Z" fill="#92E3A9" stroke="#263238" stroke-width="1.25654" stroke-linecap="round" stroke-linejoin="round"/>
<path d="M160.228 86.084C160.228 86.084 144.894 89.9857 140.637 95.8156C136.381 101.645 119.128 141.29 119.128 141.29C119.128 141.29 113.534 147.566 119.582 153.614C125.63 159.662 137.727 161.9 142.211 156.525C146.694 151.149 153.179 125.829 154.08 122.919C154.98 120.008 161.692 95.3609 162.365 94.0239C163.038 92.6869 163.684 86.8843 160.228 86.084Z" fill="#BDBDBD" stroke="#263238" stroke-width="1.25654" stroke-linecap="round" stroke-linejoin="round"/>
<path d="M160.228 86.084C160.228 86.084 144.894 89.9857 140.637 95.8156C138.063 99.3354 130.733 115.252 125.339 127.266C127.959 126.739 138.873 125.12 151.651 131.559C152.879 127.266 153.788 123.874 154.08 122.919C154.989 120.008 161.692 95.3609 162.365 94.0239C163.038 92.6869 163.684 86.8843 160.228 86.084Z" fill="#263238" stroke="#263238" stroke-width="1.25654" stroke-linecap="round" stroke-linejoin="round"/>
<path d="M205.157 34.4339C207.795 35.9227 209.907 38.191 211.205 40.9277C213.024 45.1841 213.024 51.678 213.024 51.678C213.024 51.678 241.701 50.7685 252.678 50.5593C263.656 50.3501 271.05 53.024 271.268 58.3991C271.487 63.7743 269.031 74.3062 262.983 78.3353C256.935 82.3644 238.117 75.8706 228.486 73.1876C218.854 70.5045 215.489 71.3686 208.549 70.4591C201.61 69.5496 199.582 66.8757 198.463 62.6192C197.344 58.3628 199.582 50.2955 199.582 43.8017C199.582 37.3079 198.663 33.0878 205.157 34.4339Z" fill="#BDBDBD" stroke="#263238" stroke-width="1.25654" stroke-linecap="round" stroke-linejoin="round"/>
<path d="M247.048 61.9819C247.048 61.9819 243.019 72.2865 235.625 77.889C230.323 81.909 223.165 84.2009 219.554 85.165C206.63 81.527 188.386 79.8172 177.717 82.1818C177.717 82.1818 162.82 85.7471 160.228 86.0745C157.636 86.4019 151.478 107.129 150.178 121.381C148.877 135.633 153.097 170.949 153.097 173.541C153.097 176.133 154.716 219.225 157.308 231.212C159.9 243.199 162.82 259.406 163.138 261.662C163.456 263.918 165.73 280.761 165.73 286.282C165.73 291.803 163.102 305.081 163.102 305.081C163.102 305.081 151.442 312.858 146.904 317.387C142.365 321.916 150.241 326.7 155.999 327.755C165.767 329.574 177.372 319.979 177.372 319.979L190.387 314.804C193.834 313.422 194.852 309.72 194.934 306.4L195.534 282.408C197.572 290.896 199.245 299.473 200.555 308.137C201.082 311.684 201.628 315.413 203.765 318.278C204.952 319.923 206.486 321.286 208.258 322.271C209.55 322.871 210.923 322.744 212.224 323.49C214.616 324.872 215.598 327.855 217.917 329.356C222.911 332.31 228.644 333.777 234.443 333.585C234.443 333.585 247.394 334.24 248.085 327.109C248.776 319.979 231.232 308.319 231.232 308.319C231.232 308.319 228.64 261.025 226.685 245.473C224.729 229.921 219.554 204.655 219.554 193.632C219.554 182.609 224.738 130.776 224.738 130.776C224.738 130.776 225.266 129.412 226.075 127.193L226.93 126.72C234.324 122.463 254.934 105.883 261.655 95.3514C268.094 85.2741 270.422 66.3657 270.604 60.8359" fill="#BDBDBD"/>
<path d="M247.048 61.9819C247.048 61.9819 243.019 72.2865 235.625 77.889C230.323 81.909 223.165 84.2009 219.554 85.165C206.63 81.527 188.386 79.8172 177.717 82.1818C177.717 82.1818 162.82 85.7471 160.228 86.0745C157.636 86.4019 151.478 107.129 150.178 121.381C148.877 135.633 153.097 170.949 153.097 173.541C153.097 176.133 154.716 219.225 157.308 231.212C159.9 243.199 162.82 259.406 163.138 261.662C163.456 263.918 165.73 280.761 165.73 286.282C165.73 291.803 163.102 305.081 163.102 305.081C163.102 305.081 151.442 312.858 146.904 317.387C142.365 321.916 150.241 326.7 155.999 327.755C165.767 329.574 177.372 319.979 177.372 319.979L190.387 314.804C193.834 313.422 194.852 309.72 194.934 306.4L195.534 282.408C197.572 290.896 199.245 299.473 200.555 308.137C201.082 311.684 201.628 315.413 203.765 318.278C204.952 319.923 206.486 321.286 208.258 322.271C209.55 322.871 210.923 322.744 212.224 323.49C214.616 324.872 215.598 327.855 217.917 329.356C222.911 332.31 228.644 333.777 234.443 333.585C234.443 333.585 247.394 334.24 248.085 327.109C248.776 319.979 231.232 308.319 231.232 308.319C231.232 308.319 228.64 261.025 226.685 245.473C224.729 229.921 219.554 204.655 219.554 193.632C219.554 182.609 224.738 130.776 224.738 130.776C224.738 130.776 225.266 129.412 226.075 127.193L226.93 126.72C234.324 122.463 254.934 105.883 261.655 95.3514C268.094 85.2741 270.422 66.3657 270.604 60.8359" stroke="#263238" stroke-width="1.25654" stroke-linecap="round" stroke-linejoin="round"/>
<path d="M248.022 327.11C248.667 319.979 231.169 308.319 231.169 308.319C231.169 308.319 230.969 304.681 230.641 299.088C220.492 301.534 210.086 302.755 199.645 302.726C199.955 304.545 200.258 306.364 200.555 308.183C201.082 311.73 201.628 315.459 203.765 318.324C204.952 319.968 206.486 321.332 208.258 322.316C209.55 322.917 210.923 322.789 212.224 323.535C214.616 324.918 215.598 327.901 217.917 329.401C222.911 332.355 228.644 333.823 234.443 333.631C234.443 333.631 247.367 334.24 248.022 327.11Z" fill="#263238" stroke="#263238" stroke-width="1.25654" stroke-linecap="round" stroke-linejoin="round"/>
<path d="M190.387 314.805C193.834 313.422 194.852 309.721 194.934 306.401C194.934 305.146 194.998 303.891 195.025 302.636C184.683 302.286 174.41 300.816 164.384 298.252C163.766 302.035 163.165 305.082 163.165 305.082C163.165 305.082 151.506 312.858 146.967 317.388C142.429 321.917 150.305 326.701 156.062 327.756C165.83 329.575 177.435 319.98 177.435 319.98L190.387 314.805Z" fill="#263238" stroke="#263238" stroke-width="1.25654" stroke-linecap="round" stroke-linejoin="round"/>
<path d="M248.022 327.109C248.022 327.009 248.022 326.9 248.022 326.791C245.159 328.838 241.852 330.179 238.372 330.702C228.131 332.521 218.799 327.291 216.298 325.017C213.797 322.743 212.206 320.915 208.331 318.414C204.457 315.913 200.955 309.756 200.955 309.756L200.81 309.983C201.292 312.939 201.965 315.895 203.738 318.278C204.924 319.923 206.458 321.286 208.231 322.271C209.522 322.871 210.896 322.743 212.196 323.489C214.588 324.872 215.571 327.855 217.89 329.356C222.884 332.309 228.617 333.777 234.415 333.585C234.415 333.585 247.367 334.24 248.022 327.109Z" fill="#065F46" fill-opacity="0.75" stroke="#263238" stroke-width="1.25654" stroke-linecap="round" stroke-linejoin="round"/>
<path d="M190.387 314.804C193.397 313.594 194.552 310.629 194.861 307.691C191.878 309.51 184.984 313.485 180.61 315.231C174.925 317.505 171.051 324.326 159.909 324.326C151.96 324.326 147.604 321.216 145.758 319.424C144.775 323.262 151.215 326.855 156.053 327.755C165.821 329.574 177.426 319.979 177.426 319.979L190.387 314.804Z" fill="#065F46" fill-opacity="0.75" stroke="#263238" stroke-width="1.25654" stroke-linecap="round" stroke-linejoin="round"/>
<path d="M232.433 80C228.372 82.2542 224.046 83.9927 219.554 85.175C206.63 81.5371 188.386 79.8272 177.717 82.1919C177.717 82.1919 162.82 85.7571 160.228 86.0845C157.636 86.412 151.478 107.139 150.178 121.391C149.377 130.195 150.678 147.003 151.788 159.199C178.791 169.094 207.585 165.702 221.664 163.01C223.083 146.857 224.693 130.786 224.693 130.786C224.693 130.786 225.22 129.422 226.03 127.203L226.885 126.73C231.914 123.838 243.028 115.261 251.75 106.721C234.243 101.673 232.124 87.8672 232.433 80Z" fill="#263238" stroke="#263238" stroke-width="1.25654" stroke-linecap="round" stroke-linejoin="round"/>
<path d="M207.331 95.4518C207.277 92.7317 206.582 90.0627 205.301 87.662C204.021 85.2613 202.192 83.1968 199.964 81.6366C191.687 80.8362 183.593 80.8908 177.717 82.1913C177.717 82.1913 173.597 83.1827 169.314 84.1559C166.429 87.2141 164.805 91.2482 164.766 95.4518C164.766 105.556 174.298 113.751 186.048 113.751C197.799 113.751 207.331 105.556 207.331 95.4518Z" fill="#616161" stroke="#263238" stroke-width="1.25654" stroke-linecap="round" stroke-linejoin="round"/>
<path d="M200.955 309.756C205.814 311.465 210.965 312.189 216.107 311.884C227.285 311.402 231.169 308.319 231.169 308.319C231.169 308.319 228.577 261.025 226.621 245.472C224.666 229.92 219.491 204.654 219.491 193.631C219.491 187.137 221.31 166.464 222.774 150.585L222.074 150.666C220.212 150.883 218.327 150.696 216.544 150.118C214.762 149.54 213.124 148.586 211.744 147.319C210.363 146.052 209.271 144.503 208.543 142.777C207.814 141.051 207.466 139.188 207.522 137.315L207.831 126.974C199.402 127.524 190.94 127.28 182.556 126.246C167.495 124.546 151.942 119.443 151.942 119.443L150.305 119.944C150.305 120.426 150.205 120.908 150.16 121.381C148.868 135.642 153.079 170.948 153.079 173.54C153.079 176.132 154.698 219.224 157.29 231.211C159.882 243.199 162.802 259.406 163.12 261.661C163.438 263.917 165.712 280.761 165.712 286.282C165.712 291.802 163.22 304.581 163.129 305.054C165.075 305.654 169.15 306.873 176.49 308.955C187.658 312.12 194.871 308.31 194.871 308.31C194.871 304.426 195.516 282.398 195.516 282.398C195.516 282.398 199.627 301.043 200.955 309.756Z" fill="#065F46" fill-opacity="0.75" stroke="#263238" stroke-width="1.25654" stroke-linecap="round" stroke-linejoin="round"/>
<path d="M163.947 133.096L193.042 137.88V155.815L176.699 172.168L163.547 156.215L163.947 133.096Z" stroke="#263238" stroke-width="1.25654" stroke-linecap="round" stroke-linejoin="round"/>
<path d="M184.93 233.95C182.829 222.127 181.292 210.449 181.292 202.063L169.632 194.287" stroke="#263238" stroke-width="1.25654" stroke-linecap="round" stroke-linejoin="round"/>
<path d="M195.534 282.407C195.534 282.407 190.623 263.426 186.567 242.635" stroke="#263238" stroke-width="1.25654" stroke-linecap="round" stroke-linejoin="round"/>
<path d="M204.202 181.918C204.466 182.968 204.87 183.977 205.402 184.919C208.995 191.286 214.17 192.095 214.17 192.095L214.97 175.352" stroke="#263238" stroke-width="1.25654" stroke-linecap="round" stroke-linejoin="round"/>
<path d="M205.402 172.158C204.783 173.365 204.339 174.655 204.084 175.987" stroke="#263238" stroke-width="1.25654" stroke-linecap="round" stroke-linejoin="round"/>
<path d="M219.691 223.09C220.109 225.3 220.536 227.474 220.955 229.547" stroke="#263238" stroke-width="1.25654" stroke-linecap="round" stroke-linejoin="round"/>
<path d="M214.17 192.094C214.17 192.094 216.226 204.381 218.599 217.26" stroke="#263238" stroke-width="1.25654" stroke-linecap="round" stroke-linejoin="round"/>
<path d="M175.835 75.2979L175.653 84.8476C175.653 84.8476 172.36 87.4852 171.706 94.3973C171.051 101.31 177.636 107.74 185.039 107.74C192.442 107.74 198.872 101.973 200.027 96.7075C201.182 91.4415 199.691 83.8654 199.691 83.8654L199.2 72.342C199.2 72.342 191.924 76.9441 185.039 75.6344C178.154 74.3247 176.153 71.8418 176.153 71.8418L175.835 75.2979Z" fill="#BDBDBD" stroke="#263238" stroke-width="1.25654" stroke-linecap="round" stroke-linejoin="round"/>
<path d="M170.66 50.3777C170.66 50.3777 170.214 55.8347 171.396 57.1717C172.579 58.5087 174.207 59.5364 174.507 58.354C174.807 57.1717 174.943 50.9689 175.244 49.6411C175.544 48.3132 170.805 46.6488 170.66 50.3777Z" fill="#BDBDBD" stroke="#263238" stroke-width="1.25654" stroke-linecap="round" stroke-linejoin="round"/>
<path d="M173.552 50.2849C173.552 50.2849 172.197 61.1989 172.197 66.4831C172.197 71.7673 170.15 73.7591 176.744 77.197C183.338 80.6349 189.05 81.0714 193.606 79.4707C198.163 77.87 200.673 74.0137 200.882 70.8123C201.092 67.6109 201.11 62.6268 201.11 62.6268C201.11 62.6268 207.476 56.9334 206.13 52.6224C204.784 48.3113 201.801 53.7592 201.801 53.7592C203.055 50.0143 203.67 46.0849 203.62 42.1359C203.393 36.2059 198.836 35.5238 197.008 35.5238C195.18 35.5238 184.02 32.095 178.791 35.4783C173.561 38.8617 173.552 50.2849 173.552 50.2849Z" fill="#BDBDBD" stroke="#263238" stroke-width="1.25654" stroke-linecap="round" stroke-linejoin="round"/>
<path d="M201.819 53.7139C203.073 49.969 203.688 46.0396 203.638 42.0906C203.411 36.1606 198.854 35.4785 197.026 35.4785H196.908C195.944 37.0974 194.752 39.5894 194.752 39.5894L195.662 40.0442C195.662 40.0442 194.752 45.0646 196.571 45.7467C198.39 46.4289 197.481 48.0205 197.481 50.7581C197.481 53.4957 199.082 55.542 199.991 55.542C200.71 55.542 201.81 53.723 202.301 52.9318C202.001 53.3683 201.819 53.7139 201.819 53.7139Z" fill="#263238" stroke="#263238" stroke-width="1.25654" stroke-linecap="round" stroke-linejoin="round"/>
<path d="M183.811 54.3691C183.811 54.3691 181.892 56.1336 182.774 57.4705C183.656 58.8075 186.912 59.5351 187.804 57.9071C188.11 57.3598 188.218 56.7237 188.111 56.1058C188.003 55.488 187.686 54.926 187.212 54.5147" stroke="#263238" stroke-width="1.25654" stroke-linecap="round" stroke-linejoin="round"/>
<path d="M181.746 52.5968C181.746 53.5062 181.383 54.2157 180.928 54.2157C180.473 54.2157 180.118 53.4881 180.118 52.5968C180.118 51.7054 180.482 50.9688 180.928 50.9688C181.373 50.9688 181.746 51.6963 181.746 52.5968Z" fill="#263238"/>
<path d="M191.569 53.0134C191.569 53.9229 191.205 54.6414 190.76 54.6414C190.314 54.6414 189.941 53.9138 189.941 53.0134C189.941 52.113 190.305 51.3945 190.76 51.3945C191.214 51.3945 191.569 52.1039 191.569 53.0134Z" fill="#263238"/>
<path d="M189.132 48.6039C189.132 48.6039 192.233 46.5302 195.189 49.7862" stroke="#263238" stroke-width="1.25654" stroke-linecap="round" stroke-linejoin="round"/>
<path d="M184.42 63.1452C184.031 62.9492 183.604 62.8381 183.168 62.8193C182.732 62.8005 182.297 62.8744 181.892 63.0361C181.548 63.1793 181.238 63.3946 180.984 63.6676C180.73 63.9406 180.537 64.2649 180.419 64.6186C180.419 64.6186 178.527 66.1375 180.519 66.8014C182.51 67.4653 186.885 67.4199 187.986 67.3744C188.426 67.3132 188.825 67.0818 189.097 66.7299C189.369 66.378 189.493 65.9335 189.441 65.4917C189.45 65.3127 189.412 65.1344 189.331 64.9747C189.25 64.815 189.127 64.6796 188.977 64.5822C188.519 63.8331 187.805 63.275 186.968 63.0109C186.13 62.7468 185.225 62.7945 184.42 63.1452Z" fill="#666666" stroke="#263238" stroke-width="0.922744" stroke-linecap="round" stroke-linejoin="round"/>
<path d="M179.991 65.1928C183.054 64.7083 186.185 64.8945 189.168 65.7385" stroke="#263238" stroke-width="1.07327" stroke-linecap="round" stroke-linejoin="round"/>
<path d="M169.677 37.7621L194.07 41.1909C194.07 41.1909 204.32 38.4624 205.239 36.407C206.157 34.3515 202.729 24.1015 200.9 21.5913C199.072 19.081 181.528 23.4103 176.053 24.3197C170.578 25.2292 166.485 26.5844 166.74 29.3675C166.994 32.1505 169.677 37.7621 169.677 37.7621Z" fill="#92E3A9" stroke="#263238" stroke-width="1.25654" stroke-linecap="round" stroke-linejoin="round"/>
<path d="M169.677 37.7617C169.677 37.7617 155.771 49.1577 155.544 50.2855C155.316 51.4133 175.826 51.8771 182.21 50.5129C188.595 49.1486 194.034 41.1632 194.034 41.1632L169.677 37.7617Z" fill="#065F46" fill-opacity="0.75" stroke="#263238" stroke-width="1.25654" stroke-linecap="round" stroke-linejoin="round"/>
<path d="M154.48 188.856L192.679 166.455C193.944 167.402 195.475 167.927 197.055 167.956C198.635 167.985 200.184 167.516 201.482 166.616C202.781 165.715 203.763 164.429 204.291 162.94C204.818 161.45 204.863 159.832 204.42 158.315L196.444 162.981L194.625 159.843L202.61 155.168C201.505 154.037 200.071 153.282 198.512 153.011C196.954 152.741 195.349 152.968 193.927 153.66C192.505 154.353 191.337 155.476 190.589 156.87C189.84 158.264 189.55 159.858 189.759 161.426L151.515 183.827C150.25 182.88 148.719 182.355 147.139 182.326C145.559 182.297 144.01 182.766 142.711 183.666C141.413 184.567 140.43 185.853 139.903 187.342C139.375 188.832 139.33 190.45 139.773 191.967L147.54 187.419L149.359 190.566L141.592 195.113C142.696 196.247 144.13 197.004 145.689 197.276C147.248 197.548 148.853 197.321 150.275 196.628C151.698 195.934 152.866 194.81 153.613 193.415C154.359 192.02 154.647 190.424 154.434 188.856H154.48Z" fill="#92E3A9" stroke="#263238" stroke-width="1.25654" stroke-linecap="round" stroke-linejoin="round"/>
<path d="M187.013 172.203C187.013 172.203 191.715 175.568 191.715 178.697C191.715 181.826 186.112 185.2 182.31 185.418C178.509 185.636 177.827 181.389 178.5 179.152C179.173 176.914 187.013 172.203 187.013 172.203Z" fill="#BDBDBD" stroke="#263238" stroke-width="1.25654" stroke-linecap="round" stroke-linejoin="round"/>
<path d="M137.727 144.201C137.727 144.201 163.711 158.753 167.295 158.316C170.878 157.88 175.807 154.733 178.5 155.588C181.192 156.443 188.577 167.912 189.25 169.931C189.923 171.95 183.875 179.117 182.529 180.235C181.183 181.354 176.926 185.838 176.035 186.283C175.144 186.729 169.314 191.886 166.403 191.886C163.493 191.886 158.563 189.639 158.109 188.521C157.654 187.402 158.782 185.838 158.782 185.838L145.139 179.562C145.139 179.562 119.146 165.447 114.671 158.28C110.196 151.113 121.392 138.344 121.392 138.344" fill="#BDBDBD"/>
<path d="M137.727 144.201C137.727 144.201 163.711 158.753 167.295 158.316C170.878 157.88 175.807 154.733 178.5 155.588C181.192 156.443 188.577 167.912 189.25 169.931C189.923 171.95 183.875 179.117 182.529 180.235C181.183 181.354 176.926 185.838 176.035 186.283C175.144 186.729 169.314 191.886 166.403 191.886C163.493 191.886 158.563 189.639 158.109 188.521C157.654 187.402 158.782 185.838 158.782 185.838L145.139 179.562C145.139 179.562 119.146 165.447 114.671 158.28C110.196 151.113 121.392 138.344 121.392 138.344" stroke="#263238" stroke-width="1.25654" stroke-linecap="round" stroke-linejoin="round"/>
<path d="M167.749 179.371C168.543 179.477 169.281 179.841 169.846 180.409C170.412 180.976 170.775 181.714 170.878 182.509C171.333 185.419 170.205 190.576 170.205 190.576" stroke="#263238" stroke-width="1.25654" stroke-linecap="round" stroke-linejoin="round"/>
<path d="M172.897 175.115C172.897 175.115 176.035 175.343 176.035 178.253V186.32" stroke="#263238" stroke-width="1.25654" stroke-linecap="round" stroke-linejoin="round"/>
<path d="M176.262 167.057C176.262 167.057 182.083 171.313 182.529 173.778C182.776 175.935 182.776 178.114 182.529 180.272" stroke="#263238" stroke-width="1.25654" stroke-linecap="round" stroke-linejoin="round"/>
<path d="M202.21 151.695C203.52 151.695 206.985 143.019 206.985 139.763C206.985 136.507 208.504 112.651 211.978 101.564C214.47 93.6239 216.617 87.4938 217.635 84.6471C214.989 83.9741 212.178 83.3738 209.25 82.8281C207.512 88.0941 202.21 104.529 200.046 114.979C197.444 127.557 198.09 142.528 198.308 143.828C198.527 145.129 200.928 151.695 202.21 151.695Z" fill="#065F46" fill-opacity="0.75" stroke="#263238" stroke-width="1.25654" stroke-linecap="round" stroke-linejoin="round"/>
<path d="M206.993 125.375L199.547 124.397C198.935 124.317 198.375 124.748 198.294 125.359L197.514 131.302C197.434 131.914 197.864 132.475 198.476 132.555L205.922 133.533C206.534 133.613 207.095 133.182 207.175 132.571L207.956 126.628C208.036 126.016 207.605 125.456 206.993 125.375Z" fill="#065F46" fill-opacity="0.75" stroke="#263238" stroke-width="1.25465" stroke-linecap="round" stroke-linejoin="round"/>
<path d="M205.034 127.264L201.185 126.753C200.572 126.671 200.01 127.102 199.928 127.714L199.542 130.627C199.461 131.239 199.891 131.801 200.504 131.883L204.354 132.394C204.966 132.475 205.528 132.044 205.61 131.432L205.996 128.52C206.077 127.907 205.647 127.345 205.034 127.264Z" fill="#065F46" fill-opacity="0.75" stroke="#263238" stroke-width="1.25654" stroke-linecap="round" stroke-linejoin="round"/>
<path d="M153.634 148.439C154.944 148.439 158.409 139.762 158.409 136.506C158.409 133.25 159.928 109.394 163.402 98.3074C165.603 91.2861 167.104 86.8023 167.949 84.4648C164.557 85.2288 161.337 85.9291 160.264 86.0656C159.464 86.1656 158.336 88.1938 157.108 91.3588C155.671 95.8154 153.916 101.609 152.561 107.257C151.501 111.91 150.726 116.624 150.242 121.372C149.936 126.136 149.915 130.913 150.178 135.679C150.178 135.842 150.196 135.97 150.232 136.061C150.369 137.379 152.333 148.439 153.634 148.439Z" fill="#065F46" fill-opacity="0.75" stroke="#263238" stroke-width="1.25654" stroke-linecap="round" stroke-linejoin="round"/>
<path d="M158.577 119.145L151.098 118.347C150.484 118.282 149.933 118.727 149.867 119.341L149.23 125.31C149.165 125.924 149.61 126.475 150.224 126.541L157.703 127.339C158.318 127.404 158.869 126.959 158.934 126.345L159.571 120.376C159.637 119.762 159.192 119.211 158.577 119.145Z" fill="#065F46" fill-opacity="0.75" stroke="#263238" stroke-width="1.25654" stroke-linecap="round" stroke-linejoin="round"/>
<path d="M156.597 120.472L152.736 120.06C152.121 119.995 151.57 120.439 151.505 121.054L151.193 123.975C151.128 124.589 151.572 125.14 152.187 125.206L156.048 125.618C156.663 125.683 157.214 125.239 157.28 124.624L157.591 121.703C157.657 121.089 157.212 120.538 156.597 120.472Z" fill="#065F46" fill-opacity="0.75" stroke="#263238" stroke-width="1.25654" stroke-linecap="round" stroke-linejoin="round"/>
</g>
<defs>
<filter id="filter0_d_626_2822" x="0" y="0" width="408.001" height="362.601" filterUnits="userSpaceOnUse" color-interpolation-filters="sRGB">
<feFlood flood-opacity="0" result="BackgroundImageFix"/>
<feColorMatrix in="SourceAlpha" type="matrix" values="0 0 0 0 0 0 0 0 0 0 0 0 0 0 0 0 0 0 127 0" result="hardAlpha"/>
<feOffset dx="4" dy="4"/>
<feGaussianBlur stdDeviation="2"/>
<feComposite in2="hardAlpha" operator="out"/>
<feColorMatrix type="matrix" values="0 0 0 0 0 0 0 0 0 0 0 0 0 0 0 0 0 0 0.25 0"/>
<feBlend mode="normal" in2="BackgroundImageFix" result="effect1_dropShadow_626_2822"/>
<feBlend mode="normal" in="SourceGraphic" in2="effect1_dropShadow_626_2822" result="shape"/>
</filter>
</defs>
</svg>
