<svg width="410" height="397" viewBox="0 0 410 397" fill="none" xmlns="http://www.w3.org/2000/svg">
<g filter="url(#filter0_d_626_3058)">
<path opacity="0.7" d="M4.29568 220.119C4.29568 220.119 3.84664 286.352 57.2819 331.854C110.717 377.356 187.025 382.427 248.73 388.171C310.435 393.914 359.324 360.04 368.548 307.166C377.772 254.293 331.128 237.547 307.806 176.535C284.484 115.522 287.572 95.7269 234.744 57.2408C181.917 18.7547 96.086 39.4103 49.1337 101.91C2.18147 164.411 4.29568 220.119 4.29568 220.119Z" fill="#064E3B"/>
<path d="M320.276 211.983C317.75 210.687 315.666 208.671 314.287 206.191C312.907 203.71 312.294 200.876 312.525 198.047C312.756 195.218 313.821 192.521 315.585 190.297C317.349 188.074 319.733 186.423 322.435 185.554C325.137 184.685 328.036 184.637 330.766 185.416C333.495 186.195 335.932 187.766 337.769 189.93C339.606 192.094 340.759 194.754 341.084 197.574C341.409 200.394 340.89 203.246 339.594 205.771C338.734 207.448 337.552 208.939 336.115 210.159C334.679 211.379 333.016 212.304 331.222 212.881C329.428 213.458 327.538 213.675 325.659 213.521C323.781 213.367 321.952 212.844 320.276 211.983Z" fill="#263238"/>
<path d="M334.056 191.514L341.016 201.28C341.295 199.382 341.187 197.447 340.698 195.592L334.056 191.514Z" fill="#92E3A9"/>
<path d="M319.462 186.921L336.001 210.252C337.375 209.111 338.521 207.721 339.379 206.154L325.505 184.938C323.368 185.138 321.302 185.815 319.462 186.921Z" fill="#92E3A9"/>
<path d="M326.3 213.544L319.115 203.254L322.857 213.002C323.979 213.32 325.135 213.502 326.3 213.544Z" fill="#92E3A9"/>
<path d="M332.138 212.535L315.71 190.148C315.551 190.345 315.402 190.56 315.252 190.766L327.151 213.564C328.861 213.518 330.549 213.17 332.138 212.535Z" fill="#92E3A9"/>
<path d="M194.087 369.685C189.923 371.584 185.289 372.205 180.772 371.471C176.254 370.736 172.056 368.679 168.708 365.558C165.359 362.438 163.011 358.395 161.96 353.941C160.909 349.486 161.203 344.82 162.803 340.533C164.404 336.245 167.24 332.528 170.952 329.852C174.665 327.175 179.088 325.66 183.662 325.497C188.236 325.334 192.755 326.531 196.649 328.936C200.543 331.342 203.636 334.847 205.538 339.01C206.802 341.776 207.509 344.764 207.618 347.803C207.727 350.842 207.236 353.873 206.172 356.722C205.109 359.571 203.494 362.182 201.42 364.406C199.347 366.631 196.855 368.425 194.087 369.685Z" fill="#263238"/>
<path d="M205.332 358.637L189.54 333.847L207.474 351.078C207.521 350.601 207.558 350.143 207.577 349.638L186.332 325.558C184.515 325.407 182.687 325.476 180.887 325.764L185.153 332.546L178.099 326.372L183.712 336.531L172.365 328.917C172.084 329.094 171.804 329.272 171.532 329.459L192.59 352.846L175.882 340.133L181.823 349.488L173.169 343.501L195.827 368.815C198.585 367.275 200.995 365.182 202.909 362.669L198.297 354.97L204.022 361.069C204.508 360.287 204.946 359.474 205.332 358.637Z" fill="#92E3A9"/>
<path d="M191.289 370.751L173.188 349.871L181.233 362.294L161.4 346.746C160.912 352.667 162.721 358.549 166.452 363.173C170.182 367.797 175.548 370.808 181.439 371.583L174.292 365.231L185.386 371.78C187.39 371.689 189.373 371.343 191.289 370.751Z" fill="#92E3A9"/>
<path d="M193.086 327.176L203.236 338.963L201.178 334.463L204.462 336.989C201.873 332.539 197.868 329.084 193.086 327.176Z" fill="#92E3A9"/>
<path d="M169.483 345.409L164.001 337.832C162.875 339.978 162.086 342.284 161.662 344.67L169.483 345.409Z" fill="#92E3A9"/>
<path d="M218.849 333.248C217.165 329.562 209.7 329.047 199.784 331.302C200.414 331.855 201.011 332.446 201.571 333.07C208.98 331.367 214.265 331.517 215.36 333.893C217.287 338.112 205.266 347.748 188.502 355.409C171.738 363.071 156.602 365.878 154.665 361.659C153.674 359.488 156.396 355.877 161.551 351.836C161.432 351.014 161.361 350.187 161.335 349.357C154.141 354.97 150.315 360.433 151.896 363.876C154.562 369.713 171.719 367.618 190.251 359.133C208.783 350.648 221.516 339.085 218.849 333.248Z" fill="#263238"/>
<path d="M74.5132 151.11C87.1351 151.11 97.3672 140.878 97.3672 128.256C97.3672 115.634 87.1351 105.402 74.5132 105.402C61.8913 105.402 51.6592 115.634 51.6592 128.256C51.6592 140.878 61.8913 151.11 74.5132 151.11Z" fill="#92E3A9"/>
<path d="M79.9016 111.353C81.4355 109.946 83.2059 108.822 85.131 108.032C83.2757 107.051 81.2918 106.336 79.2374 105.908C77.1195 107.321 75.1061 108.884 73.2129 110.586C65.0367 118.013 67.2632 117.274 55.3824 121.727C54.2863 122.132 53.2307 122.64 52.2298 123.243C51.8543 124.878 51.6629 126.551 51.6592 128.229C51.6616 131.113 52.2107 133.969 53.2776 136.648C57.5247 135.357 63.1751 133.262 65.7851 130.652C70.238 126.218 70.9864 119.529 79.9016 111.353Z" fill="#263238"/>
<path d="M57.9082 143.944C59.6378 145.78 61.6573 147.319 63.886 148.5C68.1425 145.525 70.1257 142.363 76.1877 139.613C81.5106 137.19 90.2949 136.657 95.7769 136.591C96.8195 133.942 97.3558 131.121 97.3578 128.275C97.3578 127.882 97.3578 127.498 97.3017 127.105C90.8266 127.61 84.4618 129.069 78.4142 131.437C69.7702 134.87 65.5792 140.998 57.9082 143.944Z" fill="#263238"/>
<path d="M80.6406 120.268C84.6819 122.288 90.931 121.203 95.7487 119.856C94.8242 117.531 93.5254 115.373 91.9039 113.467C85.4677 114.674 75.0463 117.471 80.6406 120.268Z" fill="#263238"/>
<path d="M85.7285 309.805L86.2056 309.019C87.4945 310.211 89.1931 310.861 90.9486 310.834C93.8299 310.834 95.1021 309.581 95.1021 308.028C95.1021 303.715 86.1214 306.297 86.1214 301.002C86.1214 298.963 87.6837 297.176 91.2199 297.176C92.7615 297.164 94.2709 297.618 95.5512 298.476L95.1583 299.318C93.9951 298.531 92.6242 298.108 91.2199 298.102C88.4134 298.102 87.1692 299.393 87.1692 300.983C87.1692 305.296 96.1499 302.742 96.1499 307.962C96.1499 310.002 94.5221 311.77 90.9673 311.77C89.0309 311.828 87.1493 311.122 85.7285 309.805V309.805Z" fill="#F5FFFE"/>
<path d="M108.434 306.54H99.2096C99.2635 307.441 99.582 308.305 100.125 309.026C100.668 309.746 101.412 310.29 102.263 310.59C103.114 310.89 104.034 310.931 104.909 310.71C105.784 310.489 106.574 310.015 107.18 309.347L107.779 310.029C107.275 310.603 106.651 311.056 105.95 311.357C105.249 311.658 104.49 311.799 103.728 311.769C103 311.806 102.272 311.691 101.591 311.432C100.909 311.172 100.289 310.774 99.7704 310.262C99.2513 309.75 98.8445 309.135 98.5756 308.457C98.3067 307.78 98.1818 307.053 98.2087 306.325C98.2087 304.96 98.7507 303.652 99.7156 302.687C100.681 301.722 101.989 301.18 103.354 301.18C104.718 301.18 106.027 301.722 106.992 302.687C107.957 303.652 108.499 304.96 108.499 306.325C108.462 306.334 108.434 306.437 108.434 306.54ZM99.2283 305.736H107.451C107.401 304.679 106.946 303.682 106.18 302.953C105.415 302.223 104.398 301.816 103.34 301.816C102.282 301.816 101.265 302.223 100.499 302.953C99.7339 303.682 99.2787 304.679 99.2283 305.736Z" fill="#F5FFFE"/>
<path d="M116.721 300.843V301.854H116.469C114.083 301.854 112.671 303.435 112.671 306.082V311.695H111.642V300.928H112.624V303.276C112.967 302.493 113.547 301.837 114.282 301.401C115.017 300.965 115.87 300.77 116.721 300.843V300.843Z" fill="#F5FFFE"/>
<path d="M128.659 300.928L123.804 311.658H122.756L117.929 300.928H119.023L123.289 310.526L127.611 300.928H128.659Z" fill="#F5FFFE"/>
<path d="M130.567 297.494C130.567 297.271 130.656 297.057 130.814 296.899C130.972 296.741 131.186 296.652 131.409 296.652C131.573 296.654 131.733 296.704 131.868 296.797C132.004 296.889 132.109 297.019 132.171 297.171C132.233 297.322 132.248 297.489 132.216 297.65C132.184 297.81 132.105 297.958 131.989 298.074C131.873 298.189 131.725 298.269 131.565 298.301C131.404 298.333 131.237 298.318 131.086 298.256C130.934 298.194 130.804 298.089 130.712 297.953C130.619 297.818 130.569 297.658 130.567 297.494V297.494ZM130.895 300.928H131.924V311.658H130.895V300.928Z" fill="#F5FFFE"/>
<path d="M135.086 306.288C135.055 305.566 135.175 304.846 135.437 304.173C135.698 303.5 136.097 302.889 136.606 302.377C137.116 301.866 137.726 301.465 138.398 301.201C139.07 300.937 139.79 300.815 140.511 300.843C141.301 300.806 142.086 300.968 142.797 301.312C143.508 301.657 144.121 302.174 144.581 302.817L143.823 303.378C143.445 302.859 142.945 302.441 142.368 302.161C141.791 301.88 141.153 301.746 140.511 301.769C139.347 301.822 138.249 302.322 137.444 303.164C136.639 304.007 136.189 305.127 136.189 306.292C136.189 307.457 136.639 308.578 137.444 309.42C138.249 310.263 139.347 310.762 140.511 310.815C141.153 310.839 141.791 310.704 142.368 310.424C142.945 310.143 143.445 309.725 143.823 309.206L144.581 309.768C144.118 310.406 143.504 310.919 142.794 311.262C142.083 311.605 141.299 311.766 140.511 311.732C139.79 311.758 139.071 311.636 138.4 311.371C137.728 311.106 137.119 310.706 136.609 310.195C136.1 309.684 135.702 309.073 135.44 308.4C135.177 307.728 135.057 307.009 135.086 306.288V306.288Z" fill="#F5FFFE"/>
<path d="M156.537 306.541H147.313C147.366 307.441 147.685 308.306 148.228 309.026C148.771 309.747 149.515 310.291 150.366 310.591C151.217 310.89 152.137 310.932 153.012 310.711C153.887 310.49 154.677 310.015 155.283 309.347L155.882 310.03C155.378 310.603 154.754 311.057 154.053 311.358C153.352 311.659 152.593 311.8 151.831 311.77C151.102 311.807 150.374 311.692 149.692 311.432C149.011 311.173 148.39 310.775 147.87 310.263C147.351 309.751 146.943 309.137 146.673 308.459C146.403 307.781 146.277 307.055 146.302 306.326C146.26 305.625 146.362 304.923 146.602 304.263C146.841 303.603 147.214 303 147.696 302.489C148.178 301.979 148.76 301.573 149.405 301.296C150.05 301.02 150.745 300.878 151.447 300.881C152.145 300.876 152.837 301.014 153.479 301.288C154.121 301.562 154.7 301.965 155.179 302.472C155.658 302.98 156.028 303.58 156.264 304.237C156.501 304.893 156.6 305.592 156.555 306.288C156.555 306.335 156.537 306.438 156.537 306.541ZM147.331 305.736H155.554C155.504 304.68 155.049 303.683 154.283 302.953C153.518 302.223 152.5 301.816 151.443 301.816C150.385 301.816 149.368 302.223 148.602 302.953C147.837 303.683 147.382 304.68 147.331 305.736Z" fill="#F5FFFE"/>
<path d="M165.227 305.549V297.27H166.246V305.511C166.246 309.103 167.977 310.787 170.97 310.787C173.964 310.787 175.648 309.103 175.648 305.511V297.27H176.696V305.549C176.696 309.665 174.497 311.76 170.924 311.76C167.35 311.76 165.227 309.665 165.227 305.549Z" fill="#F5FFFE"/>
<path d="M190.916 305.389V311.657H189.886V305.464C189.886 303.041 188.595 301.722 186.416 301.722C185.863 301.685 185.308 301.768 184.79 301.966C184.273 302.163 183.804 302.471 183.417 302.868C183.03 303.265 182.734 303.741 182.549 304.264C182.364 304.786 182.295 305.343 182.346 305.895V311.61H181.317V300.927H182.309V303.247C182.702 302.473 183.315 301.833 184.07 301.405C184.826 300.977 185.69 300.782 186.556 300.843C189.166 300.843 190.916 302.387 190.916 305.389Z" fill="#F5FFFE"/>
<path d="M202.89 304.846V311.647H201.908V309.776C201.514 310.436 200.943 310.972 200.261 311.324C199.578 311.676 198.81 311.83 198.044 311.769C195.64 311.769 194.181 310.543 194.181 308.71C194.181 307.091 195.21 305.707 198.185 305.707H201.87V304.846C201.87 302.854 200.776 301.787 198.68 301.787C197.324 301.771 196.009 302.254 194.985 303.144L194.471 302.405C195.673 301.399 197.197 300.858 198.765 300.88C201.412 300.842 202.89 302.199 202.89 304.846ZM201.87 308.476V306.465H198.213C195.986 306.465 195.21 307.4 195.21 308.626C195.21 310.019 196.295 310.88 198.185 310.88C198.975 310.931 199.761 310.726 200.425 310.294C201.089 309.863 201.596 309.228 201.87 308.485V308.476Z" fill="#F5FFFE"/>
<path d="M215.528 300.928L210.682 311.658H209.635L204.808 300.928H205.893L210.215 310.526L214.527 300.928H215.528Z" fill="#F5FFFE"/>
<path d="M225.182 304.846V311.647H224.247V309.776C223.854 310.437 223.283 310.973 222.6 311.326C221.917 311.678 221.149 311.831 220.383 311.769C217.979 311.769 216.52 310.543 216.52 308.71C216.52 307.091 217.549 305.707 220.523 305.707H224.209V304.846C224.209 302.854 223.115 301.787 221.019 301.787C219.663 301.771 218.348 302.254 217.324 303.144L216.81 302.405C218.012 301.399 219.536 300.858 221.103 300.88C223.704 300.842 225.182 302.199 225.182 304.846ZM224.163 308.476V306.465H220.505C218.288 306.465 217.502 307.4 217.502 308.626C217.502 310.019 218.587 310.88 220.477 310.88C221.267 310.931 222.053 310.726 222.717 310.294C223.381 309.863 223.888 309.228 224.163 308.485V308.476Z" fill="#F5FFFE"/>
<path d="M229.093 297.494C229.093 297.271 229.181 297.057 229.339 296.899C229.497 296.741 229.711 296.652 229.935 296.652C230.044 296.652 230.152 296.674 230.253 296.716C230.354 296.758 230.446 296.819 230.523 296.896C230.601 296.974 230.662 297.065 230.704 297.166C230.746 297.267 230.767 297.376 230.767 297.485C230.767 297.594 230.746 297.703 230.704 297.804C230.662 297.905 230.601 297.996 230.523 298.074C230.446 298.151 230.354 298.212 230.253 298.254C230.152 298.296 230.044 298.318 229.935 298.318C229.825 298.32 229.716 298.301 229.614 298.26C229.512 298.22 229.419 298.16 229.34 298.083C229.262 298.006 229.2 297.915 229.157 297.814C229.115 297.713 229.093 297.604 229.093 297.494V297.494ZM229.42 300.928H230.449V311.658H229.42V300.928Z" fill="#F5FFFE"/>
<path d="M234.78 296.428H235.809V311.676H234.78V296.428Z" fill="#F5FFFE"/>
<path d="M247.887 304.846V311.647H246.952V309.776C246.559 310.437 245.988 310.973 245.305 311.326C244.622 311.678 243.854 311.831 243.088 311.769C240.684 311.769 239.225 310.543 239.225 308.71C239.225 307.091 240.254 305.707 243.238 305.707H246.914V304.846C246.914 302.854 245.82 301.787 243.724 301.787C242.368 301.771 241.053 302.254 240.029 303.144L239.515 302.405C240.717 301.399 242.241 300.858 243.809 300.88C246.409 300.842 247.887 302.199 247.887 304.846ZM246.868 308.476V306.465H243.21C240.993 306.465 240.207 307.4 240.207 308.626C240.207 310.019 241.292 310.88 243.191 310.88C243.98 310.929 244.764 310.723 245.426 310.291C246.088 309.86 246.594 309.227 246.868 308.485V308.476Z" fill="#F5FFFE"/>
<path d="M262.808 306.288C262.842 307 262.729 307.711 262.476 308.377C262.223 309.044 261.836 309.651 261.338 310.162C260.841 310.672 260.244 311.075 259.584 311.345C258.925 311.616 258.217 311.747 257.504 311.732C256.599 311.757 255.706 311.525 254.928 311.063C254.15 310.601 253.519 309.928 253.107 309.122V311.658H252.125V296.428H253.154V303.397C253.572 302.612 254.201 301.96 254.969 301.512C255.737 301.064 256.615 300.839 257.504 300.862C258.215 300.846 258.922 300.976 259.581 301.245C260.24 301.513 260.837 301.914 261.334 302.423C261.832 302.932 262.219 303.538 262.473 304.202C262.726 304.867 262.841 305.577 262.808 306.288V306.288ZM261.779 306.288C261.741 305.441 261.454 304.623 260.956 303.937C260.457 303.251 259.768 302.727 258.974 302.429C258.18 302.131 257.316 302.073 256.489 302.261C255.662 302.45 254.909 302.877 254.323 303.49C253.736 304.103 253.343 304.875 253.191 305.709C253.039 306.543 253.136 307.404 253.469 308.184C253.801 308.964 254.356 309.629 255.063 310.097C255.771 310.565 256.6 310.815 257.448 310.816C258.036 310.824 258.62 310.712 259.162 310.485C259.705 310.258 260.194 309.921 260.601 309.496C261.007 309.071 261.322 308.567 261.525 308.015C261.727 307.463 261.814 306.875 261.779 306.288V306.288Z" fill="#F5FFFE"/>
<path d="M265.998 296.428H267.018V311.676H265.998V296.428Z" fill="#F5FFFE"/>
<path d="M280.377 306.54H271.153C271.207 307.441 271.525 308.305 272.068 309.026C272.612 309.746 273.355 310.29 274.206 310.59C275.057 310.89 275.978 310.931 276.852 310.71C277.727 310.489 278.517 310.015 279.123 309.347L279.722 310.029C279.219 310.603 278.594 311.056 277.893 311.357C277.193 311.658 276.433 311.799 275.671 311.769C274.943 311.806 274.215 311.691 273.534 311.432C272.853 311.172 272.233 310.774 271.714 310.262C271.195 309.75 270.788 309.135 270.519 308.457C270.25 307.78 270.125 307.053 270.152 306.325C270.152 304.96 270.694 303.652 271.659 302.687C272.624 301.722 273.933 301.18 275.297 301.18C276.662 301.18 277.97 301.722 278.935 302.687C279.9 303.652 280.442 304.96 280.442 306.325C280.442 306.334 280.377 306.437 280.377 306.54ZM271.209 305.782H279.441C279.391 304.726 278.936 303.729 278.17 302.999C277.405 302.269 276.388 301.862 275.33 301.862C274.272 301.862 273.255 302.269 272.49 302.999C271.724 303.729 271.269 304.726 271.218 305.782H271.209Z" fill="#F5FFFE"/>
<path d="M136.676 243.899C136.676 260.149 124.748 274.303 98.5358 274.303C85.8224 274.303 72.4543 270.767 63.5391 264.471L71.9585 248.221C78.8998 253.46 88.4699 256.472 98.04 256.472C108.648 256.472 115.206 252.019 115.206 244.554C115.206 237.342 110.529 232.627 93.8396 232.627H70.3588L75.0362 180.988H130.997V198.023H92.7638L91.3231 215.451H98.8071C125.927 215.451 136.676 227.641 136.676 243.899ZM145.32 226.855C145.32 196.582 162.093 179.416 184.61 179.416C207.128 179.416 223.901 196.582 223.901 226.855C223.901 257.127 207.258 274.303 184.61 274.303C161.962 274.303 145.32 257.137 145.32 226.855ZM202.59 226.855C202.59 206.021 195.256 197.368 184.638 197.368C174.021 197.368 166.864 206.021 166.864 226.855C166.864 247.688 174.198 256.341 184.638 256.341C195.078 256.341 202.59 247.697 202.59 226.855ZM300.761 244.685C300.761 260.149 288.833 274.303 262.752 274.303C249.908 274.303 236.67 270.767 227.755 264.471L236.015 248.221C242.966 253.46 252.658 256.472 262.209 256.472C272.827 256.472 279.375 252.15 279.375 244.685C279.375 237.734 274.268 233.413 262.209 233.413H252.527V219.38L271.405 198.014H232.348V180.988H296.57V194.749L275.858 218.332C292.369 220.961 300.761 231.177 300.761 244.685Z" fill="#F5FFFE"/>
<path d="M253.473 42.7139C253.015 41.9841 252.866 41.1027 253.057 40.2628C253.248 39.4229 253.764 38.693 254.492 38.2329L259.796 34.8745C260.159 34.6451 260.562 34.4895 260.985 34.4166C261.407 34.3437 261.84 34.3549 262.258 34.4496C262.676 34.5444 263.071 34.7208 263.421 34.9687C263.771 35.2166 264.068 35.5311 264.296 35.8942C264.526 36.2564 264.681 36.6602 264.754 37.0827C264.827 37.5051 264.816 37.9378 264.721 38.3559C264.626 38.774 264.45 39.1692 264.202 39.519C263.954 39.8687 263.64 40.1661 263.276 40.3939L257.982 43.7336C257.619 43.9633 257.214 44.1191 256.791 44.1921C256.368 44.2652 255.934 44.254 255.516 44.1593C255.097 44.0646 254.701 43.8881 254.35 43.6401C253.999 43.3921 253.701 43.0774 253.473 42.7139Z" fill="white" stroke="#263238" stroke-width="1.19148" stroke-linecap="round" stroke-linejoin="round"/>
<path d="M250.591 65.6333C248.083 62.0539 244.963 58.9442 241.376 56.4468C236.68 53.643 231.819 51.1251 226.82 48.9067L223.798 32.0679C226.693 29.2902 229.289 26.2176 231.544 22.9001C234.276 18.4939 233.415 15.5378 231.666 12.4881C229.917 9.4384 227.494 11.4123 227.129 12.8062C226.861 14.2738 226.698 15.7588 226.642 17.2497C226.642 17.2497 225.015 6.02386 224.07 3.46997C223.125 0.916081 219.523 3.37642 219.841 4.22772C219.841 4.22772 218.756 1.0377 216.52 1.00028C214.285 0.962856 213.648 4.74224 213.648 4.74224C213.648 4.74224 210.776 3.41384 209.167 5.07902C207.558 6.74419 208.325 10.9165 208.325 10.9165C208.325 10.9165 205.762 11.852 205.369 15.491C204.976 19.1301 205.294 25.5008 206.305 27.2501C206.824 28.0804 207.278 28.9499 207.661 29.8508C206.389 45.0432 206.436 44.0422 206.062 50.1042C205.8 54.37 208.597 64.2862 212.61 68.4117C216.623 72.5372 230.983 79.8247 230.983 79.8247C230.983 79.8247 245.979 75.9611 250.591 65.6333Z" fill="white"/>
<path d="M231.04 79.8447C231.04 79.8447 246.008 75.9624 250.592 65.6346C250.592 65.6346 250.292 65.1949 249.759 64.4933L245.868 61.2471C240.342 61.7105 234.852 62.526 229.431 63.6888C221.217 65.5597 214.828 61.5558 212.396 52.4629C209.963 43.3699 207.718 29.9082 207.718 29.9082C206.446 45.1006 206.493 44.0996 206.119 50.1616C205.857 54.4274 208.654 64.3436 212.667 68.4691C216.68 72.5946 231.04 79.8447 231.04 79.8447Z" fill="#92E3A9"/>
<path opacity="0.5" d="M231.04 79.8447C231.04 79.8447 246.008 75.9624 250.592 65.6346C250.592 65.6346 250.292 65.1949 249.759 64.4933L245.868 61.2471C240.342 61.7105 234.852 62.526 229.431 63.6888C221.217 65.5597 214.828 61.5558 212.396 52.4629C209.963 43.3699 207.718 29.9082 207.718 29.9082C206.446 45.1006 206.493 44.0996 206.119 50.1616C205.857 54.4274 208.654 64.3436 212.667 68.4691C216.68 72.5946 231.04 79.8447 231.04 79.8447Z" fill="white"/>
<path d="M250.591 65.6333C248.083 62.0539 244.963 58.9442 241.376 56.4468C236.68 53.643 231.819 51.1251 226.82 48.9067L223.798 32.0679C226.693 29.2902 229.289 26.2176 231.544 22.9001C234.276 18.4939 233.415 15.5378 231.666 12.4881C229.917 9.4384 227.494 11.4123 227.129 12.8062C226.861 14.2738 226.698 15.7588 226.642 17.2497C226.642 17.2497 225.015 6.02386 224.07 3.46997C223.125 0.916081 219.523 3.37642 219.841 4.22772C219.841 4.22772 218.756 1.0377 216.52 1.00028C214.285 0.962856 213.648 4.74224 213.648 4.74224C213.648 4.74224 210.776 3.41384 209.167 5.07902C207.558 6.74419 208.325 10.9165 208.325 10.9165C208.325 10.9165 205.762 11.852 205.369 15.491C204.976 19.1301 205.294 25.5008 206.305 27.2501C206.824 28.0804 207.278 28.9499 207.661 29.8508C206.389 45.0432 206.436 44.0422 206.062 50.1042C205.8 54.37 208.597 64.2862 212.61 68.4117C216.623 72.5372 230.983 79.8247 230.983 79.8247C230.983 79.8247 245.979 75.9611 250.591 65.6333Z" stroke="#263238" stroke-width="1.19148" stroke-linecap="round" stroke-linejoin="round"/>
<path d="M225.651 42.3681L223.78 32.0777C226.674 29.3 229.27 26.2274 231.526 22.9099C234.257 18.5037 233.397 15.5476 231.647 12.4979C229.898 9.44817 227.475 11.4221 227.11 12.8159C226.842 14.2836 226.679 15.7686 226.624 17.2595C226.624 17.2595 224.996 6.03363 224.051 3.47974C223.106 0.925847 219.505 3.38619 219.823 4.23748C219.823 4.23748 218.738 1.04746 216.502 1.01004C214.266 0.972622 213.63 4.752 213.63 4.752C213.63 4.752 210.758 3.42361 209.149 5.08878C207.54 6.75395 208.307 10.9262 208.307 10.9262C208.307 10.9262 205.744 11.8617 205.351 15.5008C204.958 19.1399 205.276 25.5105 206.286 27.2599C206.805 28.0901 207.259 28.9597 207.643 29.8606C207.081 36.5774 206.773 40.151 206.576 42.5271L225.651 42.3681Z" fill="white" stroke="#263238" stroke-width="1.19148" stroke-linecap="round" stroke-linejoin="round"/>
<path d="M210.721 65.8667C211.066 66.4307 211.444 66.9741 211.853 67.4944C215.8 64.1922 224.688 56.2686 228.691 49.4675C227.569 49.1121 226.82 48.9062 226.82 48.9062C226.82 48.9062 218.551 59.7486 210.721 65.8667Z" fill="white" stroke="#263238" stroke-width="1.19148" stroke-linecap="round" stroke-linejoin="round"/>
<path d="M226.642 17.2306C226.642 17.2306 217.802 16.9032 216.866 24.3591" stroke="#263238" stroke-width="1.19148" stroke-linecap="round" stroke-linejoin="round"/>
<path d="M219.842 4.20898L220.141 13.6107" stroke="#263238" stroke-width="1.19148" stroke-linecap="round" stroke-linejoin="round"/>
<path d="M213.648 4.76172L214.257 13.2653" stroke="#263238" stroke-width="1.19148" stroke-linecap="round" stroke-linejoin="round"/>
<path d="M208.325 10.9355L209.279 16.2398" stroke="#263238" stroke-width="1.19148" stroke-linecap="round" stroke-linejoin="round"/>
<path d="M221.918 13.1719C221.918 13.1719 211.937 14.8464 208.092 18.1113" stroke="#263238" stroke-width="1.19148" stroke-linecap="round" stroke-linejoin="round"/>
<path d="M219.57 72.1348C222.826 69.3283 222.573 63.7154 218.99 59.515C215.538 55.4737 210.253 54.2856 206.96 56.7085C208.073 61.0118 210.113 65.8389 212.638 68.4115C214.481 70.0899 216.49 71.5757 218.635 72.8457C218.971 72.6421 219.284 72.4038 219.57 72.1348Z" fill="#92E3A9"/>
<path d="M219.57 72.1348C222.826 69.3283 222.573 63.7154 218.99 59.515C215.538 55.4737 210.253 54.2856 206.96 56.7085C208.073 61.0118 210.113 65.8389 212.638 68.4115C214.481 70.0899 216.49 71.5757 218.635 72.8457C218.971 72.6421 219.284 72.4038 219.57 72.1348V72.1348Z" stroke="#263238" stroke-width="1.19148" stroke-linecap="round" stroke-linejoin="round"/>
<path d="M213.218 83.0711C213.218 83.0711 209.037 83.5107 207.718 84.6427C206.399 85.7746 196.361 94.3624 194.733 99.4515C193.105 104.541 199.289 119.77 206.043 125.645C212.797 131.52 221.235 137.741 228.401 136.46C235.567 135.178 243.799 124.139 244.651 121.136C245.502 118.133 217.465 83.7166 217.465 83.7166C217.465 83.7166 215.473 81.7146 213.218 83.0711Z" fill="white"/>
<path d="M213.218 83.0711C213.218 83.0711 212.395 83.1553 211.347 83.3517L212.283 84.9327C212.283 84.9327 211.422 93.8011 217.503 103.848C223.584 113.895 234.239 120.276 233.93 123.924C233.621 127.572 234.866 132.446 225.716 131.838C216.567 131.23 206.857 115.71 203.508 108.105C201.768 104.148 200.271 98.1418 198.559 93.4924C196.908 95.2241 195.589 97.2439 194.668 99.4515C193.04 104.541 199.223 119.77 205.978 125.645C212.732 131.52 221.17 137.741 228.336 136.46C235.502 135.178 243.734 124.139 244.585 121.136C245.437 118.133 217.4 83.7166 217.4 83.7166C217.4 83.7166 215.473 81.7146 213.218 83.0711Z" fill="#92E3A9"/>
<path opacity="0.5" d="M213.218 83.0711C213.218 83.0711 212.395 83.1553 211.347 83.3517L212.283 84.9327C212.283 84.9327 211.422 93.8011 217.503 103.848C223.584 113.895 234.239 120.276 233.93 123.924C233.621 127.572 234.866 132.446 225.716 131.838C216.567 131.23 206.857 115.71 203.508 108.105C201.768 104.148 200.271 98.1418 198.559 93.4924C196.908 95.2241 195.589 97.2439 194.668 99.4515C193.04 104.541 199.223 119.77 205.978 125.645C212.732 131.52 221.17 137.741 228.336 136.46C235.502 135.178 243.734 124.139 244.585 121.136C245.437 118.133 217.4 83.7166 217.4 83.7166C217.4 83.7166 215.473 81.7146 213.218 83.0711Z" fill="white"/>
<path d="M213.218 83.0711C213.218 83.0711 209.037 83.5107 207.718 84.6427C206.399 85.7746 196.361 94.3624 194.733 99.4515C193.105 104.541 199.289 119.77 206.043 125.645C212.797 131.52 221.235 137.741 228.401 136.46C235.567 135.178 243.799 124.139 244.651 121.136C245.502 118.133 217.465 83.7166 217.465 83.7166C217.465 83.7166 215.473 81.7146 213.218 83.0711Z" stroke="#263238" stroke-width="1.19148" stroke-linecap="round" stroke-linejoin="round"/>
<path d="M248.936 62.6683C248.936 62.6683 244.501 61.1715 237.897 63.9779C231.292 66.7844 214.771 76.4855 212.349 84.9329C210.749 90.4804 228.252 116.384 239.188 120.65C242.125 121.791 244.801 123.035 250.816 118.133C256.831 113.232 269.442 99.6201 272.744 93.6236C276.046 87.6272 270.873 83.1555 269.142 80.5268C267.411 77.898 253.576 60.685 248.936 62.6683Z" fill="white"/>
<path d="M272.781 93.5391L261.378 97.1688C261.378 97.1688 249.516 111.201 245.259 114.821C241.003 118.442 227.607 109.648 223.041 105.382L221.694 104.129C227.148 111.538 233.931 118.61 239.188 120.668C242.125 121.81 244.801 123.054 250.816 118.152C256.831 113.25 269.442 99.6385 272.744 93.642C272.762 93.6099 272.775 93.5752 272.781 93.5391Z" fill="#92E3A9"/>
<path d="M266.86 92.2844L272.997 93.0796C275.719 87.3544 270.855 83.0698 269.143 80.5066C267.431 77.9433 253.576 60.6835 248.936 62.6668C248.086 62.4281 247.209 62.2992 246.326 62.2832C240.713 66.5116 241.349 71.3668 246.476 80.1137C251.602 88.8605 266.86 92.2844 266.86 92.2844Z" fill="#92E3A9"/>
<g opacity="0.5">
<path opacity="0.5" d="M272.781 93.5371L261.378 97.1668C261.378 97.1668 249.516 111.199 245.259 114.82C241.003 118.44 227.607 109.646 223.041 105.38L221.694 104.127C227.148 111.536 233.931 118.608 239.188 120.666C242.125 121.808 244.801 123.052 250.816 118.15C256.831 113.248 269.442 99.6365 272.744 93.64C272.762 93.608 272.775 93.5732 272.781 93.5371Z" fill="white"/>
<path opacity="0.5" d="M266.86 92.2844L272.997 93.0796C275.719 87.3544 270.855 83.0698 269.143 80.5066C267.431 77.9433 253.576 60.6835 248.936 62.6668C248.086 62.4281 247.209 62.2992 246.326 62.2832C240.713 66.5116 241.349 71.3668 246.476 80.1137C251.602 88.8605 266.86 92.2844 266.86 92.2844Z" fill="white"/>
</g>
<path d="M248.936 62.6683C248.936 62.6683 244.501 61.1715 237.897 63.9779C231.292 66.7844 214.771 76.4855 212.349 84.9329C210.749 90.4804 228.252 116.384 239.188 120.65C242.125 121.791 244.801 123.035 250.816 118.133C256.831 113.232 269.442 99.6201 272.744 93.6236C276.046 87.6272 270.873 83.1555 269.142 80.5268C267.411 77.898 253.576 60.685 248.936 62.6683Z" stroke="#263238" stroke-width="1.19148" stroke-linecap="round" stroke-linejoin="round"/>
<path d="M253.914 88.3189L242.573 72.7612C240.78 70.3021 237.334 69.7618 234.875 71.5543L222.9 80.283C220.441 82.0756 219.901 85.5223 221.693 87.9814L233.034 103.539C234.826 105.998 238.273 106.539 240.732 104.746L252.707 96.0173C255.166 94.2247 255.706 90.7781 253.914 88.3189Z" fill="white" stroke="#263238" stroke-width="1.19148" stroke-linecap="round" stroke-linejoin="round"/>
<path d="M397.8 180.633C383.814 144.149 348.827 144.551 317.965 144.935C307.329 145.066 297.281 145.197 288.029 143.999C256.812 140.052 247.888 107.964 247.803 107.515C247.728 107.232 247.598 106.967 247.421 106.734C247.243 106.501 247.021 106.305 246.768 106.158C246.515 106.011 246.235 105.915 245.945 105.875C245.655 105.836 245.36 105.855 245.076 105.93C244.793 106.005 244.528 106.135 244.295 106.312C244.062 106.49 243.866 106.712 243.719 106.965C243.572 107.218 243.476 107.498 243.436 107.788C243.397 108.078 243.416 108.373 243.491 108.657C243.584 109.012 253.21 144.056 287.459 148.396C297.029 149.612 307.703 149.472 318.031 149.332C348.902 148.948 380.765 148.546 393.646 182.158C396.519 189.917 397.258 198.305 395.785 206.446C394.313 214.588 390.683 222.185 385.274 228.446C375.694 239.476 362.102 243.947 347.994 240.71C334.682 237.651 321.529 233.442 308.807 229.372C287.749 222.637 265.98 215.667 242.873 213.731C203.255 210.401 175.696 229.7 143.814 252.03C137.397 256.53 130.764 261.17 123.813 265.791L119.856 268.429C100.127 281.601 79.7331 295.222 56.6545 297.682C38.7118 299.553 20.4698 291.19 11.2365 276.774C8.6715 272.854 6.91215 268.463 6.06093 263.857C5.2097 259.251 5.28362 254.521 6.27837 249.944C7.19899 245.982 8.92369 242.251 11.3455 238.982C13.7674 235.714 16.8348 232.978 20.3575 230.944C32.3037 223.825 53.4084 221.458 71.4072 223.46L71.7159 219.016C52.8284 217.005 30.7882 219.587 18.0749 227.155C14.0483 229.516 10.5422 232.669 7.76856 236.424C4.99494 240.178 3.01135 244.456 1.9377 248.999C0.794529 254.168 0.695549 259.514 1.64657 264.722C2.59759 269.93 4.57945 274.896 7.4758 279.328C16.7372 293.8 33.4918 302.546 51.2755 302.574C53.2285 302.574 55.1801 302.471 57.1223 302.266C81.286 299.693 103.092 285.137 122.317 272.33L126.264 269.692C133.271 265.015 139.923 260.337 146.359 255.875C177.539 234.031 204.462 215.162 242.49 218.362C265.091 220.233 286.617 227.146 307.432 233.807C320.248 237.904 333.494 242.142 346.984 245.238C362.756 248.859 377.93 243.872 388.632 231.561C394.59 224.676 398.584 216.315 400.197 207.354C401.811 198.393 400.982 189.164 397.8 180.633Z" fill="white" stroke="#263238" stroke-width="1.19148" stroke-linecap="round" stroke-linejoin="round"/>
<path d="M242.396 78.515C242.396 79.1163 242.218 79.7041 241.884 80.2041C241.55 80.7041 241.075 81.0937 240.519 81.3239C239.964 81.554 239.352 81.6142 238.763 81.4969C238.173 81.3796 237.631 81.09 237.206 80.6648C236.781 80.2396 236.491 79.6979 236.374 79.1081C236.257 78.5183 236.317 77.907 236.547 77.3515C236.777 76.7959 237.167 76.3211 237.667 75.987C238.167 75.6529 238.755 75.4746 239.356 75.4746C240.162 75.4746 240.936 75.7949 241.506 76.3651C242.076 76.9353 242.396 77.7086 242.396 78.515Z" fill="#92E3A9" stroke="#263238" stroke-width="1.19148" stroke-linecap="round" stroke-linejoin="round"/>
<path d="M234.145 85.4568C234.147 86.0589 233.97 86.648 233.637 87.1494C233.303 87.6508 232.829 88.042 232.273 88.2732C231.717 88.5045 231.105 88.5655 230.514 88.4485C229.923 88.3315 229.381 88.0417 228.955 87.616C228.529 87.1902 228.239 86.6476 228.122 86.057C228.005 85.4663 228.066 84.8543 228.298 84.2983C228.529 83.7424 228.92 83.2677 229.422 82.9343C229.923 82.6009 230.512 82.4239 231.114 82.4258C231.918 82.4258 232.689 82.7451 233.257 83.3136C233.826 83.882 234.145 84.6529 234.145 85.4568Z" fill="#92E3A9" stroke="#263238" stroke-width="1.19148" stroke-linecap="round" stroke-linejoin="round"/>
<path d="M276.007 86.196C289.155 82.3762 296.717 68.6213 292.897 55.4735C289.077 42.3257 275.322 34.7639 262.174 38.5837C249.027 42.4035 241.465 56.1584 245.284 69.3062C249.104 82.4539 262.859 90.0158 276.007 86.196Z" fill="white"/>
<path d="M287.927 46.2674C287.067 45.2598 286.128 44.3214 285.121 43.4609C286.579 48.573 286.353 54.0186 284.477 58.9924C282.6 63.9662 279.173 68.2042 274.702 71.0797C270.231 73.9552 264.953 75.3155 259.649 74.9595C254.345 74.6034 249.297 72.55 245.25 69.1027C246.255 72.6709 248.048 75.9681 250.496 78.7515C252.944 81.5349 255.986 83.7336 259.396 85.1856C262.807 86.6376 266.5 87.3059 270.203 87.1413C273.907 86.9767 277.526 85.9834 280.794 84.2345C284.063 82.4857 286.897 80.0258 289.089 77.0362C291.281 74.0465 292.774 70.6033 293.458 66.9601C294.143 63.3168 294.001 59.5665 293.044 55.9853C292.086 52.4041 290.338 49.0832 287.927 46.2674Z" fill="#92E3A9"/>
<path opacity="0.5" d="M287.927 46.2674C287.067 45.2598 286.128 44.3214 285.121 43.4609C286.579 48.573 286.353 54.0186 284.477 58.9924C282.6 63.9662 279.173 68.2042 274.702 71.0797C270.231 73.9552 264.953 75.3155 259.649 74.9595C254.345 74.6034 249.297 72.55 245.25 69.1027C246.255 72.6709 248.048 75.9681 250.496 78.7515C252.944 81.5349 255.986 83.7336 259.396 85.1856C262.807 86.6376 266.5 87.3059 270.203 87.1413C273.907 86.9767 277.526 85.9834 280.794 84.2345C284.063 82.4857 286.897 80.0258 289.089 77.0362C291.281 74.0465 292.774 70.6033 293.458 66.9601C294.143 63.3168 294.001 59.5665 293.044 55.9853C292.086 52.4041 290.338 49.0832 287.927 46.2674Z" fill="white"/>
<path d="M276.007 86.196C289.155 82.3762 296.717 68.6213 292.897 55.4735C289.077 42.3257 275.322 34.7639 262.174 38.5837C249.027 42.4035 241.465 56.1584 245.284 69.3062C249.104 82.4539 262.859 90.0158 276.007 86.196Z" stroke="#263238" stroke-width="1.19148" stroke-linecap="round" stroke-linejoin="round"/>
<path d="M291.098 79.516L298.32 73.3418" stroke="#263238" stroke-width="1.19148" stroke-linecap="round" stroke-linejoin="round"/>
<path d="M300.238 74.1174C300.623 73.7886 300.861 73.3206 300.9 72.8162C300.94 72.3118 300.777 71.8124 300.448 71.4278C300.12 71.0433 299.652 70.8051 299.147 70.7656C298.643 70.7261 298.143 70.8886 297.759 71.2174C297.568 71.3801 297.412 71.5788 297.298 71.8021C297.185 72.0253 297.116 72.2688 297.097 72.5185C297.057 73.0229 297.22 73.5223 297.548 73.9069C297.877 74.2915 298.345 74.5297 298.85 74.5692C299.354 74.6086 299.853 74.4461 300.238 74.1174Z" fill="#263238"/>
<path d="M282.248 87C281.97 86.6746 281.759 86.2975 281.627 85.8905C281.495 85.4834 281.444 85.0543 281.478 84.6277C281.512 84.2011 281.63 83.7853 281.824 83.4042C282.019 83.0231 282.287 82.6841 282.613 82.4067L287.365 78.328C288.025 77.7684 288.879 77.4927 289.742 77.561C290.604 77.6294 291.404 78.0363 291.968 78.6928C292.246 79.0176 292.458 79.3941 292.591 79.8009C292.724 80.2076 292.775 80.6365 292.742 81.0631C292.709 81.4897 292.592 81.9056 292.398 82.2871C292.205 82.6685 291.937 83.008 291.612 83.2861L286.851 87.3648C286.192 87.9267 285.337 88.204 284.474 88.1356C283.611 88.0671 282.81 87.6587 282.248 87Z" fill="white" stroke="#263238" stroke-width="1.19148" stroke-linecap="round" stroke-linejoin="round"/>
<path d="M274.493 91.088C274.493 91.088 264.867 88.4873 261.078 95.7187C257.289 102.95 261.565 120.977 261.565 120.977C261.565 120.977 254.53 132.409 252.743 133.653C250.956 134.897 245.923 134.354 240.965 136.88C236.007 139.406 237.644 141.997 238.963 142.867C240.282 143.737 244.324 141.137 245.512 141.23C246.7 141.324 246.569 143.466 241.891 148.321C237.214 153.176 235.072 153.298 236.409 155.543C236.772 156.186 237.331 156.695 238.005 156.996C238.678 157.298 239.43 157.375 240.151 157.218C239.986 157.774 240.028 158.371 240.269 158.899C240.509 159.427 240.933 159.85 241.461 160.09C243.388 161.025 244.211 160.305 244.211 160.305C244.211 160.305 244.024 162.747 245.811 163.495C247.213 163.907 248.703 163.907 250.105 163.495C250.105 163.495 251.798 165.478 253.51 165.151C255.222 164.823 259.123 160.052 262.21 155.992C265.297 151.932 277.178 137.498 281.855 128.648C286.533 119.798 284.316 110.874 283.362 105.42C282.407 99.9658 278.085 92.2854 274.493 91.088Z" fill="white"/>
<path d="M283.362 105.449C282.426 99.9952 278.085 92.2868 274.493 91.0893L274.269 91.0332C277.559 98.9266 278.879 107.503 278.113 116.02C276.897 131.531 262.668 143.767 258.337 148.267C254.867 151.877 250.498 156.939 244.202 160.68C244.178 161.251 244.315 161.817 244.598 162.314C244.881 162.81 245.298 163.217 245.802 163.487C247.203 163.899 248.694 163.899 250.096 163.487C250.096 163.487 251.789 165.47 253.501 165.143C255.213 164.815 259.114 160.044 262.201 155.984C265.288 151.924 277.169 137.49 281.846 128.64C286.524 119.79 284.316 110.903 283.362 105.449Z" fill="#92E3A9"/>
<path opacity="0.5" d="M283.362 105.449C282.426 99.9952 278.085 92.2868 274.493 91.0893L274.269 91.0332C277.559 98.9266 278.879 107.503 278.113 116.02C276.897 131.531 262.668 143.767 258.337 148.267C254.867 151.877 250.498 156.939 244.202 160.68C244.178 161.251 244.315 161.817 244.598 162.314C244.881 162.81 245.298 163.217 245.802 163.487C247.203 163.899 248.694 163.899 250.096 163.487C250.096 163.487 251.789 165.47 253.501 165.143C255.213 164.815 259.114 160.044 262.201 155.984C265.288 151.924 277.169 137.49 281.846 128.64C286.524 119.79 284.316 110.903 283.362 105.449Z" fill="white"/>
<path d="M274.493 91.088C274.493 91.088 264.867 88.4873 261.078 95.7187C257.289 102.95 261.565 120.977 261.565 120.977C261.565 120.977 254.53 132.409 252.743 133.653C250.956 134.897 245.923 134.354 240.965 136.88C236.007 139.406 237.644 141.997 238.963 142.867C240.282 143.737 244.324 141.137 245.512 141.23C246.7 141.324 246.569 143.466 241.891 148.321C237.214 153.176 235.072 153.298 236.409 155.543C236.772 156.186 237.331 156.695 238.005 156.996C238.678 157.298 239.43 157.375 240.151 157.218C239.986 157.774 240.028 158.371 240.269 158.899C240.509 159.427 240.933 159.85 241.461 160.09C243.388 161.025 244.211 160.305 244.211 160.305C244.211 160.305 244.024 162.747 245.811 163.495C247.213 163.907 248.703 163.907 250.105 163.495C250.105 163.495 251.798 165.478 253.51 165.151C255.222 164.823 259.123 160.052 262.21 155.992C265.297 151.932 277.178 137.498 281.855 128.648C286.533 119.798 284.316 110.874 283.362 105.42C282.407 99.9658 278.085 92.2854 274.493 91.088Z" stroke="#263238" stroke-width="1.19148" stroke-linecap="round" stroke-linejoin="round"/>
<path d="M253.501 165.179C255.213 164.851 259.114 160.08 262.201 156.02C263.95 153.728 268.515 148.106 272.996 142.053C269.993 131.763 261.106 128.685 257.149 127.834C255.362 130.509 253.529 133.073 252.743 133.625C250.956 134.869 245.923 134.326 240.965 136.852C236.007 139.378 237.644 141.969 238.963 142.839C240.282 143.709 244.324 141.109 245.512 141.202C246.7 141.296 246.569 143.438 241.891 148.293C237.214 153.148 235.072 153.298 236.409 155.543C236.772 156.186 237.331 156.695 238.005 156.996C238.678 157.297 239.43 157.375 240.151 157.218C239.986 157.774 240.028 158.371 240.269 158.899C240.509 159.427 240.933 159.85 241.461 160.09C243.388 161.025 244.211 160.305 244.211 160.305C244.211 160.305 244.024 162.746 245.811 163.495C247.213 163.907 248.703 163.907 250.105 163.495C250.105 163.495 251.789 165.506 253.501 165.179Z" stroke="#263238" stroke-width="1.19148" stroke-linecap="round" stroke-linejoin="round"/>
<path d="M240.151 157.218C243.714 155.368 246.89 152.853 249.506 149.809" stroke="#263238" stroke-width="1.19148" stroke-linecap="round" stroke-linejoin="round"/>
<path d="M244.202 160.304C247.947 158.484 251.282 155.922 254.006 152.773" stroke="#263238" stroke-width="1.19148" stroke-linecap="round" stroke-linejoin="round"/>
<path d="M250.096 163.522C250.096 163.522 255.484 159.491 258.047 156.16" stroke="#263238" stroke-width="1.19148" stroke-linecap="round" stroke-linejoin="round"/>
<path d="M283.791 123.775C283.988 123.064 284.137 122.353 284.268 121.651C276.429 116.422 266.55 118.134 261.283 119.659C261.452 120.473 261.564 120.95 261.564 120.95L260.75 122.259C273.342 119.219 280.283 121.492 283.791 123.775Z" fill="white" stroke="#263238" stroke-width="1.19148" stroke-linecap="round" stroke-linejoin="round"/>
<path d="M278.329 128.554C279.025 129.366 279.854 130.056 280.78 130.593C281.163 129.929 281.528 129.293 281.856 128.722C284.24 124.023 285.19 118.727 284.587 113.492C282.602 113.579 280.702 114.327 279.189 115.616C277.368 117.223 276.256 119.484 276.095 121.907C275.933 124.331 276.736 126.72 278.329 128.554Z" fill="#92E3A9" stroke="#263238" stroke-width="1.19148" stroke-linecap="round" stroke-linejoin="round"/>
<path d="M189.691 94.4457C189.691 94.4457 193.583 105.672 198.588 106.504C203.592 107.337 210.553 98.8425 211.965 92.4718C213.378 86.1011 208.41 80.9746 201.226 74.5759C194.041 68.1771 183.741 64.4539 175.032 69.3091C166.323 74.1643 153.45 88.0189 153.45 88.0189C153.45 88.0189 145.396 80.9372 141.12 84.595C136.845 88.2527 142.421 99.4412 146.359 104.053C150.298 108.665 157.482 115.429 164.377 113.82C171.271 112.211 176.735 99.2728 181.216 95.4654C185.697 91.6579 188.699 93.295 189.691 94.4457Z" fill="white"/>
<path d="M200.86 97.1689C193.254 93.5204 195.387 84.3901 187.763 81.9578C180.139 79.5255 180.766 84.6988 174.666 94.4372C168.567 104.176 157.322 103.558 149.717 101.126C147.305 100.346 144.936 99.4434 142.616 98.4224C143.656 100.456 144.91 102.372 146.358 104.138C150.297 108.75 157.453 115.448 164.338 113.839C171.224 112.23 176.696 99.2924 181.177 95.485C185.658 91.6775 188.717 93.3146 189.699 94.4653C189.699 94.4653 193.591 105.691 198.596 106.524C203.601 107.356 210.561 98.8621 211.973 92.4914C212.208 91.4482 212.268 90.3735 212.151 89.3107L211.796 89.2359C211.796 89.2359 208.437 100.808 200.86 97.1689Z" fill="#92E3A9"/>
<path opacity="0.5" d="M200.86 97.1689C193.254 93.5204 195.387 84.3901 187.763 81.9578C180.139 79.5255 180.766 84.6988 174.666 94.4372C168.567 104.176 157.322 103.558 149.717 101.126C147.305 100.346 144.936 99.4434 142.616 98.4224C143.656 100.456 144.91 102.372 146.358 104.138C150.297 108.75 157.453 115.448 164.338 113.839C171.224 112.23 176.696 99.2924 181.177 95.485C185.658 91.6775 188.717 93.3146 189.699 94.4653C189.699 94.4653 193.591 105.691 198.596 106.524C203.601 107.356 210.561 98.8621 211.973 92.4914C212.208 91.4482 212.268 90.3735 212.151 89.3107L211.796 89.2359C211.796 89.2359 208.437 100.808 200.86 97.1689Z" fill="white"/>
<path d="M189.691 94.4457C189.691 94.4457 193.583 105.672 198.588 106.504C203.592 107.337 210.553 98.8425 211.965 92.4718C213.378 86.1011 208.41 80.9746 201.226 74.5759C194.041 68.1771 183.741 64.4539 175.032 69.3091C166.323 74.1643 153.45 88.0189 153.45 88.0189C153.45 88.0189 145.396 80.9372 141.12 84.595C136.845 88.2527 142.421 99.4412 146.359 104.053C150.298 108.665 157.482 115.429 164.377 113.82C171.271 112.211 176.735 99.2728 181.216 95.4654C185.697 91.6579 188.699 93.295 189.691 94.4457Z" stroke="#263238" stroke-width="1.19148" stroke-linecap="round" stroke-linejoin="round"/>
<path d="M165.152 76.7559C158.941 82.2004 153.478 88.0846 153.478 88.0846C153.478 88.0846 145.423 81.003 141.148 84.6608C136.873 88.3185 142.448 99.507 146.387 104.119C150.325 108.731 157.481 115.429 164.376 113.82C170.588 112.37 175.602 101.659 179.83 96.8408C173.957 90.9206 169.009 84.1497 165.152 76.7559V76.7559Z" stroke="#263238" stroke-width="1.19148" stroke-linecap="round" stroke-linejoin="round"/>
<path d="M185.892 67.2321C185.128 67.1434 184.36 67.0966 183.591 67.0918C185.876 75.6282 186.398 84.5407 185.125 93.2855C185.873 93.0854 186.655 93.0535 187.417 93.192C187.932 86.5594 188.315 75.5673 185.892 67.2321Z" stroke="#263238" stroke-width="1.19148" stroke-linecap="round" stroke-linejoin="round"/>
<path d="M191.14 81.8084C189.901 82.861 188.378 83.5226 186.763 83.7097C185.148 83.8967 183.514 83.6009 182.067 82.8594C180.62 82.118 179.425 80.9642 178.634 79.544C177.842 78.1238 177.49 76.5009 177.62 74.8803C177.751 73.2598 178.359 71.7143 179.368 70.4393C180.377 69.1643 181.741 68.2169 183.288 67.7169C184.835 67.2169 186.495 67.1867 188.06 67.6302C189.624 68.0736 191.021 68.9708 192.076 70.2083C192.777 71.0311 193.309 71.984 193.641 73.0125C193.974 74.041 194.1 75.1249 194.013 76.2023C193.926 77.2797 193.628 78.3294 193.135 79.2914C192.642 80.2533 191.964 81.1086 191.14 81.8084Z" fill="#92E3A9" stroke="#263238" stroke-width="1.19148" stroke-linecap="round" stroke-linejoin="round"/>
<path d="M164.376 113.821C166.015 113.359 167.512 112.497 168.736 111.314C164.33 112.044 156.191 111.8 148.791 102.895C141.588 94.2506 141.466 87.5244 142.177 83.9883C141.81 84.1573 141.467 84.3743 141.158 84.6338C136.873 88.2915 142.458 99.48 146.396 104.092C150.335 108.704 157.482 115.43 164.376 113.821Z" stroke="#263238" stroke-width="1.19148" stroke-linecap="round" stroke-linejoin="round"/>
<path d="M212.208 134.205C212.208 134.205 223.593 137.554 227.176 133.981C230.759 130.407 231.292 119.546 223.546 114.944C217.933 111.632 212.124 111.202 202.741 113.297C193.358 115.393 184.349 121.651 183.255 131.53C182.16 141.409 185.968 159.987 185.968 159.987C185.968 159.987 175.537 162.429 176.023 168.042C176.51 173.655 188.868 175.61 194.902 175.077C200.935 174.544 210.562 172.617 213.246 166.077C215.931 159.538 208.569 147.573 208.064 141.755C207.559 135.936 210.702 134.336 212.208 134.205Z" fill="white"/>
<path d="M212.208 134.204C212.208 134.204 223.593 137.553 227.176 133.979C229.515 131.65 230.535 126.252 228.841 121.49C228.841 121.49 229.777 126.364 223.06 127.58C216.343 128.796 205.417 126.364 200.552 132.445C195.688 138.526 202.676 151.005 203.284 159.219C203.892 167.432 202.049 170.136 193.835 171.071C185.622 172.007 178.278 166.113 176.585 169.687C179.101 174.018 189.523 175.534 194.921 175.056C200.964 174.523 210.581 172.596 213.266 166.057C215.95 159.518 208.588 147.553 208.083 141.734C207.578 135.915 210.702 134.335 212.208 134.204Z" fill="#92E3A9"/>
<path opacity="0.5" d="M212.208 134.204C212.208 134.204 223.593 137.553 227.176 133.979C229.515 131.65 230.535 126.252 228.841 121.49C228.841 121.49 229.777 126.364 223.06 127.58C216.343 128.796 205.417 126.364 200.552 132.445C195.688 138.526 202.676 151.005 203.284 159.219C203.892 167.432 202.049 170.136 193.835 171.071C185.622 172.007 178.278 166.113 176.585 169.687C179.101 174.018 189.523 175.534 194.921 175.056C200.964 174.523 210.581 172.596 213.266 166.057C215.95 159.518 208.588 147.553 208.083 141.734C207.578 135.915 210.702 134.335 212.208 134.204Z" fill="white"/>
<path d="M212.208 134.205C212.208 134.205 223.593 137.554 227.176 133.981C230.759 130.407 231.292 119.546 223.546 114.944C217.933 111.632 212.124 111.202 202.741 113.297C193.358 115.393 184.349 121.651 183.255 131.53C182.16 141.409 185.968 159.987 185.968 159.987C185.968 159.987 175.537 162.429 176.023 168.042C176.51 173.655 188.868 175.61 194.902 175.077C200.935 174.544 210.562 172.617 213.246 166.077C215.931 159.538 208.569 147.573 208.064 141.755C207.559 135.936 210.702 134.336 212.208 134.205Z" stroke="#263238" stroke-width="1.19148" stroke-linecap="round" stroke-linejoin="round"/>
<path d="M183.554 143.943C184.377 152.166 185.986 160.024 185.986 160.024C185.986 160.024 175.555 162.465 176.042 168.078C176.528 173.691 188.886 175.647 194.92 175.113C200.954 174.58 210.58 172.653 213.265 166.114C215.688 160.211 209.953 149.911 208.419 143.662C200.192 145.006 191.809 145.101 183.554 143.943V143.943Z" stroke="#263238" stroke-width="1.19148" stroke-linecap="round" stroke-linejoin="round"/>
<path d="M187.838 121.547C187.325 122.115 186.844 122.711 186.397 123.334C194.656 126.439 202.202 131.183 208.578 137.282C208.854 136.574 209.282 135.936 209.832 135.411C204.77 131.061 196.042 124.363 187.838 121.547Z" stroke="#263238" stroke-width="1.19148" stroke-linecap="round" stroke-linejoin="round"/>
<path d="M197.033 134.277C201.37 132.913 203.78 128.291 202.416 123.954C201.052 119.617 196.43 117.207 192.093 118.571C187.756 119.935 185.346 124.557 186.71 128.894C188.074 133.231 192.696 135.641 197.033 134.277Z" fill="#92E3A9" stroke="#263238" stroke-width="1.19148" stroke-linecap="round" stroke-linejoin="round"/>
<path d="M213.265 166.077C213.843 164.476 214.01 162.755 213.752 161.072C211.787 165.086 206.866 171.568 195.341 172.429C184.115 173.271 178.568 169.464 176.117 166.816C176.035 167.213 176.01 167.619 176.042 168.023C176.538 173.636 188.886 175.591 194.92 175.058C200.954 174.525 210.58 172.616 213.265 166.077Z" stroke="#263238" stroke-width="1.19148" stroke-linecap="round" stroke-linejoin="round"/>
<path d="M277.449 51.948C274.978 48.7029 272.737 45.2894 270.741 41.7324C266.554 41.1709 262.294 41.8774 258.512 43.7609C254.73 45.6443 251.599 48.6182 249.524 52.2985C247.449 55.9788 246.525 60.1967 246.871 64.4076C247.217 68.6184 248.817 72.6289 251.464 75.9214C254.112 79.2138 257.686 81.637 261.725 82.8781C265.763 84.1192 270.081 84.1212 274.121 82.8839C278.161 81.6466 281.737 79.2268 284.388 75.9369C287.039 72.647 288.643 68.638 288.993 64.4274C284.739 60.6619 280.872 56.4814 277.449 51.948Z" fill="#263238" stroke="#263238" stroke-width="1.19148" stroke-linecap="round" stroke-linejoin="round"/>
<path d="M279.497 71.1344C278.522 72.0861 277.284 72.7225 275.942 72.9609C274.601 73.1994 273.218 73.0288 271.975 72.4714C270.732 71.9141 269.685 70.9956 268.971 69.8355C268.256 68.6753 267.907 67.3271 267.969 65.966C268.031 64.6049 268.5 63.2939 269.317 62.2032C270.134 61.1126 271.26 60.2928 272.548 59.8504C273.837 59.408 275.229 59.3634 276.543 59.7225C277.858 60.0815 279.034 60.8276 279.918 61.8637C280.501 62.4992 280.953 63.2436 281.247 64.054C281.541 64.8645 281.673 65.7251 281.634 66.5865C281.594 67.4479 281.386 68.293 281.019 69.0735C280.652 69.8539 280.135 70.5543 279.497 71.1344Z" fill="white"/>
<path d="M272.547 55.4644C272.246 55.7308 271.872 55.9011 271.473 55.9537C271.074 56.0062 270.669 55.9386 270.309 55.7594C269.949 55.5802 269.65 55.2976 269.452 54.9478C269.253 54.598 269.164 54.1969 269.194 53.7959C269.225 53.3948 269.375 53.0121 269.624 52.6967C269.874 52.3812 270.212 52.1474 270.595 52.0252C270.978 51.903 271.389 51.8979 271.775 52.0107C272.162 52.1234 272.505 52.3488 272.762 52.6579C273.101 53.0609 273.268 53.5804 273.228 54.1051C273.187 54.6297 272.943 55.1177 272.547 55.4644Z" fill="white"/>
<path d="M72.7539 216.798L66.749 216.207L65.8952 224.884L71.9001 225.475L72.7539 216.798Z" fill="#263238"/>
</g>
<defs>
<filter id="filter0_d_626_3058" x="0.404236" y="0.404297" width="409.192" height="396.399" filterUnits="userSpaceOnUse" color-interpolation-filters="sRGB">
<feFlood flood-opacity="0" result="BackgroundImageFix"/>
<feColorMatrix in="SourceAlpha" type="matrix" values="0 0 0 0 0 0 0 0 0 0 0 0 0 0 0 0 0 0 127 0" result="hardAlpha"/>
<feOffset dx="4" dy="4"/>
<feGaussianBlur stdDeviation="2"/>
<feComposite in2="hardAlpha" operator="out"/>
<feColorMatrix type="matrix" values="0 0 0 0 0 0 0 0 0 0 0 0 0 0 0 0 0 0 0.25 0"/>
<feBlend mode="normal" in2="BackgroundImageFix" result="effect1_dropShadow_626_3058"/>
<feBlend mode="normal" in="SourceGraphic" in2="effect1_dropShadow_626_3058" result="shape"/>
</filter>
</defs>
</svg>
