<svg width="549" height="315" viewBox="0 0 549 315" fill="none" xmlns="http://www.w3.org/2000/svg">
<path d="M53.4207 259.875H544.891" stroke="black"/>
<path d="M88.5257 269.325V259.875" stroke="black"/>
<path d="M91.2151 275.38V276.68C91.2151 277.38 91.1526 277.97 91.0276 278.45C90.9026 278.93 90.7229 279.317 90.4886 279.61C90.2542 279.903 89.971 280.116 89.6389 280.249C89.3108 280.378 88.9397 280.442 88.5257 280.442C88.1975 280.442 87.8948 280.401 87.6175 280.319C87.3401 280.237 87.0901 280.106 86.8675 279.927C86.6487 279.743 86.4612 279.505 86.305 279.212C86.1487 278.919 86.0296 278.563 85.9475 278.145C85.8655 277.727 85.8245 277.239 85.8245 276.68V275.38C85.8245 274.68 85.887 274.095 86.012 273.622C86.1409 273.149 86.3225 272.77 86.5569 272.485C86.7913 272.196 87.0725 271.989 87.4007 271.864C87.7327 271.739 88.1038 271.677 88.5139 271.677C88.846 271.677 89.1507 271.718 89.428 271.8C89.7093 271.878 89.9593 272.005 90.178 272.18C90.3968 272.352 90.5823 272.583 90.7346 272.872C90.8909 273.157 91.01 273.507 91.0921 273.921C91.1741 274.335 91.2151 274.821 91.2151 275.38ZM90.1253 276.856V275.198C90.1253 274.815 90.1018 274.479 90.055 274.19C90.012 273.897 89.9475 273.647 89.8616 273.44C89.7757 273.233 89.6663 273.065 89.5335 272.936C89.4046 272.807 89.2542 272.714 89.0823 272.655C88.9143 272.593 88.7249 272.561 88.5139 272.561C88.2561 272.561 88.0276 272.61 87.8284 272.708C87.6292 272.802 87.4612 272.952 87.3245 273.159C87.1917 273.366 87.0901 273.638 87.0198 273.973C86.9495 274.309 86.9143 274.718 86.9143 275.198V276.856C86.9143 277.239 86.9358 277.577 86.9788 277.87C87.0257 278.163 87.094 278.417 87.1839 278.632C87.2737 278.843 87.3831 279.016 87.512 279.153C87.6409 279.29 87.7893 279.391 87.9573 279.458C88.1292 279.52 88.3186 279.552 88.5257 279.552C88.7913 279.552 89.0237 279.501 89.2229 279.399C89.4221 279.298 89.5882 279.139 89.721 278.925C89.8577 278.706 89.9593 278.427 90.0257 278.087C90.0921 277.743 90.1253 277.333 90.1253 276.856Z" fill="black"/>
<path d="M158.736 269.325V259.875" stroke="black"/>
<path d="M159.632 271.747V280.325H158.548V273.1L156.363 273.897V272.919L159.462 271.747H159.632Z" fill="black"/>
<path d="M228.946 269.325V259.875" stroke="black"/>
<path d="M231.87 279.434V280.325H226.286V279.546L229.08 276.434C229.424 276.052 229.69 275.727 229.877 275.462C230.069 275.192 230.202 274.952 230.276 274.741C230.354 274.526 230.393 274.307 230.393 274.085C230.393 273.804 230.334 273.55 230.217 273.323C230.104 273.093 229.936 272.909 229.713 272.772C229.491 272.636 229.221 272.567 228.905 272.567C228.526 272.567 228.209 272.641 227.955 272.79C227.705 272.934 227.518 273.138 227.393 273.399C227.268 273.661 227.205 273.962 227.205 274.302H226.121C226.121 273.821 226.227 273.382 226.438 272.983C226.649 272.585 226.961 272.268 227.375 272.034C227.789 271.796 228.299 271.677 228.905 271.677C229.444 271.677 229.905 271.772 230.287 271.964C230.67 272.151 230.963 272.417 231.166 272.761C231.373 273.1 231.477 273.499 231.477 273.956C231.477 274.206 231.434 274.46 231.348 274.718C231.266 274.971 231.151 275.225 231.002 275.479C230.858 275.733 230.688 275.983 230.493 276.229C230.301 276.475 230.096 276.718 229.877 276.956L227.592 279.434H231.87Z" fill="black"/>
<path d="M299.156 269.325V259.875" stroke="black"/>
<path d="M298.072 275.526H298.845C299.224 275.526 299.537 275.464 299.783 275.339C300.033 275.21 300.218 275.036 300.339 274.817C300.464 274.595 300.527 274.345 300.527 274.067C300.527 273.739 300.472 273.464 300.363 273.241C300.253 273.018 300.089 272.85 299.871 272.737C299.652 272.624 299.374 272.567 299.038 272.567C298.734 272.567 298.464 272.628 298.23 272.749C297.999 272.866 297.818 273.034 297.685 273.253C297.556 273.471 297.492 273.729 297.492 274.026H296.408C296.408 273.593 296.517 273.198 296.736 272.843C296.954 272.487 297.261 272.204 297.656 271.993C298.054 271.782 298.515 271.677 299.038 271.677C299.554 271.677 300.005 271.768 300.392 271.952C300.779 272.132 301.079 272.401 301.294 272.761C301.509 273.116 301.617 273.559 301.617 274.091C301.617 274.305 301.566 274.536 301.464 274.782C301.367 275.024 301.212 275.251 301.001 275.462C300.794 275.673 300.525 275.846 300.193 275.983C299.861 276.116 299.462 276.182 298.997 276.182H298.072V275.526ZM298.072 276.417V275.766H298.997C299.54 275.766 299.99 275.831 300.345 275.96C300.701 276.089 300.98 276.261 301.183 276.475C301.39 276.69 301.535 276.927 301.617 277.184C301.703 277.438 301.746 277.692 301.746 277.946C301.746 278.345 301.677 278.698 301.54 279.007C301.408 279.315 301.218 279.577 300.972 279.792C300.73 280.007 300.445 280.169 300.117 280.278C299.788 280.388 299.431 280.442 299.044 280.442C298.673 280.442 298.324 280.389 297.996 280.284C297.671 280.179 297.384 280.026 297.134 279.827C296.884 279.624 296.689 279.376 296.548 279.083C296.408 278.786 296.337 278.448 296.337 278.069H297.421C297.421 278.366 297.486 278.626 297.615 278.848C297.747 279.071 297.935 279.245 298.177 279.37C298.423 279.491 298.712 279.552 299.044 279.552C299.376 279.552 299.662 279.495 299.9 279.382C300.142 279.264 300.328 279.089 300.456 278.854C300.589 278.62 300.656 278.325 300.656 277.97C300.656 277.614 300.581 277.323 300.433 277.096C300.285 276.866 300.074 276.696 299.8 276.587C299.531 276.473 299.212 276.417 298.845 276.417H298.072Z" fill="black"/>
<path d="M369.366 269.325V259.875" stroke="black"/>
<path d="M372.465 277.454V278.345H366.301V277.706L370.122 271.794H371.006L370.057 273.505L367.532 277.454H372.465ZM371.276 271.794V280.325H370.192V271.794H371.276Z" fill="black"/>
<path d="M439.576 269.325V259.875" stroke="black"/>
<path d="M438.281 276.264L437.414 276.042L437.841 271.794H442.218V272.796H438.761L438.503 275.116C438.66 275.026 438.857 274.942 439.095 274.864C439.337 274.786 439.615 274.747 439.927 274.747C440.322 274.747 440.675 274.815 440.988 274.952C441.3 275.085 441.566 275.276 441.785 275.526C442.007 275.776 442.177 276.077 442.294 276.429C442.412 276.78 442.47 277.173 442.47 277.606C442.47 278.016 442.414 278.393 442.3 278.737C442.191 279.081 442.025 279.382 441.802 279.639C441.58 279.893 441.298 280.091 440.958 280.231C440.623 280.372 440.226 280.442 439.769 280.442C439.425 280.442 439.099 280.395 438.791 280.302C438.486 280.204 438.212 280.057 437.97 279.862C437.732 279.663 437.537 279.417 437.384 279.124C437.236 278.827 437.142 278.479 437.103 278.081H438.134C438.181 278.401 438.275 278.671 438.416 278.889C438.556 279.108 438.74 279.274 438.966 279.388C439.197 279.497 439.464 279.552 439.769 279.552C440.027 279.552 440.255 279.507 440.455 279.417C440.654 279.327 440.822 279.198 440.958 279.03C441.095 278.862 441.199 278.659 441.269 278.421C441.343 278.182 441.38 277.915 441.38 277.618C441.38 277.348 441.343 277.098 441.269 276.868C441.195 276.638 441.083 276.436 440.935 276.264C440.791 276.093 440.613 275.96 440.402 275.866C440.191 275.768 439.949 275.72 439.675 275.72C439.312 275.72 439.037 275.768 438.849 275.866C438.666 275.964 438.476 276.096 438.281 276.264Z" fill="black"/>
<path d="M509.786 269.325V259.875" stroke="black"/>
<path d="M511.28 271.782H511.374V272.702H511.28C510.706 272.702 510.225 272.796 509.838 272.983C509.452 273.167 509.145 273.415 508.919 273.727C508.692 274.036 508.528 274.384 508.426 274.77C508.329 275.157 508.28 275.55 508.28 275.948V277.202C508.28 277.581 508.325 277.917 508.415 278.21C508.504 278.499 508.627 278.743 508.784 278.942C508.94 279.141 509.116 279.292 509.311 279.393C509.51 279.495 509.717 279.546 509.932 279.546C510.182 279.546 510.405 279.499 510.6 279.405C510.795 279.307 510.96 279.173 511.092 279.001C511.229 278.825 511.333 278.618 511.403 278.38C511.473 278.141 511.508 277.88 511.508 277.595C511.508 277.341 511.477 277.096 511.415 276.862C511.352 276.624 511.256 276.413 511.127 276.229C510.999 276.042 510.836 275.895 510.641 275.79C510.45 275.68 510.221 275.626 509.956 275.626C509.655 275.626 509.374 275.7 509.112 275.848C508.854 275.993 508.641 276.184 508.473 276.423C508.309 276.657 508.215 276.913 508.192 277.19L507.618 277.184C507.672 276.747 507.774 276.374 507.922 276.065C508.075 275.753 508.262 275.499 508.485 275.304C508.711 275.104 508.963 274.96 509.241 274.87C509.522 274.776 509.819 274.729 510.131 274.729C510.557 274.729 510.924 274.809 511.233 274.97C511.542 275.13 511.795 275.345 511.995 275.614C512.194 275.88 512.34 276.18 512.434 276.516C512.532 276.848 512.581 277.19 512.581 277.542C512.581 277.944 512.524 278.321 512.411 278.673C512.297 279.024 512.127 279.333 511.901 279.598C511.678 279.864 511.403 280.071 511.075 280.22C510.747 280.368 510.366 280.442 509.932 280.442C509.471 280.442 509.069 280.348 508.725 280.161C508.381 279.97 508.096 279.716 507.87 279.399C507.643 279.083 507.473 278.731 507.36 278.345C507.247 277.958 507.19 277.565 507.19 277.167V276.657C507.19 276.055 507.251 275.466 507.372 274.888C507.493 274.309 507.702 273.786 507.999 273.317C508.299 272.848 508.715 272.475 509.247 272.198C509.778 271.921 510.456 271.782 511.28 271.782Z" fill="black"/>
<path d="M53 7.875V259.875" stroke="black"/>
<path d="M46.7333 259.875H53" stroke="black"/>
<path d="M40.8256 257.03V258.33C40.8256 259.03 40.7631 259.62 40.6381 260.1C40.5131 260.58 40.3334 260.967 40.099 261.26C39.8646 261.553 39.5814 261.766 39.2494 261.899C38.9213 262.028 38.5502 262.092 38.1361 262.092C37.808 262.092 37.5053 262.051 37.2279 261.969C36.9506 261.887 36.7006 261.756 36.4779 261.577C36.2592 261.393 36.0717 261.155 35.9154 260.862C35.7592 260.569 35.64 260.213 35.558 259.795C35.476 259.377 35.4349 258.889 35.4349 258.33V257.03C35.4349 256.33 35.4974 255.745 35.6224 255.272C35.7513 254.799 35.933 254.42 36.1674 254.135C36.4017 253.846 36.683 253.639 37.0111 253.514C37.3431 253.389 37.7142 253.327 38.1244 253.327C38.4564 253.327 38.7611 253.368 39.0385 253.45C39.3197 253.528 39.5697 253.655 39.7885 253.83C40.0072 254.002 40.1928 254.233 40.3451 254.522C40.5013 254.807 40.6205 255.157 40.7025 255.571C40.7845 255.985 40.8256 256.471 40.8256 257.03ZM39.7357 258.506V256.848C39.7357 256.465 39.7123 256.129 39.6654 255.84C39.6224 255.547 39.558 255.297 39.472 255.09C39.3861 254.883 39.2767 254.715 39.1439 254.586C39.015 254.457 38.8646 254.364 38.6928 254.305C38.5248 254.243 38.3353 254.211 38.1244 254.211C37.8666 254.211 37.6381 254.26 37.4388 254.358C37.2396 254.452 37.0717 254.602 36.9349 254.809C36.8021 255.016 36.7006 255.288 36.6303 255.623C36.5599 255.959 36.5248 256.368 36.5248 256.848V258.506C36.5248 258.889 36.5463 259.227 36.5892 259.52C36.6361 259.813 36.7045 260.067 36.7943 260.282C36.8842 260.493 36.9935 260.666 37.1224 260.803C37.2513 260.94 37.3998 261.041 37.5678 261.108C37.7396 261.17 37.9291 261.202 38.1361 261.202C38.4017 261.202 38.6342 261.151 38.8334 261.049C39.0326 260.948 39.1986 260.789 39.3314 260.575C39.4681 260.356 39.5697 260.077 39.6361 259.737C39.7025 259.393 39.7357 258.983 39.7357 258.506Z" fill="black"/>
<path d="M46.7333 196.875H53" stroke="black"/>
<path d="M20.9857 197.104V197.995H14.8217V197.356L18.642 191.444H19.5267L18.5775 193.155L16.0521 197.104H20.9857ZM19.7963 191.444V199.975H18.7123V191.444H19.7963ZM23.3412 195.914L22.474 195.692L22.9017 191.444H27.2787V192.446H23.8217L23.5638 194.766C23.7201 194.676 23.9174 194.592 24.1556 194.514C24.3978 194.436 24.6752 194.397 24.9877 194.397C25.3822 194.397 25.7357 194.465 26.0482 194.602C26.3607 194.735 26.6263 194.926 26.8451 195.176C27.0677 195.426 27.2377 195.727 27.3549 196.079C27.472 196.43 27.5306 196.823 27.5306 197.256C27.5306 197.666 27.474 198.043 27.3607 198.387C27.2513 198.731 27.0853 199.032 26.8627 199.289C26.64 199.543 26.3588 199.741 26.0189 199.881C25.683 200.022 25.2865 200.092 24.8295 200.092C24.4857 200.092 24.1595 200.045 23.8509 199.952C23.5463 199.854 23.2728 199.707 23.0306 199.512C22.7924 199.313 22.597 199.067 22.4447 198.774C22.2963 198.477 22.2025 198.129 22.1634 197.731H23.1947C23.2416 198.051 23.3353 198.321 23.4759 198.539C23.6166 198.758 23.8002 198.924 24.0267 199.038C24.2572 199.147 24.5248 199.202 24.8295 199.202C25.0873 199.202 25.3158 199.157 25.515 199.067C25.7142 198.977 25.8822 198.848 26.0189 198.68C26.1556 198.512 26.2592 198.309 26.3295 198.071C26.4037 197.832 26.4408 197.565 26.4408 197.268C26.4408 196.998 26.4037 196.748 26.3295 196.518C26.2552 196.288 26.1439 196.086 25.9955 195.914C25.8509 195.743 25.6732 195.61 25.4623 195.516C25.2513 195.418 25.0092 195.37 24.7357 195.37C24.3724 195.37 24.097 195.418 23.9095 195.516C23.7259 195.614 23.5365 195.746 23.3412 195.914ZM34.0756 195.03V196.33C34.0756 197.03 34.0131 197.62 33.8881 198.1C33.7631 198.58 33.5834 198.967 33.349 199.26C33.1146 199.553 32.8314 199.766 32.4994 199.899C32.1713 200.028 31.8002 200.092 31.3861 200.092C31.058 200.092 30.7552 200.051 30.4779 199.969C30.2006 199.887 29.9506 199.756 29.7279 199.577C29.5092 199.393 29.3217 199.155 29.1654 198.862C29.0092 198.569 28.89 198.213 28.808 197.795C28.7259 197.377 28.6849 196.889 28.6849 196.33V195.03C28.6849 194.33 28.7474 193.745 28.8724 193.272C29.0013 192.799 29.183 192.42 29.4174 192.135C29.6517 191.846 29.933 191.639 30.2611 191.514C30.5931 191.389 30.9642 191.327 31.3744 191.327C31.7064 191.327 32.0111 191.368 32.2884 191.45C32.5697 191.528 32.8197 191.655 33.0384 191.83C33.2572 192.002 33.4427 192.233 33.5951 192.522C33.7513 192.807 33.8705 193.157 33.9525 193.571C34.0345 193.985 34.0756 194.471 34.0756 195.03ZM32.9857 196.506V194.848C32.9857 194.465 32.9623 194.129 32.9154 193.84C32.8724 193.547 32.808 193.297 32.722 193.09C32.6361 192.883 32.5267 192.715 32.3939 192.586C32.265 192.457 32.1146 192.364 31.9427 192.305C31.7748 192.243 31.5853 192.211 31.3744 192.211C31.1166 192.211 30.8881 192.26 30.6888 192.358C30.4896 192.452 30.3217 192.602 30.1849 192.809C30.0521 193.016 29.9506 193.288 29.8802 193.623C29.8099 193.959 29.7748 194.368 29.7748 194.848V196.506C29.7748 196.889 29.7963 197.227 29.8392 197.52C29.8861 197.813 29.9545 198.067 30.0443 198.282C30.1342 198.493 30.2435 198.666 30.3724 198.803C30.5013 198.94 30.6498 199.041 30.8177 199.108C30.9896 199.17 31.1791 199.202 31.3861 199.202C31.6517 199.202 31.8842 199.151 32.0834 199.049C32.2826 198.948 32.4486 198.789 32.5814 198.575C32.7181 198.356 32.8197 198.077 32.8861 197.737C32.9525 197.393 32.9857 196.983 32.9857 196.506ZM40.8256 195.03V196.33C40.8256 197.03 40.7631 197.62 40.6381 198.1C40.5131 198.58 40.3334 198.967 40.099 199.26C39.8646 199.553 39.5814 199.766 39.2494 199.899C38.9213 200.028 38.5502 200.092 38.1361 200.092C37.808 200.092 37.5052 200.051 37.2279 199.969C36.9506 199.887 36.7006 199.756 36.4779 199.577C36.2592 199.393 36.0717 199.155 35.9154 198.862C35.7592 198.569 35.64 198.213 35.558 197.795C35.4759 197.377 35.4349 196.889 35.4349 196.33V195.03C35.4349 194.33 35.4974 193.745 35.6224 193.272C35.7513 192.799 35.933 192.42 36.1674 192.135C36.4017 191.846 36.683 191.639 37.0111 191.514C37.3431 191.389 37.7142 191.327 38.1244 191.327C38.4564 191.327 38.7611 191.368 39.0384 191.45C39.3197 191.528 39.5697 191.655 39.7884 191.83C40.0072 192.002 40.1927 192.233 40.3451 192.522C40.5013 192.807 40.6205 193.157 40.7025 193.571C40.7845 193.985 40.8256 194.471 40.8256 195.03ZM39.7357 196.506V194.848C39.7357 194.465 39.7123 194.129 39.6654 193.84C39.6224 193.547 39.558 193.297 39.472 193.09C39.3861 192.883 39.2767 192.715 39.1439 192.586C39.015 192.457 38.8646 192.364 38.6927 192.305C38.5248 192.243 38.3353 192.211 38.1244 192.211C37.8666 192.211 37.6381 192.26 37.4388 192.358C37.2396 192.452 37.0717 192.602 36.9349 192.809C36.8021 193.016 36.7006 193.288 36.6302 193.623C36.5599 193.959 36.5248 194.368 36.5248 194.848V196.506C36.5248 196.889 36.5463 197.227 36.5892 197.52C36.6361 197.813 36.7045 198.067 36.7943 198.282C36.8842 198.493 36.9935 198.666 37.1224 198.803C37.2513 198.94 37.3998 199.041 37.5677 199.108C37.7396 199.17 37.9291 199.202 38.1361 199.202C38.4017 199.202 38.6342 199.151 38.8334 199.049C39.0326 198.948 39.1986 198.789 39.3314 198.575C39.4681 198.356 39.5697 198.077 39.6361 197.737C39.7025 197.393 39.7357 196.983 39.7357 196.506Z" fill="black"/>
<path d="M46.7333 133.875H53" stroke="black"/>
<path d="M16.2982 135.067H16.4095C17.0345 135.067 17.5424 134.979 17.933 134.803C18.3236 134.627 18.6244 134.391 18.8353 134.094C19.0463 133.797 19.1908 133.463 19.2689 133.092C19.347 132.717 19.3861 132.332 19.3861 131.938V130.631C19.3861 130.245 19.3412 129.901 19.2513 129.6C19.1654 129.299 19.0443 129.047 18.8881 128.844C18.7357 128.641 18.5619 128.487 18.3666 128.381C18.1713 128.276 17.9642 128.223 17.7455 128.223C17.4955 128.223 17.2709 128.274 17.0717 128.375C16.8763 128.473 16.7103 128.612 16.5736 128.791C16.4408 128.971 16.3392 129.182 16.2689 129.424C16.1986 129.666 16.1634 129.93 16.1634 130.215C16.1634 130.469 16.1947 130.715 16.2572 130.954C16.3197 131.192 16.4154 131.407 16.5443 131.598C16.6732 131.789 16.8334 131.942 17.0248 132.055C17.2201 132.164 17.4486 132.219 17.7103 132.219C17.9525 132.219 18.1791 132.172 18.39 132.079C18.6049 131.981 18.7943 131.85 18.9584 131.686C19.1263 131.518 19.2592 131.329 19.3568 131.118C19.4584 130.907 19.517 130.686 19.5326 130.455H20.0482C20.0482 130.78 19.9838 131.1 19.8549 131.416C19.7299 131.729 19.5541 132.014 19.3275 132.272C19.1009 132.53 18.8353 132.737 18.5306 132.893C18.2259 133.045 17.8939 133.121 17.5345 133.121C17.1127 133.121 16.7474 133.039 16.4388 132.875C16.1302 132.711 15.8763 132.493 15.6771 132.219C15.4818 131.946 15.3353 131.641 15.2377 131.305C15.1439 130.965 15.097 130.621 15.097 130.274C15.097 129.868 15.1537 129.487 15.267 129.131C15.3802 128.776 15.5482 128.463 15.7709 128.194C15.9935 127.92 16.2689 127.707 16.597 127.555C16.9291 127.403 17.3119 127.327 17.7455 127.327C18.2338 127.327 18.6498 127.424 18.9935 127.62C19.3373 127.815 19.6166 128.077 19.8314 128.405C20.0502 128.733 20.2103 129.102 20.3119 129.512C20.4134 129.922 20.4642 130.344 20.4642 130.778V131.17C20.4642 131.612 20.4349 132.061 20.3763 132.518C20.3217 132.971 20.2142 133.405 20.0541 133.819C19.8978 134.233 19.6693 134.604 19.3685 134.932C19.0677 135.256 18.6752 135.514 18.1908 135.705C17.7103 135.893 17.1166 135.987 16.4095 135.987H16.2982V135.067ZM27.3256 131.03V132.33C27.3256 133.03 27.2631 133.62 27.1381 134.1C27.0131 134.58 26.8334 134.967 26.599 135.26C26.3646 135.553 26.0814 135.766 25.7494 135.899C25.4213 136.028 25.0502 136.092 24.6361 136.092C24.308 136.092 24.0052 136.051 23.7279 135.969C23.4506 135.887 23.2006 135.756 22.9779 135.577C22.7592 135.393 22.5717 135.155 22.4154 134.862C22.2592 134.569 22.14 134.213 22.058 133.795C21.9759 133.377 21.9349 132.889 21.9349 132.33V131.03C21.9349 130.33 21.9974 129.745 22.1224 129.272C22.2513 128.799 22.433 128.42 22.6674 128.135C22.9017 127.846 23.183 127.639 23.5111 127.514C23.8431 127.389 24.2142 127.327 24.6244 127.327C24.9564 127.327 25.2611 127.368 25.5384 127.45C25.8197 127.528 26.0697 127.655 26.2884 127.83C26.5072 128.002 26.6927 128.233 26.8451 128.522C27.0013 128.807 27.1205 129.157 27.2025 129.571C27.2845 129.985 27.3256 130.471 27.3256 131.03ZM26.2357 132.506V130.848C26.2357 130.465 26.2123 130.129 26.1654 129.84C26.1224 129.547 26.058 129.297 25.972 129.09C25.8861 128.883 25.7767 128.715 25.6439 128.586C25.515 128.457 25.3646 128.364 25.1927 128.305C25.0248 128.243 24.8353 128.211 24.6244 128.211C24.3666 128.211 24.1381 128.26 23.9388 128.358C23.7396 128.452 23.5717 128.602 23.4349 128.809C23.3021 129.016 23.2006 129.288 23.1302 129.623C23.0599 129.959 23.0248 130.368 23.0248 130.848V132.506C23.0248 132.889 23.0463 133.227 23.0892 133.52C23.1361 133.813 23.2045 134.067 23.2943 134.282C23.3842 134.493 23.4935 134.666 23.6224 134.803C23.7513 134.94 23.8998 135.041 24.0677 135.108C24.2396 135.17 24.4291 135.202 24.6361 135.202C24.9017 135.202 25.1342 135.151 25.3334 135.049C25.5326 134.948 25.6986 134.789 25.8314 134.575C25.9681 134.356 26.0697 134.077 26.1361 133.737C26.2025 133.393 26.2357 132.983 26.2357 132.506ZM34.0756 131.03V132.33C34.0756 133.03 34.0131 133.62 33.8881 134.1C33.7631 134.58 33.5834 134.967 33.349 135.26C33.1146 135.553 32.8314 135.766 32.4994 135.899C32.1713 136.028 31.8002 136.092 31.3861 136.092C31.058 136.092 30.7552 136.051 30.4779 135.969C30.2006 135.887 29.9506 135.756 29.7279 135.577C29.5092 135.393 29.3217 135.155 29.1654 134.862C29.0092 134.569 28.89 134.213 28.808 133.795C28.7259 133.377 28.6849 132.889 28.6849 132.33V131.03C28.6849 130.33 28.7474 129.745 28.8724 129.272C29.0013 128.799 29.183 128.42 29.4174 128.135C29.6517 127.846 29.933 127.639 30.2611 127.514C30.5931 127.389 30.9642 127.327 31.3744 127.327C31.7064 127.327 32.0111 127.368 32.2884 127.45C32.5697 127.528 32.8197 127.655 33.0384 127.83C33.2572 128.002 33.4427 128.233 33.5951 128.522C33.7513 128.807 33.8705 129.157 33.9525 129.571C34.0345 129.985 34.0756 130.471 34.0756 131.03ZM32.9857 132.506V130.848C32.9857 130.465 32.9623 130.129 32.9154 129.84C32.8724 129.547 32.808 129.297 32.722 129.09C32.6361 128.883 32.5267 128.715 32.3939 128.586C32.265 128.457 32.1146 128.364 31.9427 128.305C31.7748 128.243 31.5853 128.211 31.3744 128.211C31.1166 128.211 30.8881 128.26 30.6888 128.358C30.4896 128.452 30.3217 128.602 30.1849 128.809C30.0521 129.016 29.9506 129.288 29.8802 129.623C29.8099 129.959 29.7748 130.368 29.7748 130.848V132.506C29.7748 132.889 29.7963 133.227 29.8392 133.52C29.8861 133.813 29.9545 134.067 30.0443 134.282C30.1342 134.493 30.2435 134.666 30.3724 134.803C30.5013 134.94 30.6498 135.041 30.8177 135.108C30.9896 135.17 31.1791 135.202 31.3861 135.202C31.6517 135.202 31.8842 135.151 32.0834 135.049C32.2826 134.948 32.4486 134.789 32.5814 134.575C32.7181 134.356 32.8197 134.077 32.8861 133.737C32.9525 133.393 32.9857 132.983 32.9857 132.506ZM40.8256 131.03V132.33C40.8256 133.03 40.7631 133.62 40.6381 134.1C40.5131 134.58 40.3334 134.967 40.099 135.26C39.8646 135.553 39.5814 135.766 39.2494 135.899C38.9213 136.028 38.5502 136.092 38.1361 136.092C37.808 136.092 37.5052 136.051 37.2279 135.969C36.9506 135.887 36.7006 135.756 36.4779 135.577C36.2592 135.393 36.0717 135.155 35.9154 134.862C35.7592 134.569 35.64 134.213 35.558 133.795C35.4759 133.377 35.4349 132.889 35.4349 132.33V131.03C35.4349 130.33 35.4974 129.745 35.6224 129.272C35.7513 128.799 35.933 128.42 36.1674 128.135C36.4017 127.846 36.683 127.639 37.0111 127.514C37.3431 127.389 37.7142 127.327 38.1244 127.327C38.4564 127.327 38.7611 127.368 39.0384 127.45C39.3197 127.528 39.5697 127.655 39.7884 127.83C40.0072 128.002 40.1927 128.233 40.3451 128.522C40.5013 128.807 40.6205 129.157 40.7025 129.571C40.7845 129.985 40.8256 130.471 40.8256 131.03ZM39.7357 132.506V130.848C39.7357 130.465 39.7123 130.129 39.6654 129.84C39.6224 129.547 39.558 129.297 39.472 129.09C39.3861 128.883 39.2767 128.715 39.1439 128.586C39.015 128.457 38.8646 128.364 38.6927 128.305C38.5248 128.243 38.3353 128.211 38.1244 128.211C37.8666 128.211 37.6381 128.26 37.4388 128.358C37.2396 128.452 37.0717 128.602 36.9349 128.809C36.8021 129.016 36.7006 129.288 36.6302 129.623C36.5599 129.959 36.5248 130.368 36.5248 130.848V132.506C36.5248 132.889 36.5463 133.227 36.5892 133.52C36.6361 133.813 36.7045 134.067 36.7943 134.282C36.8842 134.493 36.9935 134.666 37.1224 134.803C37.2513 134.94 37.3998 135.041 37.5677 135.108C37.7396 135.17 37.9291 135.202 38.1361 135.202C38.4017 135.202 38.6342 135.151 38.8334 135.049C39.0326 134.948 39.1986 134.789 39.3314 134.575C39.4681 134.356 39.5697 134.077 39.6361 133.737C39.7025 133.393 39.7357 132.983 39.7357 132.506Z" fill="black"/>
<path d="M46.7333 71.8786H53" stroke="black"/>
<path d="M12.0326 66.4219V75H10.9486V67.7754L8.76306 68.5723V67.5938L11.8627 66.4219H12.0326ZM16.8021 70.2012H17.5756C17.9545 70.2012 18.267 70.1387 18.5131 70.0137C18.7631 69.8848 18.9486 69.7109 19.0697 69.4922C19.1947 69.2695 19.2572 69.0195 19.2572 68.7422C19.2572 68.4141 19.2025 68.1387 19.0931 67.916C18.9838 67.6934 18.8197 67.5254 18.601 67.4121C18.3822 67.2988 18.1049 67.2422 17.7689 67.2422C17.4642 67.2422 17.1947 67.3027 16.9603 67.4238C16.7299 67.541 16.5482 67.709 16.4154 67.9277C16.2865 68.1465 16.222 68.4043 16.222 68.7012H15.1381C15.1381 68.2676 15.2474 67.873 15.4662 67.5176C15.6849 67.1621 15.9916 66.8789 16.3861 66.668C16.7845 66.457 17.2455 66.3516 17.7689 66.3516C18.2845 66.3516 18.7357 66.4434 19.1224 66.627C19.5092 66.8066 19.8099 67.0762 20.0248 67.4355C20.2396 67.791 20.347 68.2344 20.347 68.7656C20.347 68.9805 20.2963 69.2109 20.1947 69.457C20.097 69.6992 19.9427 69.9258 19.7318 70.1367C19.5248 70.3477 19.2552 70.5215 18.9232 70.6582C18.5912 70.791 18.1927 70.8574 17.7279 70.8574H16.8021V70.2012ZM16.8021 71.0918V70.4414H17.7279C18.2709 70.4414 18.7201 70.5059 19.0756 70.6348C19.431 70.7637 19.7103 70.9355 19.9135 71.1504C20.1205 71.3652 20.265 71.6016 20.347 71.8594C20.433 72.1133 20.476 72.3672 20.476 72.6211C20.476 73.0195 20.4076 73.373 20.2709 73.6816C20.1381 73.9902 19.9486 74.252 19.7025 74.4668C19.4603 74.6816 19.1752 74.8438 18.847 74.9531C18.5189 75.0625 18.1615 75.1172 17.7748 75.1172C17.4037 75.1172 17.0541 75.0645 16.726 74.959C16.4017 74.8535 16.1146 74.7012 15.8646 74.502C15.6146 74.2988 15.4193 74.0508 15.2787 73.7578C15.1381 73.4609 15.0677 73.123 15.0677 72.7441H16.1517C16.1517 73.041 16.2162 73.3008 16.3451 73.5234C16.4779 73.7461 16.6654 73.9199 16.9076 74.0449C17.1537 74.166 17.4427 74.2266 17.7748 74.2266C18.1068 74.2266 18.392 74.1699 18.6302 74.0566C18.8724 73.9395 19.058 73.7637 19.1869 73.5293C19.3197 73.2949 19.3861 73 19.3861 72.6445C19.3861 72.2891 19.3119 71.998 19.1635 71.7715C19.015 71.541 18.8041 71.3711 18.5306 71.2617C18.2611 71.1484 17.9427 71.0918 17.5756 71.0918H16.8021ZM23.3412 70.9395L22.474 70.7168L22.9017 66.4688H27.2787V67.4707H23.8217L23.5638 69.791C23.7201 69.7012 23.9174 69.6172 24.1556 69.5391C24.3978 69.4609 24.6752 69.4219 24.9877 69.4219C25.3822 69.4219 25.7357 69.4902 26.0482 69.627C26.3607 69.7598 26.6263 69.9512 26.8451 70.2012C27.0677 70.4512 27.2377 70.752 27.3549 71.1035C27.472 71.4551 27.5306 71.8477 27.5306 72.2812C27.5306 72.6914 27.474 73.0684 27.3607 73.4121C27.2513 73.7559 27.0853 74.0566 26.8627 74.3145C26.64 74.5684 26.3588 74.7656 26.0189 74.9062C25.683 75.0469 25.2865 75.1172 24.8295 75.1172C24.4857 75.1172 24.1595 75.0703 23.851 74.9766C23.5463 74.8789 23.2728 74.7324 23.0306 74.5371C22.7924 74.3379 22.597 74.0918 22.4447 73.7988C22.2963 73.502 22.2025 73.1543 22.1635 72.7559H23.1947C23.2416 73.0762 23.3353 73.3457 23.476 73.5645C23.6166 73.7832 23.8002 73.9492 24.0267 74.0625C24.2572 74.1719 24.5248 74.2266 24.8295 74.2266C25.0873 74.2266 25.3158 74.1816 25.515 74.0918C25.7142 74.002 25.8822 73.873 26.0189 73.7051C26.1556 73.5371 26.2592 73.334 26.3295 73.0957C26.4037 72.8574 26.4408 72.5898 26.4408 72.293C26.4408 72.0234 26.4037 71.7734 26.3295 71.543C26.2552 71.3125 26.1439 71.1113 25.9955 70.9395C25.851 70.7676 25.6732 70.6348 25.4623 70.541C25.2513 70.4434 25.0092 70.3945 24.7357 70.3945C24.3724 70.3945 24.097 70.4434 23.9095 70.541C23.726 70.6387 23.5365 70.7715 23.3412 70.9395ZM34.0756 70.0547V71.3555C34.0756 72.0547 34.0131 72.6445 33.8881 73.125C33.7631 73.6055 33.5834 73.9922 33.349 74.2852C33.1146 74.5781 32.8314 74.791 32.4994 74.9238C32.1713 75.0527 31.8002 75.1172 31.3861 75.1172C31.058 75.1172 30.7552 75.0762 30.4779 74.9941C30.2006 74.9121 29.9506 74.7812 29.7279 74.6016C29.5092 74.418 29.3217 74.1797 29.1654 73.8867C29.0092 73.5938 28.89 73.2383 28.808 72.8203C28.726 72.4023 28.6849 71.9141 28.6849 71.3555V70.0547C28.6849 69.3555 28.7474 68.7695 28.8724 68.2969C29.0013 67.8242 29.183 67.4453 29.4174 67.1602C29.6517 66.8711 29.933 66.6641 30.2611 66.5391C30.5931 66.4141 30.9642 66.3516 31.3744 66.3516C31.7064 66.3516 32.0111 66.3926 32.2885 66.4746C32.5697 66.5527 32.8197 66.6797 33.0385 66.8555C33.2572 67.0273 33.4427 67.2578 33.5951 67.5469C33.7513 67.832 33.8705 68.1816 33.9525 68.5957C34.0345 69.0098 34.0756 69.4961 34.0756 70.0547ZM32.9857 71.5312V69.873C32.9857 69.4902 32.9623 69.1543 32.9154 68.8652C32.8724 68.5723 32.808 68.3223 32.722 68.1152C32.6361 67.9082 32.5267 67.7402 32.3939 67.6113C32.265 67.4824 32.1146 67.3887 31.9427 67.3301C31.7748 67.2676 31.5853 67.2363 31.3744 67.2363C31.1166 67.2363 30.8881 67.2852 30.6888 67.3828C30.4896 67.4766 30.3217 67.627 30.1849 67.834C30.0521 68.041 29.9506 68.3125 29.8802 68.6484C29.8099 68.9844 29.7748 69.3926 29.7748 69.873V71.5312C29.7748 71.9141 29.7963 72.252 29.8392 72.5449C29.8861 72.8379 29.9545 73.0918 30.0443 73.3066C30.1342 73.5176 30.2435 73.6914 30.3724 73.8281C30.5013 73.9648 30.6498 74.0664 30.8177 74.1328C30.9896 74.1953 31.1791 74.2266 31.3861 74.2266C31.6517 74.2266 31.8842 74.1758 32.0834 74.0742C32.2826 73.9727 32.4486 73.8145 32.5814 73.5996C32.7181 73.3809 32.8197 73.1016 32.8861 72.7617C32.9525 72.418 32.9857 72.0078 32.9857 71.5312ZM40.8256 70.0547V71.3555C40.8256 72.0547 40.7631 72.6445 40.6381 73.125C40.5131 73.6055 40.3334 73.9922 40.099 74.2852C39.8646 74.5781 39.5814 74.791 39.2494 74.9238C38.9213 75.0527 38.5502 75.1172 38.1361 75.1172C37.808 75.1172 37.5052 75.0762 37.2279 74.9941C36.9506 74.9121 36.7006 74.7812 36.4779 74.6016C36.2592 74.418 36.0717 74.1797 35.9154 73.8867C35.7592 73.5938 35.64 73.2383 35.558 72.8203C35.476 72.4023 35.4349 71.9141 35.4349 71.3555V70.0547C35.4349 69.3555 35.4974 68.7695 35.6224 68.2969C35.7513 67.8242 35.933 67.4453 36.1674 67.1602C36.4017 66.8711 36.683 66.6641 37.0111 66.5391C37.3431 66.4141 37.7142 66.3516 38.1244 66.3516C38.4564 66.3516 38.7611 66.3926 39.0385 66.4746C39.3197 66.5527 39.5697 66.6797 39.7885 66.8555C40.0072 67.0273 40.1927 67.2578 40.3451 67.5469C40.5013 67.832 40.6205 68.1816 40.7025 68.5957C40.7845 69.0098 40.8256 69.4961 40.8256 70.0547ZM39.7357 71.5312V69.873C39.7357 69.4902 39.7123 69.1543 39.6654 68.8652C39.6224 68.5723 39.558 68.3223 39.472 68.1152C39.3861 67.9082 39.2767 67.7402 39.1439 67.6113C39.015 67.4824 38.8646 67.3887 38.6927 67.3301C38.5248 67.2676 38.3353 67.2363 38.1244 67.2363C37.8666 67.2363 37.6381 67.2852 37.4388 67.3828C37.2396 67.4766 37.0717 67.627 36.9349 67.834C36.8021 68.041 36.7006 68.3125 36.6302 68.6484C36.5599 68.9844 36.5248 69.3926 36.5248 69.873V71.5312C36.5248 71.9141 36.5463 72.252 36.5892 72.5449C36.6361 72.8379 36.7045 73.0918 36.7943 73.3066C36.8842 73.5176 36.9935 73.6914 37.1224 73.8281C37.2513 73.9648 37.3998 74.0664 37.5677 74.1328C37.7396 74.1953 37.9291 74.2266 38.1361 74.2266C38.4017 74.2266 38.6342 74.1758 38.8334 74.0742C39.0326 73.9727 39.1986 73.8145 39.3314 73.5996C39.4681 73.3809 39.5697 73.1016 39.6361 72.7617C39.7025 72.418 39.7357 72.0078 39.7357 71.5312Z" fill="black"/>
<path d="M46.7333 7.875H53" stroke="black"/>
<path d="M12.5215 2.42188V11H11.4375V3.77539L9.25195 4.57227V3.59375L12.3516 2.42188H12.5215ZM21.0879 8.69141C21.0879 9.21094 20.9668 9.65234 20.7246 10.0156C20.4863 10.375 20.1621 10.6484 19.752 10.8359C19.3457 11.0234 18.8867 11.1172 18.375 11.1172C17.8633 11.1172 17.4023 11.0234 16.9922 10.8359C16.582 10.6484 16.2578 10.375 16.0195 10.0156C15.7812 9.65234 15.6621 9.21094 15.6621 8.69141C15.6621 8.35156 15.7266 8.04102 15.8555 7.75977C15.9883 7.47461 16.1738 7.22656 16.4121 7.01562C16.6543 6.80469 16.9395 6.64258 17.2676 6.5293C17.5996 6.41211 17.9648 6.35352 18.3633 6.35352C18.8867 6.35352 19.3535 6.45508 19.7637 6.6582C20.1738 6.85742 20.4961 7.13281 20.7305 7.48438C20.9688 7.83594 21.0879 8.23828 21.0879 8.69141ZM19.998 8.66797C19.998 8.35156 19.9297 8.07227 19.793 7.83008C19.6562 7.58398 19.4648 7.39258 19.2188 7.25586C18.9727 7.11914 18.6875 7.05078 18.3633 7.05078C18.0312 7.05078 17.7441 7.11914 17.502 7.25586C17.2637 7.39258 17.0781 7.58398 16.9453 7.83008C16.8125 8.07227 16.7461 8.35156 16.7461 8.66797C16.7461 8.99609 16.8105 9.27734 16.9395 9.51172C17.0723 9.74219 17.2598 9.91992 17.502 10.0449C17.748 10.166 18.0391 10.2266 18.375 10.2266C18.7109 10.2266 19 10.166 19.2422 10.0449C19.4844 9.91992 19.6699 9.74219 19.7988 9.51172C19.9316 9.27734 19.998 8.99609 19.998 8.66797ZM20.8887 4.68945C20.8887 5.10352 20.7793 5.47656 20.5605 5.80859C20.3418 6.14062 20.043 6.40234 19.6641 6.59375C19.2852 6.78516 18.8555 6.88086 18.375 6.88086C17.8867 6.88086 17.4512 6.78516 17.0684 6.59375C16.6895 6.40234 16.3926 6.14062 16.1777 5.80859C15.9629 5.47656 15.8555 5.10352 15.8555 4.68945C15.8555 4.19336 15.9629 3.77148 16.1777 3.42383C16.3965 3.07617 16.6953 2.81055 17.0742 2.62695C17.4531 2.44336 17.8848 2.35156 18.3691 2.35156C18.8574 2.35156 19.291 2.44336 19.6699 2.62695C20.0488 2.81055 20.3457 3.07617 20.5605 3.42383C20.7793 3.77148 20.8887 4.19336 20.8887 4.68945ZM19.8047 4.70703C19.8047 4.42188 19.7441 4.16992 19.623 3.95117C19.502 3.73242 19.334 3.56055 19.1191 3.43555C18.9043 3.30664 18.6543 3.24219 18.3691 3.24219C18.084 3.24219 17.834 3.30273 17.6191 3.42383C17.4082 3.54102 17.2422 3.70898 17.1211 3.92773C17.0039 4.14648 16.9453 4.40625 16.9453 4.70703C16.9453 5 17.0039 5.25586 17.1211 5.47461C17.2422 5.69336 17.4102 5.86328 17.625 5.98438C17.8398 6.10547 18.0898 6.16602 18.375 6.16602C18.6602 6.16602 18.9082 6.10547 19.1191 5.98438C19.334 5.86328 19.502 5.69336 19.623 5.47461C19.7441 5.25586 19.8047 5 19.8047 4.70703ZM27.8145 6.05469V7.35547C27.8145 8.05469 27.752 8.64453 27.627 9.125C27.502 9.60547 27.3223 9.99219 27.0879 10.2852C26.8535 10.5781 26.5703 10.791 26.2383 10.9238C25.9102 11.0527 25.5391 11.1172 25.125 11.1172C24.7969 11.1172 24.4941 11.0762 24.2168 10.9941C23.9395 10.9121 23.6895 10.7812 23.4668 10.6016C23.248 10.418 23.0605 10.1797 22.9043 9.88672C22.748 9.59375 22.6289 9.23828 22.5469 8.82031C22.4648 8.40234 22.4238 7.91406 22.4238 7.35547V6.05469C22.4238 5.35547 22.4863 4.76953 22.6113 4.29688C22.7402 3.82422 22.9219 3.44531 23.1562 3.16016C23.3906 2.87109 23.6719 2.66406 24 2.53906C24.332 2.41406 24.7031 2.35156 25.1133 2.35156C25.4453 2.35156 25.75 2.39258 26.0273 2.47461C26.3086 2.55273 26.5586 2.67969 26.7773 2.85547C26.9961 3.02734 27.1816 3.25781 27.334 3.54688C27.4902 3.83203 27.6094 4.18164 27.6914 4.5957C27.7734 5.00977 27.8145 5.49609 27.8145 6.05469ZM26.7246 7.53125V5.87305C26.7246 5.49023 26.7012 5.1543 26.6543 4.86523C26.6113 4.57227 26.5469 4.32227 26.4609 4.11523C26.375 3.9082 26.2656 3.74023 26.1328 3.61133C26.0039 3.48242 25.8535 3.38867 25.6816 3.33008C25.5137 3.26758 25.3242 3.23633 25.1133 3.23633C24.8555 3.23633 24.627 3.28516 24.4277 3.38281C24.2285 3.47656 24.0605 3.62695 23.9238 3.83398C23.791 4.04102 23.6895 4.3125 23.6191 4.64844C23.5488 4.98438 23.5137 5.39258 23.5137 5.87305V7.53125C23.5137 7.91406 23.5352 8.25195 23.5781 8.54492C23.625 8.83789 23.6934 9.0918 23.7832 9.30664C23.873 9.51758 23.9824 9.69141 24.1113 9.82812C24.2402 9.96484 24.3887 10.0664 24.5566 10.1328C24.7285 10.1953 24.918 10.2266 25.125 10.2266C25.3906 10.2266 25.623 10.1758 25.8223 10.0742C26.0215 9.97266 26.1875 9.81445 26.3203 9.59961C26.457 9.38086 26.5586 9.10156 26.625 8.76172C26.6914 8.41797 26.7246 8.00781 26.7246 7.53125ZM34.5645 6.05469V7.35547C34.5645 8.05469 34.502 8.64453 34.377 9.125C34.252 9.60547 34.0723 9.99219 33.8379 10.2852C33.6035 10.5781 33.3203 10.791 32.9883 10.9238C32.6602 11.0527 32.2891 11.1172 31.875 11.1172C31.5469 11.1172 31.2441 11.0762 30.9668 10.9941C30.6895 10.9121 30.4395 10.7812 30.2168 10.6016C29.998 10.418 29.8105 10.1797 29.6543 9.88672C29.498 9.59375 29.3789 9.23828 29.2969 8.82031C29.2148 8.40234 29.1738 7.91406 29.1738 7.35547V6.05469C29.1738 5.35547 29.2363 4.76953 29.3613 4.29688C29.4902 3.82422 29.6719 3.44531 29.9062 3.16016C30.1406 2.87109 30.4219 2.66406 30.75 2.53906C31.082 2.41406 31.4531 2.35156 31.8633 2.35156C32.1953 2.35156 32.5 2.39258 32.7773 2.47461C33.0586 2.55273 33.3086 2.67969 33.5273 2.85547C33.7461 3.02734 33.9316 3.25781 34.084 3.54688C34.2402 3.83203 34.3594 4.18164 34.4414 4.5957C34.5234 5.00977 34.5645 5.49609 34.5645 6.05469ZM33.4746 7.53125V5.87305C33.4746 5.49023 33.4512 5.1543 33.4043 4.86523C33.3613 4.57227 33.2969 4.32227 33.2109 4.11523C33.125 3.9082 33.0156 3.74023 32.8828 3.61133C32.7539 3.48242 32.6035 3.38867 32.4316 3.33008C32.2637 3.26758 32.0742 3.23633 31.8633 3.23633C31.6055 3.23633 31.377 3.28516 31.1777 3.38281C30.9785 3.47656 30.8105 3.62695 30.6738 3.83398C30.541 4.04102 30.4395 4.3125 30.3691 4.64844C30.2988 4.98438 30.2637 5.39258 30.2637 5.87305V7.53125C30.2637 7.91406 30.2852 8.25195 30.3281 8.54492C30.375 8.83789 30.4434 9.0918 30.5332 9.30664C30.623 9.51758 30.7324 9.69141 30.8613 9.82812C30.9902 9.96484 31.1387 10.0664 31.3066 10.1328C31.4785 10.1953 31.668 10.2266 31.875 10.2266C32.1406 10.2266 32.373 10.1758 32.5723 10.0742C32.7715 9.97266 32.9375 9.81445 33.0703 9.59961C33.207 9.38086 33.3086 9.10156 33.375 8.76172C33.4414 8.41797 33.4746 8.00781 33.4746 7.53125ZM41.3145 6.05469V7.35547C41.3145 8.05469 41.252 8.64453 41.127 9.125C41.002 9.60547 40.8223 9.99219 40.5879 10.2852C40.3535 10.5781 40.0703 10.791 39.7383 10.9238C39.4102 11.0527 39.0391 11.1172 38.625 11.1172C38.2969 11.1172 37.9941 11.0762 37.7168 10.9941C37.4395 10.9121 37.1895 10.7812 36.9668 10.6016C36.748 10.418 36.5605 10.1797 36.4043 9.88672C36.248 9.59375 36.1289 9.23828 36.0469 8.82031C35.9648 8.40234 35.9238 7.91406 35.9238 7.35547V6.05469C35.9238 5.35547 35.9863 4.76953 36.1113 4.29688C36.2402 3.82422 36.4219 3.44531 36.6562 3.16016C36.8906 2.87109 37.1719 2.66406 37.5 2.53906C37.832 2.41406 38.2031 2.35156 38.6133 2.35156C38.9453 2.35156 39.25 2.39258 39.5273 2.47461C39.8086 2.55273 40.0586 2.67969 40.2773 2.85547C40.4961 3.02734 40.6816 3.25781 40.834 3.54688C40.9902 3.83203 41.1094 4.18164 41.1914 4.5957C41.2734 5.00977 41.3145 5.49609 41.3145 6.05469ZM40.2246 7.53125V5.87305C40.2246 5.49023 40.2012 5.1543 40.1543 4.86523C40.1113 4.57227 40.0469 4.32227 39.9609 4.11523C39.875 3.9082 39.7656 3.74023 39.6328 3.61133C39.5039 3.48242 39.3535 3.38867 39.1816 3.33008C39.0137 3.26758 38.8242 3.23633 38.6133 3.23633C38.3555 3.23633 38.127 3.28516 37.9277 3.38281C37.7285 3.47656 37.5605 3.62695 37.4238 3.83398C37.291 4.04102 37.1895 4.3125 37.1191 4.64844C37.0488 4.98438 37.0137 5.39258 37.0137 5.87305V7.53125C37.0137 7.91406 37.0352 8.25195 37.0781 8.54492C37.125 8.83789 37.1934 9.0918 37.2832 9.30664C37.373 9.51758 37.4824 9.69141 37.6113 9.82812C37.7402 9.96484 37.8887 10.0664 38.0566 10.1328C38.2285 10.1953 38.418 10.2266 38.625 10.2266C38.8906 10.2266 39.123 10.1758 39.3223 10.0742C39.5215 9.97266 39.6875 9.81445 39.8203 9.59961C39.957 9.38086 40.0586 9.10156 40.125 8.76172C40.1914 8.41797 40.2246 8.00781 40.2246 7.53125Z" fill="black"/>
<path d="M53.4207 259.875H544.891" stroke="#CCCCCC"/>
<path d="M53.4207 196.875H544.891" stroke="#CCCCCC"/>
<path d="M53.4207 133.875H544.891" stroke="#CCCCCC"/>
<path d="M53.4207 70.875H544.891" stroke="#CCCCCC"/>
<path d="M53.4207 7.875H544.891" stroke="#CCCCCC"/>
<path d="M88.5257 7.875V259.875" stroke="#CCCCCC"/>
<path d="M158.736 7.875V259.875" stroke="#CCCCCC"/>
<path d="M228.946 7.875V259.875" stroke="#CCCCCC"/>
<path d="M299.156 7.875V259.875" stroke="#CCCCCC"/>
<path d="M369.366 7.875V259.875" stroke="#CCCCCC"/>
<path d="M439.576 7.875V259.875" stroke="#CCCCCC"/>
<path d="M509.786 7.875V259.875" stroke="#CCCCCC"/>
<path d="M53.4207 7.875V259.875" stroke="#CCCCCC"/>
<path d="M544.891 7.875V259.875" stroke="#CCCCCC"/>
<path d="M60.4417 11.585H86.7411V259.875H60.4417V11.585Z" fill="#93C140"/>
<path d="M130.652 213.045H156.951V259.875H130.652V213.045Z" fill="#93C140"/>
<path d="M200.862 234.647H227.161V259.875H200.862V234.647Z" fill="#93C140"/>
<path d="M271.072 113.225H297.371V259.875H271.072V113.225Z" fill="#93C140"/>
<path d="M341.282 125.601H367.581V259.875H341.282V125.601Z" fill="#93C140"/>
<path d="M411.492 181.251H437.791V259.875H411.492V181.251Z" fill="#93C140"/>
<path d="M481.702 203.217H508.001V259.875H481.702V203.217Z" fill="#93C140"/>
<path d="M90.0285 59.213H116.328V259.875H90.0285V59.213Z" fill="#138D45"/>
<path d="M160.238 68.285H186.538V259.875H160.238V68.285Z" fill="#138D45"/>
<path d="M230.448 142.919H256.748V259.875H230.448V142.919Z" fill="#138D45"/>
<path d="M300.659 12.943H326.958V259.875H300.659V12.943Z" fill="#138D45"/>
<path d="M370.869 57.575H397.168V259.875H370.869V57.575Z" fill="#138D45"/>
<path d="M441.079 121.905H467.378V259.875H441.079V121.905Z" fill="#138D45"/>
<path d="M511.289 126.483H537.588V259.875H511.289V126.483Z" fill="#138D45"/>
</svg>
