<svg width="1956" height="1790" viewBox="0 0 1956 1790" fill="none" xmlns="http://www.w3.org/2000/svg">
<g clip-path="url(#clip0_360_19394)">
<path d="M604.912 1716.72C623.427 1736.21 642.961 1754.7 663.432 1772.12H1545.99C1643.31 1679.6 1735.43 1546.8 1816.15 1363.24C1816.15 1363.24 1959.11 1001.28 1925.83 684C1892.55 366.72 1684.15 116 1388.95 62.5999C1093.75 9.19994 831.352 302.04 501.872 403.56C172.392 505.08 -68.9277 777.16 17.7924 1142.12C104.512 1507.08 346.672 1444.28 604.912 1716.72Z" fill="#064E3B"/>
<path d="M1435.99 569.92C1448.83 575.52 1480.23 574.8 1480.23 574.8C1480.23 574.8 1473.47 554.24 1472.91 553C1465.99 538.6 1444.23 514.8 1426.47 517C1423.54 517.482 1420.75 518.575 1418.27 520.208C1415.79 521.841 1413.68 523.978 1412.08 526.479C1410.48 528.98 1409.43 531.79 1408.98 534.726C1408.54 537.662 1408.72 540.658 1409.51 543.52C1412.43 556 1425.03 565.12 1435.99 569.92Z" fill="#94A3B8"/>
<path d="M1753.59 576.8C1753.83 577 1759.27 555.96 1759.47 554.6C1761.67 538.6 1756.63 506.88 1740.51 499.12C1737.8 497.901 1734.87 497.267 1731.89 497.259C1728.92 497.251 1725.98 497.869 1723.27 499.073C1720.55 500.277 1718.12 502.039 1716.12 504.246C1714.13 506.452 1712.63 509.053 1711.71 511.88C1707.39 523.88 1712.87 538.28 1719.35 548.32C1727.07 560.08 1753.55 576.8 1753.59 576.8Z" fill="#94A3B8"/>
<path d="M1847.31 463.04C1829.51 461.12 1808.39 485.48 1801.87 500.08C1801.31 501.36 1794.79 522.08 1795.11 522.08H1795.51C1792.15 526.08 1788.59 530.08 1784.75 534.64C1777.83 543.16 1770.03 552.88 1762.27 564.04C1753.78 575.958 1745.99 588.366 1738.95 601.2C1730.96 615.534 1724.27 630.554 1718.95 646.08C1718.93 646.266 1718.93 646.454 1718.95 646.64C1718.95 641.4 1718.95 626.64 1718.67 625.6C1716.59 609.6 1703.31 580.36 1685.71 577.12C1682.77 576.655 1679.76 576.817 1676.88 577.598C1674.01 578.378 1671.33 579.758 1669.03 581.647C1666.72 583.536 1664.84 585.891 1663.51 588.558C1662.18 591.225 1661.43 594.142 1661.31 597.12C1660.27 609.72 1669.31 622.32 1678.31 630.28C1688.35 639.24 1716.19 647.92 1718.31 648.6C1713.32 664.523 1709.37 680.758 1706.51 697.2C1704.83 706.76 1703.39 716.44 1702.11 726.2C1702.11 721.68 1702.11 717.6 1701.87 717.04C1699.79 701.04 1686.51 671.8 1668.95 668.56C1666.01 668.095 1663 668.258 1660.12 669.038C1657.24 669.818 1654.56 671.197 1652.25 673.085C1649.94 674.974 1648.06 677.328 1646.73 679.995C1645.39 682.662 1644.64 685.581 1644.51 688.56C1643.47 701.16 1652.51 713.76 1661.51 721.72C1670.51 729.68 1694.15 737.72 1700.43 739.64L1698.99 750.88C1696.87 768.8 1694.79 786.88 1692.23 804.28C1691.35 810.44 1690.23 816.48 1689.15 822.52C1689.15 818.52 1689.15 815.12 1688.91 814.52C1686.87 798.52 1673.59 769.28 1655.99 766.04C1653.05 765.575 1650.04 765.737 1647.16 766.518C1644.29 767.298 1641.61 768.678 1639.31 770.567C1637 772.456 1635.12 774.811 1633.79 777.478C1632.46 780.145 1631.71 783.063 1631.59 786.04C1630.55 798.6 1639.59 811.2 1648.59 819.16C1657.59 827.12 1678.91 834.32 1686.35 836.72C1685.03 842.88 1683.75 849.08 1682.35 855C1681.23 859 1680.39 863 1679.03 867C1677.67 871 1676.47 875 1675.23 878.76C1672.55 886.16 1669.83 893.8 1666.99 900.92C1665.11 905.92 1663.19 910.6 1661.27 915.36C1662.23 909.24 1663.87 897.2 1663.91 896.16C1663.72 882.101 1659.92 868.328 1652.87 856.16C1652.92 854.595 1652.82 853.028 1652.59 851.48C1652.22 848.531 1651.24 845.693 1649.7 843.151C1648.16 840.608 1646.1 838.419 1643.66 836.724C1641.22 835.03 1638.45 833.869 1635.53 833.317C1632.61 832.765 1629.6 832.834 1626.71 833.52C1609.43 838.12 1598.43 868.48 1597.63 884.44C1597.63 885.36 1598.19 895.64 1598.71 902.12C1597.83 898.36 1597.03 894.68 1596.07 890.84C1594.27 883.2 1592.07 875.6 1590.07 867.44L1586.51 855.44C1585.39 851.44 1583.71 847.44 1582.31 843.44C1578.91 834.12 1574.99 824.8 1570.83 815.44C1577.51 813.84 1601.19 807.8 1610.83 800.48C1620.47 793.16 1630.31 781.36 1630.23 768.72C1630.31 765.75 1629.77 762.797 1628.64 760.052C1627.5 757.306 1625.8 754.83 1623.65 752.785C1621.49 750.74 1618.93 749.172 1616.13 748.182C1613.33 747.192 1610.35 746.803 1607.39 747.04C1589.59 748.96 1574.15 777.32 1570.91 792.96C1570.91 793.92 1569.67 805.4 1569.23 811.72C1566.67 806.16 1564.15 800.6 1561.23 795.04C1553.23 779.04 1544.71 763.04 1536.27 747.04C1533.67 742.16 1531.15 737.28 1528.59 732.36C1530.99 731.84 1559.31 725.28 1569.95 717.08C1579.39 709.84 1589.43 697.96 1589.35 685.32C1589.43 682.35 1588.89 679.397 1587.76 676.652C1586.62 673.906 1584.92 671.43 1582.77 669.385C1580.61 667.34 1578.05 665.772 1575.25 664.782C1572.45 663.792 1569.47 663.403 1566.51 663.64C1548.71 665.56 1533.27 693.92 1530.03 709.56C1529.79 710.72 1528.31 727.28 1528.15 731.48C1522.55 720.72 1517.07 709.92 1512.15 699.04C1505.36 684.409 1499.54 669.35 1494.71 653.96C1495.83 653.68 1525.39 646.96 1536.31 638.6C1545.75 631.36 1555.79 619.48 1555.71 606.84C1555.8 603.867 1555.25 600.91 1554.11 598.161C1552.98 595.413 1551.27 592.935 1549.11 590.889C1546.96 588.844 1544.39 587.276 1541.58 586.289C1538.78 585.302 1535.8 584.917 1532.83 585.16C1515.07 587.08 1499.63 615.44 1496.39 631.08C1496.19 632.08 1495.03 644.68 1494.63 650.68H1493.63C1489.17 635.065 1486.12 619.081 1484.51 602.92C1483.51 594.04 1483.07 585.48 1482.79 577.16C1488.43 576.48 1514.15 573.16 1524.79 566.6C1535.43 560.04 1546.31 549.72 1547.59 537.16C1547.99 534.219 1547.77 531.226 1546.94 528.377C1546.1 525.528 1544.68 522.886 1542.76 520.622C1540.84 518.359 1538.47 516.525 1535.79 515.239C1533.12 513.954 1530.2 513.245 1527.23 513.16C1509.35 513.16 1490.91 539.6 1485.99 554.8C1485.71 555.64 1483.91 564.32 1482.71 570.8C1482.71 567.04 1482.51 563.16 1482.51 559.56C1482.51 546.04 1483.39 533.64 1484.27 522.68C1484.79 516.44 1485.39 510.68 1486.03 505.56C1491.19 502 1511.87 487.4 1518.23 476.96C1524.59 466.52 1529.55 452.08 1524.91 440.32C1523.92 437.518 1522.34 434.957 1520.29 432.804C1518.24 430.651 1515.76 428.953 1513.01 427.821C1510.26 426.689 1507.3 426.149 1504.33 426.235C1501.35 426.321 1498.43 427.031 1495.75 428.32C1479.75 436.32 1475.75 468.32 1478.31 484.32C1478.55 485.68 1484.55 506.56 1484.83 506.4L1485.11 506.16C1484.43 511.24 1483.75 516.64 1483.11 522.56C1482.03 533.52 1480.87 545.92 1480.55 559.52C1480.07 574.195 1480.43 588.886 1481.63 603.52C1482.84 619.861 1485.51 636.06 1489.63 651.92C1489.63 651.92 1489.63 652.28 1489.63 652.48C1486.83 648.04 1478.55 635.96 1477.63 635.08C1467.19 623.08 1439.91 605.8 1423.43 612.8C1420.73 614.034 1418.31 615.824 1416.34 618.054C1414.38 620.283 1412.9 622.903 1412.02 625.741C1411.13 628.579 1410.85 631.572 1411.2 634.525C1411.54 637.478 1412.51 640.325 1414.03 642.88C1420.11 653.96 1434.71 659.4 1446.51 661.16C1459.83 663.08 1487.83 654.96 1490.07 654.28C1494.67 670.326 1500.35 686.042 1507.07 701.32C1511.07 710.24 1515.07 719.12 1519.35 727.96C1516.79 724.2 1514.47 720.88 1514.11 720.44C1503.67 708.44 1476.35 691.16 1459.91 698.16C1457.21 699.394 1454.79 701.184 1452.82 703.414C1450.86 705.643 1449.38 708.263 1448.5 711.101C1447.61 713.939 1447.33 716.932 1447.68 719.885C1448.02 722.838 1448.99 725.685 1450.51 728.24C1456.59 739.32 1471.15 744.8 1482.95 746.52C1494.75 748.24 1518.95 741.8 1525.31 740C1526.99 743.4 1528.63 746.76 1530.31 750.12C1538.31 766.12 1546.59 782.4 1554.31 798.4C1556.95 804.04 1559.35 809.72 1561.79 815.36C1559.51 812.04 1557.55 809.24 1557.23 808.88C1546.79 796.88 1519.47 779.6 1503.03 786.6C1500.33 787.829 1497.91 789.615 1495.95 791.842C1493.98 794.068 1492.5 796.684 1491.62 799.519C1490.73 802.354 1490.45 805.344 1490.8 808.294C1491.15 811.244 1492.11 814.088 1493.63 816.64C1499.71 827.72 1514.27 833.2 1526.07 834.92C1537.87 836.64 1559.75 830.92 1567.31 828.72C1569.59 834.6 1571.95 840.48 1573.91 846.24C1575.19 850.24 1576.67 854 1577.71 858.04C1578.75 862.08 1579.91 866.04 1581.03 870.04C1582.87 877.68 1584.79 885.56 1586.39 893.04C1587.55 898.28 1588.55 903.24 1589.59 908.28C1586.99 902.6 1581.59 891.64 1581.19 890.8C1572.67 877.28 1548.31 856.12 1530.95 860.56C1528.1 861.37 1525.44 862.773 1523.16 864.679C1520.89 866.584 1519.04 868.948 1517.73 871.616C1516.43 874.285 1515.71 877.198 1515.61 880.166C1515.51 883.134 1516.03 886.089 1517.15 888.84C1521.47 900.84 1535.03 908.32 1546.43 911.84C1559.03 915.84 1586.83 912.16 1590.43 911.84C1592.07 920.16 1593.63 928.28 1594.95 935.84C1597.27 948.88 1598.95 960.88 1600.63 971.56H1612.19C1610.35 960.36 1608.19 947.56 1605.39 933.88C1603.71 925.44 1601.79 916.48 1599.71 907.24C1608.07 903.874 1616.23 900.041 1624.15 895.76C1633.31 905.68 1656.79 917.28 1659.83 918.76C1656.63 926.76 1653.43 934.2 1650.31 941.32C1645.51 952.36 1640.91 962.48 1636.63 971.56H1648.99C1652.55 963.56 1656.27 954.84 1660.07 945.44C1663.35 937.44 1666.71 928.92 1670.07 920.08C1673.43 920.8 1700.95 926.4 1713.79 923.48C1725.43 920.84 1739.51 914.28 1744.71 902.76C1746.03 900.098 1746.78 897.188 1746.9 894.218C1747.02 891.249 1746.51 888.288 1745.41 885.528C1744.31 882.768 1742.64 880.272 1740.5 878.203C1738.37 876.134 1735.82 874.538 1733.03 873.52C1716.07 867.8 1690.19 887.08 1680.71 899.92C1680.15 900.68 1674.99 909.6 1671.83 915.28C1673.19 911.64 1674.55 908.16 1675.83 904.4C1678.55 897.04 1681.03 889.6 1683.83 881.6C1684.99 877.6 1686.19 873.6 1687.35 869.6C1688.51 865.6 1689.47 861.36 1690.55 857.2C1692.87 847.52 1694.55 837.6 1696.39 827.56C1702.83 829.92 1725.91 837.96 1737.87 837.12C1749.83 836.28 1764.71 831.88 1771.59 821.12C1773.3 818.686 1774.48 815.918 1775.05 812.997C1775.62 810.076 1775.57 807.068 1774.9 804.168C1774.23 801.269 1772.95 798.545 1771.15 796.172C1769.36 793.799 1767.08 791.833 1764.47 790.4C1748.47 782.4 1720.07 797.32 1708.75 808.6C1708.07 809.32 1700.75 818.32 1696.99 823.32C1697.91 817.28 1698.91 811.32 1699.67 805.12C1701.87 787.36 1703.67 769.36 1705.31 751.4C1705.83 745.88 1706.43 740.4 1706.99 734.92C1709.31 735.76 1736.51 745.92 1749.91 744.96C1761.91 744.12 1776.75 739.76 1783.63 728.96C1785.34 726.529 1786.52 723.764 1787.09 720.846C1787.66 717.928 1787.61 714.923 1786.94 712.027C1786.26 709.131 1784.99 706.409 1783.19 704.04C1781.4 701.672 1779.12 699.708 1776.51 698.28C1760.51 690.08 1732.11 705.2 1720.79 716.48C1719.95 717.32 1709.59 730.28 1707.11 733.72C1708.39 721.72 1709.75 709.72 1711.63 697.72C1714.03 681.767 1717.47 665.987 1721.91 650.48C1722.99 650.88 1751.35 661.6 1765.07 660.6C1777.07 659.8 1791.91 655.4 1798.79 644.84C1800.5 642.406 1801.68 639.638 1802.25 636.717C1802.82 633.796 1802.77 630.788 1802.1 627.888C1801.43 624.989 1800.15 622.264 1798.35 619.892C1796.56 617.519 1794.28 615.553 1791.67 614.12C1775.67 606.12 1747.27 621.04 1735.95 632.32C1735.23 633.04 1727.31 642.92 1723.67 647.72L1722.75 647.24C1727.67 631.756 1733.95 616.738 1741.51 602.36C1745.51 594.36 1749.91 587.04 1754.31 579.96C1759.39 582.48 1782.71 593.8 1795.15 594.32C1807.59 594.84 1822.39 592.08 1830.39 582.32C1832.36 580.091 1833.83 577.473 1834.71 574.637C1835.6 571.8 1835.88 568.81 1835.53 565.859C1835.18 562.908 1834.22 560.063 1832.7 557.51C1831.18 554.957 1829.14 552.752 1826.71 551.04C1811.79 541.16 1781.83 553.04 1769.31 563.04C1768.63 563.56 1762.35 569.84 1757.83 574.48C1759.87 571.32 1761.83 568 1763.87 565C1771.35 553.72 1778.91 543.88 1785.67 535.2C1789.67 530.28 1793.15 525.92 1796.59 521.88C1802.87 521.88 1828.15 521 1839.23 515.84C1850.31 510.68 1862.39 501.28 1864.99 488.92C1865.68 486.049 1865.76 483.066 1865.22 480.163C1864.69 477.26 1863.55 474.501 1861.88 472.064C1860.22 469.627 1858.06 467.565 1855.55 466.01C1853.04 464.456 1850.24 463.444 1847.31 463.04Z" fill="#94A3B8"/>
<path d="M60.1123 860.08C72.9523 865.68 104.352 864.96 104.352 864.96C104.352 864.96 97.5924 844.44 97.0324 843.16C90.1124 828.76 68.3523 804.96 50.5923 807.36C47.6627 807.842 44.8672 808.935 42.3876 810.568C39.9081 812.201 37.8 814.338 36.2003 816.839C34.6007 819.34 33.5454 822.15 33.1029 825.086C32.6605 828.022 32.8409 831.018 33.6323 833.88C36.5523 846.16 49.1523 855.28 60.1123 860.08Z" fill="#94A3B8"/>
<path d="M377.713 867C377.953 867 383.393 846.12 383.593 844.76C385.793 828.76 380.753 797.08 364.633 789.28C361.922 788.061 358.986 787.428 356.014 787.42C353.042 787.411 350.102 788.029 347.385 789.233C344.668 790.437 342.235 792.2 340.245 794.406C338.254 796.613 336.751 799.214 335.833 802.04C331.513 814.04 336.993 828.48 343.473 838.48C351.073 850.24 377.673 866.96 377.713 867Z" fill="#94A3B8"/>
<path d="M471.432 753.2C453.632 751.28 432.512 775.64 425.992 790.24C425.432 791.52 418.912 812.24 419.232 812.24H419.632C416.272 816.04 412.712 820.24 408.872 824.8C401.952 833.36 394.152 843.08 386.392 854.2C377.91 866.127 370.124 878.534 363.072 891.36C355.081 905.694 348.388 920.714 343.072 936.24C343.049 936.426 343.049 936.614 343.072 936.8C343.072 931.56 343.072 916.8 342.792 915.76C340.712 899.76 327.432 870.52 309.832 867.28C306.89 866.821 303.884 866.988 301.011 867.771C298.138 868.554 295.462 869.934 293.159 871.822C290.856 873.71 288.977 876.063 287.646 878.726C286.314 881.39 285.56 884.305 285.432 887.28C284.392 899.84 293.432 912.44 302.432 920.4C312.472 929.36 340.312 938.04 342.432 938.72C337.44 954.644 333.498 970.879 330.632 987.32C328.952 996.88 327.512 1006.6 326.232 1016.32C326.232 1011.8 326.232 1007.72 325.992 1007.16C323.912 991.16 310.632 961.92 293.072 958.68C290.128 958.221 287.12 958.389 284.245 959.171C281.369 959.954 278.691 961.333 276.385 963.221C274.079 965.108 272.197 967.46 270.861 970.124C269.525 972.787 268.766 975.703 268.632 978.68C267.592 991.24 276.632 1003.84 285.632 1011.8C294.632 1019.76 318.272 1027.8 324.552 1029.76L323.112 1040.96C320.992 1058.92 319.112 1076.96 316.352 1094.36C315.472 1100.52 314.352 1106.56 313.272 1112.64C313.272 1108.64 313.272 1105.2 313.032 1104.64C310.992 1088.64 297.712 1059.4 280.112 1056.16C277.17 1055.7 274.164 1055.87 271.291 1056.65C268.418 1057.43 265.742 1058.81 263.439 1060.7C261.136 1062.59 259.257 1064.94 257.926 1067.61C256.594 1070.27 255.84 1073.18 255.712 1076.16C254.672 1088.72 263.712 1101.32 272.712 1109.28C281.712 1117.24 303.032 1124.44 310.472 1126.84C309.152 1133.04 307.872 1139.2 306.472 1145.12C305.352 1149.12 304.512 1153.12 303.152 1157.12C301.792 1161.12 300.592 1165.12 299.352 1168.88C296.672 1176.28 293.952 1183.92 291.112 1191.04C289.232 1196.04 287.112 1200.76 285.392 1205.48C286.352 1199.36 287.992 1187.32 288.032 1186.28C287.843 1172.22 284.041 1158.45 276.992 1146.28C277.04 1144.7 276.946 1143.12 276.712 1141.56C276.337 1138.61 275.347 1135.78 273.807 1133.24C272.266 1130.7 270.209 1128.51 267.769 1126.82C265.329 1125.13 262.561 1123.97 259.643 1123.41C256.725 1122.86 253.724 1122.92 250.832 1123.6C233.552 1128.24 222.552 1158.56 221.752 1174.52C221.752 1175.44 222.312 1185.72 222.832 1192.2C221.952 1188.44 221.152 1184.76 220.192 1180.92C218.392 1173.28 216.192 1165.68 214.192 1157.52L210.632 1145.72C209.512 1141.72 207.832 1137.72 206.632 1133.72C203.232 1124.4 199.312 1115.08 195.152 1105.72C201.832 1104.12 225.512 1098.08 235.152 1090.76C244.792 1083.44 254.632 1071.64 254.552 1059C254.635 1056.03 254.091 1053.08 252.957 1050.33C251.822 1047.59 250.123 1045.11 247.968 1043.07C245.814 1041.02 243.253 1039.45 240.452 1038.46C237.651 1037.47 234.673 1037.08 231.712 1037.32C213.912 1039.28 198.472 1067.6 195.232 1083.24C195.232 1084.2 193.992 1095.68 193.552 1102.04C190.992 1096.44 188.472 1090.88 185.752 1085.36C177.752 1069.36 169.232 1053.36 160.792 1037.36C158.192 1032.44 155.672 1027.56 153.112 1022.68C155.512 1022.12 183.832 1015.56 194.472 1007.4C203.912 1000.12 213.952 988.24 213.872 975.6C213.955 972.63 213.411 969.677 212.277 966.931C211.142 964.186 209.443 961.71 207.288 959.665C205.134 957.62 202.573 956.052 199.772 955.062C196.971 954.072 193.993 953.683 191.032 953.92C173.232 955.88 157.792 984.2 154.552 999.84C154.312 1001.04 152.832 1017.56 152.672 1021.76C147.072 1011 141.592 1000.2 136.672 989.32C129.877 974.692 124.051 959.632 119.232 944.24C120.352 944 149.912 937.28 160.832 928.88C170.272 921.64 180.312 909.76 180.232 897.12C180.315 894.147 179.771 891.19 178.634 888.441C177.497 885.693 175.794 883.215 173.635 881.169C171.476 879.124 168.91 877.556 166.104 876.569C163.299 875.581 160.317 875.197 157.352 875.44C139.592 877.36 124.152 905.72 120.912 921.36C120.912 922.4 119.552 935 119.152 941H118.152C113.686 925.385 110.634 909.401 109.032 893.24C108.032 884.36 107.592 875.8 107.312 867.48C112.952 866.8 138.672 863.48 149.312 856.92C159.952 850.36 170.832 840.04 172.112 827.48C172.512 824.539 172.288 821.546 171.456 818.697C170.624 815.848 169.201 813.206 167.281 810.942C165.361 808.679 162.986 806.845 160.31 805.559C157.635 804.273 154.719 803.565 151.752 803.48C133.872 803.48 115.432 829.92 110.512 845.12C110.232 845.96 108.432 854.64 107.232 861.12C107.232 857.36 107.232 853.48 107.232 849.88C107.232 836.36 108.112 823.96 108.992 813C109.512 806.76 110.112 801 110.752 795.92C115.912 792.36 136.592 777.72 142.752 767.28C148.912 756.84 154.072 742.4 149.432 730.68C148.435 727.878 146.86 725.317 144.809 723.164C142.758 721.011 140.277 719.313 137.527 718.181C134.777 717.049 131.819 716.509 128.846 716.595C125.874 716.681 122.952 717.391 120.272 718.68C104.272 726.92 100.272 758.68 102.832 774.68C103.072 776.04 109.072 796.96 109.352 796.76L109.632 796.56C108.952 801.6 108.272 807 107.632 812.92C106.552 823.92 105.392 836.32 105.072 849.88C104.591 864.555 104.952 879.246 106.152 893.88C107.356 910.221 110.033 926.42 114.152 942.28C114.152 942.48 114.152 942.64 114.152 942.84C111.352 938.4 103.072 926.32 102.152 925.44C91.7123 913.44 64.4323 896.2 47.9523 903.16C45.2469 904.394 42.8319 906.184 40.8647 908.413C38.8975 910.643 37.4224 913.263 36.5355 916.101C35.6486 918.939 35.3698 921.932 35.7173 924.885C36.0648 927.838 37.0308 930.685 38.5523 933.24C44.6323 944.32 59.2323 949.8 71.0323 951.52C84.3523 953.44 112.352 945.32 114.592 944.68C119.196 960.711 124.876 976.413 131.592 991.68C135.592 1000.6 139.592 1009.48 143.872 1018.32C141.312 1014.6 138.992 1011.24 138.632 1010.84C128.192 998.84 100.872 981.56 84.4323 988.52C81.7964 989.764 79.446 991.539 77.5283 993.734C75.6107 995.929 74.1672 998.497 73.2884 1001.28C72.4097 1004.05 72.1145 1006.99 72.4215 1009.88C72.7284 1012.78 73.6309 1015.59 75.0723 1018.12C81.1523 1029.2 95.7123 1034.68 107.512 1036.4C119.312 1038.12 143.512 1031.68 149.872 1029.88L154.872 1040.04C162.872 1056.04 171.152 1072.28 178.872 1088.28C181.512 1093.96 183.912 1099.6 186.352 1105.24C184.072 1101.92 182.112 1099.16 181.792 1098.76C171.352 1086.76 144.032 1069.48 127.592 1076.48C124.887 1077.71 122.472 1079.5 120.505 1081.73C118.538 1083.96 117.062 1086.58 116.175 1089.42C115.289 1092.26 115.01 1095.25 115.357 1098.21C115.705 1101.16 116.671 1104.01 118.192 1106.56C124.272 1117.6 138.832 1123.08 150.632 1124.8C162.432 1126.52 184.312 1120.8 191.872 1118.64C194.152 1124.48 196.512 1130.36 198.472 1136.16C199.752 1140.16 201.232 1143.88 202.272 1147.92C203.312 1151.96 204.472 1155.92 205.592 1159.92C207.432 1167.56 209.352 1175.44 210.952 1182.96C212.112 1188.16 213.112 1193.12 214.152 1198.16C211.552 1192.52 206.152 1181.56 205.752 1180.68C197.232 1167.16 172.872 1146.04 155.512 1150.44C152.654 1151.25 150 1152.66 147.722 1154.57C145.444 1156.48 143.594 1158.85 142.292 1161.52C140.99 1164.19 140.265 1167.11 140.166 1170.08C140.066 1173.05 140.593 1176.01 141.712 1178.76C146.032 1190.76 159.592 1198.24 170.992 1201.72C183.592 1205.72 211.392 1202.04 214.992 1201.72C216.632 1210.04 218.192 1218.16 219.512 1225.72C221.832 1238.76 223.512 1250.76 225.192 1261.44H236.752C234.912 1250.24 232.752 1237.44 229.952 1223.8C228.272 1215.36 226.352 1206.36 224.272 1197.12C232.643 1193.79 240.805 1189.96 248.712 1185.64C257.872 1195.56 281.352 1207.16 284.392 1208.64C281.192 1216.64 277.992 1224.08 274.872 1231.2C270.072 1242.28 265.472 1252.36 261.192 1261.44H273.552C277.112 1253.44 280.832 1244.72 284.632 1235.32C287.912 1227.32 291.272 1218.8 294.632 1209.96C297.992 1210.68 325.512 1216.28 338.352 1213.36C349.992 1210.76 364.072 1204.16 369.272 1192.64C370.595 1189.98 371.34 1187.07 371.461 1184.1C371.581 1181.13 371.074 1178.17 369.971 1175.41C368.869 1172.65 367.197 1170.15 365.063 1168.08C362.93 1166.01 360.384 1164.42 357.592 1163.4C340.632 1157.72 314.752 1176.96 305.272 1189.8C304.712 1190.56 299.552 1199.48 296.392 1205.16C297.752 1201.52 299.112 1198.04 300.392 1194.28C303.112 1186.92 305.592 1179.48 308.392 1171.48C309.552 1167.48 310.752 1163.48 311.912 1159.48C313.072 1155.48 314.032 1151.24 315.112 1147.08C317.432 1137.4 319.112 1127.48 320.952 1117.44C327.392 1119.8 350.472 1127.84 362.432 1127C374.392 1126.16 389.272 1121.8 396.152 1111.2C397.864 1108.77 399.043 1106 399.612 1103.09C400.182 1100.17 400.128 1097.16 399.456 1094.27C398.784 1091.37 397.508 1088.65 395.712 1086.28C393.916 1083.91 391.64 1081.95 389.032 1080.52C373.032 1072.32 344.632 1087.44 333.312 1098.68C332.632 1099.4 325.312 1108.4 321.552 1113.4C322.472 1107.36 323.472 1101.4 324.232 1095.2C326.432 1077.48 328.232 1059.44 329.872 1041.48C330.392 1035.96 330.992 1030.48 331.552 1025C333.872 1025.88 361.072 1036 374.472 1035.04C386.472 1034.24 401.312 1029.84 408.192 1019.28C409.904 1016.85 411.084 1014.08 411.654 1011.16C412.223 1008.24 412.17 1005.23 411.499 1002.33C410.827 999.429 409.551 996.704 407.754 994.332C405.958 991.959 403.681 989.993 401.072 988.56C385.072 980.36 356.672 995.48 345.352 1006.76C344.512 1007.6 334.152 1020.56 331.672 1024C332.952 1012 334.312 1000 336.192 988C338.597 972.048 342.031 956.268 346.472 940.76C347.552 941.16 375.912 951.88 389.632 950.92C401.632 950.08 416.472 945.68 423.352 934.92C425.064 932.489 426.243 929.724 426.812 926.806C427.382 923.888 427.328 920.883 426.656 917.987C425.984 915.091 424.708 912.369 422.912 910C421.116 907.631 418.84 905.668 416.232 904.24C400.232 896.04 371.832 911.12 360.512 922.4C359.792 923.16 351.872 933 348.232 937.8L347.312 937.32C352.223 921.846 358.501 906.84 366.072 892.48C370.072 884.48 374.472 877.12 378.872 870.04C383.952 872.56 407.272 883.92 419.712 884.4C432.152 884.88 446.952 882.16 454.952 872.4C456.917 870.17 458.389 867.553 459.275 864.716C460.16 861.88 460.438 858.889 460.091 855.939C459.744 852.988 458.779 850.143 457.26 847.59C455.74 845.037 453.7 842.832 451.272 841.12C436.352 831.24 406.392 843.12 393.872 853.12C393.192 853.68 386.912 859.92 382.392 864.56C384.432 861.4 386.392 858.08 388.432 855.08C395.912 843.8 403.472 833.96 410.232 825.28C414.232 820.4 417.712 816.04 421.152 812C427.432 812 452.712 811.12 463.792 805.92C474.872 800.72 486.952 791.36 489.552 779.04C490.232 776.139 490.291 773.127 489.726 770.202C489.162 767.277 487.985 764.504 486.275 762.065C484.564 759.625 482.358 757.575 479.8 756.047C477.243 754.52 474.391 753.549 471.432 753.2Z" fill="#94A3B8"/>
<path d="M232.113 686.4H1732.11C1743.21 686.4 1753.85 690.808 1761.7 698.655C1769.54 706.501 1773.95 717.143 1773.95 728.24V1714.24H190.312V728.2C190.323 717.117 194.73 706.491 202.567 698.655C210.404 690.818 221.03 686.411 232.113 686.4Z" fill="#F5FFFE" stroke="#064E3B" stroke-linecap="round" stroke-linejoin="round"/>
<path d="M1709.59 766.68H254.552V1588.96H1709.59V766.68Z" stroke="#064E3B" stroke-linecap="round" stroke-linejoin="round"/>
<path d="M1529.83 1664.76H441.552V1718.36H1529.83V1664.76Z" fill="#064E3B" stroke="#064E3B" stroke-linecap="round" stroke-linejoin="round"/>
<path d="M1529.83 1690.56H441.552V1718.36H1529.83V1690.56Z" fill="#F5FFFE" stroke="#064E3B" stroke-linecap="round" stroke-linejoin="round"/>
<path d="M62.2324 1750.12C62.2324 1750.12 80.1124 1772 133.752 1789.84H1837.75C1837.75 1789.84 1877.47 1779.92 1895.35 1752.12L62.2324 1750.12Z" fill="#064E3B" stroke="#064E3B" stroke-linecap="round" stroke-linejoin="round"/>
<path d="M1891.51 1711H66.1923C62.0171 1711 58.6323 1714.38 58.6323 1718.56V1745.2C58.6323 1749.38 62.0171 1752.76 66.1923 1752.76H1891.51C1895.69 1752.76 1899.07 1749.38 1899.07 1745.2V1718.56C1899.07 1714.38 1895.69 1711 1891.51 1711Z" fill="#F5FFFE" stroke="#064E3B" stroke-linecap="round" stroke-linejoin="round"/>
<path d="M995.632 717.48C995.64 714.725 994.831 712.03 993.306 709.736C991.781 707.441 989.61 705.651 987.067 704.591C984.524 703.532 981.724 703.25 979.021 703.783C976.319 704.315 973.834 705.638 971.884 707.583C969.933 709.528 968.603 712.008 968.063 714.71C967.523 717.411 967.796 720.212 968.848 722.758C969.901 725.304 971.685 727.48 973.975 729.011C976.265 730.543 978.958 731.36 981.712 731.36C985.397 731.36 988.932 729.899 991.541 727.297C994.151 724.695 995.622 721.165 995.632 717.48Z" fill="#F5FFFE" stroke="#064E3B" stroke-linecap="round" stroke-linejoin="round"/>
<path d="M7.07227 1789.84H1955.07" stroke="#064E3B" stroke-linecap="round" stroke-linejoin="round"/>
<path d="M1107.95 921C1112.8 916.167 1116.38 910.217 1118.38 903.674C1120.38 897.131 1120.74 890.196 1119.43 883.48L1093.23 909.64C1091.74 911.106 1089.73 911.927 1087.63 911.927C1085.54 911.927 1083.53 911.106 1082.03 909.64L1060.27 887.88C1058.81 886.384 1057.99 884.374 1057.99 882.28C1057.99 880.186 1058.81 878.175 1060.27 876.68L1086.43 850.48C1079.12 849.074 1071.56 849.65 1064.54 852.148C1057.52 854.645 1051.29 858.973 1046.51 864.684C1041.72 870.395 1038.55 877.282 1037.32 884.63C1036.09 891.979 1036.85 899.522 1039.51 906.48L971.912 972.52L965.392 966L976.032 955.36C976.533 954.814 976.81 954.1 976.81 953.36C976.81 952.619 976.533 951.906 976.032 951.36L967.792 943.16C967.255 942.642 966.538 942.352 965.792 942.352C965.046 942.352 964.329 942.642 963.792 943.16L959.792 947.16L950.872 938.28L954.312 934.84C955.01 934.098 955.398 933.118 955.398 932.1C955.398 931.082 955.01 930.102 954.312 929.36L880.552 855.6C878.795 853.843 876.709 852.449 874.414 851.497C872.118 850.546 869.657 850.057 867.172 850.057C864.687 850.057 862.227 850.546 859.931 851.497C857.635 852.449 855.549 853.843 853.792 855.6L846.272 863.12C844.515 864.877 843.121 866.963 842.17 869.259C841.219 871.554 840.729 874.015 840.729 876.5C840.729 878.985 841.219 881.446 842.17 883.741C843.121 886.037 844.515 888.123 846.272 889.88L920.032 963.64C920.774 964.337 921.754 964.726 922.772 964.726C923.791 964.726 924.77 964.337 925.512 963.64L928.912 960.2L937.832 969.12L933.832 973.12C933.314 973.657 933.025 974.374 933.025 975.12C933.025 975.866 933.314 976.583 933.832 977.12L941.832 985.36C942.378 985.86 943.092 986.138 943.832 986.138C944.573 986.138 945.286 985.86 945.832 985.36L956.472 974.72L962.872 981.12L906.872 1035.8C899.914 1033.12 892.366 1032.35 885.012 1033.58C877.657 1034.8 870.764 1037.97 865.049 1042.76C859.335 1047.55 855.006 1053.78 852.513 1060.81C850.02 1067.83 849.453 1075.4 850.872 1082.72L877.072 1056.56C878.568 1055.09 880.578 1054.27 882.672 1054.27C884.766 1054.27 886.777 1055.09 888.272 1056.56L910.032 1078.32C911.498 1079.82 912.319 1081.83 912.319 1083.92C912.319 1086.01 911.498 1088.02 910.032 1089.52L883.872 1115.72C891.189 1117.13 898.749 1116.55 905.768 1114.05C912.788 1111.55 919.013 1107.23 923.798 1101.52C928.583 1095.8 931.754 1088.92 932.984 1081.57C934.214 1074.22 933.457 1066.68 930.792 1059.72L986.792 1005.08L1063.19 1081.48C1062.1 1084.31 1061.85 1087.39 1062.47 1090.36C1063.1 1093.33 1064.57 1096.05 1066.71 1098.2L1085.15 1116.64L1107.27 1094.52L1088.83 1076.08C1086.68 1073.94 1083.96 1072.47 1080.99 1071.84C1078.03 1071.22 1074.94 1071.47 1072.11 1072.56L995.712 996.52L1063.27 930.56C1070.84 933.475 1079.1 934.123 1087.03 932.425C1094.97 930.727 1102.24 926.758 1107.95 921Z" fill="#064E3B" stroke="#064E3B" stroke-linecap="round" stroke-linejoin="round"/>
<path d="M1292.03 1267H653.952V1305.04H1292.03V1267Z" fill="#047857"/>
<path d="M903.512 1267H861.032L839.232 1305H881.712L903.512 1267Z" fill="#064E3B"/>
<path d="M1292.03 1305V1270.68L1272.35 1305H1292.03Z" fill="#064E3B"/>
<path d="M990.112 1267H947.632L925.872 1305H968.352L990.112 1267Z" fill="#064E3B"/>
<path d="M816.872 1267H774.393L752.593 1305H795.112L816.872 1267Z" fill="#064E3B"/>
<path d="M665.992 1305H708.472L730.272 1267H687.752L665.992 1305Z" fill="#064E3B"/>
<path d="M1249.99 1267H1207.51L1185.75 1305H1228.23L1249.99 1267Z" fill="#064E3B"/>
<path d="M1076.75 1267H1034.27L1012.47 1305H1054.99L1076.75 1267Z" fill="#064E3B"/>
<path d="M1163.39 1267H1120.87L1099.11 1305H1141.59L1163.39 1267Z" fill="#064E3B"/>
<path d="M364.032 1347.52L254.752 1765H498.472L389.192 1347.52C388.528 1344.68 386.924 1342.15 384.64 1340.34C382.356 1338.53 379.527 1337.54 376.612 1337.54C373.698 1337.54 370.869 1338.53 368.585 1340.34C366.301 1342.15 364.697 1344.68 364.032 1347.52Z" fill="#047857" stroke="#064E3B" stroke-linecap="round" stroke-linejoin="round"/>
<path d="M254.752 1765H453.312L354.032 1385.68L254.752 1765Z" fill="#064E3B" stroke="#064E3B" stroke-linecap="round" stroke-linejoin="round"/>
<path d="M523.072 1755.84H219.072C210.236 1755.84 203.072 1763 203.072 1771.84V1773.88C203.072 1782.72 210.236 1789.88 219.072 1789.88H523.072C531.909 1789.88 539.072 1782.72 539.072 1773.88V1771.84C539.072 1763 531.909 1755.84 523.072 1755.84Z" fill="#047857" stroke="#064E3B" stroke-linecap="round" stroke-linejoin="round"/>
<path d="M419.032 1755.84H219.072C210.236 1755.84 203.072 1763 203.072 1771.84V1773.88C203.072 1782.72 210.236 1789.88 219.072 1789.88H419.032C427.869 1789.88 435.032 1782.72 435.032 1773.88V1771.84C435.032 1763 427.869 1755.84 419.032 1755.84Z" fill="#064E3B" stroke="#064E3B" stroke-linecap="round" stroke-linejoin="round"/>
<path d="M298.352 1598.48H454.872L435.952 1526.16H317.272L298.352 1598.48Z" fill="#F5FFFE" stroke="#064E3B" stroke-linecap="round" stroke-linejoin="round"/>
<path d="M298.352 1598.48H409.752L390.832 1526.16H317.272L298.352 1598.48Z" fill="#A1A1AA" stroke="#064E3B" stroke-linecap="round" stroke-linejoin="round"/>
<path d="M1007.41 472.012C1021.11 458.312 1021.11 436.101 1007.41 422.401C993.707 408.702 971.495 408.702 957.796 422.401C944.096 436.101 944.096 458.312 957.796 472.012C971.495 485.711 993.707 485.711 1007.41 472.012Z" fill="#F5FFFE" stroke="#064E3B" stroke-linecap="round" stroke-linejoin="round"/>
<path d="M983.593 163.88V0" stroke="#064E3B" stroke-width="2" stroke-linecap="round" stroke-linejoin="round"/>
<path d="M983.593 272.12V163.88" stroke="#A1A1AA" stroke-width="2" stroke-miterlimit="10"/>
<path d="M929.232 272.12L820.952 459.72H1143.99L1035.67 272.12H929.232Z" fill="#047857" stroke="#064E3B" stroke-width="0.972732" stroke-miterlimit="10"/>
<path d="M940.112 272.12L853.912 459.72H1111.03L1024.83 272.12H940.112Z" fill="#064E3B" stroke="#064E3B" stroke-linecap="round" stroke-linejoin="round"/>
<path d="M685.833 686.4H232.113C221.026 686.4 210.394 690.804 202.555 698.643C194.716 706.482 190.313 717.114 190.312 728.2V1520.52L685.833 686.4Z" fill="#A1A1AA" stroke="#064E3B" stroke-miterlimit="10"/>
<path d="M1278.27 686.4H1731.99C1743.08 686.4 1753.71 690.804 1761.55 698.643C1769.39 706.482 1773.79 717.114 1773.79 728.2V1522.96L1278.27 686.4Z" fill="#A1A1AA" stroke="#064E3B" stroke-miterlimit="10"/>
<path d="M685.833 686.4L190.312 1520.64" stroke="#064E3B" stroke-linecap="round" stroke-linejoin="round"/>
<path d="M1278.27 686.4L1773.79 1522.96" stroke="#064E3B" stroke-linecap="round" stroke-linejoin="round"/>
<path d="M254.553 1413.76V766.68H636.313" stroke="#064E3B" stroke-linecap="round" stroke-linejoin="round"/>
<path d="M1326.71 766.68H1709.55V1417.04" stroke="#064E3B" stroke-linecap="round" stroke-linejoin="round"/>
<path d="M1278.27 686.4L1143.99 459.72H820.953L685.833 686.4" fill="white" fill-opacity="0.3"/>
<path d="M1278.27 686.4L1143.99 459.72H820.953L685.833 686.4" stroke="#064E3B" stroke-miterlimit="10"/>
<path d="M818.848 1177.07V1222H807.904V1195.06L797.856 1222H789.024L778.912 1194.99V1222H767.968V1177.07H780.896L793.504 1208.18L805.984 1177.07H818.848ZM842.974 1222.51C839.475 1222.51 836.318 1221.77 833.502 1220.27C830.729 1218.78 828.531 1216.65 826.91 1213.87C825.331 1211.1 824.542 1207.86 824.542 1204.14C824.542 1200.47 825.353 1197.25 826.974 1194.48C828.595 1191.66 830.814 1189.51 833.63 1188.02C836.446 1186.52 839.603 1185.78 843.102 1185.78C846.601 1185.78 849.758 1186.52 852.574 1188.02C855.39 1189.51 857.609 1191.66 859.23 1194.48C860.851 1197.25 861.662 1200.47 861.662 1204.14C861.662 1207.81 860.83 1211.06 859.166 1213.87C857.545 1216.65 855.305 1218.78 852.446 1220.27C849.63 1221.77 846.473 1222.51 842.974 1222.51ZM842.974 1213.04C845.065 1213.04 846.835 1212.27 848.286 1210.74C849.779 1209.2 850.526 1207 850.526 1204.14C850.526 1201.29 849.801 1199.09 848.35 1197.55C846.942 1196.02 845.193 1195.25 843.102 1195.25C840.969 1195.25 839.198 1196.02 837.79 1197.55C836.382 1199.05 835.678 1201.24 835.678 1204.14C835.678 1207 836.361 1209.2 837.726 1210.74C839.134 1212.27 840.883 1213.04 842.974 1213.04ZM889.42 1185.9C893.516 1185.9 896.801 1187.27 899.276 1190C901.751 1192.69 902.988 1196.4 902.988 1201.14V1222H892.108V1202.61C892.108 1200.22 891.489 1198.36 890.252 1197.04C889.015 1195.72 887.351 1195.06 885.26 1195.06C883.169 1195.06 881.505 1195.72 880.268 1197.04C879.031 1198.36 878.412 1200.22 878.412 1202.61V1222H867.468V1174.64H878.412V1191.09C879.521 1189.51 881.036 1188.25 882.956 1187.31C884.876 1186.37 887.031 1185.9 889.42 1185.9ZM926.849 1222.51C923.35 1222.51 920.193 1221.77 917.377 1220.27C914.604 1218.78 912.406 1216.65 910.785 1213.87C909.206 1211.1 908.417 1207.86 908.417 1204.14C908.417 1200.47 909.228 1197.25 910.849 1194.48C912.47 1191.66 914.689 1189.51 917.505 1188.02C920.321 1186.52 923.478 1185.78 926.977 1185.78C930.476 1185.78 933.633 1186.52 936.449 1188.02C939.265 1189.51 941.484 1191.66 943.105 1194.48C944.726 1197.25 945.537 1200.47 945.537 1204.14C945.537 1207.81 944.705 1211.06 943.041 1213.87C941.42 1216.65 939.18 1218.78 936.321 1220.27C933.505 1221.77 930.348 1222.51 926.849 1222.51ZM926.849 1213.04C928.94 1213.04 930.71 1212.27 932.161 1210.74C933.654 1209.2 934.401 1207 934.401 1204.14C934.401 1201.29 933.676 1199.09 932.225 1197.55C930.817 1196.02 929.068 1195.25 926.977 1195.25C924.844 1195.25 923.073 1196.02 921.665 1197.55C920.257 1199.05 919.553 1201.24 919.553 1204.14C919.553 1207 920.236 1209.2 921.601 1210.74C923.009 1212.27 924.758 1213.04 926.849 1213.04ZM973.103 1185.9C977.284 1185.9 980.612 1187.27 983.087 1190C985.604 1192.69 986.863 1196.4 986.863 1201.14V1222H975.983V1202.61C975.983 1200.22 975.364 1198.36 974.127 1197.04C972.89 1195.72 971.226 1195.06 969.135 1195.06C967.044 1195.06 965.38 1195.72 964.143 1197.04C962.906 1198.36 962.287 1200.22 962.287 1202.61V1222H951.343V1186.29H962.287V1191.02C963.396 1189.45 964.89 1188.21 966.767 1187.31C968.644 1186.37 970.756 1185.9 973.103 1185.9ZM1058.91 1177.07V1222H1047.97V1195.06L1037.92 1222H1029.09L1018.97 1194.99V1222H1008.03V1177.07H1020.96L1033.57 1208.18L1046.05 1177.07H1058.91ZM1064.6 1204.08C1064.6 1200.41 1065.29 1197.19 1066.65 1194.42C1068.06 1191.64 1069.96 1189.51 1072.35 1188.02C1074.74 1186.52 1077.4 1185.78 1080.35 1185.78C1082.87 1185.78 1085.06 1186.29 1086.94 1187.31C1088.86 1188.34 1090.33 1189.68 1091.36 1191.34V1186.29H1102.3V1222H1091.36V1216.94C1090.29 1218.61 1088.8 1219.95 1086.88 1220.98C1085 1222 1082.8 1222.51 1080.28 1222.51C1077.38 1222.51 1074.74 1221.77 1072.35 1220.27C1069.96 1218.74 1068.06 1216.58 1066.65 1213.81C1065.29 1210.99 1064.6 1207.75 1064.6 1204.08ZM1091.36 1204.14C1091.36 1201.41 1090.59 1199.26 1089.05 1197.68C1087.56 1196.1 1085.72 1195.31 1083.55 1195.31C1081.37 1195.31 1079.52 1196.1 1077.98 1197.68C1076.49 1199.22 1075.74 1201.35 1075.74 1204.08C1075.74 1206.81 1076.49 1208.99 1077.98 1210.61C1079.52 1212.19 1081.37 1212.98 1083.55 1212.98C1085.72 1212.98 1087.56 1212.19 1089.05 1210.61C1090.59 1209.03 1091.36 1206.87 1091.36 1204.14ZM1108.04 1204.08C1108.04 1200.41 1108.72 1197.19 1110.09 1194.42C1111.5 1191.64 1113.4 1189.51 1115.79 1188.02C1118.18 1186.52 1120.84 1185.78 1123.79 1185.78C1126.3 1185.78 1128.5 1186.29 1130.38 1187.31C1132.3 1188.34 1133.77 1189.68 1134.79 1191.34V1186.29H1145.74V1222H1134.79V1216.94C1133.73 1218.61 1132.23 1219.95 1130.31 1220.98C1128.44 1222 1126.24 1222.51 1123.72 1222.51C1120.82 1222.51 1118.18 1221.77 1115.79 1220.27C1113.4 1218.74 1111.5 1216.58 1110.09 1213.81C1108.72 1210.99 1108.04 1207.75 1108.04 1204.08ZM1134.79 1204.14C1134.79 1201.41 1134.03 1199.26 1132.49 1197.68C1131 1196.1 1129.16 1195.31 1126.99 1195.31C1124.81 1195.31 1122.95 1196.1 1121.42 1197.68C1119.92 1199.22 1119.18 1201.35 1119.18 1204.08C1119.18 1206.81 1119.92 1208.99 1121.42 1210.61C1122.95 1212.19 1124.81 1212.98 1126.99 1212.98C1129.16 1212.98 1131 1212.19 1132.49 1210.61C1134.03 1209.03 1134.79 1206.87 1134.79 1204.14ZM1171.58 1195.38H1165.69V1222H1154.74V1195.38H1150.78V1186.29H1154.74V1185.26C1154.74 1180.87 1156 1177.54 1158.52 1175.28C1161.04 1172.98 1164.73 1171.82 1169.59 1171.82C1170.4 1171.82 1171 1171.85 1171.38 1171.89V1181.17C1169.29 1181.04 1167.82 1181.34 1166.97 1182.06C1166.11 1182.79 1165.69 1184.09 1165.69 1185.97V1186.29H1171.58V1195.38ZM1188.49 1211.89L1181.39 1230.26H1174.41L1178.13 1211.89H1188.49Z" fill="#064E3B"/>
<path d="M580.943 1382.55H595.279V1391H569.999V1346.07H580.943V1382.55ZM598.323 1373.08C598.323 1369.41 599.006 1366.19 600.371 1363.42C601.779 1360.64 603.678 1358.51 606.067 1357.02C608.457 1355.52 611.123 1354.78 614.067 1354.78C616.585 1354.78 618.782 1355.29 620.659 1356.31C622.579 1357.34 624.051 1358.68 625.075 1360.34V1355.29H636.019V1391H625.075V1385.94C624.009 1387.61 622.515 1388.95 620.595 1389.98C618.718 1391 616.521 1391.51 614.003 1391.51C611.102 1391.51 608.457 1390.77 606.067 1389.27C603.678 1387.74 601.779 1385.58 600.371 1382.81C599.006 1379.99 598.323 1376.75 598.323 1373.08ZM625.075 1373.14C625.075 1370.41 624.307 1368.26 622.771 1366.68C621.278 1365.1 619.443 1364.31 617.267 1364.31C615.091 1364.31 613.235 1365.1 611.699 1366.68C610.206 1368.22 609.459 1370.35 609.459 1373.08C609.459 1375.81 610.206 1377.99 611.699 1379.61C613.235 1381.19 615.091 1381.98 617.267 1381.98C619.443 1381.98 621.278 1381.19 622.771 1379.61C624.307 1378.03 625.075 1375.87 625.075 1373.14ZM689.505 1354.9C693.942 1354.9 697.462 1356.25 700.065 1358.94C702.71 1361.62 704.033 1365.36 704.033 1370.14V1391H693.153V1371.61C693.153 1369.3 692.534 1367.53 691.297 1366.3C690.102 1365.02 688.438 1364.38 686.305 1364.38C684.171 1364.38 682.486 1365.02 681.249 1366.3C680.054 1367.53 679.457 1369.3 679.457 1371.61V1391H668.577V1371.61C668.577 1369.3 667.958 1367.53 666.721 1366.3C665.526 1365.02 663.862 1364.38 661.729 1364.38C659.595 1364.38 657.91 1365.02 656.673 1366.3C655.478 1367.53 654.881 1369.3 654.881 1371.61V1391H643.937V1355.29H654.881V1359.77C655.99 1358.27 657.441 1357.1 659.233 1356.25C661.025 1355.35 663.051 1354.9 665.313 1354.9C668.001 1354.9 670.39 1355.48 672.481 1356.63C674.614 1357.78 676.278 1359.43 677.473 1361.56C678.71 1359.6 680.395 1358 682.529 1356.76C684.662 1355.52 686.987 1354.9 689.505 1354.9ZM709.511 1373.08C709.511 1369.41 710.193 1366.19 711.559 1363.42C712.967 1360.64 714.865 1358.51 717.255 1357.02C719.644 1355.52 722.311 1354.78 725.255 1354.78C727.772 1354.78 729.969 1355.29 731.847 1356.31C733.767 1357.34 735.239 1358.68 736.263 1360.34V1355.29H747.207V1391H736.263V1385.94C735.196 1387.61 733.703 1388.95 731.783 1389.98C729.905 1391 727.708 1391.51 725.191 1391.51C722.289 1391.51 719.644 1390.77 717.255 1389.27C714.865 1387.74 712.967 1385.58 711.559 1382.81C710.193 1379.99 709.511 1376.75 709.511 1373.08ZM736.263 1373.14C736.263 1370.41 735.495 1368.26 733.959 1366.68C732.465 1365.1 730.631 1364.31 728.455 1364.31C726.279 1364.31 724.423 1365.1 722.887 1366.68C721.393 1368.22 720.647 1370.35 720.647 1373.08C720.647 1375.81 721.393 1377.99 722.887 1379.61C724.423 1381.19 726.279 1381.98 728.455 1381.98C730.631 1381.98 732.465 1381.19 733.959 1379.61C735.495 1378.03 736.263 1375.87 736.263 1373.14ZM776.884 1354.9C781.066 1354.9 784.394 1356.27 786.868 1359C789.386 1361.69 790.644 1365.4 790.644 1370.14V1391H779.764V1371.61C779.764 1369.22 779.146 1367.36 777.908 1366.04C776.671 1364.72 775.007 1364.06 772.916 1364.06C770.826 1364.06 769.162 1364.72 767.924 1366.04C766.687 1367.36 766.068 1369.22 766.068 1371.61V1391H755.124V1355.29H766.068V1360.02C767.178 1358.45 768.671 1357.21 770.548 1356.31C772.426 1355.37 774.538 1354.9 776.884 1354.9ZM848.292 1355.29L825.892 1407.96H814.116L822.308 1389.78L807.78 1355.29H820.004L828.26 1377.62L836.452 1355.29H848.292ZM850.073 1373.08C850.073 1369.41 850.756 1366.19 852.121 1363.42C853.529 1360.64 855.428 1358.51 857.817 1357.02C860.207 1355.52 862.873 1354.78 865.817 1354.78C868.335 1354.78 870.532 1355.29 872.409 1356.31C874.329 1357.34 875.801 1358.68 876.825 1360.34V1355.29H887.769V1391H876.825V1385.94C875.759 1387.61 874.265 1388.95 872.345 1389.98C870.468 1391 868.271 1391.51 865.753 1391.51C862.852 1391.51 860.207 1390.77 857.817 1389.27C855.428 1387.74 853.529 1385.58 852.121 1382.81C850.756 1379.99 850.073 1376.75 850.073 1373.08ZM876.825 1373.14C876.825 1370.41 876.057 1368.26 874.521 1366.68C873.028 1365.1 871.193 1364.31 869.017 1364.31C866.841 1364.31 864.985 1365.1 863.449 1366.68C861.956 1368.22 861.209 1370.35 861.209 1373.08C861.209 1375.81 861.956 1377.99 863.449 1379.61C864.985 1381.19 866.841 1381.98 869.017 1381.98C871.193 1381.98 873.028 1381.19 874.521 1379.61C876.057 1378.03 876.825 1375.87 876.825 1373.14ZM917.447 1354.9C921.628 1354.9 924.956 1356.27 927.431 1359C929.948 1361.69 931.207 1365.4 931.207 1370.14V1391H920.327V1371.61C920.327 1369.22 919.708 1367.36 918.471 1366.04C917.233 1364.72 915.569 1364.06 913.479 1364.06C911.388 1364.06 909.724 1364.72 908.487 1366.04C907.249 1367.36 906.631 1369.22 906.631 1371.61V1391H895.687V1355.29H906.631V1360.02C907.74 1358.45 909.233 1357.21 911.111 1356.31C912.988 1355.37 915.1 1354.9 917.447 1354.9ZM952.38 1354.78C954.897 1354.78 957.094 1355.29 958.972 1356.31C960.892 1357.34 962.364 1358.68 963.388 1360.34V1355.29H974.332V1390.94C974.332 1394.22 973.67 1397.19 972.348 1399.83C971.068 1402.52 969.084 1404.65 966.396 1406.23C963.75 1407.81 960.444 1408.6 956.476 1408.6C951.185 1408.6 946.897 1407.34 943.612 1404.82C940.326 1402.35 938.449 1398.98 937.98 1394.71H948.796C949.137 1396.08 949.948 1397.14 951.228 1397.91C952.508 1398.72 954.086 1399.13 955.964 1399.13C958.225 1399.13 960.017 1398.47 961.34 1397.14C962.705 1395.86 963.388 1393.79 963.388 1390.94V1385.88C962.321 1387.54 960.849 1388.91 958.972 1389.98C957.094 1391 954.897 1391.51 952.38 1391.51C949.436 1391.51 946.769 1390.77 944.38 1389.27C941.99 1387.74 940.092 1385.58 938.684 1382.81C937.318 1379.99 936.636 1376.75 936.636 1373.08C936.636 1369.41 937.318 1366.19 938.684 1363.42C940.092 1360.64 941.99 1358.51 944.38 1357.02C946.769 1355.52 949.436 1354.78 952.38 1354.78ZM963.388 1373.14C963.388 1370.41 962.62 1368.26 961.084 1366.68C959.59 1365.1 957.756 1364.31 955.58 1364.31C953.404 1364.31 951.548 1365.1 950.012 1366.68C948.518 1368.22 947.772 1370.35 947.772 1373.08C947.772 1375.81 948.518 1377.99 950.012 1379.61C951.548 1381.19 953.404 1381.98 955.58 1381.98C957.756 1381.98 959.59 1381.19 961.084 1379.61C962.62 1378.03 963.388 1375.87 963.388 1373.14ZM1023.78 1383.06H1007.01L1004.32 1391H992.868L1009.12 1346.07H1021.8L1038.05 1391H1026.47L1023.78 1383.06ZM1020.96 1374.62L1015.4 1358.17L1009.89 1374.62H1020.96ZM1064.76 1354.9C1068.94 1354.9 1072.27 1356.27 1074.74 1359C1077.26 1361.69 1078.52 1365.4 1078.52 1370.14V1391H1067.64V1371.61C1067.64 1369.22 1067.02 1367.36 1065.78 1366.04C1064.55 1364.72 1062.88 1364.06 1060.79 1364.06C1058.7 1364.06 1057.04 1364.72 1055.8 1366.04C1054.56 1367.36 1053.94 1369.22 1053.94 1371.61V1391H1043V1355.29H1053.94V1360.02C1055.05 1358.45 1056.55 1357.21 1058.42 1356.31C1060.3 1355.37 1062.41 1354.9 1064.76 1354.9ZM1083.95 1373.08C1083.95 1369.41 1084.63 1366.19 1086 1363.42C1087.4 1360.64 1089.3 1358.51 1091.69 1357.02C1094.08 1355.52 1096.75 1354.78 1099.69 1354.78C1102.04 1354.78 1104.17 1355.27 1106.09 1356.25C1108.05 1357.23 1109.59 1358.55 1110.7 1360.22V1343.64H1121.64V1391H1110.7V1385.88C1109.68 1387.59 1108.2 1388.95 1106.28 1389.98C1104.41 1391 1102.21 1391.51 1099.69 1391.51C1096.75 1391.51 1094.08 1390.77 1091.69 1389.27C1089.3 1387.74 1087.4 1385.58 1086 1382.81C1084.63 1379.99 1083.95 1376.75 1083.95 1373.08ZM1110.7 1373.14C1110.7 1370.41 1109.93 1368.26 1108.4 1366.68C1106.9 1365.1 1105.07 1364.31 1102.89 1364.31C1100.72 1364.31 1098.86 1365.1 1097.32 1366.68C1095.83 1368.22 1095.08 1370.35 1095.08 1373.08C1095.08 1375.81 1095.83 1377.99 1097.32 1379.61C1098.86 1381.19 1100.72 1381.98 1102.89 1381.98C1105.07 1381.98 1106.9 1381.19 1108.4 1379.61C1109.93 1378.03 1110.7 1375.87 1110.7 1373.14ZM1127.39 1373.08C1127.39 1369.41 1128.07 1366.19 1129.43 1363.42C1130.84 1360.64 1132.74 1358.51 1135.13 1357.02C1137.52 1355.52 1140.19 1354.78 1143.13 1354.78C1145.65 1354.78 1147.84 1355.29 1149.72 1356.31C1151.64 1357.34 1153.11 1358.68 1154.14 1360.34V1355.29H1165.08V1391H1154.14V1385.94C1153.07 1387.61 1151.58 1388.95 1149.66 1389.98C1147.78 1391 1145.58 1391.51 1143.07 1391.51C1140.16 1391.51 1137.52 1390.77 1135.13 1389.27C1132.74 1387.74 1130.84 1385.58 1129.43 1382.81C1128.07 1379.99 1127.39 1376.75 1127.39 1373.08ZM1154.14 1373.14C1154.14 1370.41 1153.37 1368.26 1151.83 1366.68C1150.34 1365.1 1148.51 1364.31 1146.33 1364.31C1144.15 1364.31 1142.3 1365.1 1140.76 1366.68C1139.27 1368.22 1138.52 1370.35 1138.52 1373.08C1138.52 1375.81 1139.27 1377.99 1140.76 1379.61C1142.3 1381.19 1144.15 1381.98 1146.33 1381.98C1148.51 1381.98 1150.34 1381.19 1151.83 1379.61C1153.37 1378.03 1154.14 1375.87 1154.14 1373.14ZM1184.39 1373.08C1184.39 1369.41 1185.07 1366.19 1186.43 1363.42C1187.84 1360.64 1189.74 1358.51 1192.13 1357.02C1194.52 1355.52 1197.19 1354.78 1200.13 1354.78C1202.65 1354.78 1204.84 1355.29 1206.72 1356.31C1208.64 1357.34 1210.11 1358.68 1211.14 1360.34V1355.29H1222.08V1391H1211.14V1385.94C1210.07 1387.61 1208.58 1388.95 1206.66 1389.98C1204.78 1391 1202.58 1391.51 1200.07 1391.51C1197.16 1391.51 1194.52 1390.77 1192.13 1389.27C1189.74 1387.74 1187.84 1385.58 1186.43 1382.81C1185.07 1379.99 1184.39 1376.75 1184.39 1373.08ZM1211.14 1373.14C1211.14 1370.41 1210.37 1368.26 1208.83 1366.68C1207.34 1365.1 1205.51 1364.31 1203.33 1364.31C1201.15 1364.31 1199.3 1365.1 1197.76 1366.68C1196.27 1368.22 1195.52 1370.35 1195.52 1373.08C1195.52 1375.81 1196.27 1377.99 1197.76 1379.61C1199.3 1381.19 1201.15 1381.98 1203.33 1381.98C1205.51 1381.98 1207.34 1381.19 1208.83 1379.61C1210.37 1378.03 1211.14 1375.87 1211.14 1373.14ZM1251.82 1391L1240.94 1376.02V1391H1230V1343.64H1240.94V1369.82L1251.76 1355.29H1265.26L1250.42 1373.21L1265.39 1391H1251.82ZM1284.09 1391.51C1280.98 1391.51 1278.2 1390.98 1275.77 1389.91C1273.34 1388.85 1271.42 1387.39 1270.01 1385.56C1268.6 1383.68 1267.81 1381.59 1267.64 1379.29H1278.46C1278.59 1380.53 1279.16 1381.53 1280.19 1382.3C1281.21 1383.06 1282.47 1383.45 1283.96 1383.45C1285.33 1383.45 1286.37 1383.19 1287.1 1382.68C1287.87 1382.13 1288.25 1381.42 1288.25 1380.57C1288.25 1379.54 1287.72 1378.8 1286.65 1378.33C1285.58 1377.82 1283.86 1377.26 1281.47 1376.66C1278.91 1376.07 1276.77 1375.45 1275.07 1374.81C1273.36 1374.13 1271.89 1373.08 1270.65 1371.67C1269.41 1370.22 1268.79 1368.28 1268.79 1365.85C1268.79 1363.8 1269.35 1361.94 1270.46 1360.28C1271.61 1358.57 1273.27 1357.23 1275.45 1356.25C1277.67 1355.27 1280.29 1354.78 1283.32 1354.78C1287.8 1354.78 1291.32 1355.89 1293.88 1358.1C1296.48 1360.32 1297.98 1363.27 1298.36 1366.94H1288.25C1288.08 1365.7 1287.52 1364.72 1286.59 1363.99C1285.69 1363.27 1284.5 1362.9 1283 1362.9C1281.72 1362.9 1280.74 1363.16 1280.06 1363.67C1279.38 1364.14 1279.03 1364.8 1279.03 1365.66C1279.03 1366.68 1279.57 1367.45 1280.63 1367.96C1281.74 1368.47 1283.45 1368.98 1285.75 1369.5C1288.4 1370.18 1290.55 1370.86 1292.22 1371.54C1293.88 1372.18 1295.33 1373.25 1296.57 1374.74C1297.85 1376.19 1298.51 1378.16 1298.55 1380.63C1298.55 1382.72 1297.96 1384.6 1296.76 1386.26C1295.61 1387.89 1293.92 1389.17 1291.71 1390.1C1289.53 1391.04 1286.99 1391.51 1284.09 1391.51ZM1338.91 1372.57C1338.91 1373.59 1338.85 1374.66 1338.72 1375.77H1313.95C1314.12 1377.99 1314.83 1379.69 1316.07 1380.89C1317.35 1382.04 1318.9 1382.62 1320.74 1382.62C1323.47 1382.62 1325.37 1381.46 1326.43 1379.16H1338.08C1337.48 1381.51 1336.4 1383.62 1334.82 1385.5C1333.28 1387.37 1331.34 1388.85 1328.99 1389.91C1326.65 1390.98 1324.02 1391.51 1321.12 1391.51C1317.62 1391.51 1314.51 1390.77 1311.78 1389.27C1309.05 1387.78 1306.91 1385.65 1305.38 1382.87C1303.84 1380.1 1303.07 1376.86 1303.07 1373.14C1303.07 1369.43 1303.82 1366.19 1305.31 1363.42C1306.85 1360.64 1308.98 1358.51 1311.71 1357.02C1314.44 1355.52 1317.58 1354.78 1321.12 1354.78C1324.58 1354.78 1327.65 1355.5 1330.34 1356.95C1333.03 1358.4 1335.12 1360.47 1336.61 1363.16C1338.15 1365.85 1338.91 1368.98 1338.91 1372.57ZM1327.71 1369.69C1327.71 1367.81 1327.07 1366.32 1325.79 1365.21C1324.51 1364.1 1322.91 1363.54 1320.99 1363.54C1319.16 1363.54 1317.6 1364.08 1316.32 1365.14C1315.08 1366.21 1314.32 1367.73 1314.02 1369.69H1327.71ZM1359.21 1391.51C1356.1 1391.51 1353.33 1390.98 1350.89 1389.91C1348.46 1388.85 1346.54 1387.39 1345.13 1385.56C1343.73 1383.68 1342.94 1381.59 1342.77 1379.29H1353.58C1353.71 1380.53 1354.29 1381.53 1355.31 1382.3C1356.33 1383.06 1357.59 1383.45 1359.09 1383.45C1360.45 1383.45 1361.5 1383.19 1362.22 1382.68C1362.99 1382.13 1363.37 1381.42 1363.37 1380.57C1363.37 1379.54 1362.84 1378.8 1361.77 1378.33C1360.71 1377.82 1358.98 1377.26 1356.59 1376.66C1354.03 1376.07 1351.9 1375.45 1350.19 1374.81C1348.48 1374.13 1347.01 1373.08 1345.77 1371.67C1344.54 1370.22 1343.92 1368.28 1343.92 1365.85C1343.92 1363.8 1344.47 1361.94 1345.58 1360.28C1346.73 1358.57 1348.4 1357.23 1350.57 1356.25C1352.79 1355.27 1355.42 1354.78 1358.45 1354.78C1362.93 1354.78 1366.45 1355.89 1369.01 1358.1C1371.61 1360.32 1373.1 1363.27 1373.49 1366.94H1363.37C1363.2 1365.7 1362.65 1364.72 1361.71 1363.99C1360.81 1363.27 1359.62 1362.9 1358.13 1362.9C1356.85 1362.9 1355.87 1363.16 1355.18 1363.67C1354.5 1364.14 1354.16 1364.8 1354.16 1365.66C1354.16 1366.68 1354.69 1367.45 1355.76 1367.96C1356.87 1368.47 1358.57 1368.98 1360.88 1369.5C1363.52 1370.18 1365.68 1370.86 1367.34 1371.54C1369.01 1372.18 1370.46 1373.25 1371.69 1374.74C1372.97 1376.19 1373.64 1378.16 1373.68 1380.63C1373.68 1382.72 1373.08 1384.6 1371.89 1386.26C1370.73 1387.89 1369.05 1389.17 1366.83 1390.1C1364.65 1391.04 1362.12 1391.51 1359.21 1391.51ZM742.975 1456.34C743.999 1454.68 745.471 1453.34 747.391 1452.31C749.311 1451.29 751.508 1450.78 753.983 1450.78C756.927 1450.78 759.593 1451.52 761.983 1453.02C764.372 1454.51 766.249 1456.64 767.615 1459.42C769.023 1462.19 769.727 1465.41 769.727 1469.08C769.727 1472.75 769.023 1475.99 767.615 1478.81C766.249 1481.58 764.372 1483.74 761.983 1485.27C759.593 1486.77 756.927 1487.51 753.983 1487.51C751.465 1487.51 749.268 1487.02 747.391 1486.04C745.513 1485.02 744.041 1483.67 742.975 1482.01V1487H732.031V1439.64H742.975V1456.34ZM758.591 1469.08C758.591 1466.35 757.823 1464.22 756.287 1462.68C754.793 1461.1 752.937 1460.31 750.719 1460.31C748.543 1460.31 746.687 1461.1 745.151 1462.68C743.657 1464.26 742.911 1466.41 742.911 1469.14C742.911 1471.87 743.657 1474.03 745.151 1475.61C746.687 1477.19 748.543 1477.98 750.719 1477.98C752.895 1477.98 754.751 1477.19 756.287 1475.61C757.823 1473.99 758.591 1471.81 758.591 1469.08ZM809.132 1468.57C809.132 1469.59 809.068 1470.66 808.94 1471.77H784.172C784.343 1473.99 785.047 1475.69 786.284 1476.89C787.564 1478.04 789.121 1478.62 790.956 1478.62C793.687 1478.62 795.585 1477.46 796.652 1475.16H808.3C807.703 1477.51 806.615 1479.62 805.036 1481.5C803.5 1483.37 801.559 1484.85 799.212 1485.91C796.865 1486.98 794.241 1487.51 791.34 1487.51C787.841 1487.51 784.727 1486.77 781.996 1485.27C779.265 1483.78 777.132 1481.65 775.596 1478.87C774.06 1476.1 773.292 1472.86 773.292 1469.14C773.292 1465.43 774.039 1462.19 775.532 1459.42C777.068 1456.64 779.201 1454.51 781.932 1453.02C784.663 1451.52 787.799 1450.78 791.34 1450.78C794.796 1450.78 797.868 1451.5 800.556 1452.95C803.244 1454.4 805.335 1456.47 806.828 1459.16C808.364 1461.85 809.132 1464.98 809.132 1468.57ZM797.932 1465.69C797.932 1463.81 797.292 1462.32 796.012 1461.21C794.732 1460.1 793.132 1459.54 791.212 1459.54C789.377 1459.54 787.82 1460.08 786.54 1461.14C785.303 1462.21 784.535 1463.73 784.236 1465.69H797.932ZM825.85 1439.64V1487H814.906V1439.64H825.85ZM869.045 1451.29V1487H858.101V1482.14C856.991 1483.71 855.477 1484.99 853.557 1485.98C851.679 1486.91 849.589 1487.38 847.285 1487.38C844.554 1487.38 842.143 1486.79 840.053 1485.59C837.962 1484.35 836.341 1482.58 835.189 1480.28C834.037 1477.98 833.461 1475.27 833.461 1472.15V1451.29H844.341V1470.68C844.341 1473.07 844.959 1474.93 846.197 1476.25C847.434 1477.57 849.098 1478.23 851.189 1478.23C853.322 1478.23 855.007 1477.57 856.245 1476.25C857.482 1474.93 858.101 1473.07 858.101 1470.68V1451.29H869.045ZM922.474 1450.9C926.911 1450.9 930.431 1452.25 933.034 1454.94C935.679 1457.62 937.002 1461.36 937.002 1466.14V1487H926.122V1467.61C926.122 1465.3 925.503 1463.53 924.266 1462.3C923.071 1461.02 921.407 1460.38 919.274 1460.38C917.14 1460.38 915.455 1461.02 914.218 1462.3C913.023 1463.53 912.426 1465.3 912.426 1467.61V1487H901.546V1467.61C901.546 1465.3 900.927 1463.53 899.69 1462.3C898.495 1461.02 896.831 1460.38 894.698 1460.38C892.564 1460.38 890.879 1461.02 889.642 1462.3C888.447 1463.53 887.85 1465.3 887.85 1467.61V1487H876.906V1451.29H887.85V1455.77C888.959 1454.27 890.41 1453.1 892.202 1452.25C893.994 1451.35 896.02 1450.9 898.282 1450.9C900.97 1450.9 903.359 1451.48 905.45 1452.63C907.583 1453.78 909.247 1455.43 910.442 1457.56C911.679 1455.6 913.364 1454 915.498 1452.76C917.631 1451.52 919.956 1450.9 922.474 1450.9ZM978.122 1477.72V1487H972.554C968.586 1487 965.493 1486.04 963.274 1484.12C961.055 1482.16 959.946 1478.98 959.946 1474.58V1460.38H955.594V1451.29H959.946V1442.58H970.89V1451.29H978.058V1460.38H970.89V1474.71C970.89 1475.78 971.146 1476.55 971.658 1477.02C972.17 1477.49 973.023 1477.72 974.218 1477.72H978.122ZM1017.88 1468.57C1017.88 1469.59 1017.82 1470.66 1017.69 1471.77H992.922C993.093 1473.99 993.797 1475.69 995.034 1476.89C996.314 1478.04 997.871 1478.62 999.706 1478.62C1002.44 1478.62 1004.34 1477.46 1005.4 1475.16H1017.05C1016.45 1477.51 1015.36 1479.62 1013.79 1481.5C1012.25 1483.37 1010.31 1484.85 1007.96 1485.91C1005.62 1486.98 1002.99 1487.51 1000.09 1487.51C996.591 1487.51 993.477 1486.77 990.746 1485.27C988.015 1483.78 985.882 1481.65 984.346 1478.87C982.81 1476.1 982.042 1472.86 982.042 1469.14C982.042 1465.43 982.789 1462.19 984.282 1459.42C985.818 1456.64 987.951 1454.51 990.682 1453.02C993.413 1451.52 996.549 1450.78 1000.09 1450.78C1003.55 1450.78 1006.62 1451.5 1009.31 1452.95C1011.99 1454.4 1014.08 1456.47 1015.58 1459.16C1017.11 1461.85 1017.88 1464.98 1017.88 1468.57ZM1006.68 1465.69C1006.68 1463.81 1006.04 1462.32 1004.76 1461.21C1003.48 1460.1 1001.88 1459.54 999.962 1459.54C998.127 1459.54 996.57 1460.08 995.29 1461.14C994.053 1462.21 993.285 1463.73 992.986 1465.69H1006.68ZM1034.6 1457.24C1035.88 1455.28 1037.48 1453.74 1039.4 1452.63C1041.32 1451.48 1043.45 1450.9 1045.8 1450.9V1462.49H1042.79C1040.06 1462.49 1038.01 1463.09 1036.65 1464.28C1035.28 1465.43 1034.6 1467.48 1034.6 1470.42V1487H1023.66V1451.29H1034.6V1457.24ZM1065.56 1487.51C1062.44 1487.51 1059.67 1486.98 1057.24 1485.91C1054.81 1484.85 1052.89 1483.39 1051.48 1481.56C1050.07 1479.68 1049.28 1477.59 1049.11 1475.29H1059.93C1060.05 1476.53 1060.63 1477.53 1061.65 1478.3C1062.68 1479.06 1063.94 1479.45 1065.43 1479.45C1066.8 1479.45 1067.84 1479.19 1068.57 1478.68C1069.33 1478.13 1069.72 1477.42 1069.72 1476.57C1069.72 1475.54 1069.19 1474.8 1068.12 1474.33C1067.05 1473.82 1065.32 1473.26 1062.93 1472.66C1060.37 1472.07 1058.24 1471.45 1056.53 1470.81C1054.83 1470.13 1053.36 1469.08 1052.12 1467.67C1050.88 1466.22 1050.26 1464.28 1050.26 1461.85C1050.26 1459.8 1050.82 1457.94 1051.93 1456.28C1053.08 1454.57 1054.74 1453.23 1056.92 1452.25C1059.14 1451.27 1061.76 1450.78 1064.79 1450.78C1069.27 1450.78 1072.79 1451.89 1075.35 1454.1C1077.95 1456.32 1079.45 1459.27 1079.83 1462.94H1069.72C1069.55 1461.7 1068.99 1460.72 1068.05 1459.99C1067.16 1459.27 1065.96 1458.9 1064.47 1458.9C1063.19 1458.9 1062.21 1459.16 1061.53 1459.67C1060.84 1460.14 1060.5 1460.8 1060.5 1461.66C1060.5 1462.68 1061.04 1463.45 1062.1 1463.96C1063.21 1464.47 1064.92 1464.98 1067.22 1465.5C1069.87 1466.18 1072.02 1466.86 1073.69 1467.54C1075.35 1468.18 1076.8 1469.25 1078.04 1470.74C1079.32 1472.19 1079.98 1474.16 1080.02 1476.63C1080.02 1478.72 1079.43 1480.6 1078.23 1482.26C1077.08 1483.89 1075.39 1485.17 1073.17 1486.1C1071 1487.04 1068.46 1487.51 1065.56 1487.51ZM1120.38 1468.57C1120.38 1469.59 1120.32 1470.66 1120.19 1471.77H1095.42C1095.59 1473.99 1096.3 1475.69 1097.53 1476.89C1098.81 1478.04 1100.37 1478.62 1102.21 1478.62C1104.94 1478.62 1106.84 1477.46 1107.9 1475.16H1119.55C1118.95 1477.51 1117.86 1479.62 1116.29 1481.5C1114.75 1483.37 1112.81 1484.85 1110.46 1485.91C1108.12 1486.98 1105.49 1487.51 1102.59 1487.51C1099.09 1487.51 1095.98 1486.77 1093.25 1485.27C1090.52 1483.78 1088.38 1481.65 1086.85 1478.87C1085.31 1476.1 1084.54 1472.86 1084.54 1469.14C1084.54 1465.43 1085.29 1462.19 1086.78 1459.42C1088.32 1456.64 1090.45 1454.51 1093.18 1453.02C1095.91 1451.52 1099.05 1450.78 1102.59 1450.78C1106.05 1450.78 1109.12 1451.5 1111.81 1452.95C1114.49 1454.4 1116.58 1456.47 1118.08 1459.16C1119.61 1461.85 1120.38 1464.98 1120.38 1468.57ZM1109.18 1465.69C1109.18 1463.81 1108.54 1462.32 1107.26 1461.21C1105.98 1460.1 1104.38 1459.54 1102.46 1459.54C1100.63 1459.54 1099.07 1460.08 1097.79 1461.14C1096.55 1462.21 1095.78 1463.73 1095.49 1465.69H1109.18ZM1123.98 1469.08C1123.98 1465.41 1124.66 1462.19 1126.03 1459.42C1127.44 1456.64 1129.33 1454.51 1131.72 1453.02C1134.11 1451.52 1136.78 1450.78 1139.72 1450.78C1142.07 1450.78 1144.2 1451.27 1146.12 1452.25C1148.09 1453.23 1149.62 1454.55 1150.73 1456.22V1439.64H1161.68V1487H1150.73V1481.88C1149.71 1483.59 1148.24 1484.95 1146.32 1485.98C1144.44 1487 1142.24 1487.51 1139.72 1487.51C1136.78 1487.51 1134.11 1486.77 1131.72 1485.27C1129.33 1483.74 1127.44 1481.58 1126.03 1478.81C1124.66 1475.99 1123.98 1472.75 1123.98 1469.08ZM1150.73 1469.14C1150.73 1466.41 1149.96 1464.26 1148.43 1462.68C1146.93 1461.1 1145.1 1460.31 1142.92 1460.31C1140.75 1460.31 1138.89 1461.1 1137.36 1462.68C1135.86 1464.22 1135.12 1466.35 1135.12 1469.08C1135.12 1471.81 1135.86 1473.99 1137.36 1475.61C1138.89 1477.19 1140.75 1477.98 1142.92 1477.98C1145.1 1477.98 1146.93 1477.19 1148.43 1475.61C1149.96 1474.03 1150.73 1471.87 1150.73 1469.14ZM1175.1 1447.58C1173.18 1447.58 1171.6 1447.02 1170.36 1445.91C1169.17 1444.76 1168.57 1443.35 1168.57 1441.69C1168.57 1439.98 1169.17 1438.57 1170.36 1437.46C1171.6 1436.31 1173.18 1435.74 1175.1 1435.74C1176.97 1435.74 1178.51 1436.31 1179.71 1437.46C1180.94 1438.57 1181.56 1439.98 1181.56 1441.69C1181.56 1443.35 1180.94 1444.76 1179.71 1445.91C1178.51 1447.02 1176.97 1447.58 1175.1 1447.58ZM1180.54 1451.29V1487H1169.59V1451.29H1180.54ZM1186.29 1469.08C1186.29 1465.41 1186.97 1462.19 1188.34 1459.42C1189.75 1456.64 1191.65 1454.51 1194.04 1453.02C1196.43 1451.52 1199.09 1450.78 1202.04 1450.78C1204.55 1450.78 1206.75 1451.29 1208.63 1452.31C1210.55 1453.34 1212.02 1454.68 1213.04 1456.34V1451.29H1223.99V1487H1213.04V1481.94C1211.98 1483.61 1210.48 1484.95 1208.56 1485.98C1206.69 1487 1204.49 1487.51 1201.97 1487.51C1199.07 1487.51 1196.43 1486.77 1194.04 1485.27C1191.65 1483.74 1189.75 1481.58 1188.34 1478.81C1186.97 1475.99 1186.29 1472.75 1186.29 1469.08ZM1213.04 1469.14C1213.04 1466.41 1212.28 1464.26 1210.74 1462.68C1209.25 1461.1 1207.41 1460.31 1205.24 1460.31C1203.06 1460.31 1201.2 1461.1 1199.67 1462.68C1198.17 1464.22 1197.43 1466.35 1197.43 1469.08C1197.43 1471.81 1198.17 1473.99 1199.67 1475.61C1201.2 1477.19 1203.06 1477.98 1205.24 1477.98C1207.41 1477.98 1209.25 1477.19 1210.74 1475.61C1212.28 1474.03 1213.04 1471.87 1213.04 1469.14Z" fill="#064E3B"/>
</g>
<defs>
<clipPath id="clip0_360_19394">
<rect width="1955.07" height="1789.88" fill="white"/>
</clipPath>
</defs>
</svg>
