<svg width="401" height="329" viewBox="0 0 401 329" fill="none" xmlns="http://www.w3.org/2000/svg">
<path opacity="0.7" d="M51.8942 229.355C97.3155 281.416 143.179 288.008 207.647 300.345C272.115 312.683 319.452 304.156 354.333 272.713C394.607 236.368 393.016 153.109 331.387 123.463C312.134 114.181 289.207 111.371 272.341 98.3165C240.131 73.4055 214.081 34.6441 162.373 27.3653C110.665 20.0865 75.8033 54.7714 75.8033 54.7714C33.3386 101.273 6.47286 177.254 51.8942 229.355Z" fill="#F5FFFE"/>
<path d="M398.428 312.604H15.333V328.32H398.428V312.604Z" fill="#064E3B"/>
<path opacity="0.5" d="M398.428 312.604H15.333V328.32H398.428V312.604Z" fill="#F5FFFE"/>
<path d="M105.675 143.56C103.801 144.171 101.962 144.883 100.164 145.691C101.147 144.974 102.129 144.228 103.111 143.471C107.484 139.954 111.647 136.182 115.576 132.175C110.965 136.655 106.041 140.8 100.842 144.581C101.559 143.336 102.189 142.043 102.728 140.711C103.71 138.265 103.887 135.8 101.559 134.493C98.681 132.882 95.2036 135.289 96.1172 139.405C96.6748 141.703 97.7612 143.839 99.29 145.642C95.8969 147.991 92.353 150.114 88.6812 151.998L88.3374 152.175C89.1136 150.83 89.7995 149.435 90.3904 148C91.3138 145.564 91.5495 143.088 89.2116 141.792C86.3335 140.171 82.8562 142.587 83.7795 146.703C84.3278 148.97 85.3898 151.081 86.8836 152.872C82.4731 155.043 77.9152 156.89 73.377 158.894L72.7189 159.188C73.6046 158.237 74.4282 157.23 75.1845 156.173C76.6579 154.012 77.4536 151.674 75.489 149.856C73.0725 147.617 69.1139 149.149 69.0549 153.393C69.0575 155.735 69.6022 158.044 70.6463 160.141C66.3995 162.125 62.3647 164.534 58.6033 167.331L58.4854 167.43C58.9942 166.623 59.4598 165.79 59.8803 164.935C60.9903 162.567 61.4029 160.131 59.1632 158.648C58.7081 158.335 58.188 158.129 57.642 158.046C57.0959 157.963 56.5381 158.005 56.0106 158.169C55.483 158.332 54.9994 158.613 54.5961 158.991C54.1928 159.368 53.8803 159.832 53.682 160.347C53.3868 159.887 52.9861 159.503 52.5131 159.227C50.2636 157.931 48.0535 159.336 46.1576 161.32C45.6665 161.84 45.1754 162.4 44.753 162.95C46.2154 158.891 48.0537 154.978 50.244 151.261C52.3298 152.172 54.5788 152.65 56.8548 152.666C61.3341 152.666 63.2201 148.933 61.0198 146.615C59.232 144.739 56.7173 145.456 54.3402 146.831C53.5574 147.287 52.7999 147.786 52.0711 148.324C54.3482 144.894 56.9324 141.679 59.7919 138.717C61.6656 140.233 63.843 141.328 66.1768 141.929C70.5284 143 73.2592 139.847 71.6875 137.067C70.4105 134.808 67.7583 134.896 65.1552 135.652C63.9093 136.025 62.6887 136.478 61.5011 137.008C62.6897 135.849 63.9175 134.739 65.1651 133.639C66.7957 132.244 68.4852 130.898 70.2042 129.582C72.0525 131.057 74.1915 132.125 76.4811 132.715C80.8327 133.786 83.5634 130.633 81.9918 127.853C80.7148 125.594 78.0626 125.682 75.4497 126.438C74.8407 126.615 74.2218 126.831 73.6226 127.057C75.8917 125.437 78.1903 123.855 80.4987 122.283L82.6303 120.82C84.551 122.429 86.8059 123.59 89.2313 124.218C93.5828 125.289 96.3235 122.136 94.7518 119.356C93.465 117.097 90.8226 117.185 88.2097 117.942C87.1816 118.256 86.1698 118.619 85.1744 119.032L86.4907 118.05C87.2962 117.47 88.1016 116.881 88.8875 116.262C89.8698 115.525 90.803 114.71 91.7558 113.924C92.3059 113.492 92.8265 113.03 93.3471 112.559C95.2756 114.185 97.545 115.356 99.9874 115.987C104.339 117.058 107.07 113.904 105.498 111.124C104.221 108.865 101.569 108.954 98.9658 109.71C97.506 110.161 96.0757 110.702 94.683 111.331C96.461 109.681 98.18 107.961 99.8106 106.174C99.9187 106.046 100.017 105.918 100.135 105.8C100.832 105.024 101.52 104.239 102.188 103.423C102.856 102.608 103.72 101.537 104.447 100.555C107.432 96.6369 109.889 92.3436 111.755 87.7852C109.8 92.2894 107.26 96.5168 104.201 100.359C101.177 104.216 97.7992 107.784 94.1133 111.016L93.7106 111.36C94.5479 109.934 95.2895 108.454 95.9305 106.93C96.8637 104.494 97.0896 102.019 94.7518 100.722C91.8835 99.1012 88.3963 101.518 89.3197 105.633C89.9128 108.071 91.0969 110.324 92.7675 112.195L91.9031 112.942L90.9208 113.787C90.3511 114.248 89.7617 114.69 89.1723 115.132C88.858 115.368 88.5535 115.614 88.19 115.849C87.3551 116.468 86.5103 117.067 85.6557 117.657L84.4279 118.492L83.033 119.474C83.8483 118.082 84.5639 116.635 85.1744 115.142C86.1076 112.696 86.3335 110.231 84.0055 108.934C81.1273 107.313 77.6402 109.73 78.5636 113.845C79.133 116.21 80.2615 118.403 81.8542 120.24L80.8719 120.908L77.0508 123.413L76.2945 123.904L74.1629 125.328L73.2395 125.947C72.2572 126.625 71.2749 127.313 70.2926 128.02C71.0819 126.606 71.7712 125.139 72.3555 123.629C73.3377 121.193 73.5146 118.718 71.1865 117.421C68.3084 115.8 64.8311 118.217 65.7544 122.332C66.3314 124.728 67.4846 126.947 69.1139 128.796C67.444 130.024 65.7937 131.281 64.2024 132.597C63.0335 133.58 61.8842 134.562 60.7546 135.623C61.2467 134.712 61.6862 133.774 62.0708 132.814C62.9942 130.368 63.2299 127.902 60.8921 126.605C58.014 124.985 54.5366 127.401 55.46 131.517C56.0082 133.784 57.0702 135.895 58.564 137.686C55.3826 140.847 52.5171 144.311 50.0082 148.029C50.2931 146.957 50.5096 145.868 50.6566 144.768C50.9709 142.175 50.5976 139.739 48.0142 139.031C44.8315 138.157 42.0418 141.34 43.9377 145.132C45.0282 147.219 46.5885 149.025 48.4955 150.406C46.0211 154.448 43.9546 158.726 42.3267 163.176C42.2842 162.245 42.1924 161.318 42.0517 160.396C41.6096 157.813 40.5684 155.583 37.8867 155.632C34.5862 155.701 32.8083 159.561 35.706 162.646C37.2514 164.257 39.1376 165.502 41.2265 166.29C40.1094 169.726 39.2007 173.226 38.5056 176.771C38.3877 177.331 38.2993 177.891 38.1912 178.451C38.0734 178.559 37.9555 178.667 37.8474 178.785C37.7296 178.304 37.592 177.803 37.4349 177.341C36.6097 174.866 35.2345 172.813 32.5921 173.284C29.3506 173.854 28.1816 177.921 31.5214 180.543C33.2188 181.839 35.1754 182.754 37.258 183.225C37.258 183.323 37.3366 183.412 37.3857 183.51C37.0223 186.172 36.7473 188.854 36.5803 191.545C36.4526 193.51 36.3838 195.563 36.3445 197.576C33.5351 197.576 31.5509 200.661 33.486 204.001C34.3026 205.385 35.349 206.621 36.5803 207.655C36.816 211.436 37.1893 215.218 37.6903 218.971C37.293 218.603 36.8069 218.346 36.2798 218.223C35.7527 218.101 35.2029 218.118 34.6844 218.273C32.9163 218.755 32.1206 220.179 31.8358 221.927C31.2066 222.578 30.8545 223.448 30.8535 224.354C29.5372 222.389 28.2897 220.424 27.0815 218.352C28.9258 216.938 30.4548 215.155 31.5706 213.116C33.6825 209.187 31.2955 205.739 28.2209 206.574C25.7063 207.262 25.1562 209.816 25.274 212.556C25.3133 213.596 25.4117 214.632 25.5687 215.66L24.2721 213.381C23.1916 211.417 22.3075 209.452 21.2466 207.488C20.9912 207.006 20.7653 206.505 20.559 206.014C22.6285 204.972 24.4584 203.51 25.9322 201.722C28.7514 198.244 27.052 194.423 23.8694 194.669C21.2761 194.875 20.2447 197.282 19.8125 199.993C19.644 201.175 19.5391 202.365 19.4982 203.558L18.5748 201.427C16.6082 196.591 14.9898 191.621 13.7321 186.555C16.0745 185.725 18.2021 184.383 19.9598 182.626C23.113 179.433 21.8065 175.475 18.6141 175.396C16.0208 175.337 14.7537 177.626 14.0464 180.308C13.6998 181.731 13.4406 183.174 13.2704 184.63C12.5828 181.722 11.9934 178.775 11.5023 175.789C11.1683 173.962 10.9522 172.105 10.7263 170.259C13.244 169.76 15.6154 168.695 17.6613 167.145C21.1975 164.394 20.4215 160.269 17.2585 159.807C14.6947 159.404 13.1427 161.516 12.1015 164.06C11.4919 165.665 10.9801 167.305 10.5691 168.972C10.3726 166.83 10.1467 164.679 10.0485 162.528C9.7538 158.086 9.7538 153.63 10.0485 149.188C9.60006 153.626 9.44583 158.089 9.58679 162.548C9.58679 164.601 9.76361 166.644 9.89131 168.697C9.33014 167.301 8.67373 165.946 7.92672 164.64C6.5908 162.39 4.80302 160.711 2.32763 161.693C-0.727305 162.95 -0.992524 167.174 2.83843 169.021C5.08534 170.053 7.55007 170.522 10.019 170.386C10.1958 172.223 10.353 174.05 10.628 175.868C11.0111 178.814 11.5023 181.643 12.0818 184.502C11.4532 183.407 10.7543 182.354 9.98954 181.349C8.36875 179.296 6.38451 177.842 4.09576 179.168C1.23728 180.809 1.51233 185.062 5.54956 186.368C7.83407 187.078 10.2537 187.24 12.6123 186.84C13.733 191.962 15.2067 197 17.0228 201.918L17.6023 203.391C17.0826 202.703 16.5217 202.047 15.9226 201.427C14.1054 199.541 11.9934 198.293 9.8029 199.855C7.12123 201.82 7.83831 205.945 11.964 206.869C14.2409 207.33 16.5931 207.263 18.84 206.672C19.0463 207.173 19.2526 207.655 19.4982 208.165C20.4805 210.189 21.3547 212.262 22.3861 214.246L23.2407 215.965C22.7299 215.523 22.1995 215.1 21.6494 214.708C19.508 213.205 17.1898 212.379 15.343 214.315C13.0641 216.702 14.5376 220.67 18.7811 220.798C20.9903 220.849 23.1837 220.413 25.2053 219.521C26.4233 221.721 27.6708 223.892 29.0264 226.024C29.5274 226.839 30.0087 227.644 30.5784 228.45C29.8078 227.745 28.9942 227.089 28.1423 226.485C26.0009 224.982 23.6827 224.157 21.8262 226.092C19.5571 228.479 21.0305 232.448 25.274 232.575C27.6994 232.605 30.0969 232.056 32.268 230.974C32.9752 231.957 33.7021 232.939 34.4487 233.921C32.8672 235.758 33.3878 238.833 36.5999 240.237C38.16 240.888 39.8227 241.257 41.5114 241.328C41.7078 241.485 41.9043 241.642 42.1204 241.789L42.2186 241.868C44.2487 249.451 46.6553 256.923 49.4385 264.284C50.6173 267.417 51.8844 270.522 53.1909 273.606H41.4033V320.088H77.4241V273.567H58.2497C56.6093 269.981 55.0278 266.357 53.5543 262.693C51.1477 256.681 48.967 250.571 47.0712 244.373C47.3938 244.468 47.7218 244.543 48.0535 244.599C48.4898 244.687 48.9372 244.707 49.3796 244.658L48.8688 241.426H48.525C48.3201 241.397 48.1168 241.358 47.916 241.308C47.4622 241.178 47.0189 241.014 46.5899 240.817L46.0791 240.581C47.9748 239.921 49.7354 238.922 51.2754 237.634C54.684 234.687 53.7213 230.66 50.5387 230.316C47.9651 230.031 46.5113 232.212 45.6272 234.795C45.362 235.532 45.1459 236.298 44.9592 237.045C44.7726 236.357 44.586 235.67 44.4092 234.982C43.8885 232.949 43.4269 230.896 42.9554 228.843C45.0127 228.201 46.9248 227.163 48.5839 225.788C51.9925 222.841 51.02 218.823 47.8472 218.48C45.2638 218.195 43.8198 220.375 42.9357 222.959C42.6705 223.705 42.4446 224.481 42.2481 225.248C41.9534 223.754 41.6686 222.252 41.4033 220.749C41.2167 219.639 41.0399 218.519 40.8729 217.399C40.814 215.808 40.7845 214.216 40.8041 212.615C40.8041 211.741 40.8041 210.867 40.8827 209.993C42.8086 210.601 44.8284 210.857 46.8452 210.749C51.3245 210.454 52.9748 206.623 50.6369 204.452C48.7313 202.674 46.2657 203.558 43.977 205.071C42.9506 205.769 41.9666 206.526 41.0301 207.34C41.3059 203.602 41.8741 199.89 42.7294 196.24C43.2307 194.09 43.8572 191.972 44.6056 189.895C46.6595 190.603 48.8311 190.906 51.0004 190.789C55.4796 190.504 57.1299 186.673 54.792 184.492C52.8962 182.724 50.4208 183.598 48.1321 185.121C47.3331 185.67 46.5657 186.263 45.8335 186.899C46.6972 184.867 47.7016 182.897 48.8393 181.005C51.0955 177.187 53.9248 173.738 57.2281 170.779C58.9399 172.358 60.9647 173.56 63.171 174.306C67.4342 175.701 70.3909 172.754 69.0648 169.866C67.9548 167.518 65.3419 167.41 62.6504 167.97C61.6132 168.191 60.5898 168.474 59.5856 168.815L59.6544 168.756C63.3198 165.896 67.2698 163.42 71.4419 161.369C72.9139 163.296 74.7833 164.884 76.9231 166.025C80.9112 168.078 84.3002 165.642 83.4161 162.577C82.699 160.082 80.1352 159.561 77.3946 159.63C76.3182 159.689 75.2459 159.807 74.1825 159.984C78.6127 157.892 83.1312 155.917 87.4926 153.609H87.5908C89.5434 155.294 91.86 156.505 94.3589 157.145C98.7104 158.226 101.441 155.063 99.8695 152.234C98.5926 149.974 95.9404 150.072 93.3373 150.819C92.6006 151.035 91.8638 151.3 91.1468 151.575C94.0594 149.883 96.8824 148.04 99.6043 146.055L99.8302 146.3V146.173C101.802 147.874 104.138 149.1 106.657 149.758C110.999 150.829 113.74 147.676 112.168 144.847C110.93 142.715 108.317 142.804 105.675 143.56ZM36.9928 232.566C36.0989 231.524 35.2542 230.434 34.429 229.334C34.6255 229.157 34.8416 228.961 35.0577 228.745C36.2852 229.127 37.5556 229.355 38.8395 229.422V229.629L39.4387 229.501C39.7531 231.053 40.0772 232.595 40.421 234.137C40.0219 233.615 39.5005 233.198 38.9028 232.924C38.3051 232.65 37.6492 232.527 36.9928 232.566ZM40.1951 195.582C39.8906 196.741 39.6352 197.9 39.3896 199.069L39.2423 198.863C39.2423 196.466 39.2783 194.076 39.3503 191.692C39.4191 190.022 39.537 188.362 39.6843 186.692C40.4925 187.516 41.381 188.256 42.3365 188.903C41.5051 191.089 40.7935 193.319 40.2049 195.582H40.1951ZM44.2225 184.581C44.2815 184.148 44.3306 183.706 44.3502 183.274V182.616C44.7038 182.508 45.0673 182.38 45.4209 182.233C45.028 183.009 44.6154 183.795 44.2323 184.581H44.2225ZM49.3403 176.28C49.1706 175.892 48.9237 175.541 48.6147 175.251C48.3058 174.961 47.941 174.736 47.5427 174.591C45.1164 173.608 43.1518 175.376 41.59 177.636L41.5114 177.744H41.3542C41.1895 177.707 41.0219 177.684 40.8533 177.675C40.8416 177.537 40.8653 177.398 40.922 177.272C41.5439 173.724 42.3837 170.217 43.4367 166.772C45.6917 167.058 47.9813 166.881 50.1654 166.251C51.5148 165.896 52.6885 165.062 53.4659 163.903C53.8983 165.884 54.7233 167.758 55.8922 169.414C53.4756 171.469 51.2828 173.774 49.3501 176.29L49.3403 176.28Z" fill="#064E3B"/>
<path opacity="0.3" d="M105.675 143.56C103.801 144.171 101.962 144.883 100.164 145.691C101.147 144.974 102.129 144.228 103.111 143.471C107.484 139.954 111.647 136.182 115.576 132.175C110.965 136.655 106.041 140.8 100.842 144.581C101.559 143.336 102.189 142.043 102.728 140.711C103.71 138.265 103.887 135.8 101.559 134.493C98.681 132.882 95.2036 135.289 96.1172 139.405C96.6748 141.703 97.7612 143.839 99.29 145.642C95.8969 147.991 92.353 150.114 88.6812 151.998L88.3374 152.175C89.1136 150.83 89.7995 149.435 90.3904 148C91.3138 145.564 91.5495 143.088 89.2116 141.792C86.3335 140.171 82.8562 142.587 83.7795 146.703C84.3278 148.97 85.3898 151.081 86.8836 152.872C82.4731 155.043 77.9152 156.89 73.377 158.894L72.7189 159.188C73.6046 158.237 74.4282 157.23 75.1845 156.173C76.6579 154.012 77.4536 151.674 75.489 149.856C73.0725 147.617 69.1139 149.149 69.0549 153.393C69.0575 155.735 69.6022 158.044 70.6463 160.141C66.3995 162.125 62.3647 164.534 58.6033 167.331L58.4854 167.43C58.9942 166.623 59.4598 165.79 59.8803 164.935C60.9903 162.567 61.4029 160.131 59.1632 158.648C58.7081 158.335 58.188 158.129 57.642 158.046C57.0959 157.963 56.5381 158.005 56.0106 158.169C55.483 158.332 54.9994 158.613 54.5961 158.991C54.1928 159.368 53.8803 159.832 53.682 160.347C53.3868 159.887 52.9861 159.503 52.5131 159.227C50.2636 157.931 48.0535 159.336 46.1576 161.32C45.6665 161.84 45.1754 162.4 44.753 162.95C46.2154 158.891 48.0537 154.978 50.244 151.261C52.3298 152.172 54.5788 152.65 56.8548 152.666C61.3341 152.666 63.2201 148.933 61.0198 146.615C59.232 144.739 56.7173 145.456 54.3402 146.831C53.5574 147.287 52.7999 147.786 52.0711 148.324C54.3482 144.894 56.9324 141.679 59.7919 138.717C61.6656 140.233 63.843 141.328 66.1768 141.929C70.5284 143 73.2592 139.847 71.6875 137.067C70.4105 134.808 67.7583 134.896 65.1552 135.652C63.9093 136.025 62.6887 136.478 61.5011 137.008C62.6897 135.849 63.9175 134.739 65.1651 133.639C66.7957 132.244 68.4852 130.898 70.2042 129.582C72.0525 131.057 74.1915 132.125 76.4811 132.715C80.8327 133.786 83.5634 130.633 81.9918 127.853C80.7148 125.594 78.0626 125.682 75.4497 126.438C74.8407 126.615 74.2218 126.831 73.6226 127.057C75.8917 125.437 78.1903 123.855 80.4987 122.283L82.6303 120.82C84.551 122.429 86.8059 123.59 89.2313 124.218C93.5828 125.289 96.3235 122.136 94.7518 119.356C93.465 117.097 90.8226 117.185 88.2097 117.942C87.1816 118.256 86.1698 118.619 85.1744 119.032L86.4907 118.05C87.2962 117.47 88.1016 116.881 88.8875 116.262C89.8698 115.525 90.803 114.71 91.7558 113.924C92.3059 113.492 92.8265 113.03 93.3471 112.559C95.2756 114.185 97.545 115.356 99.9874 115.987C104.339 117.058 107.07 113.904 105.498 111.124C104.221 108.865 101.569 108.954 98.9658 109.71C97.506 110.161 96.0757 110.702 94.683 111.331C96.461 109.681 98.18 107.961 99.8106 106.174C99.9187 106.046 100.017 105.918 100.135 105.8C100.832 105.024 101.52 104.239 102.188 103.423C102.856 102.608 103.72 101.537 104.447 100.555C107.432 96.6369 109.889 92.3436 111.755 87.7852C109.8 92.2894 107.26 96.5168 104.201 100.359C101.177 104.216 97.7992 107.784 94.1133 111.016L93.7106 111.36C94.5479 109.934 95.2895 108.454 95.9305 106.93C96.8637 104.494 97.0896 102.019 94.7518 100.722C91.8835 99.1012 88.3963 101.518 89.3197 105.633C89.9128 108.071 91.0969 110.324 92.7675 112.195L91.9031 112.942L90.9208 113.787C90.3511 114.248 89.7617 114.69 89.1723 115.132C88.858 115.368 88.5535 115.614 88.19 115.849C87.3551 116.468 86.5103 117.067 85.6557 117.657L84.4279 118.492L83.033 119.474C83.8483 118.082 84.5639 116.635 85.1744 115.142C86.1076 112.696 86.3335 110.231 84.0055 108.934C81.1273 107.313 77.6402 109.73 78.5636 113.845C79.133 116.21 80.2615 118.403 81.8542 120.24L80.8719 120.908L77.0508 123.413L76.2945 123.904L74.1629 125.328L73.2395 125.947C72.2572 126.625 71.2749 127.313 70.2926 128.02C71.0819 126.606 71.7712 125.139 72.3555 123.629C73.3377 121.193 73.5146 118.718 71.1865 117.421C68.3084 115.8 64.8311 118.217 65.7544 122.332C66.3314 124.728 67.4846 126.947 69.1139 128.796C67.444 130.024 65.7937 131.281 64.2024 132.597C63.0335 133.58 61.8842 134.562 60.7546 135.623C61.2467 134.712 61.6862 133.774 62.0708 132.814C62.9942 130.368 63.2299 127.902 60.8921 126.605C58.014 124.985 54.5366 127.401 55.46 131.517C56.0082 133.784 57.0702 135.895 58.564 137.686C55.3826 140.847 52.5171 144.311 50.0082 148.029C50.2931 146.957 50.5096 145.868 50.6566 144.768C50.9709 142.175 50.5976 139.739 48.0142 139.031C44.8315 138.157 42.0418 141.34 43.9377 145.132C45.0282 147.219 46.5885 149.025 48.4955 150.406C46.0211 154.448 43.9546 158.726 42.3267 163.176C42.2842 162.245 42.1924 161.318 42.0517 160.396C41.6096 157.813 40.5684 155.583 37.8867 155.632C34.5862 155.701 32.8083 159.561 35.706 162.646C37.2514 164.257 39.1376 165.502 41.2265 166.29C40.1094 169.726 39.2007 173.226 38.5056 176.771C38.3877 177.331 38.2993 177.891 38.1912 178.451C38.0734 178.559 37.9555 178.667 37.8474 178.785C37.7296 178.304 37.592 177.803 37.4349 177.341C36.6097 174.866 35.2345 172.813 32.5921 173.284C29.3506 173.854 28.1816 177.921 31.5214 180.543C33.2188 181.839 35.1754 182.754 37.258 183.225C37.258 183.323 37.3366 183.412 37.3857 183.51C37.0223 186.172 36.7473 188.854 36.5803 191.545C36.4526 193.51 36.3838 195.563 36.3445 197.576C33.5351 197.576 31.5509 200.661 33.486 204.001C34.3026 205.385 35.349 206.621 36.5803 207.655C36.816 211.436 37.1893 215.218 37.6903 218.971C37.293 218.603 36.8069 218.346 36.2798 218.223C35.7527 218.101 35.2029 218.118 34.6844 218.273C32.9163 218.755 32.1206 220.179 31.8358 221.927C31.2066 222.578 30.8545 223.448 30.8535 224.354C29.5372 222.389 28.2897 220.424 27.0815 218.352C28.9258 216.938 30.4548 215.155 31.5706 213.116C33.6825 209.187 31.2955 205.739 28.2209 206.574C25.7063 207.262 25.1562 209.816 25.274 212.556C25.3133 213.596 25.4117 214.632 25.5687 215.66L24.2721 213.381C23.1916 211.417 22.3075 209.452 21.2466 207.488C20.9912 207.006 20.7653 206.505 20.559 206.014C22.6285 204.972 24.4584 203.51 25.9322 201.722C28.7514 198.244 27.052 194.423 23.8694 194.669C21.2761 194.875 20.2447 197.282 19.8125 199.993C19.644 201.175 19.5391 202.365 19.4982 203.558L18.5748 201.427C16.6082 196.591 14.9898 191.621 13.7321 186.555C16.0745 185.725 18.2021 184.383 19.9598 182.626C23.113 179.433 21.8065 175.475 18.6141 175.396C16.0208 175.337 14.7537 177.626 14.0464 180.308C13.6998 181.731 13.4406 183.174 13.2704 184.63C12.5828 181.722 11.9934 178.775 11.5023 175.789C11.1683 173.962 10.9522 172.105 10.7263 170.259C13.244 169.76 15.6154 168.695 17.6613 167.145C21.1975 164.394 20.4215 160.269 17.2585 159.807C14.6947 159.404 13.1427 161.516 12.1015 164.06C11.4919 165.665 10.9801 167.305 10.5691 168.972C10.3726 166.83 10.1467 164.679 10.0485 162.528C9.7538 158.086 9.7538 153.63 10.0485 149.188C9.60006 153.626 9.44583 158.089 9.58679 162.548C9.58679 164.601 9.76361 166.644 9.89131 168.697C9.33014 167.301 8.67373 165.946 7.92672 164.64C6.5908 162.39 4.80302 160.711 2.32763 161.693C-0.727305 162.95 -0.992524 167.174 2.83843 169.021C5.08534 170.053 7.55007 170.522 10.019 170.386C10.1958 172.223 10.353 174.05 10.628 175.868C11.0111 178.814 11.5023 181.643 12.0818 184.502C11.4532 183.407 10.7543 182.354 9.98954 181.349C8.36875 179.296 6.38451 177.842 4.09576 179.168C1.23728 180.809 1.51233 185.062 5.54956 186.368C7.83407 187.078 10.2537 187.24 12.6123 186.84C13.733 191.962 15.2067 197 17.0228 201.918L17.6023 203.391C17.0826 202.703 16.5217 202.047 15.9226 201.427C14.1054 199.541 11.9934 198.293 9.8029 199.855C7.12123 201.82 7.83831 205.945 11.964 206.869C14.2409 207.33 16.5931 207.263 18.84 206.672C19.0463 207.173 19.2526 207.655 19.4982 208.165C20.4805 210.189 21.3547 212.262 22.3861 214.246L23.2407 215.965C22.7299 215.523 22.1995 215.1 21.6494 214.708C19.508 213.205 17.1898 212.379 15.343 214.315C13.0641 216.702 14.5376 220.67 18.7811 220.798C20.9903 220.849 23.1837 220.413 25.2053 219.521C26.4233 221.721 27.6708 223.892 29.0264 226.024C29.5274 226.839 30.0087 227.644 30.5784 228.45C29.8078 227.745 28.9942 227.089 28.1423 226.485C26.0009 224.982 23.6827 224.157 21.8262 226.092C19.5571 228.479 21.0305 232.448 25.274 232.575C27.6994 232.605 30.0969 232.056 32.268 230.974C32.9752 231.957 33.7021 232.939 34.4487 233.921C32.8672 235.758 33.3878 238.833 36.5999 240.237C38.16 240.888 39.8227 241.257 41.5114 241.328C41.7078 241.485 41.9043 241.642 42.1204 241.789L42.2186 241.868C44.2487 249.451 46.6553 256.923 49.4385 264.284C50.6173 267.417 51.8844 270.522 53.1909 273.606H41.4033V320.088H77.4241V273.567H58.2497C56.6093 269.981 55.0278 266.357 53.5543 262.693C51.1477 256.681 48.967 250.571 47.0712 244.373C47.3938 244.468 47.7218 244.543 48.0535 244.599C48.4898 244.687 48.9372 244.707 49.3796 244.658L48.8688 241.426H48.525C48.3201 241.397 48.1168 241.358 47.916 241.308C47.4622 241.178 47.0189 241.014 46.5899 240.817L46.0791 240.581C47.9748 239.921 49.7354 238.922 51.2754 237.634C54.684 234.687 53.7213 230.66 50.5387 230.316C47.9651 230.031 46.5113 232.212 45.6272 234.795C45.362 235.532 45.1459 236.298 44.9592 237.045C44.7726 236.357 44.586 235.67 44.4092 234.982C43.8885 232.949 43.4269 230.896 42.9554 228.843C45.0127 228.201 46.9248 227.163 48.5839 225.788C51.9925 222.841 51.02 218.823 47.8472 218.48C45.2638 218.195 43.8198 220.375 42.9357 222.959C42.6705 223.705 42.4446 224.481 42.2481 225.248C41.9534 223.754 41.6686 222.252 41.4033 220.749C41.2167 219.639 41.0399 218.519 40.8729 217.399C40.814 215.808 40.7845 214.216 40.8041 212.615C40.8041 211.741 40.8041 210.867 40.8827 209.993C42.8086 210.601 44.8284 210.857 46.8452 210.749C51.3245 210.454 52.9748 206.623 50.6369 204.452C48.7313 202.674 46.2657 203.558 43.977 205.071C42.9506 205.769 41.9666 206.526 41.0301 207.34C41.3059 203.602 41.8741 199.89 42.7294 196.24C43.2307 194.09 43.8572 191.972 44.6056 189.895C46.6595 190.603 48.8311 190.906 51.0004 190.789C55.4796 190.504 57.1299 186.673 54.792 184.492C52.8962 182.724 50.4208 183.598 48.1321 185.121C47.3331 185.67 46.5657 186.263 45.8335 186.899C46.6972 184.867 47.7016 182.897 48.8393 181.005C51.0955 177.187 53.9248 173.738 57.2281 170.779C58.9399 172.358 60.9647 173.56 63.171 174.306C67.4342 175.701 70.3909 172.754 69.0648 169.866C67.9548 167.518 65.3419 167.41 62.6504 167.97C61.6132 168.191 60.5898 168.474 59.5856 168.815L59.6544 168.756C63.3198 165.896 67.2698 163.42 71.4419 161.369C72.9139 163.296 74.7833 164.884 76.9231 166.025C80.9112 168.078 84.3002 165.642 83.4161 162.577C82.699 160.082 80.1352 159.561 77.3946 159.63C76.3182 159.689 75.2459 159.807 74.1825 159.984C78.6127 157.892 83.1312 155.917 87.4926 153.609H87.5908C89.5434 155.294 91.86 156.505 94.3589 157.145C98.7104 158.226 101.441 155.063 99.8695 152.234C98.5926 149.974 95.9404 150.072 93.3373 150.819C92.6006 151.035 91.8638 151.3 91.1468 151.575C94.0594 149.883 96.8824 148.04 99.6043 146.055L99.8302 146.3V146.173C101.802 147.874 104.138 149.1 106.657 149.758C110.999 150.829 113.74 147.676 112.168 144.847C110.93 142.715 108.317 142.804 105.675 143.56ZM36.9928 232.566C36.0989 231.524 35.2542 230.434 34.429 229.334C34.6255 229.157 34.8416 228.961 35.0577 228.745C36.2852 229.127 37.5556 229.355 38.8395 229.422V229.629L39.4387 229.501C39.7531 231.053 40.0772 232.595 40.421 234.137C40.0219 233.615 39.5005 233.198 38.9028 232.924C38.3051 232.65 37.6492 232.527 36.9928 232.566ZM40.1951 195.582C39.8906 196.741 39.6352 197.9 39.3896 199.069L39.2423 198.863C39.2423 196.466 39.2783 194.076 39.3503 191.692C39.4191 190.022 39.537 188.362 39.6843 186.692C40.4925 187.516 41.381 188.256 42.3365 188.903C41.5051 191.089 40.7935 193.319 40.2049 195.582H40.1951ZM44.2225 184.581C44.2815 184.148 44.3306 183.706 44.3502 183.274V182.616C44.7038 182.508 45.0673 182.38 45.4209 182.233C45.028 183.009 44.6154 183.795 44.2323 184.581H44.2225ZM49.3403 176.28C49.1706 175.892 48.9237 175.541 48.6147 175.251C48.3058 174.961 47.941 174.736 47.5427 174.591C45.1164 173.608 43.1518 175.376 41.59 177.636L41.5114 177.744H41.3542C41.1895 177.707 41.0219 177.684 40.8533 177.675C40.8416 177.537 40.8653 177.398 40.922 177.272C41.5439 173.724 42.3837 170.217 43.4367 166.772C45.6917 167.058 47.9813 166.881 50.1654 166.251C51.5148 165.896 52.6885 165.062 53.4659 163.903C53.8983 165.884 54.7233 167.758 55.8922 169.414C53.4756 171.469 51.2828 173.774 49.3501 176.29L49.3403 176.28Z" fill="#F5FFFE"/>
<path d="M347.879 277.231C347.879 277.231 343.125 266.612 341.985 265.522C340.846 264.432 331.74 261.131 329.216 252.752C326.691 244.373 321.897 222.006 333.98 223.47C346.062 224.933 343.125 248.361 347.516 247.624C351.907 246.888 343.862 209.57 351.543 204.403C359.225 199.237 371.67 204.04 370.207 223.804C368.743 243.568 365.816 254.903 368.38 253.813C370.943 252.723 378.262 248.685 378.262 257.104C378.262 265.522 371.307 271.376 367.28 271.74C363.252 272.103 361.386 272.477 361.386 272.477V277.958L347.879 277.231Z" fill="#303A3F" stroke="#303A3F" stroke-linecap="round" stroke-linejoin="round"/>
<path d="M344.009 256.651C341.249 254.038 338.715 251.503 337.546 249.175C335.228 244.529 333.479 231.494 333.479 231.494" stroke="#F5FFFE" stroke-width="0.5" stroke-linecap="round" stroke-linejoin="round"/>
<path d="M329.363 237.859C331.19 245.472 331.446 251.209 336.966 257.888C339.913 261.503 347.713 264.568 348.587 267.76C349.369 271.602 349.956 275.48 350.345 279.381L354.706 279.676C354.706 279.676 355.591 272.112 353.096 266.719" stroke="#F5FFFE" stroke-width="0.5" stroke-linecap="round" stroke-linejoin="round"/>
<path d="M330.581 225.65C330.581 225.65 327.32 228.155 328.479 234.324" stroke="#F5FFFE" stroke-width="0.5" stroke-linecap="round" stroke-linejoin="round"/>
<path d="M351.474 248.115L349.746 250.915" stroke="#F5FFFE" stroke-width="0.5" stroke-linecap="round" stroke-linejoin="round"/>
<path d="M352.074 247.143L351.475 248.115" stroke="#F5FFFE" stroke-width="0.5" stroke-linecap="round" stroke-linejoin="round"/>
<path d="M357.879 205.316C357.879 205.316 351.2 205.031 351.2 211.416C351.2 216.809 352.85 235.217 352.496 243.636" stroke="#F5FFFE" stroke-width="0.5" stroke-linecap="round" stroke-linejoin="round"/>
<path d="M363.115 257.625C362.958 259.815 362.859 261.367 362.859 261.956C362.859 265.149 370.983 252.949 374.765 252.664C374.765 252.664 378.537 252.369 377.083 259.344C376.554 261.932 375.329 264.328 373.539 266.272C371.749 268.216 369.463 269.634 366.926 270.375C363.724 271.249 361.111 269.795 360.531 271.249C360.069 272.958 359.776 274.708 359.657 276.475" stroke="#F5FFFE" stroke-width="0.5" stroke-linecap="round" stroke-linejoin="round"/>
<path d="M365.01 211.377C365.515 213.483 365.753 215.645 365.718 217.811C365.718 224.608 364.421 240.64 363.557 251.464" stroke="#F5FFFE" stroke-width="0.5" stroke-linecap="round" stroke-linejoin="round"/>
<path d="M361.651 205.906C362.524 206.406 363.231 207.151 363.685 208.048" stroke="#F5FFFE" stroke-width="0.5" stroke-linecap="round" stroke-linejoin="round"/>
<path d="M356.927 255.855L356.72 259.922" stroke="#F5FFFE" stroke-width="0.5" stroke-linecap="round" stroke-linejoin="round"/>
<path d="M358.459 209.383C358.459 209.383 356.72 209.962 357.3 216.062C357.781 221.102 357.3 243.979 357.074 251.789" stroke="#F5FFFE" stroke-width="0.5" stroke-linecap="round" stroke-linejoin="round"/>
<path d="M376.759 254.402C374.268 259.064 370.277 262.75 365.433 264.864C357.575 268.056 357.3 266.602 357.3 269.775C357.3 272.948 357.005 278.783 357.005 278.783" stroke="#F5FFFE" stroke-width="0.5" stroke-linecap="round" stroke-linejoin="round"/>
<path d="M365.865 320.058H340.483L335.051 283.291H371.297L365.865 320.058Z" fill="#064E3B" stroke="#303A3F" stroke-linecap="round" stroke-linejoin="round"/>
<path d="M374.411 277.496H331.937V287.339H374.411V277.496Z" fill="#064E3B" stroke="#303A3F" stroke-linecap="round" stroke-linejoin="round"/>
<path d="M226.497 295.306V275.346H167.716V295.306C167.707 301.808 165.506 308.116 161.469 313.213L158.895 316.455H235.318L232.744 313.213C228.707 308.116 226.506 301.808 226.497 295.306Z" fill="#F5FFFE" stroke="#303A3F" stroke-linecap="round" stroke-linejoin="round"/>
<path d="M164.101 309.284H230.111C227.742 305.006 226.498 300.196 226.496 295.306V275.346H167.716V295.306C167.715 300.196 166.471 305.006 164.101 309.284Z" fill="#064E3B"/>
<path d="M306.898 104.445H87.3055C82.705 104.445 78.9756 108.175 78.9756 112.775V273.312C78.9756 277.912 82.705 281.642 87.3055 281.642H306.898C311.498 281.642 315.227 277.912 315.227 273.312V112.775C315.227 108.175 311.498 104.445 306.898 104.445Z" fill="#303A3F" stroke="#303A3F" stroke-linecap="round" stroke-linejoin="round"/>
<path d="M78.9756 254.098H315.237V273.302C315.237 275.511 314.36 277.629 312.797 279.192C311.235 280.754 309.117 281.631 306.907 281.631H87.3153C85.1061 281.631 82.9873 280.754 81.4252 279.192C79.863 277.629 78.9854 275.511 78.9854 273.302V254.098H78.9756Z" fill="#F5FFFE" stroke="#303A3F" stroke-linecap="round" stroke-linejoin="round"/>
<path d="M303.351 115.477H90.8613V240.66H303.351V115.477Z" fill="#F5FFFE" stroke="#303A3F" stroke-linecap="round" stroke-linejoin="round"/>
<path d="M201.468 267.869C201.468 267.007 201.212 266.163 200.733 265.446C200.254 264.729 199.572 264.17 198.776 263.84C197.979 263.51 197.102 263.423 196.256 263.592C195.41 263.76 194.632 264.175 194.023 264.785C193.413 265.395 192.997 266.172 192.829 267.018C192.661 267.864 192.747 268.741 193.077 269.538C193.407 270.335 193.966 271.016 194.683 271.496C195.401 271.975 196.244 272.231 197.107 272.231C198.263 272.231 199.373 271.771 200.19 270.953C201.008 270.135 201.468 269.026 201.468 267.869Z" fill="#303A3F" stroke="#303A3F" stroke-linecap="round" stroke-linejoin="round"/>
<path d="M235.327 316.494H158.895V320.06H235.327V316.494Z" fill="#F5FFFE" stroke="#303A3F" stroke-linecap="round" stroke-linejoin="round"/>
<path d="M301.357 124.297H92.5312V135.269H301.357V124.297Z" fill="#F5FFFE" stroke="#303A3F" stroke-linecap="round" stroke-linejoin="round"/>
<path d="M126.99 135.27L124.485 128.492H92.5312V135.27V144.258V235.327H301.357V135.27H126.99Z" fill="#064E3B" stroke="#303A3F" stroke-linecap="round" stroke-linejoin="round"/>
<path d="M148.738 184.885H246.653" stroke="#303A3F" stroke-width="2" stroke-linecap="round" stroke-linejoin="round"/>
<path d="M148.738 194.512H246.653" stroke="#303A3F" stroke-width="2" stroke-linecap="round" stroke-linejoin="round"/>
<path d="M148.738 204.139H246.653" stroke="#303A3F" stroke-width="2" stroke-linecap="round" stroke-linejoin="round"/>
<path d="M148.738 213.775H246.653" stroke="#303A3F" stroke-width="2" stroke-linecap="round" stroke-linejoin="round"/>
<path d="M241.477 159.218H152.746C151.833 159.219 150.928 159.041 150.084 158.692C149.24 158.344 148.472 157.833 147.826 157.188C147.179 156.543 146.666 155.777 146.315 154.934C145.964 154.09 145.783 153.186 145.782 152.273C145.78 151.36 145.959 150.455 146.307 149.611C146.656 148.767 147.167 147.999 147.812 147.353C148.457 146.706 149.223 146.192 150.066 145.842C150.909 145.491 151.813 145.31 152.727 145.309H241.477C242.392 145.307 243.298 145.487 244.144 145.836C244.989 146.186 245.757 146.699 246.404 147.346C247.051 147.993 247.564 148.761 247.914 149.606C248.263 150.452 248.443 151.358 248.441 152.273C248.44 153.186 248.259 154.09 247.908 154.934C247.558 155.777 247.044 156.543 246.398 157.188C245.751 157.833 244.983 158.344 244.139 158.692C243.295 159.041 242.39 159.219 241.477 159.218Z" fill="#F5FFFE" stroke="#303A3F" stroke-linecap="round" stroke-linejoin="round"/>
<path d="M241.477 159.218H229.355V145.289H241.477C242.391 145.288 243.298 145.467 244.143 145.817C244.989 146.166 245.757 146.679 246.404 147.326C247.051 147.973 247.564 148.741 247.913 149.587C248.263 150.432 248.442 151.339 248.441 152.254C248.442 153.168 248.263 154.075 247.913 154.92C247.564 155.766 247.051 156.534 246.404 157.181C245.757 157.828 244.989 158.341 244.143 158.691C243.298 159.04 242.391 159.219 241.477 159.218Z" fill="#303A3F" stroke="#303A3F" stroke-linecap="round" stroke-linejoin="round"/>
<path d="M238.775 147.057C238.198 146.516 237.474 146.159 236.693 146.03C235.913 145.901 235.112 146.007 234.392 146.333C233.671 146.659 233.064 147.192 232.646 147.864C232.229 148.536 232.02 149.316 232.046 150.107C232.072 150.897 232.332 151.662 232.793 152.305C233.254 152.947 233.895 153.439 234.636 153.717C235.376 153.995 236.182 154.048 236.952 153.867C237.722 153.687 238.422 153.283 238.962 152.705C239.322 152.324 239.603 151.875 239.789 151.385C239.975 150.895 240.062 150.373 240.046 149.849C240.029 149.325 239.909 148.81 239.693 148.332C239.477 147.855 239.168 147.425 238.785 147.067L238.775 147.057ZM238.382 152.165C237.949 152.625 237.388 152.947 236.772 153.089C236.155 153.232 235.511 153.188 234.919 152.964C234.327 152.741 233.815 152.347 233.447 151.832C233.079 151.317 232.871 150.705 232.851 150.073C232.83 149.441 232.998 148.817 233.331 148.279C233.665 147.742 234.151 147.315 234.727 147.054C235.303 146.792 235.943 146.707 236.568 146.809C237.192 146.911 237.772 147.195 238.235 147.627C238.856 148.209 239.22 149.014 239.248 149.865C239.276 150.716 238.964 151.543 238.382 152.165Z" fill="#F5FFFE"/>
<path d="M241.781 154.16C241.693 154.074 241.583 154.016 241.462 153.992C241.342 153.967 241.218 153.978 241.103 154.023L239.659 152.667C239.586 152.595 239.487 152.555 239.384 152.555C239.282 152.555 239.183 152.595 239.109 152.667L238.982 152.805C238.911 152.881 238.872 152.981 238.872 153.084C238.872 153.188 238.911 153.288 238.982 153.364L240.406 154.7C240.364 154.822 240.357 154.953 240.387 155.078C240.416 155.203 240.481 155.318 240.573 155.408L243.029 157.814C243.191 157.975 243.41 158.065 243.638 158.065C243.866 158.065 244.085 157.975 244.247 157.814C244.407 157.652 244.498 157.433 244.498 157.205C244.498 156.977 244.407 156.758 244.247 156.596L241.781 154.16Z" fill="#F5FFFE"/>
<path d="M267.144 201.231C267.431 201.943 267.858 202.59 268.4 203.133C268.941 203.676 269.587 204.105 270.297 204.394C271.407 204.846 272.89 204.748 274.6 205.711C278.46 207.882 288.096 205.946 295.08 206.693C302.065 207.44 311.475 199.709 311.475 199.709L339.186 201.231V173.727C339.186 173.727 310.267 174.935 304 172.519C297.733 170.102 290.749 165.053 287.615 165.289C284.482 165.525 258.696 168.423 258.696 168.423L267.134 201.231H267.144Z" fill="#F5FFFE" stroke="#303A3F" stroke-linecap="round" stroke-linejoin="round"/>
<path d="M259.973 90.3291C254.251 90.9625 248.846 93.2782 244.441 96.9835C240.035 100.689 236.828 105.617 235.223 111.146C233.619 116.674 233.69 122.554 235.427 128.042C237.165 133.53 240.49 138.38 244.984 141.978C249.477 145.576 254.937 147.76 260.672 148.255C266.407 148.75 272.161 147.534 277.204 144.759C282.248 141.984 286.356 137.776 289.008 132.667C291.66 127.558 292.737 121.777 292.104 116.055C291.686 112.255 290.523 108.575 288.681 105.225C286.84 101.875 284.356 98.9208 281.372 96.5314C278.387 94.1421 274.961 92.3644 271.29 91.3002C267.618 90.2359 263.772 89.906 259.973 90.3291ZM265.749 142.469C261.159 142.979 256.521 142.117 252.422 139.991C248.322 137.865 244.945 134.571 242.718 130.526C240.49 126.48 239.512 121.866 239.907 117.264C240.303 112.663 242.053 108.283 244.938 104.677C247.823 101.071 251.712 98.4012 256.114 97.0056C260.517 95.61 265.234 95.5511 269.669 96.8363C274.105 98.1215 278.059 100.693 281.033 104.226C284.007 107.759 285.867 112.094 286.377 116.684C286.716 119.732 286.451 122.816 285.597 125.761C284.744 128.706 283.319 131.455 281.403 133.849C279.488 136.243 277.12 138.237 274.434 139.716C271.748 141.195 268.797 142.131 265.749 142.469Z" fill="#F5FFFE" stroke="#303A3F" stroke-linecap="round" stroke-linejoin="round"/>
<path d="M259.816 88.6699C254.095 89.3032 248.689 91.619 244.284 95.3243C239.879 99.0297 236.671 103.958 235.066 109.487C233.462 115.015 233.533 120.895 235.27 126.383C237.008 131.871 240.334 136.721 244.827 140.319C249.321 143.917 254.78 146.101 260.516 146.596C266.251 147.091 272.004 145.874 277.048 143.1C282.091 140.325 286.199 136.117 288.851 131.008C291.503 125.899 292.581 120.118 291.947 114.396C291.095 106.725 287.232 99.7059 281.207 94.8818C275.182 90.0576 267.488 87.8233 259.816 88.6699ZM265.592 140.81C261.002 141.32 256.365 140.457 252.265 138.332C248.165 136.206 244.788 132.912 242.561 128.866C240.333 124.821 239.355 120.206 239.751 115.605C240.146 111.004 241.897 106.624 244.781 103.018C247.666 99.4116 251.556 96.742 255.958 95.3464C260.36 93.9508 265.077 93.8918 269.512 95.1771C273.948 96.4623 277.903 99.034 280.877 102.567C283.851 106.1 285.71 110.435 286.22 115.025C286.559 118.072 286.294 121.157 285.441 124.102C284.587 127.047 283.162 129.795 281.247 132.19C279.331 134.584 276.963 136.578 274.277 138.057C271.591 139.536 268.64 140.472 265.592 140.81Z" fill="#F5FFFE" stroke="#303A3F" stroke-linecap="round" stroke-linejoin="round"/>
<path d="M267.179 147.067L265.803 147.22C264.25 147.392 263.13 148.79 263.302 150.343L265.536 170.514C265.708 172.067 267.106 173.186 268.659 173.014L270.036 172.862C271.589 172.69 272.708 171.292 272.536 169.739L270.302 149.568C270.13 148.015 268.732 146.895 267.179 147.067Z" fill="#064E3B" stroke="#303A3F" stroke-linecap="round" stroke-linejoin="round"/>
<path d="M266.731 163.904L269.678 163.59C270.945 163.454 272.215 163.824 273.212 164.618C274.208 165.413 274.852 166.568 275.002 167.834L279.413 207.725C279.592 209.355 279.116 210.99 278.09 212.271C277.064 213.551 275.572 214.371 273.941 214.551H273.745C272.937 214.642 272.12 214.571 271.339 214.345C270.558 214.119 269.83 213.74 269.196 213.232C268.562 212.724 268.034 212.096 267.643 211.383C267.252 210.671 267.006 209.888 266.918 209.08L262.507 169.199C262.436 168.567 262.491 167.928 262.667 167.317C262.843 166.707 263.139 166.137 263.535 165.641C263.932 165.144 264.423 164.731 264.98 164.425C265.537 164.118 266.149 163.925 266.78 163.855L266.731 163.904Z" fill="#303A3F" stroke="#303A3F" stroke-linecap="round" stroke-linejoin="round"/>
<path d="M271.014 197.145C271.014 197.145 264.03 197.4 263.048 198.608C262.065 199.816 262.242 204.021 264.138 204.502C268.971 205.769 279.246 205.032 279.648 204.168C280.051 203.304 280.876 198.274 278.755 197.734C276.193 197.341 273.605 197.144 271.014 197.145Z" fill="#F5FFFE" stroke="#303A3F" stroke-linecap="round" stroke-linejoin="round"/>
<path d="M269 187.401C269 187.401 260.877 187.097 259.61 188.56C258.342 190.024 258.097 195.495 260.238 196.321C265.7 198.413 277.988 197.598 278.548 196.517C279.108 195.436 280.326 189.828 277.92 188.924C275.513 188.02 269 187.401 269 187.401Z" fill="#F5FFFE" stroke="#303A3F" stroke-linecap="round" stroke-linejoin="round"/>
<path d="M267.832 176.399C267.832 176.399 259.148 176.065 257.793 177.637C256.437 179.208 256.172 185.043 258.461 185.927C264.354 188.167 277.124 188.167 277.723 187.008C278.323 185.849 279.934 178.992 277.36 178.02C274.786 177.047 267.832 176.399 267.832 176.399Z" fill="#F5FFFE" stroke="#303A3F" stroke-linecap="round" stroke-linejoin="round"/>
<path d="M262.822 166.104C262.822 166.104 254.138 165.78 252.783 167.342C251.427 168.904 251.103 174.925 253.451 175.632C255.798 176.34 272.114 177.872 272.714 176.723C273.313 175.573 274.924 168.697 272.35 167.725C269.777 166.752 262.822 166.104 262.822 166.104Z" fill="#F5FFFE" stroke="#303A3F" stroke-linecap="round" stroke-linejoin="round"/>
<path d="M291.26 194.993C289.701 194.565 288.224 193.881 286.888 192.97C279.904 188.147 280.14 177.066 280.14 177.066L278.46 176.585C277.073 176.057 275.772 175.325 274.6 174.414C275.162 176.703 275.491 179.043 275.582 181.398C275.557 182.693 275.051 183.931 274.163 184.874C273.276 185.816 272.069 186.394 270.779 186.496C268.608 186.742 267.645 186.978 266.918 184.09C266.191 181.202 262.586 169.63 262.341 167.941C262.125 166.408 264.698 163.678 268.794 163.029C275.091 163.54 281.299 165.298 287.645 165.298C289.853 165.506 291.968 166.284 293.784 167.558" fill="#F5FFFE"/>
<path d="M291.26 194.993C289.701 194.565 288.224 193.881 286.888 192.97C279.904 188.147 280.14 177.066 280.14 177.066L278.46 176.585C277.073 176.057 275.772 175.325 274.6 174.414C275.162 176.703 275.491 179.043 275.582 181.398C275.557 182.693 275.051 183.931 274.163 184.874C273.276 185.816 272.069 186.394 270.779 186.496C268.608 186.742 267.645 186.978 266.918 184.09C266.191 181.202 262.586 169.63 262.341 167.941C262.125 166.408 264.698 163.678 268.794 163.029C275.091 163.54 281.299 165.298 287.645 165.298C289.853 165.506 291.968 166.284 293.784 167.558" stroke="#303A3F" stroke-linecap="round" stroke-linejoin="round"/>
<path d="M297.9 195.602C297.134 195.641 296.367 195.641 295.601 195.602H297.9Z" fill="#F5FFFE"/>
<path d="M297.9 195.602C297.134 195.641 296.367 195.641 295.601 195.602" stroke="#303A3F" stroke-linecap="round" stroke-linejoin="round"/>
<path d="M303.037 194.65C301.369 195.178 299.644 195.508 297.899 195.633L303.037 194.65Z" fill="#F5FFFE"/>
<path d="M303.037 194.65C301.369 195.178 299.644 195.508 297.899 195.633" stroke="#303A3F" stroke-linecap="round" stroke-linejoin="round"/>
<path d="M311.71 191.525H320.384" stroke="#303A3F" stroke-linecap="round" stroke-linejoin="round"/>
<path d="M312.438 193.934H316.052" stroke="#303A3F" stroke-linecap="round" stroke-linejoin="round"/>
<path d="M280.14 177.067C280.14 177.067 284.933 177.067 288.077 174.209" stroke="#303A3F" stroke-linecap="round" stroke-linejoin="round"/>
<path d="M274.492 174.101C274.353 172.792 274.08 171.502 273.676 170.25" stroke="#303A3F" stroke-linecap="round" stroke-linejoin="round"/>
<path d="M266.849 182.822C266.849 182.822 265.936 180.288 267.046 179.374C268.156 178.461 271.102 177.144 271.613 178.156C272.124 179.168 273.234 183.834 272.93 184.747L272.625 185.661" stroke="#303A3F" stroke-width="0.5" stroke-linecap="round" stroke-linejoin="round"/>
<path d="M399.999 213.559H316.946V172.734H399.999" fill="#064E3B"/>
<path d="M399.999 213.559H316.946V172.734H399.999" stroke="#303A3F" stroke-linecap="round" stroke-linejoin="round"/>
<path d="M323.037 210.828C324.068 210.828 324.903 209.993 324.903 208.962C324.903 207.931 324.068 207.096 323.037 207.096C322.006 207.096 321.17 207.931 321.17 208.962C321.17 209.993 322.006 210.828 323.037 210.828Z" fill="#F5FFFE" stroke="#303A3F" stroke-linecap="round" stroke-linejoin="round"/>
<path d="M191.046 133.856C191.757 133.569 192.404 133.142 192.947 132.6C193.49 132.059 193.919 131.413 194.209 130.703C194.66 129.593 194.552 128.119 195.525 126.4C197.686 122.55 195.761 112.913 196.507 105.919C197.254 98.9255 189.513 89.5348 189.513 89.5348L191.016 61.8242H163.512C163.512 61.8242 164.71 90.743 162.304 97.0002C159.897 103.257 154.838 110.261 155.074 113.395C155.31 116.528 158.227 142.294 158.227 142.294L190.996 133.856H191.046Z" fill="#F5FFFE" stroke="#303A3F" stroke-linecap="round" stroke-linejoin="round"/>
<path d="M80.2133 141.007C80.8424 146.729 83.1543 152.136 86.8565 156.544C90.5588 160.953 95.4851 164.164 101.013 165.772C106.54 167.381 112.42 167.314 117.91 165.58C123.399 163.847 128.251 160.524 131.852 156.033C135.453 151.541 137.642 146.083 138.14 140.348C138.639 134.613 137.426 128.859 134.654 123.813C131.883 118.768 127.677 114.657 122.57 112.002C117.462 109.347 111.681 108.266 105.959 108.896H105.891C98.2309 109.757 91.2258 113.622 86.412 119.642C81.5983 125.662 79.369 133.345 80.2133 141.007ZM132.275 135.221C132.787 139.812 131.925 144.453 129.8 148.554C127.674 152.656 124.38 156.036 120.334 158.266C116.288 160.496 111.672 161.476 107.069 161.082C102.466 160.688 98.0828 158.938 94.4742 156.054C90.8656 153.169 88.1935 149.279 86.7956 144.876C85.3978 140.472 85.337 135.753 86.621 131.316C87.905 126.878 90.4761 122.92 94.0092 119.944C97.5423 116.967 101.879 115.105 106.47 114.593C112.627 113.909 118.804 115.697 123.643 119.565C128.481 123.433 131.586 129.065 132.275 135.221Z" fill="#F5FFFE" stroke="#303A3F" stroke-linecap="round" stroke-linejoin="round"/>
<path d="M78.5137 141.183C79.1486 146.902 81.4648 152.304 85.1695 156.706C88.8742 161.109 93.8009 164.314 99.3269 165.917C104.853 167.519 110.73 167.448 116.215 165.711C121.701 163.974 126.548 160.649 130.144 156.158C133.74 151.666 135.924 146.209 136.419 140.477C136.914 134.745 135.699 128.994 132.926 123.952C130.154 118.911 125.949 114.804 120.843 112.152C115.737 109.5 109.959 108.421 104.24 109.053C100.441 109.472 96.7609 110.636 93.4114 112.478C90.062 114.32 87.1083 116.803 84.7191 119.787C82.33 122.771 80.5523 126.197 79.4875 129.868C78.4227 133.539 78.0918 137.384 78.5137 141.183ZM130.654 135.417C131.164 140.007 130.301 144.645 128.175 148.745C126.049 152.844 122.755 156.221 118.71 158.449C114.665 160.676 110.05 161.654 105.449 161.259C100.848 160.864 96.4674 159.113 92.8614 156.228C89.2553 153.343 86.5857 149.454 85.1901 145.052C83.7945 140.65 83.7356 135.933 85.0208 131.497C86.3061 127.062 88.8777 123.107 92.4106 120.133C95.9435 117.159 100.279 115.299 104.869 114.789C107.916 114.45 111.001 114.715 113.946 115.569C116.891 116.422 119.639 117.847 122.034 119.763C124.428 121.678 126.422 124.047 127.901 126.733C129.38 129.419 130.315 132.37 130.654 135.417Z" fill="#F5FFFE" stroke="#303A3F" stroke-linecap="round" stroke-linejoin="round"/>
<path d="M159.59 128.478L139.419 130.712C137.866 130.884 136.746 132.282 136.918 133.835L137.071 135.212C137.243 136.765 138.641 137.884 140.194 137.712L160.365 135.478C161.918 135.306 163.037 133.908 162.865 132.355L162.713 130.978C162.541 129.425 161.143 128.306 159.59 128.478Z" fill="#064E3B" stroke="#303A3F" stroke-linecap="round" stroke-linejoin="round"/>
<path d="M153.748 134.278L153.424 131.331C153.283 130.054 153.655 128.774 154.458 127.772C155.262 126.77 156.43 126.128 157.706 125.987L197.588 121.577C198.399 121.482 199.22 121.549 200.006 121.773C200.791 121.998 201.524 122.375 202.163 122.883C202.802 123.392 203.334 124.021 203.729 124.736C204.124 125.451 204.373 126.236 204.464 127.048V127.244C204.558 128.056 204.491 128.877 204.267 129.662C204.043 130.448 203.665 131.181 203.157 131.82C202.649 132.459 202.019 132.991 201.304 133.386C200.59 133.78 199.804 134.03 198.992 134.121L159.111 138.531C157.837 138.675 156.557 138.308 155.552 137.511C154.547 136.714 153.898 135.552 153.748 134.278Z" fill="#303A3F" stroke="#303A3F" stroke-linecap="round" stroke-linejoin="round"/>
<path d="M186.979 129.996C186.979 129.996 187.244 136.97 188.443 137.952C189.641 138.934 193.865 138.758 194.336 136.862C195.613 132.039 194.867 121.754 194.002 121.361C193.138 120.968 188.109 120.123 187.578 122.255C187.182 124.816 186.982 127.404 186.979 129.996Z" fill="#F5FFFE" stroke="#303A3F" stroke-linecap="round" stroke-linejoin="round"/>
<path d="M177.244 132C177.244 132 176.93 140.123 178.393 141.39C179.857 142.658 185.328 142.913 186.154 140.762C188.256 135.3 187.431 123.012 186.35 122.462C185.27 121.911 179.661 120.684 178.757 123.09C177.853 125.497 177.244 132 177.244 132Z" fill="#F5FFFE" stroke="#303A3F" stroke-linecap="round" stroke-linejoin="round"/>
<path d="M166.243 133.187C166.243 133.187 165.909 141.87 167.471 143.226C169.033 144.581 174.887 144.847 175.771 142.548C178.011 136.713 178.011 123.885 176.852 123.295C175.693 122.706 168.826 121.085 167.864 123.659C166.901 126.232 166.243 133.187 166.243 133.187Z" fill="#F5FFFE" stroke="#303A3F" stroke-linecap="round" stroke-linejoin="round"/>
<path d="M155.948 138.188C155.948 138.188 155.614 146.871 157.186 148.227C158.758 149.582 164.769 149.906 165.476 147.549C166.184 145.191 167.716 128.885 166.557 128.286C165.398 127.687 158.541 126.086 157.569 128.659C156.596 131.233 155.948 138.188 155.948 138.188Z" fill="#F5FFFE" stroke="#303A3F" stroke-linecap="round" stroke-linejoin="round"/>
<path d="M185.437 103.08C185.837 106.949 184.909 110.84 182.804 114.111C177.991 121.105 166.901 120.86 166.901 120.86L166.42 122.549C165.896 123.935 165.164 125.234 164.249 126.4C166.541 125.837 168.884 125.508 171.243 125.417C172.533 125.455 173.763 125.968 174.697 126.859C175.631 127.749 176.203 128.954 176.302 130.241C176.547 132.411 176.783 133.374 173.895 134.091C171.007 134.808 159.435 138.433 157.746 138.678C156.214 138.895 153.483 136.321 152.834 132.225C153.355 125.928 155.113 119.71 155.113 113.375C155.319 111.163 156.098 109.044 157.373 107.225" fill="#F5FFFE"/>
<path d="M185.437 103.08C185.837 106.949 184.909 110.84 182.804 114.111C177.991 121.105 166.901 120.86 166.901 120.86L166.42 122.549C165.896 123.935 165.164 125.234 164.249 126.4C166.541 125.837 168.884 125.508 171.243 125.417C172.533 125.455 173.763 125.968 174.697 126.859C175.631 127.749 176.203 128.954 176.302 130.241C176.547 132.411 176.783 133.374 173.895 134.091C171.007 134.808 159.435 138.433 157.746 138.678C156.214 138.895 153.483 136.321 152.834 132.225C153.355 125.928 155.113 119.71 155.113 113.375C155.319 111.163 156.098 109.044 157.373 107.225" stroke="#303A3F" stroke-linecap="round" stroke-linejoin="round"/>
<path d="M184.494 97.9727C184.784 98.8916 185.008 99.8306 185.162 100.782L184.494 97.9727Z" fill="#F5FFFE"/>
<path d="M184.494 97.9727C184.784 98.8916 185.008 99.8306 185.162 100.782" stroke="#303A3F" stroke-linecap="round" stroke-linejoin="round"/>
<path d="M181.36 89.2889V80.6152" stroke="#303A3F" stroke-linecap="round" stroke-linejoin="round"/>
<path d="M183.767 88.5719V84.957" stroke="#303A3F" stroke-linecap="round" stroke-linejoin="round"/>
<path d="M166.901 120.859C166.901 120.859 166.901 116.065 164.042 112.922" stroke="#303A3F" stroke-linecap="round" stroke-linejoin="round"/>
<path d="M163.944 126.518C162.636 126.652 161.346 126.922 160.093 127.323" stroke="#303A3F" stroke-linecap="round" stroke-linejoin="round"/>
<path d="M172.667 134.12C172.667 134.12 170.132 135.034 169.219 133.914C168.305 132.794 166.989 129.857 168.001 129.356C169.013 128.855 173.679 127.735 174.592 128.04L175.506 128.335" stroke="#303A3F" stroke-width="0.5" stroke-linecap="round" stroke-linejoin="round"/>
<path d="M203.403 1V84.0531H162.569V1" fill="#064E3B"/>
<path d="M203.403 1V84.0531H162.569V1" stroke="#303A3F" stroke-linecap="round" stroke-linejoin="round"/>
<path d="M198.796 79.8284C199.827 79.8284 200.662 78.9928 200.662 77.9621C200.662 76.9313 199.827 76.0957 198.796 76.0957C197.765 76.0957 196.93 76.9313 196.93 77.9621C196.93 78.9928 197.765 79.8284 198.796 79.8284Z" fill="#F5FFFE" stroke="#303A3F" stroke-linecap="round" stroke-linejoin="round"/>
<path d="M149.956 281.779C149.671 282.491 149.244 283.139 148.702 283.682C148.161 284.226 147.515 284.654 146.803 284.942C145.693 285.404 144.22 285.295 142.501 286.258C138.65 288.429 129.014 286.504 122.02 287.24C115.026 287.977 105.635 280.256 105.635 280.256L77.895 281.779V254.275C77.895 254.275 106.814 255.483 113.081 253.076C119.348 250.67 126.332 245.601 129.466 245.847C132.599 246.092 158.384 248.98 158.384 248.98L149.956 281.779Z" fill="#F5FFFE" stroke="#303A3F" stroke-linecap="round" stroke-linejoin="round"/>
<path d="M157.078 170.937C162.799 171.57 168.204 173.886 172.61 177.591C177.015 181.296 180.223 186.225 181.828 191.753C183.432 197.282 183.361 203.162 181.624 208.65C179.886 214.138 176.56 218.987 172.067 222.585C167.573 226.183 162.114 228.368 156.378 228.863C150.643 229.358 144.89 228.141 139.846 225.366C134.803 222.592 130.695 218.384 128.043 213.275C125.391 208.165 124.313 202.384 124.947 196.663C125.796 188.993 129.657 181.975 135.681 177.152C141.705 172.329 149.398 170.097 157.068 170.946L157.078 170.937ZM151.302 223.077C155.893 223.588 160.533 222.727 164.635 220.602C168.737 218.476 172.117 215.182 174.346 211.136C176.576 207.09 177.556 202.474 177.163 197.871C176.769 193.268 175.019 188.885 172.134 185.276C169.25 181.667 165.36 178.995 160.956 177.597C156.553 176.2 151.834 176.139 147.396 177.423C142.959 178.707 139.001 181.278 136.024 184.811C133.048 188.344 131.186 192.681 130.674 197.272C129.989 203.429 131.778 209.606 135.646 214.444C139.514 219.283 145.145 222.388 151.302 223.077Z" fill="#F5FFFE" stroke="#303A3F" stroke-linecap="round" stroke-linejoin="round"/>
<path d="M157.255 169.277C162.974 169.913 168.376 172.229 172.778 175.935C177.181 179.64 180.386 184.567 181.988 190.094C183.59 195.62 183.518 201.498 181.78 206.983C180.042 212.469 176.716 217.315 172.224 220.911C167.731 224.507 162.274 226.689 156.541 227.183C150.808 227.677 145.057 226.46 140.016 223.686C134.975 220.912 130.869 216.706 128.219 211.599C125.568 206.492 124.491 200.713 125.124 194.994C125.544 191.195 126.709 187.517 128.552 184.168C130.394 180.82 132.878 177.868 135.862 175.479C138.846 173.091 142.271 171.314 145.941 170.25C149.612 169.186 153.456 168.856 157.255 169.277ZM151.479 221.418C156.07 221.929 160.71 221.068 164.812 218.942C168.914 216.817 172.294 213.523 174.524 209.477C176.753 205.431 177.733 200.814 177.34 196.211C176.946 191.608 175.196 187.225 172.311 183.617C169.427 180.008 165.537 177.336 161.134 175.938C156.73 174.54 152.011 174.48 147.574 175.764C143.136 177.048 139.178 179.619 136.202 183.152C133.225 186.685 131.363 191.021 130.851 195.613C130.169 201.767 131.96 207.94 135.828 212.775C139.696 217.61 145.325 220.712 151.479 221.398V221.418Z" fill="#F5FFFE" stroke="#303A3F" stroke-linecap="round" stroke-linejoin="round"/>
<path d="M146.762 230.176L144.528 250.346C144.356 251.899 145.475 253.298 147.028 253.47L148.405 253.622C149.958 253.794 151.356 252.675 151.528 251.122L153.762 230.951C153.934 229.398 152.815 228 151.262 227.828L149.885 227.675C148.332 227.503 146.934 228.623 146.762 230.176Z" fill="#064E3B" stroke="#303A3F" stroke-linecap="round" stroke-linejoin="round"/>
<path d="M143.345 295.197H143.149C142.337 295.108 141.55 294.859 140.835 294.465C140.12 294.07 139.489 293.538 138.981 292.899C138.472 292.26 138.095 291.526 137.871 290.74C137.648 289.955 137.582 289.132 137.677 288.321L142.088 248.44C142.156 247.807 142.349 247.194 142.655 246.637C142.961 246.079 143.374 245.587 143.87 245.189C144.367 244.791 144.937 244.495 145.548 244.318C146.159 244.141 146.799 244.086 147.432 244.157L150.378 244.481C151.655 244.622 152.823 245.264 153.626 246.266C154.43 247.268 154.802 248.548 154.661 249.825L150.251 289.755C150.159 290.566 149.909 291.351 149.513 292.065C149.118 292.779 148.586 293.409 147.947 293.917C147.309 294.425 146.576 294.802 145.791 295.027C145.007 295.252 144.185 295.32 143.375 295.227L143.345 295.197Z" fill="#303A3F" stroke="#303A3F" stroke-linecap="round" stroke-linejoin="round"/>
<path d="M146.027 277.742C146.027 277.742 153.001 278.007 153.983 279.206C154.966 280.404 154.789 284.618 152.893 285.1C148.07 286.377 137.785 285.63 137.392 284.766C136.999 283.901 136.155 278.872 138.286 278.332C140.848 277.939 143.435 277.742 146.027 277.742Z" fill="#F5FFFE" stroke="#303A3F" stroke-linecap="round" stroke-linejoin="round"/>
<path d="M148.07 268.026C148.07 268.026 156.194 267.712 157.461 269.176C158.728 270.639 158.983 276.111 156.832 276.936C151.37 279.028 139.082 278.213 138.532 277.132C137.982 276.052 136.754 270.443 139.161 269.539C141.567 268.635 148.07 268.026 148.07 268.026Z" fill="#F5FFFE" stroke="#303A3F" stroke-linecap="round" stroke-linejoin="round"/>
<path d="M149.259 256.997C149.259 256.997 157.942 256.672 159.298 258.234C160.653 259.796 160.918 265.651 158.63 266.525C152.736 268.774 139.966 268.765 139.367 267.615C138.768 266.466 137.157 259.59 139.73 258.617C142.304 257.645 149.259 256.997 149.259 256.997Z" fill="#F5FFFE" stroke="#303A3F" stroke-linecap="round" stroke-linejoin="round"/>
<path d="M154.258 246.712C154.258 246.712 162.942 246.378 164.297 247.939C165.653 249.501 165.977 255.533 163.62 256.24C161.262 256.947 144.956 258.47 144.357 257.32C143.758 256.171 142.157 249.295 144.73 248.332C147.304 247.37 154.258 246.712 154.258 246.712Z" fill="#F5FFFE" stroke="#303A3F" stroke-linecap="round" stroke-linejoin="round"/>
<path d="M120.487 276.249C123.913 276.384 127.295 275.446 130.163 273.567C137.157 268.744 136.911 257.664 136.911 257.664L138.601 257.183C139.987 256.659 141.285 255.927 142.451 255.012C141.889 257.301 141.56 259.641 141.469 261.996C141.506 263.287 142.019 264.519 142.91 265.454C143.8 266.39 145.005 266.963 146.292 267.065C148.463 267.3 149.426 267.546 150.153 264.648C150.88 261.75 154.485 250.189 154.73 248.509C154.976 246.829 152.373 244.236 148.276 243.598C141.98 244.118 135.762 245.877 129.426 245.877C127.217 246.083 125.098 246.858 123.277 248.126" fill="#F5FFFE"/>
<path d="M120.487 276.249C123.913 276.384 127.295 275.446 130.163 273.567C137.157 268.744 136.911 257.664 136.911 257.664L138.601 257.183C139.987 256.659 141.285 255.927 142.451 255.012C141.889 257.301 141.56 259.641 141.469 261.996C141.506 263.287 142.019 264.519 142.91 265.454C143.8 266.39 145.005 266.963 146.292 267.065C148.463 267.3 149.426 267.546 150.153 264.648C150.88 261.75 154.485 250.189 154.73 248.509C154.976 246.829 152.373 244.236 148.276 243.598C141.98 244.118 135.762 245.877 129.426 245.877C127.217 246.083 125.098 246.858 123.277 248.126" stroke="#303A3F" stroke-linecap="round" stroke-linejoin="round"/>
<path d="M114.043 275.256C115.417 275.678 116.828 275.964 118.257 276.11L114.043 275.256Z" fill="#F5FFFE"/>
<path d="M114.043 275.256C115.417 275.678 116.828 275.964 118.257 276.11" stroke="#303A3F" stroke-linecap="round" stroke-linejoin="round"/>
<path d="M105.36 272.123H96.6865" stroke="#303A3F" stroke-linecap="round" stroke-linejoin="round"/>
<path d="M104.643 274.529H101.028" stroke="#303A3F" stroke-linecap="round" stroke-linejoin="round"/>
<path d="M136.931 257.663C136.931 257.663 132.137 257.663 128.994 254.805" stroke="#303A3F" stroke-linecap="round" stroke-linejoin="round"/>
<path d="M142.589 254.698C142.724 253.39 142.994 252.1 143.394 250.848" stroke="#303A3F" stroke-linecap="round" stroke-linejoin="round"/>
<path d="M150.192 263.42C150.192 263.42 151.106 260.885 149.986 259.972C148.866 259.058 145.929 257.742 145.428 258.754C144.927 259.766 143.807 264.441 144.112 265.345L144.416 266.259" stroke="#303A3F" stroke-width="0.5" stroke-linecap="round" stroke-linejoin="round"/>
<path d="M17.0713 294.166H100.124V253.332H17.0713" fill="#064E3B"/>
<path d="M17.0713 294.166H100.124V253.332H17.0713" stroke="#303A3F" stroke-linecap="round" stroke-linejoin="round"/>
<path d="M92.168 289.56C92.168 289.929 92.2774 290.29 92.4825 290.597C92.6876 290.904 92.9791 291.143 93.3201 291.284C93.6611 291.425 94.0364 291.462 94.3984 291.39C94.7605 291.318 95.093 291.14 95.354 290.879C95.6151 290.618 95.7928 290.286 95.8648 289.924C95.9368 289.562 95.8999 289.187 95.7586 288.846C95.6174 288.504 95.3781 288.213 95.0712 288.008C94.7643 287.803 94.4035 287.693 94.0343 287.693C93.5393 287.693 93.0646 287.89 92.7146 288.24C92.3646 288.59 92.168 289.065 92.168 289.56Z" fill="#F5FFFE" stroke="#303A3F" stroke-linecap="round" stroke-linejoin="round"/>
</svg>
