<?xml version="1.0" encoding="UTF-8" standalone="no"?>
<!-- Created with Inkscape (http://www.inkscape.org/) -->

<svg
   width="1193.1399"
   height="248.42143"
   viewBox="0 0 315.68494 65.728169"
   version="1.1"
   id="svg3257"
   inkscape:version="1.1.2 (b8e25be833, 2022-02-05)"
   sodipodi:docname="st2023.svg"
   xmlns:inkscape="http://www.inkscape.org/namespaces/inkscape"
   xmlns:sodipodi="http://sodipodi.sourceforge.net/DTD/sodipodi-0.dtd"
   xmlns="http://www.w3.org/2000/svg"
   xmlns:svg="http://www.w3.org/2000/svg">
  <sodipodi:namedview
     id="namedview3259"
     pagecolor="#505050"
     bordercolor="#eeeeee"
     borderopacity="1"
     inkscape:pageshadow="0"
     inkscape:pageopacity="0"
     inkscape:pagecheckerboard="0"
     inkscape:document-units="px"
     showgrid="false"
     units="px"
     fit-margin-top="0"
     fit-margin-left="0"
     fit-margin-right="0"
     fit-margin-bottom="0"
     inkscape:zoom="0.32"
     inkscape:cx="407.8125"
     inkscape:cy="54.6875"
     inkscape:window-width="1280"
     inkscape:window-height="730"
     inkscape:window-x="-6"
     inkscape:window-y="-6"
     inkscape:window-maximized="1"
     inkscape:current-layer="layer1" />
  <defs
     id="defs3254" />
  <g
     inkscape:label="Layer 1"
     inkscape:groupmode="layer"
     id="layer1"
     transform="translate(2.3997491,-78.757008)">
    <g
       id="g2596"
       transform="matrix(0.35277777,0,0,-0.35277777,56.905333,116.77978)"
       inkscape:export-filename="C:\Fatur\g2624.webp"
       inkscape:export-xdpi="96"
       inkscape:export-ydpi="96">
      <path
         d="m 0,0 v -75.146 h 12.166 c 22.268,0 40.386,18.118 40.386,40.385 V 40.386 H 40.386 C 18.118,40.386 0,22.268 0,0"
         style="fill:#0a8d44;fill-opacity:1;fill-rule:nonzero;stroke:none"
         id="path2598" />
    </g>
    <g
       id="g2600"
       transform="matrix(0.35277777,0,0,-0.35277777,79.754608,80.307598)"
       inkscape:export-filename="C:\Fatur\g2624.webp"
       inkscape:export-xdpi="96"
       inkscape:export-ydpi="96">
      <path
         d="m 0,0 h -12.197 -40.348 -0.028 -12.169 -0.028 -40.349 -12.196 v -12.196 c 0,-22.278 18.156,-40.377 40.433,-40.377 h 12.14 40.405 0.027 12.113 0.029 40.404 12.141 v 12.14 C 40.377,-18.156 22.277,0 0,0"
         style="fill:#0a8d44;fill-opacity:1;fill-rule:nonzero;stroke:none"
         id="path2602" />
    </g>
    <g
       id="g2604"
       transform="matrix(0.35277777,0,0,-0.35277777,11.852296,143.2898)"
       inkscape:export-filename="C:\Fatur\g2624.webp"
       inkscape:export-xdpi="96"
       inkscape:export-ydpi="96">
      <path
         d="m 0,0 h 12.171 v 12.171 c 0,22.277 -18.122,40.399 -40.4,40.399 h -12.17 V 40.399 C -40.399,18.122 -22.277,0 0,0"
         style="fill:#93c03d;fill-opacity:1;fill-rule:nonzero;stroke:none"
         id="path2606" />
    </g>
    <g
       id="g2608"
       transform="matrix(0.35277777,0,0,-0.35277777,38.986375,102.52675)"
       inkscape:export-filename="C:\Fatur\g2624.webp"
       inkscape:export-xdpi="96"
       inkscape:export-ydpi="96">
      <path
         d="m 0,0 h -12.197 -40.348 -0.029 -12.168 -0.028 -2.413 c -3.833,0.011 -6.832,3.065 -6.832,6.791 v 3.619 h 9.273 12.197 c 22.277,0 40.377,18.155 40.377,40.433 v 12.14 h -12.142 -40.432 -12.14 c -22.277,0 -40.433,-18.1 -40.433,-40.377 V 10.41 h 0.028 V 0 h -0.028 v -12.196 c 0,-22.277 18.156,-40.376 40.433,-40.376 h 12.14 40.405 0.027 12.113 0.029 2.386 c 3.889,-0.012 6.886,-3.121 6.886,-6.79 v -3.62 h -9.301 -12.14 c -22.277,0 -40.433,-18.101 -40.433,-40.377 v -12.197 H -52.574 -12.197 0 c 22.277,0 40.376,18.156 40.376,40.433 v 12.141 10.41 0.004 12.135 C 40.376,-18.155 22.277,0 0,0"
         style="fill:#0a8d44;fill-opacity:1;fill-rule:nonzero;stroke:none"
         id="path2610" />
    </g>
    <g
       id="g2612"
       transform="matrix(0.35277777,0,0,-0.35277777,186.56101,124.49129)"
       inkscape:export-filename="C:\Fatur\g2624.webp"
       inkscape:export-xdpi="96"
       inkscape:export-ydpi="96">
      <path
         d="m 0,0 c -4.338,-7.129 -9.955,-10.592 -17.171,-10.592 -7.383,0 -13.081,3.463 -17.413,10.592 -4.558,7.505 -6.874,19.781 -6.874,36.488 0,16.701 2.316,28.978 6.874,36.489 4.338,7.128 10.03,10.591 17.413,10.591 7.216,0 12.827,-3.463 17.165,-10.591 C 4.557,65.466 6.873,53.189 6.873,36.488 6.873,19.781 4.557,7.505 0,0 m 52.031,86.203 c -6.747,14.089 -16.256,24.965 -28.254,32.336 -11.993,7.36 -25.769,11.096 -40.948,11.096 -15.346,0 -29.203,-3.736 -41.19,-11.096 -11.999,-7.365 -21.502,-18.247 -28.248,-32.336 -6.683,-13.95 -10.077,-30.675 -10.077,-49.715 0,-19.041 3.394,-35.764 10.077,-49.715 6.746,-14.089 16.249,-24.97 28.248,-32.336 11.975,-7.361 25.833,-11.095 41.19,-11.095 15.19,0 28.967,3.734 40.948,11.095 11.998,7.372 21.507,18.247 28.254,32.336 6.689,13.974 10.076,30.698 10.076,49.715 0,19.018 -3.387,35.741 -10.076,49.715"
         style="fill:#93c03d;fill-opacity:1;fill-rule:nonzero;stroke:none"
         id="path2614" />
    </g>
    <g
       id="g2616"
       transform="matrix(0.35277777,0,0,-0.35277777,138.79543,118.60361)"
       inkscape:export-filename="C:\Fatur\g2624.webp"
       inkscape:export-xdpi="96"
       inkscape:export-ydpi="96">
      <path
         d="m 0,0 c 12.027,11.037 19.909,20.621 24.079,29.278 4.255,8.635 6.416,18.034 6.416,27.936 0,11.147 -3.058,21.101 -9.092,29.602 -6.104,8.485 -14.547,15.023 -25.086,19.435 -10.406,4.447 -22.59,6.7 -36.211,6.7 -17.141,0 -32.191,-3.37 -44.729,-10.007 -12.641,-6.688 -22.602,-15.97 -29.62,-27.593 l -1.587,-2.629 41.544,-23.204 1.5,2.379 c 3.162,5.016 7.239,8.878 12.126,11.478 4.963,2.676 10.302,3.979 16.319,3.979 6.555,0 11.507,-1.35 14.715,-4.001 3.109,-2.578 4.621,-6.116 4.621,-10.824 0,-3.834 -0.973,-7.69 -2.872,-11.443 -1.987,-3.816 -6.046,-8.687 -12.028,-14.442 l -64.934,-60.661 -0.938,-0.99 v -0.063 c -5.762,-6.029 -8.918,-13.858 -8.918,-22.185 V -69.966 L 2.982,-69.983 c 0.822,0 1.645,0.017 2.143,0.121 16.851,1.049 30.055,15.137 30.055,32.076 v 12.752 h -62.276 z"
         style="fill:#93c03d;fill-opacity:1;fill-rule:nonzero;stroke:none"
         id="path2618" />
    </g>
    <g
       id="g2620"
       transform="matrix(0.35277777,0,0,-0.35277777,259.87228,127.43512)"
       inkscape:export-filename="C:\Fatur\g2624.webp"
       inkscape:export-xdpi="96"
       inkscape:export-ydpi="96">
      <path
         d="m 0,0 h -62.275 l 27.095,25.034 c 12.028,11.037 19.909,20.621 24.079,29.279 4.256,8.634 6.416,18.033 6.416,27.935 0,11.148 -3.057,21.102 -9.097,29.603 -6.098,8.484 -14.541,15.022 -25.08,19.434 -10.407,4.447 -22.591,6.7 -36.211,6.7 -17.141,0 -32.192,-3.37 -44.735,-10.006 -12.635,-6.689 -22.602,-15.971 -29.615,-27.594 l -1.587,-2.629 41.544,-23.204 1.5,2.38 c 3.156,5.015 7.234,8.878 12.121,11.477 4.968,2.676 10.308,3.979 16.324,3.979 6.556,0 11.507,-1.35 14.709,-4.001 3.11,-2.577 4.622,-6.116 4.622,-10.824 0,-3.845 -0.967,-7.702 -2.867,-11.437 -1.998,-3.834 -6.051,-8.704 -12.028,-14.448 l -64.934,-60.66 -0.937,-0.991 v -0.063 c -5.762,-6.023 -8.918,-13.852 -8.918,-22.185 v -12.711 l 117.671,-0.017 c 0.828,0 1.656,0.017 2.142,0.121 C -13.203,-43.779 0,-29.69 0,-12.752 Z"
         style="fill:#93c03d;fill-opacity:1;fill-rule:nonzero;stroke:none"
         id="path2622" />
    </g>
    <g
       id="g2624"
       transform="matrix(0.35277777,0,0,-0.35277777,308.97246,111.06125)"
       inkscape:export-filename="C:\Fatur\g2624.webp"
       inkscape:export-xdpi="96"
       inkscape:export-ydpi="96">
      <path
         d="M 0,0 C -7.1,8.194 -17.071,14.065 -29.701,17.488 L 3.567,53.224 V 88.073 H -127.718 V 75.681 c 0,-17.297 14.072,-31.369 31.364,-31.369 L -63.161,44.266 -90.303,14.94 v -35.086 h 23.54 c 23.546,0 23.546,-10.442 23.546,-13.875 0,-4.813 -1.934,-8.276 -6.104,-10.905 -4.378,-2.797 -10.585,-4.216 -18.45,-4.216 -7.899,0 -16.081,1.199 -24.316,3.562 -0.87,0.253 -1.686,0.562 -2.535,0.839 l -0.011,-0.052 c -7.741,2.945 -25.875,4.701 -34.779,-14.244 l -8.058,-16.708 2.247,-1.407 c 8.883,-5.56 19.625,-9.955 31.937,-13.059 12.155,-3.012 24.599,-4.534 36.998,-4.534 16.944,0 31.497,2.808 43.258,8.356 11.79,5.618 20.702,13.105 26.487,22.254 5.82,9.156 8.768,19.284 8.768,30.114 C 12.225,-20.824 8.113,-9.376 0,0"
         style="fill:#93c03d;fill-opacity:1;fill-rule:nonzero;stroke:none"
         id="path2626" />
    </g>
  </g>
</svg>
