<?xml version="1.0" encoding="UTF-8" standalone="no"?>
<!-- Created with Inkscape (http://www.inkscape.org/) -->

<svg
   width="1193.1399"
   height="399.99759"
   viewBox="0 0 315.68494 105.83269"
   version="1.1"
   id="svg3257"
   inkscape:version="1.1.2 (b8e25be833, 2022-02-05)"
   sodipodi:docname="st2023-putih.svg"
   inkscape:export-filename="C:\Fatur\st2023.webp"
   inkscape:export-xdpi="96"
   inkscape:export-ydpi="96"
   xmlns:inkscape="http://www.inkscape.org/namespaces/inkscape"
   xmlns:sodipodi="http://sodipodi.sourceforge.net/DTD/sodipodi-0.dtd"
   xmlns="http://www.w3.org/2000/svg"
   xmlns:svg="http://www.w3.org/2000/svg">
  <sodipodi:namedview
     id="namedview3259"
     pagecolor="#505050"
     bordercolor="#eeeeee"
     borderopacity="1"
     inkscape:pageshadow="0"
     inkscape:pageopacity="0"
     inkscape:pagecheckerboard="0"
     inkscape:document-units="px"
     showgrid="false"
     units="px"
     fit-margin-top="0"
     fit-margin-left="0"
     fit-margin-right="0"
     fit-margin-bottom="0"
     inkscape:zoom="0.32"
     inkscape:cx="429.6875"
     inkscape:cy="514.0625"
     inkscape:window-width="1280"
     inkscape:window-height="730"
     inkscape:window-x="-6"
     inkscape:window-y="-6"
     inkscape:window-maximized="1"
     inkscape:current-layer="g3384" />
  <defs
     id="defs3254">
    <clipPath
       clipPathUnits="userSpaceOnUse"
       id="clipPath3394">
      <path
         d="M 0,405.161 H 1000 V 0 H 0 Z"
         id="path3392" />
    </clipPath>
  </defs>
  <g
     inkscape:label="Layer 1"
     inkscape:groupmode="layer"
     id="layer1"
     transform="translate(8.1066666,42.790718)">
    <g
       id="g3384"
       inkscape:label="Logo ST2023_Putih"
       transform="matrix(0.35277777,0,0,-0.35277777,-26.653217,81.596607)">
      <g
         id="g3388">
        <g
           id="g3390"
           clip-path="url(#clipPath3394)">
          <g
             id="g3396"
             transform="translate(63.4904,54.3578)">
            <path
               d="m 0,0 c -4.48,1.174 -8.115,2.74 -10.917,4.703 l 5.458,12.261 c 2.629,-1.74 5.683,-3.138 9.156,-4.201 3.468,-1.063 6.885,-1.594 10.241,-1.594 6.382,0 9.575,1.594 9.575,4.788 0,1.678 -0.911,2.919 -2.729,3.735 -1.824,0.812 -4.749,1.662 -8.776,2.563 -4.424,0.95 -8.115,1.969 -11.085,3.064 -2.965,1.091 -5.515,2.836 -7.64,5.246 -2.131,2.406 -3.194,5.656 -3.194,9.738 0,3.586 0.979,6.818 2.942,9.699 1.958,2.886 4.883,5.168 8.776,6.846 3.887,1.677 8.658,2.516 14.318,2.516 3.859,0 7.668,-0.43 11.415,-1.298 3.753,-0.872 7.053,-2.141 9.911,-3.819 L 32.328,41.902 c -5.599,3.021 -11.03,4.532 -16.293,4.532 -3.3,0 -5.704,-0.488 -7.22,-1.466 -1.51,-0.985 -2.266,-2.254 -2.266,-3.821 0,-1.571 0.895,-2.746 2.685,-3.529 1.796,-0.782 4.676,-1.594 8.653,-2.432 4.474,-0.957 8.188,-1.975 11.124,-3.066 2.937,-1.096 5.487,-2.83 7.64,-5.207 2.154,-2.382 3.233,-5.615 3.233,-9.698 0,-3.529 -0.979,-6.717 -2.936,-9.575 C 34.984,4.787 32.048,2.505 28.127,0.8 24.212,-0.906 19.453,-1.762 13.854,-1.762 9.094,-1.762 4.48,-1.175 0,0"
               style="fill:#ffffff;fill-opacity:1;fill-rule:nonzero;stroke:none"
               id="path3398" />
          </g>
          <g
             id="g3400"
             transform="translate(158.2033,66.6176)">
            <path
               d="M 0,0 V -12.848 H -47.188 V 45.93 H -1.091 V 33.083 h -29.643 v -9.905 h 26.12 V 10.75 h -26.12 V 0 Z"
               style="fill:#ffffff;fill-opacity:1;fill-rule:nonzero;stroke:none"
               id="path3402" />
          </g>
          <g
             id="g3404"
             transform="translate(223.3679,112.5473)">
            <path
               d="m 0,0 v -58.777 h -13.686 l -25.952,31.321 V -58.777 H -55.925 V 0 h 13.686 l 25.947,-31.32 V 0 Z"
               style="fill:#ffffff;fill-opacity:1;fill-rule:nonzero;stroke:none"
               id="path3406" />
          </g>
          <g
             id="g3408"
             transform="translate(241.9255,54.3578)">
            <path
               d="m 0,0 c -4.48,1.174 -8.115,2.74 -10.917,4.703 l 5.459,12.261 c 2.628,-1.74 5.682,-3.138 9.155,-4.201 3.468,-1.063 6.885,-1.594 10.241,-1.594 6.382,0 9.575,1.594 9.575,4.788 0,1.678 -0.911,2.919 -2.729,3.735 -1.824,0.812 -4.748,1.662 -8.776,2.563 -4.424,0.95 -8.115,1.969 -11.085,3.064 -2.965,1.091 -5.515,2.836 -7.64,5.246 -2.131,2.406 -3.194,5.656 -3.194,9.738 0,3.586 0.979,6.818 2.942,9.699 1.958,2.886 4.883,5.168 8.776,6.846 3.887,1.677 8.658,2.516 14.318,2.516 3.859,0 7.668,-0.43 11.416,-1.298 3.752,-0.872 7.052,-2.141 9.91,-3.819 L 32.328,41.902 c -5.599,3.021 -11.03,4.532 -16.292,4.532 -3.301,0 -5.705,-0.488 -7.221,-1.466 -1.51,-0.985 -2.265,-2.254 -2.265,-3.821 0,-1.571 0.894,-2.746 2.684,-3.529 1.796,-0.782 4.676,-1.594 8.653,-2.432 4.474,-0.957 8.188,-1.975 11.124,-3.066 2.937,-1.096 5.487,-2.83 7.64,-5.207 2.154,-2.382 3.233,-5.615 3.233,-9.698 0,-3.529 -0.979,-6.717 -2.936,-9.575 C 34.985,4.787 32.048,2.505 28.127,0.8 24.212,-0.906 19.453,-1.762 13.854,-1.762 9.094,-1.762 4.48,-1.175 0,0"
               style="fill:#ffffff;fill-opacity:1;fill-rule:nonzero;stroke:none"
               id="path3410" />
          </g>
          <g
             id="g3412"
             transform="translate(296.2062,59.7328)">
            <path
               d="M 0,0 C -4.838,4.76 -7.26,11.505 -7.26,20.235 V 52.814 H 9.363 V 20.738 c 0,-9.401 3.725,-14.105 11.169,-14.105 7.388,0 11.086,4.704 11.086,14.105 v 32.076 h 16.37 V 20.235 C 47.988,11.505 45.566,4.76 40.729,0 35.885,-4.76 29.101,-7.137 20.364,-7.137 11.633,-7.137 4.844,-4.76 0,0"
               style="fill:#ffffff;fill-opacity:1;fill-rule:nonzero;stroke:none"
               id="path3414" />
          </g>
          <g
             id="g3416"
             transform="translate(362.2487,54.3578)">
            <path
               d="m 0,0 c -4.48,1.174 -8.115,2.74 -10.917,4.703 l 5.459,12.261 c 2.628,-1.74 5.682,-3.138 9.155,-4.201 3.468,-1.063 6.886,-1.594 10.241,-1.594 6.382,0 9.576,1.594 9.576,4.788 0,1.678 -0.912,2.919 -2.73,3.735 -1.824,0.812 -4.748,1.662 -8.776,2.563 -4.424,0.95 -8.115,1.969 -11.085,3.064 -2.964,1.091 -5.515,2.836 -7.64,5.246 -2.131,2.406 -3.194,5.656 -3.194,9.738 0,3.586 0.979,6.818 2.942,9.699 1.958,2.886 4.883,5.168 8.776,6.846 3.887,1.677 8.658,2.516 14.318,2.516 3.859,0 7.668,-0.43 11.416,-1.298 3.752,-0.872 7.052,-2.141 9.91,-3.819 L 32.328,41.902 c -5.599,3.021 -11.029,4.532 -16.292,4.532 -3.3,0 -5.705,-0.488 -7.221,-1.466 -1.51,-0.985 -2.265,-2.254 -2.265,-3.821 0,-1.571 0.895,-2.746 2.684,-3.529 1.796,-0.782 4.676,-1.594 8.653,-2.432 4.474,-0.957 8.188,-1.975 11.124,-3.066 2.937,-1.096 5.487,-2.83 7.64,-5.207 2.154,-2.382 3.233,-5.615 3.233,-9.698 0,-3.529 -0.979,-6.717 -2.936,-9.575 C 34.985,4.787 32.048,2.505 28.128,0.8 24.212,-0.906 19.453,-1.762 13.854,-1.762 9.095,-1.762 4.48,-1.175 0,0"
               style="fill:#ffffff;fill-opacity:1;fill-rule:nonzero;stroke:none"
               id="path3418" />
          </g>
          <g
             id="g3420"
             transform="translate(467.7956,84.4594)">
            <path
               d="m 0,0 c 1.734,1.482 2.606,3.597 2.606,6.343 0,2.74 -0.872,4.871 -2.606,6.381 -1.734,1.51 -4.312,2.265 -7.724,2.265 h -9.234 V -2.227 h 9.234 c 3.412,0 5.99,0.745 7.724,2.227 m 7.137,25.442 c 3.92,-1.761 6.941,-4.278 9.071,-7.555 2.126,-3.273 3.188,-7.126 3.188,-11.544 0,-4.425 -1.062,-8.262 -3.188,-11.505 -2.13,-3.25 -5.151,-5.75 -9.071,-7.518 -3.915,-1.761 -8.535,-2.645 -13.854,-2.645 h -10.241 v -15.364 h -16.628 v 58.777 h 26.869 c 5.319,0 9.939,-0.878 13.854,-2.646"
               style="fill:#ffffff;fill-opacity:1;fill-rule:nonzero;stroke:none"
               id="path3422" />
          </g>
          <g
             id="g3424"
             transform="translate(542.446,66.6176)">
            <path
               d="M 0,0 V -12.848 H -47.188 V 45.93 H -1.091 V 33.083 H -30.733 V 23.178 H -4.614 V 10.75 H -30.733 V 0 Z"
               style="fill:#ffffff;fill-opacity:1;fill-rule:nonzero;stroke:none"
               id="path3426" />
          </g>
          <g
             id="g3428"
             transform="translate(585.2722,97.183)">
            <path
               d="m 0,0 c -1.734,1.511 -4.312,2.266 -7.725,2.266 h -9.233 V -14.95 h 9.233 c 3.413,0 5.991,0.744 7.725,2.226 1.733,1.483 2.606,3.597 2.606,6.343 C 2.606,-3.641 1.733,-1.51 0,0 m -7.892,-27.797 h -9.066 v -15.616 h -16.629 v 58.777 h 26.869 c 5.32,0 9.94,-0.878 13.855,-2.645 3.921,-1.762 6.94,-4.279 9.071,-7.556 2.126,-3.272 3.188,-7.126 3.188,-11.544 0,-4.257 -0.995,-7.965 -2.981,-11.125 -1.985,-3.166 -4.826,-5.643 -8.523,-7.432 L 20.571,-43.413 H 2.773 Z"
               style="fill:#ffffff;fill-opacity:1;fill-rule:nonzero;stroke:none"
               id="path3430" />
          </g>
          <g
             id="g3432"
             transform="translate(625.4919,99.3647)">
            <path
               d="M 0,0 H -18.055 V 13.183 H 34.593 V 0 H 16.622 V -45.595 H 0 Z"
               style="fill:#ffffff;fill-opacity:1;fill-rule:nonzero;stroke:none"
               id="path3434" />
          </g>
          <g
             id="g3436"
             transform="translate(697.8708,77.4516)">
            <path
               d="M 0,0 -7.556,18.809 -15.112,0 Z m 4.872,-12.261 h -24.855 l -4.621,-11.421 h -16.958 l 25.947,58.778 H 0.756 L 26.791,-23.682 H 9.492 Z"
               style="fill:#ffffff;fill-opacity:1;fill-rule:nonzero;stroke:none"
               id="path3438" />
          </g>
          <g
             id="g3440"
             transform="translate(785.2849,112.5473)">
            <path
               d="m 0,0 v -58.777 h -13.686 l -25.952,31.321 V -58.777 H -55.925 V 0 h 13.687 l 25.946,-31.32 V 0 Z"
               style="fill:#ffffff;fill-opacity:1;fill-rule:nonzero;stroke:none"
               id="path3442" />
          </g>
          <path
             d="M 797.042,112.547 H 813.67 V 53.77 h -16.628 z"
             style="fill:#ffffff;fill-opacity:1;fill-rule:nonzero;stroke:none"
             id="path3444" />
          <g
             id="g3446"
             transform="translate(860.0134,77.4516)">
            <path
               d="M 0,0 -7.556,18.809 -15.112,0 Z m 4.872,-12.261 h -24.855 l -4.621,-11.421 h -16.958 l 25.947,58.778 H 0.756 L 26.791,-23.682 H 9.492 Z"
               style="fill:#ffffff;fill-opacity:1;fill-rule:nonzero;stroke:none"
               id="path3448" />
          </g>
          <g
             id="g3450"
             transform="translate(947.4274,112.5473)">
            <path
               d="m 0,0 v -58.777 h -13.686 l -25.952,31.321 V -58.777 H -55.925 V 0 h 13.687 l 25.946,-31.32 V 0 Z"
               style="fill:#ffffff;fill-opacity:1;fill-rule:nonzero;stroke:none"
               id="path3452" />
          </g>
          <g
             id="g3454"
             transform="translate(220.6818,244.8129)">
            <path
               d="m 0,0 v -75.146 h 12.166 c 22.268,0 40.386,18.118 40.386,40.385 V 40.386 H 40.386 C 18.118,40.386 0,22.268 0,0"
               style="fill:#ffffff;fill-opacity:1;fill-rule:nonzero;stroke:none"
               id="path3456" />
          </g>
          <g
             id="g3458"
             transform="translate(285.4514,348.1986)">
            <path
               d="m 0,0 h -12.197 -40.348 -0.028 -12.169 -0.028 -40.349 -12.196 v -12.196 c 0,-22.278 18.156,-40.377 40.433,-40.377 h 12.14 40.405 0.027 12.113 0.029 40.404 12.141 v 12.14 C 40.377,-18.156 22.277,0 0,0"
               style="fill:#ffffff;fill-opacity:1;fill-rule:nonzero;stroke:none"
               id="path3460" />
          </g>
          <g
             id="g3462"
             transform="translate(92.9724,169.6664)">
            <path
               d="m 0,0 h 12.171 v 12.171 c 0,22.277 -18.122,40.399 -40.4,40.399 h -12.17 V 40.399 C -40.399,18.122 -22.277,0 0,0"
               style="fill:#ffffff;fill-opacity:1;fill-rule:nonzero;stroke:none"
               id="path3464" />
          </g>
          <g
             id="g3466"
             transform="translate(169.8879,285.2152)">
            <path
               d="m 0,0 h -12.197 -40.348 -0.029 -12.168 -0.028 -2.413 c -3.833,0.011 -6.832,3.065 -6.832,6.791 v 3.619 h 9.273 12.197 c 22.277,0 40.377,18.155 40.377,40.433 v 12.14 h -12.142 -40.432 -12.14 c -22.277,0 -40.433,-18.1 -40.433,-40.377 V 10.41 h 0.028 V 0 h -0.028 v -12.196 c 0,-22.277 18.156,-40.376 40.433,-40.376 h 12.14 40.405 0.027 12.113 0.029 2.386 c 3.889,-0.012 6.886,-3.121 6.886,-6.79 v -3.62 h -9.301 -12.14 c -22.277,0 -40.433,-18.101 -40.433,-40.377 v -12.197 H -52.574 -12.197 0 c 22.277,0 40.376,18.156 40.376,40.433 v 12.141 10.41 0.004 12.135 C 40.376,-18.155 22.277,0 0,0"
               style="fill:#ffffff;fill-opacity:1;fill-rule:nonzero;stroke:none"
               id="path3468" />
          </g>
          <g
             id="g3470"
             transform="translate(588.2097,222.9535)">
            <path
               d="m 0,0 c -4.338,-7.129 -9.955,-10.592 -17.171,-10.592 -7.383,0 -13.081,3.463 -17.413,10.592 -4.558,7.505 -6.874,19.781 -6.874,36.488 0,16.701 2.316,28.978 6.874,36.489 4.338,7.128 10.03,10.591 17.413,10.591 7.216,0 12.827,-3.463 17.165,-10.591 C 4.557,65.466 6.873,53.189 6.873,36.488 6.873,19.781 4.557,7.505 0,0 m 52.031,86.203 c -6.747,14.089 -16.256,24.965 -28.254,32.336 -11.993,7.36 -25.769,11.096 -40.948,11.096 -15.346,0 -29.203,-3.736 -41.19,-11.096 -11.999,-7.365 -21.502,-18.247 -28.248,-32.336 -6.683,-13.95 -10.077,-30.675 -10.077,-49.715 0,-19.041 3.394,-35.764 10.077,-49.715 6.746,-14.089 16.249,-24.97 28.248,-32.336 11.975,-7.361 25.833,-11.095 41.19,-11.095 15.19,0 28.967,3.734 40.948,11.095 11.998,7.372 21.507,18.247 28.254,32.336 6.689,13.974 10.076,30.698 10.076,49.715 0,19.018 -3.387,35.741 -10.076,49.715"
               style="fill:#ffffff;fill-opacity:1;fill-rule:nonzero;stroke:none"
               id="path3472" />
          </g>
          <g
             id="g3474"
             transform="translate(452.8112,239.643)">
            <path
               d="m 0,0 c 12.027,11.037 19.909,20.621 24.079,29.278 4.255,8.635 6.416,18.034 6.416,27.936 0,11.147 -3.058,21.101 -9.092,29.602 -6.104,8.485 -14.547,15.023 -25.086,19.435 -10.406,4.447 -22.59,6.7 -36.211,6.7 -17.141,0 -32.191,-3.37 -44.729,-10.007 -12.641,-6.688 -22.602,-15.97 -29.62,-27.593 l -1.587,-2.629 41.544,-23.204 1.5,2.379 c 3.162,5.016 7.239,8.878 12.126,11.478 4.963,2.676 10.302,3.979 16.319,3.979 6.555,0 11.507,-1.35 14.715,-4.001 3.109,-2.578 4.621,-6.116 4.621,-10.824 0,-3.834 -0.973,-7.69 -2.872,-11.443 -1.987,-3.816 -6.046,-8.687 -12.028,-14.442 l -64.934,-60.661 -0.938,-0.99 v -0.063 c -5.762,-6.029 -8.918,-13.858 -8.918,-22.185 V -69.966 L 2.982,-69.983 c 0.822,0 1.645,0.017 2.143,0.121 16.851,1.049 30.055,15.137 30.055,32.076 v 12.752 h -62.276 z"
               style="fill:#ffffff;fill-opacity:1;fill-rule:nonzero;stroke:none"
               id="path3476" />
          </g>
          <g
             id="g3478"
             transform="translate(796.0212,214.6088)">
            <path
               d="m 0,0 h -62.275 l 27.095,25.034 c 12.028,11.037 19.909,20.621 24.079,29.279 4.256,8.634 6.416,18.033 6.416,27.935 0,11.148 -3.057,21.102 -9.097,29.603 -6.098,8.484 -14.541,15.022 -25.08,19.434 -10.407,4.447 -22.591,6.7 -36.211,6.7 -17.141,0 -32.192,-3.37 -44.735,-10.006 -12.635,-6.689 -22.602,-15.971 -29.615,-27.594 l -1.587,-2.629 41.544,-23.204 1.5,2.38 c 3.156,5.015 7.234,8.878 12.121,11.477 4.968,2.676 10.308,3.979 16.324,3.979 6.556,0 11.507,-1.35 14.709,-4.001 3.11,-2.577 4.622,-6.116 4.622,-10.824 0,-3.845 -0.967,-7.702 -2.867,-11.437 -1.998,-3.834 -6.051,-8.704 -12.028,-14.448 l -64.934,-60.66 -0.937,-0.991 v -0.063 c -5.762,-6.023 -8.918,-13.852 -8.918,-22.185 v -12.711 l 117.671,-0.017 c 0.828,0 1.656,0.017 2.142,0.121 C -13.203,-43.779 0,-29.69 0,-12.752 Z"
               style="fill:#ffffff;fill-opacity:1;fill-rule:nonzero;stroke:none"
               id="path3480" />
          </g>
          <g
             id="g3482"
             transform="translate(935.2028,261.0229)">
            <path
               d="M 0,0 C -7.1,8.194 -17.071,14.065 -29.701,17.488 L 3.567,53.224 V 88.073 H -127.718 V 75.681 c 0,-17.297 14.072,-31.369 31.364,-31.369 L -63.161,44.266 -90.303,14.94 v -35.086 h 23.54 c 23.546,0 23.546,-10.442 23.546,-13.875 0,-4.813 -1.934,-8.276 -6.104,-10.905 -4.378,-2.797 -10.585,-4.216 -18.45,-4.216 -7.899,0 -16.081,1.199 -24.316,3.562 -0.87,0.253 -1.686,0.562 -2.535,0.839 l -0.011,-0.052 c -7.741,2.945 -25.875,4.701 -34.779,-14.244 l -8.058,-16.708 2.247,-1.407 c 8.883,-5.56 19.625,-9.955 31.937,-13.059 12.155,-3.012 24.599,-4.534 36.998,-4.534 16.944,0 31.497,2.808 43.258,8.356 11.79,5.618 20.702,13.105 26.487,22.254 5.82,9.156 8.768,19.284 8.768,30.114 C 12.225,-20.824 8.113,-9.376 0,0"
               style="fill:#ffffff;fill-opacity:1;fill-rule:nonzero;stroke:none"
               id="path3484" />
          </g>
        </g>
      </g>
    </g>
  </g>
</svg>
